<svg xmlns="http://www.w3.org/2000/svg" width="232.318" height="531.498" viewBox="0 0 232.318 531.498">
  <g id="Grupo_1053235" data-name="Grupo 1053235" transform="translate(-1187.682 -1569.314)" opacity="0.25">
    <path id="Trazado_782045" data-name="Trazado 782045" d="M65.634,119.775c-.037.006-.073.009-.116.012a61.161,61.161,0,0,1-19.685-1.446,3.158,3.158,0,0,1-2.394-3.316l.606-8.277a48.984,48.984,0,0,1-12.035-6.036l-6.258,5.4a3.155,3.155,0,0,1-4.093.052A59.824,59.824,0,0,1,8.748,91.228a3.194,3.194,0,0,1,.646-4.047l6.282-5.421a49.112,49.112,0,0,1-4.233-12.772l-8.256-.606a3.159,3.159,0,0,1-2.93-2.847,59.417,59.417,0,0,1,1.45-19.721,3.136,3.136,0,0,1,3.316-2.387l8.25.606A49.61,49.61,0,0,1,19.334,32l-5.418-6.258a3.194,3.194,0,0,1-.049-4.1A59.685,59.685,0,0,1,28.823,8.75a3.165,3.165,0,0,1,4.041.652l5.4,6.258a48.316,48.316,0,0,1,12.793-4.215l.606-8.271A3.107,3.107,0,0,1,54.516.244,61.2,61.2,0,0,1,74.206,1.691,3.156,3.156,0,0,1,76.6,5.007l-.612,8.271A48.261,48.261,0,0,1,88.029,19.32l6.258-5.4a3.188,3.188,0,0,1,4.09-.052A59.694,59.694,0,0,1,111.289,28.8a3.2,3.2,0,0,1-.646,4.047l-6.279,5.4A49.7,49.7,0,0,1,108.6,51.04l8.253.609a3.149,3.149,0,0,1,2.93,2.853,60.587,60.587,0,0,1,.079,9.9,62.44,62.44,0,0,1-1.532,9.794A3.152,3.152,0,0,1,115.01,76.6L106.761,76A49.189,49.189,0,0,1,100.7,88.012l5.4,6.258a3.159,3.159,0,0,1,.055,4.09,59.523,59.523,0,0,1-14.943,12.921,3.165,3.165,0,0,1-4.041-.652l-5.4-6.258a49.007,49.007,0,0,1-12.8,4.209l-.606,8.277a3.152,3.152,0,0,1-2.741,2.917M31.725,97.319a1.5,1.5,0,0,1,1.075.274,46.1,46.1,0,0,0,13.284,6.66,1.508,1.508,0,0,1,1.048,1.544l-.694,9.446a45.1,45.1,0,0,0,9.4,1.626,56.974,56.974,0,0,0,9.407-.073l.828-9.6a1.5,1.5,0,0,1,1.261-1.376,46.043,46.043,0,0,0,14.118-4.647,1.5,1.5,0,0,1,1.83.353l6.17,7.147a52.983,52.983,0,0,0,14.4-12.224l-6.182-7.36a1.494,1.494,0,0,1-.079-1.861,46.284,46.284,0,0,0,6.684-13.262,1.509,1.509,0,0,1,1.541-1.045l9.419.694a.2.2,0,0,0,.174-.113,58.588,58.588,0,0,0,1.456-9.319,56.259,56.259,0,0,0-.073-9.4l-9.58-.828a1.5,1.5,0,0,1-1.373-1.258,46.647,46.647,0,0,0-4.671-14.121,1.5,1.5,0,0,1,.353-1.83l7.169-6.167a53.354,53.354,0,0,0-12.221-14.4L89.1,22.359a1.5,1.5,0,0,1-1.864.079,45.333,45.333,0,0,0-13.274-6.66,1.5,1.5,0,0,1-1.057-1.544l.694-9.45a45.22,45.22,0,0,0-9.4-1.623,57.313,57.313,0,0,0-9.407.07l-.825,9.608a1.5,1.5,0,0,1-1.27,1.376,45.351,45.351,0,0,0-14.112,4.647,1.509,1.509,0,0,1-1.83-.353l-6.167-7.147a53.229,53.229,0,0,0-14.413,12.2l6.2,7.357a1.506,1.506,0,0,1,.082,1.861,46.635,46.635,0,0,0-6.69,13.287,1.5,1.5,0,0,1-1.544,1.045L4.8,46.42a45.322,45.322,0,0,0-1.647,9.4,57.046,57.046,0,0,0,.094,9.431l9.584.825a1.5,1.5,0,0,1,1.373,1.261,46.268,46.268,0,0,0,4.671,14.094,1.5,1.5,0,0,1-.347,1.83l-7.172,6.191a53.357,53.357,0,0,0,12.218,14.4l7.357-6.182a1.5,1.5,0,0,1,.792-.353m32.368-8.676a29.063,29.063,0,0,1-25.961-9.748c-7.494-8.685-9.1-20.818-4.184-31.668A27.439,27.439,0,0,1,51.19,32.348c11.453-3.28,23.223.079,30.718,8.764s9.1,20.818,4.181,31.668A27.447,27.447,0,0,1,68.847,87.659a32.167,32.167,0,0,1-4.754.984m-7.775-54.3a28.774,28.774,0,0,0-4.3.889A24.4,24.4,0,0,0,36.686,48.469c-4.428,9.766-3,20.674,3.718,28.464s17.309,10.8,27.618,7.839A24.4,24.4,0,0,0,83.351,71.54c4.431-9.769,3.006-20.677-3.718-28.467a26.1,26.1,0,0,0-23.315-8.728" transform="translate(1187.682 1980.781)" fill="#afafaf"/>
    <path id="Trazado_782046" data-name="Trazado 782046" d="M41.328,26.014A22.314,22.314,0,0,0,27.31,38.107a23.869,23.869,0,0,0,3.4,25.717,23.61,23.61,0,0,0,17.94,8.119,24.381,24.381,0,0,0,3.146-.2,25.646,25.646,0,0,0,3.855-.8A22.305,22.305,0,0,0,69.67,58.852,23.643,23.643,0,0,0,41.328,26.014m25.7,31.64a19.369,19.369,0,0,1-12.169,10.5,20.743,20.743,0,0,1-24.9-28.851A19.357,19.357,0,0,1,42.126,28.8a23.24,23.24,0,0,1,3.423-.707,21.909,21.909,0,0,1,2.777-.177,20.715,20.715,0,0,1,15.747,7.111,20.979,20.979,0,0,1,2.954,22.626M96.773,44.033a2.774,2.774,0,0,0-2.579-2.512l-6.447-.475a40.4,40.4,0,0,0-3.307-9.992l4.906-4.221a2.816,2.816,0,0,0,.569-3.563A48.306,48.306,0,0,0,79.482,11.2a2.811,2.811,0,0,0-3.6.046l-4.888,4.218a39.413,39.413,0,0,0-9.407-4.72l.478-6.459a2.781,2.781,0,0,0-2.11-2.92A49.419,49.419,0,0,0,44.053.2a2.755,2.755,0,0,0-2.521,2.579l-.475,6.465a39.236,39.236,0,0,0-9.995,3.289L26.844,7.642a2.785,2.785,0,0,0-3.557-.573A48.359,48.359,0,0,0,11.2,17.481a2.816,2.816,0,0,0,.043,3.612l4.233,4.891a40.116,40.116,0,0,0-4.735,9.4L4.3,34.91a2.779,2.779,0,0,0-2.92,2.1A48.007,48.007,0,0,0,.21,52.95,2.778,2.778,0,0,0,2.79,55.456l6.447.475a39.919,39.919,0,0,0,3.307,9.976L7.638,70.144a2.812,2.812,0,0,0-.569,3.563A48.385,48.385,0,0,0,17.5,85.775a2.781,2.781,0,0,0,3.606-.046l4.888-4.221a39.777,39.777,0,0,0,9.4,4.717l-.475,6.465a2.778,2.778,0,0,0,2.11,2.92,48.718,48.718,0,0,0,7.906,1.23q1.832.137,3.657.137c1.468,0,2.93-.067,4.376-.2l.07-.009A2.8,2.8,0,0,0,55.452,94.2l.475-6.465a39.87,39.87,0,0,0,9.992-3.289l4.221,4.888a2.776,2.776,0,0,0,3.557.573A48.028,48.028,0,0,0,85.771,79.468a2.78,2.78,0,0,0-.046-3.6L81.5,70.978a39.94,39.94,0,0,0,4.732-9.386l6.447.475A2.789,2.789,0,0,0,95.6,59.945a50.239,50.239,0,0,0,1.236-7.912,48.639,48.639,0,0,0-.064-8M93.941,51.82A47.181,47.181,0,0,1,92.8,59.168l-7.482-.551a1.438,1.438,0,0,0-1.489,1.011A37.038,37.038,0,0,1,78.5,70.217a1.443,1.443,0,0,0,.07,1.8L83.4,77.775a42.494,42.494,0,0,1-11.2,9.513l-4.827-5.594a1.445,1.445,0,0,0-1.769-.338,36.819,36.819,0,0,1-11.277,3.712,1.448,1.448,0,0,0-1.218,1.322l-.646,7.522a46.58,46.58,0,0,1-7.321.04,36.067,36.067,0,0,1-7.318-1.246l.545-7.4A1.447,1.447,0,0,0,37.36,83.82,36.861,36.861,0,0,1,26.753,78.5a1.456,1.456,0,0,0-1.8.073l-5.759,4.839a42.746,42.746,0,0,1-9.51-11.2L15.3,67.363a1.441,1.441,0,0,0,.335-1.769A36.941,36.941,0,0,1,11.9,54.339a1.439,1.439,0,0,0-1.325-1.215l-7.5-.649a45.422,45.422,0,0,1-.055-7.339,35.865,35.865,0,0,1,1.258-7.318l7.379.539a.718.718,0,0,0,.116.006,1.441,1.441,0,0,0,1.373-1.014,37.225,37.225,0,0,1,5.344-10.61,1.451,1.451,0,0,0-.076-1.8l-4.857-5.759a42.8,42.8,0,0,1,11.219-9.5l4.827,5.594a1.453,1.453,0,0,0,1.769.338,36.265,36.265,0,0,1,11.268-3.709,1.448,1.448,0,0,0,1.227-1.325l.646-7.522a45.847,45.847,0,0,1,7.321-.037,36.291,36.291,0,0,1,7.318,1.239l-.545,7.4a1.449,1.449,0,0,0,1.017,1.489,36.233,36.233,0,0,1,10.6,5.317,1.448,1.448,0,0,0,1.8-.073l5.762-4.839a42.676,42.676,0,0,1,9.507,11.2L81.69,29.593a1.444,1.444,0,0,0-.341,1.766,37.221,37.221,0,0,1,3.73,11.28A1.444,1.444,0,0,0,86.4,43.854l7.5.649a45.09,45.09,0,0,1,.04,7.318" transform="translate(1323.029 1926.767)" fill="#afafaf"/>
    <path id="Trazado_782047" data-name="Trazado 782047" d="M41.328,26.014A22.314,22.314,0,0,0,27.31,38.107a23.869,23.869,0,0,0,3.4,25.717,23.61,23.61,0,0,0,17.94,8.119,24.381,24.381,0,0,0,3.146-.2,25.646,25.646,0,0,0,3.855-.8A22.305,22.305,0,0,0,69.67,58.852,23.643,23.643,0,0,0,41.328,26.014m25.7,31.64a19.369,19.369,0,0,1-12.169,10.5,20.743,20.743,0,0,1-24.9-28.851A19.357,19.357,0,0,1,42.126,28.8a23.24,23.24,0,0,1,3.423-.707,21.909,21.909,0,0,1,2.777-.177,20.715,20.715,0,0,1,15.747,7.111,20.979,20.979,0,0,1,2.954,22.626M96.773,44.033a2.774,2.774,0,0,0-2.579-2.512l-6.447-.475a40.4,40.4,0,0,0-3.307-9.992l4.906-4.221a2.816,2.816,0,0,0,.569-3.563A48.306,48.306,0,0,0,79.482,11.2a2.811,2.811,0,0,0-3.6.046l-4.888,4.218a39.413,39.413,0,0,0-9.407-4.72l.478-6.459a2.781,2.781,0,0,0-2.11-2.92A49.419,49.419,0,0,0,44.053.2a2.755,2.755,0,0,0-2.521,2.579l-.475,6.465a39.236,39.236,0,0,0-9.995,3.289L26.844,7.642a2.785,2.785,0,0,0-3.557-.573A48.359,48.359,0,0,0,11.2,17.481a2.816,2.816,0,0,0,.043,3.612l4.233,4.891a40.116,40.116,0,0,0-4.735,9.4L4.3,34.91a2.779,2.779,0,0,0-2.92,2.1A48.007,48.007,0,0,0,.21,52.95,2.778,2.778,0,0,0,2.79,55.456l6.447.475a39.919,39.919,0,0,0,3.307,9.976L7.638,70.144a2.812,2.812,0,0,0-.569,3.563A48.385,48.385,0,0,0,17.5,85.775a2.781,2.781,0,0,0,3.606-.046l4.888-4.221a39.777,39.777,0,0,0,9.4,4.717l-.475,6.465a2.778,2.778,0,0,0,2.11,2.92,48.718,48.718,0,0,0,7.906,1.23q1.832.137,3.657.137c1.468,0,2.93-.067,4.376-.2l.07-.009A2.8,2.8,0,0,0,55.452,94.2l.475-6.465a39.87,39.87,0,0,0,9.992-3.289l4.221,4.888a2.776,2.776,0,0,0,3.557.573A48.028,48.028,0,0,0,85.771,79.468a2.78,2.78,0,0,0-.046-3.6L81.5,70.978a39.94,39.94,0,0,0,4.732-9.386l6.447.475A2.789,2.789,0,0,0,95.6,59.945a50.239,50.239,0,0,0,1.236-7.912,48.639,48.639,0,0,0-.064-8M93.941,51.82A47.181,47.181,0,0,1,92.8,59.168l-7.482-.551a1.438,1.438,0,0,0-1.489,1.011A37.038,37.038,0,0,1,78.5,70.217a1.443,1.443,0,0,0,.07,1.8L83.4,77.775a42.494,42.494,0,0,1-11.2,9.513l-4.827-5.594a1.445,1.445,0,0,0-1.769-.338,36.819,36.819,0,0,1-11.277,3.712,1.448,1.448,0,0,0-1.218,1.322l-.646,7.522a46.58,46.58,0,0,1-7.321.04,36.067,36.067,0,0,1-7.318-1.246l.545-7.4A1.447,1.447,0,0,0,37.36,83.82,36.861,36.861,0,0,1,26.753,78.5a1.456,1.456,0,0,0-1.8.073l-5.759,4.839a42.746,42.746,0,0,1-9.51-11.2L15.3,67.363a1.441,1.441,0,0,0,.335-1.769A36.941,36.941,0,0,1,11.9,54.339a1.439,1.439,0,0,0-1.325-1.215l-7.5-.649a45.422,45.422,0,0,1-.055-7.339,35.865,35.865,0,0,1,1.258-7.318l7.379.539a.718.718,0,0,0,.116.006,1.441,1.441,0,0,0,1.373-1.014,37.225,37.225,0,0,1,5.344-10.61,1.451,1.451,0,0,0-.076-1.8l-4.857-5.759a42.8,42.8,0,0,1,11.219-9.5l4.827,5.594a1.453,1.453,0,0,0,1.769.338,36.265,36.265,0,0,1,11.268-3.709,1.448,1.448,0,0,0,1.227-1.325l.646-7.522a45.847,45.847,0,0,1,7.321-.037,36.291,36.291,0,0,1,7.318,1.239l-.545,7.4a1.449,1.449,0,0,0,1.017,1.489,36.233,36.233,0,0,1,10.6,5.317,1.448,1.448,0,0,0,1.8-.073l5.762-4.839a42.676,42.676,0,0,1,9.507,11.2L81.69,29.593a1.444,1.444,0,0,0-.341,1.766,37.221,37.221,0,0,1,3.73,11.28A1.444,1.444,0,0,0,86.4,43.854l7.5.649a45.09,45.09,0,0,1,.04,7.318" transform="translate(1218.217 1569.314)" fill="#afafaf"/>
  </g>
</svg>
