<svg id="Grupo_1053611" data-name="Grupo 1053611" xmlns="http://www.w3.org/2000/svg" xmlns:xlink="http://www.w3.org/1999/xlink" width="610" height="419.407" viewBox="0 0 610 419.407">
  <defs>
    <clipPath id="clip-path">
      <rect id="Rect치ngulo_401939" data-name="Rect치ngulo 401939" width="610" height="419.407" fill="none"/>
    </clipPath>
  </defs>
  <g id="Grupo_1053610" data-name="Grupo 1053610" clip-path="url(#clip-path)">
    <path id="Trazado_870435" data-name="Trazado 870435" d="M154.35,40.521c-54.552,19.854-88.9,63.061-76.731,96.507s66.262,44.464,120.812,24.609,88.9-63.061,76.731-96.506S208.9,20.667,154.35,40.521Z" fill="none" stroke="#57b6b6" stroke-miterlimit="3.864" stroke-width="2.626"/>
    <path id="Trazado_870436" data-name="Trazado 870436" d="M366.372,154.016c-54.553-19.854-88.906-63.061-76.733-96.508S355.9,13.045,410.454,32.9s88.9,63.061,76.732,96.506S420.922,173.87,366.372,154.016Z" fill="none" stroke="#57b6b6" stroke-miterlimit="3.864" stroke-width="2.626"/>
    <ellipse id="Elipse_8742" data-name="Elipse 8742" cx="222.694" cy="116.433" rx="222.694" ry="116.433" transform="translate(72.257 54.481)" fill="none" stroke="#57b6b6" stroke-miterlimit="3.864" stroke-width="2.626"/>
    <path id="Trazado_870437" data-name="Trazado 870437" d="M247.943,50.845l.31-.166,60.962.014V67.164l-61.438-.016V50.938Z" fill="#a3a3a3"/>
    <path id="Trazado_870438" data-name="Trazado 870438" d="M309.215,51.031l9.7-9.84V55.33l-9.7,11.836Z" fill="#8c8b8b"/>
    <path id="Trazado_870439" data-name="Trazado 870439" d="M266.219,41.19h52.7l-9.471,9.75H247.76Z" fill="#d2d1d1"/>
    <path id="Trazado_870440" data-name="Trazado 870440" d="M428.431,224.375c-.009,58.052,28.833,105.113,64.42,105.114S557.295,282.434,557.3,224.38s-28.833-105.111-64.42-105.112S428.44,166.323,428.431,224.375Z" fill="none" stroke="#57b6b6" stroke-miterlimit="3.864" stroke-width="2.626"/>
    <path id="Trazado_870441" data-name="Trazado 870441" d="M19.625,273.2c-19.86-54.546-8.851-108.63,24.591-120.8s76.65,22.178,96.511,76.726,8.852,108.632-24.59,120.8S39.486,327.744,19.625,273.2Z" fill="none" stroke="#57b6b6" stroke-miterlimit="3.864" stroke-width="2.626"/>
    <path id="Trazado_870442" data-name="Trazado 870442" d="M460.917,113.491l.312-.166,60.96.015v16.47l-61.438-.014V113.584Z" fill="#a3a3a3"/>
    <path id="Trazado_870443" data-name="Trazado 870443" d="M522.187,113.677l9.7-9.84v14.139l-9.7,11.836Z" fill="#8c8b8b"/>
    <path id="Trazado_870444" data-name="Trazado 870444" d="M479.194,103.836h52.7l-9.469,9.75H460.734Z" fill="#d2d1d1"/>
    <path id="Trazado_870445" data-name="Trazado 870445" d="M43.545,145.6l.31-.166,60.96.014V161.92L43.379,161.9V145.692Z" fill="#a3a3a3"/>
    <path id="Trazado_870446" data-name="Trazado 870446" d="M104.815,145.786l9.7-9.84v14.139l-9.7,11.836Z" fill="#8c8b8b"/>
    <path id="Trazado_870447" data-name="Trazado 870447" d="M61.82,135.947h52.7l-9.469,9.75H43.363Z" fill="#d2d1d1"/>
    <path id="Trazado_870448" data-name="Trazado 870448" d="M302.431,390.14c-97.231.014-176.05-21.66-176.05-48.409s78.817-48.448,176.048-48.463,176.048,21.657,176.05,48.41S399.661,390.126,302.431,390.14Z" fill="none" stroke="#57b6b6" stroke-miterlimit="3.864" stroke-width="2.626"/>
    <path id="Trazado_870449" data-name="Trazado 870449" d="M86.519,346.19l.31-.168,60.962.016v16.469l-61.438-.014V346.281Z" fill="#a3a3a3"/>
    <path id="Trazado_870450" data-name="Trazado 870450" d="M147.791,346.374l9.7-9.839v14.138l-9.7,11.836Z" fill="#8c8b8b"/>
    <path id="Trazado_870451" data-name="Trazado 870451" d="M104.8,336.535h52.7l-9.469,9.749H86.339Z" fill="#d2d1d1"/>
    <path id="Trazado_870452" data-name="Trazado 870452" d="M454.918,321.985l.31-.166,60.962.015V338.3l-61.438-.014V322.076Z" fill="#a3a3a3"/>
    <path id="Trazado_870453" data-name="Trazado 870453" d="M516.188,322.17l9.7-9.84v14.137l-9.7,11.838Z" fill="#8c8b8b"/>
    <path id="Trazado_870454" data-name="Trazado 870454" d="M473.195,312.33h52.7l-9.469,9.749H454.738Z" fill="#d2d1d1"/>
    <path id="Trazado_870455" data-name="Trazado 870455" d="M495.356,350.237v.878h-3.572v3.661h3.348v.893h-3.348v4.39H490.3v-9.822Z" fill="#161615"/>
    <path id="Trazado_870456" data-name="Trazado 870456" d="M497.573,348.987l.982.983-.982.981-.983-.981Zm.7,11.072h-1.385v-7.352h1.385Z" fill="#161615"/>
    <path id="Trazado_870457" data-name="Trazado 870457" d="M502.127,349.269v4.644a2.283,2.283,0,0,1,2.1-1.355c1.472,0,2.5,1.266,2.5,3.631,0,2.858-1.4,4.019-2.693,4.019a2.231,2.231,0,0,1-2.069-1.548l-.4,1.4h-.819v-10.79Zm0,7.218c0,.6.089,2.813,1.532,2.813,1.459,0,1.548-2.247,1.548-2.991,0-1.9-.625-2.8-1.488-2.8-1.354,0-1.592,1.846-1.592,2.961Z" fill="#161615"/>
    <path id="Trazado_870458" data-name="Trazado 870458" d="M509.508,356.041c-.1,2.351.864,3.349,1.979,3.349a3.31,3.31,0,0,0,1.682-.655l.418.7a4.525,4.525,0,0,1-2.337.774c-1.906,0-3.259-1.607-3.259-3.824,0-2.292,1.428-3.825,3.169-3.825,2.934,0,2.71,3.154,2.71,3.482Zm2.992-.714c.03-1.414-.6-2.039-1.34-2.039-.445,0-1.414.327-1.607,2.039Z" fill="#161615"/>
    <path id="Trazado_870459" data-name="Trazado 870459" d="M516.817,352.707l.015,1.816c.462-1.518,1.355-1.949,1.845-1.949a2.124,2.124,0,0,1,.7.133l-.269,1.221a2.115,2.115,0,0,0-.579-.09,1.5,1.5,0,0,0-1.326,1.1,7.482,7.482,0,0,0-.266,2.307v2.813h-1.385v-7.352Z" fill="#161615"/>
    <rect id="Rect치ngulo_401938" data-name="Rect치ngulo 401938" width="3.095" height="1.101" transform="translate(520.045 355.639)" fill="#161615"/>
    <path id="Trazado_870460" data-name="Trazado 870460" d="M491.249,372.666c0-3.408,1.9-5.044,4-5.044,1.711,0,3.809,1.1,3.809,4.911,0,3.392-1.74,5.193-3.972,5.193-2.084,0-3.84-1.637-3.84-5.044Zm1.667.06c0,3.11,1.13,4.167,2.231,4.167.924,0,2.249-.73,2.249-4.211,0-1.221-.1-4.227-2.189-4.227-1.383,0-2.291,1.354-2.291,4.256Z" fill="#161615"/>
    <path id="Trazado_870461" data-name="Trazado 870461" d="M502.187,370.226l.031,1.384a2.428,2.428,0,0,1,2.187-1.532c1.5,0,2.515,1.354,2.515,3.674s-.982,3.974-2.664,3.974a2.082,2.082,0,0,1-1.934-1.339v3.9h-1.385v-10.06Zm.135,3.617c0,.906.133,2.975,1.577,2.975,1.474,0,1.518-2.291,1.518-2.99,0-.715-.06-2.842-1.474-2.842-1.294,0-1.621,1.681-1.621,2.842Z" fill="#161615"/>
    <path id="Trazado_870462" data-name="Trazado 870462" d="M510.3,368.277v1.949h1.43v.789h-1.4v4.673c0,.61,0,1.161.684,1.161a1.564,1.564,0,0,0,.626-.135l.206.759a4.125,4.125,0,0,1-1.352.193,1.383,1.383,0,0,1-1.37-.655,2.7,2.7,0,0,1-.193-1.234v-4.762h-1.057v-.789h1.131l.03-1.949Z" fill="#161615"/>
    <path id="Trazado_870463" data-name="Trazado 870463" d="M514.095,366.506l.981.981-.981.983-.983-.983Zm.7,11.071h-1.385v-7.351h1.385Z" fill="#161615"/>
    <path id="Trazado_870464" data-name="Trazado 870464" d="M521.566,371.237a2.879,2.879,0,0,0-1.325-.327c-1.279,0-2.054,1.206-2.054,2.977,0,1.83.775,3.006,1.89,3.006a3.072,3.072,0,0,0,1.458-.446l.373.713a4.1,4.1,0,0,1-2.054.566c-1.935,0-3.185-1.578-3.185-3.78,0-2.47,1.547-3.868,3.438-3.868a4.1,4.1,0,0,1,1.786.415Z" fill="#161615"/>
    <path id="Trazado_870465" data-name="Trazado 870465" d="M494,385.272a4.644,4.644,0,0,1,2.455.417,2.168,2.168,0,0,1,1.1,1.963,2.7,2.7,0,0,1-2.4,2.739l3.246,4.7h-1.743l-2.842-4.494h-.61v4.494h-1.472v-9.822Zm-.79.848v3.734h.6c.79,0,2.218,0,2.218-2.007,0-1.742-1.161-1.727-2.114-1.727Z" fill="#161615"/>
    <path id="Trazado_870466" data-name="Trazado 870466" d="M500.253,384.022l.981.982-.981.983L499.27,385Zm.7,11.072h-1.385v-7.351h1.385Z" fill="#161615"/>
    <path id="Trazado_870467" data-name="Trazado 870467" d="M504.671,387.743l.031,1.354a2.358,2.358,0,0,1,2.218-1.5,2.026,2.026,0,0,1,1.889,1.071,4.1,4.1,0,0,1,.238,1.711v4.718h-1.4v-4.569c0-.371.164-2.023-1.205-2.023-1.668,0-1.637,2.456-1.637,3.109v3.483h-1.385v-7.351Z" fill="#161615"/>
    <path id="Trazado_870468" data-name="Trazado 870468" d="M515.432,388.532a1.763,1.763,0,0,1,.686,1.562,2.486,2.486,0,0,1-2.68,2.47,3.044,3.044,0,0,1-.625-.074c-.252.327-.327.462-.327.6,0,.3.342.342.864.357.728.016,3.512-.119,3.512,2.143,0,.908-.879,2.367-3.259,2.367-1.816,0-2.947-.908-2.947-1.816,0-.967,1.16-1.444,1.637-1.637-.447-.164-.848-.342-.848-.788,0-.18,0-.446.817-1.354a2.24,2.24,0,0,1-1.488-2.218,2.483,2.483,0,0,1,2.62-2.545,3.9,3.9,0,0,1,1.146.194l2.158-.045v.789Zm-3.556,7.41c0,.655.654,1.266,1.845,1.266,1.161,0,1.891-.6,1.891-1.339,0-.953-1.1-1.25-1.905-1.25s-1.831.311-1.831,1.308Zm.268-5.863c0,1.146.566,1.756,1.31,1.756.655,0,1.31-.491,1.31-1.8,0-1.086-.477-1.712-1.281-1.712-.922,0-1.339.833-1.339,1.741Z" fill="#161615"/>
    <path id="Trazado_870469" data-name="Trazado 870469" d="M521.326,388.68a3.419,3.419,0,0,0-1.37-.313c-.8,0-1.19.417-1.19.908,0,.386.209.684.953,1.161l.655.431c.788.506,1.621,1.1,1.621,2.2a2.3,2.3,0,0,1-2.545,2.174,3.968,3.968,0,0,1-1.994-.551l.358-.715a3.274,3.274,0,0,0,1.621.462,1.139,1.139,0,0,0,1.281-1.086c0-.73-.744-1.1-1.37-1.518l-.6-.417c-.924-.64-1.279-1.191-1.279-1.874a2.2,2.2,0,0,1,2.455-1.95,4.332,4.332,0,0,1,1.681.356Z" fill="#161615"/>
    <path id="Trazado_870470" data-name="Trazado 870470" d="M557.567,71.206a3.974,3.974,0,0,0-1.577-.357c-1.042,0-1.638.58-1.638,1.339,0,.506.252,1.012,1.25,1.771l.685.536c1.28.982,2.1,1.652,2.1,2.962a2.708,2.708,0,0,1-2.961,2.618,4.521,4.521,0,0,1-2.351-.654l.386-.8a4.12,4.12,0,0,0,1.95.58,1.441,1.441,0,0,0,1.607-1.414c0-.714-.461-1.16-1.4-1.9l-.7-.55c-.937-.729-1.9-1.548-1.9-2.872a2.663,2.663,0,0,1,2.932-2.485,4.757,4.757,0,0,1,1.919.4Z" fill="#161615"/>
    <path id="Trazado_870471" data-name="Trazado 870471" d="M559.263,75.016c0-3.408,1.905-5.045,4-5.045,1.711,0,3.81,1.1,3.81,4.911,0,3.393-1.741,5.194-3.973,5.194-2.084,0-3.84-1.637-3.84-5.045Zm1.667.06c0,3.109,1.13,4.166,2.231,4.166.924,0,2.249-.729,2.249-4.211,0-1.22-.1-4.226-2.189-4.226-1.383,0-2.291,1.354-2.291,4.256Z" fill="#161615"/>
    <path id="Trazado_870472" data-name="Trazado 870472" d="M570.054,70.1l4.718,7.292V70.1h1.043v9.822h-.968l-4.718-7.292v7.292h-1.041V70.1Z" fill="#161615"/>
    <path id="Trazado_870473" data-name="Trazado 870473" d="M583.626,70.1v.878H580.04V74.4h3.348v.864H580.04V79h3.646v.923h-5.133V70.1Z" fill="#161615"/>
    <path id="Trazado_870474" data-name="Trazado 870474" d="M591.083,70.1v.878H588.45v8.944h-1.5V70.983H584.3V70.1Z" fill="#161615"/>
    <path id="Trazado_870475" data-name="Trazado 870475" d="M548.369,88.724a3.97,3.97,0,0,0-1.577-.357c-1.041,0-1.638.58-1.638,1.339,0,.506.253,1.012,1.25,1.771l.686.536c1.279.982,2.1,1.652,2.1,2.962a2.708,2.708,0,0,1-2.962,2.618,4.528,4.528,0,0,1-2.351-.654l.387-.8a4.116,4.116,0,0,0,1.949.58,1.44,1.44,0,0,0,1.607-1.413c0-.715-.461-1.161-1.4-1.9l-.7-.551c-.937-.729-1.9-1.548-1.9-2.872a2.664,2.664,0,0,1,2.933-2.485,4.761,4.761,0,0,1,1.919.4Z" fill="#161615"/>
    <path id="Trazado_870476" data-name="Trazado 870476" d="M551.154,90.092l1.5,5.343,1.561-5.343h.924l1.532,5.343,1.458-5.343h.983l-2.246,7.352h-.939L554.4,92.027l-1.563,5.417H551.9l-2.247-7.352Z" fill="#161615"/>
    <path id="Trazado_870477" data-name="Trazado 870477" d="M561.258,86.372l.982.983-.982.981-.983-.981Zm.7,11.072h-1.385V90.092h1.385Z" fill="#161615"/>
    <path id="Trazado_870478" data-name="Trazado 870478" d="M565.93,88.143v1.949h1.43v.789h-1.4v4.673c0,.61,0,1.161.684,1.161a1.566,1.566,0,0,0,.626-.134l.206.759a4.125,4.125,0,0,1-1.352.193,1.385,1.385,0,0,1-1.37-.654,2.707,2.707,0,0,1-.193-1.235V90.881h-1.057v-.789h1.131l.03-1.949Z" fill="#161615"/>
    <path id="Trazado_870479" data-name="Trazado 870479" d="M573.344,91.105a2.855,2.855,0,0,0-1.325-.327c-1.279,0-2.054,1.205-2.054,2.976,0,1.83.775,3.006,1.89,3.006a3.061,3.061,0,0,0,1.458-.447l.373.715a4.1,4.1,0,0,1-2.054.565c-1.935,0-3.185-1.577-3.185-3.779,0-2.471,1.547-3.87,3.438-3.87a4.088,4.088,0,0,1,1.786.417Z" fill="#161615"/>
    <path id="Trazado_870480" data-name="Trazado 870480" d="M576.454,86.655V91.3a2.316,2.316,0,0,1,2.158-1.354A2.026,2.026,0,0,1,580.472,91a3.731,3.731,0,0,1,.238,1.726v4.718h-1.385V92.831c0-.773,0-1.131-.282-1.517a1.074,1.074,0,0,0-.924-.462,1.559,1.559,0,0,0-1.427,1.176,5.869,5.869,0,0,0-.238,1.92v3.5h-1.385V86.655Z" fill="#161615"/>
    <path id="Trazado_870481" data-name="Trazado 870481" d="M583.776,86.372l.982.983-.982.981-.983-.981Zm.7,11.072h-1.385V90.092h1.385Z" fill="#161615"/>
    <path id="Trazado_870482" data-name="Trazado 870482" d="M588.2,90.092l.031,1.354a2.358,2.358,0,0,1,2.218-1.5,2.026,2.026,0,0,1,1.889,1.071,4.107,4.107,0,0,1,.238,1.712v4.718h-1.4V92.875c0-.372.164-2.024-1.206-2.024-1.667,0-1.636,2.456-1.636,3.111v3.482h-1.385V90.092Z" fill="#161615"/>
    <path id="Trazado_870483" data-name="Trazado 870483" d="M598.955,90.882a1.763,1.763,0,0,1,.686,1.562,2.486,2.486,0,0,1-2.68,2.47,2.976,2.976,0,0,1-.625-.074c-.252.327-.327.462-.327.6,0,.3.342.342.864.357.728.015,3.512-.118,3.512,2.143,0,.908-.879,2.367-3.259,2.367-1.816,0-2.947-.908-2.947-1.816,0-.967,1.16-1.444,1.637-1.637-.447-.164-.848-.343-.848-.789,0-.179,0-.446.817-1.354a2.235,2.235,0,0,1-1.488-2.217,2.483,2.483,0,0,1,2.62-2.545,3.865,3.865,0,0,1,1.146.194l2.158-.046v.79Zm-3.556,7.41c0,.655.654,1.266,1.845,1.266,1.161,0,1.891-.6,1.891-1.34,0-.952-1.1-1.25-1.905-1.25s-1.831.313-1.831,1.31Zm.268-5.863c0,1.146.566,1.756,1.31,1.756.655,0,1.31-.491,1.31-1.8,0-1.087-.477-1.712-1.281-1.712-.922,0-1.339.833-1.339,1.741Z" fill="#161615"/>
    <path id="Trazado_870484" data-name="Trazado 870484" d="M556.5,106.315a3.791,3.791,0,0,0-1.667-.432c-1.577,0-2.722,1.578-2.722,4.182,0,2.9,1.294,4.167,2.633,4.167a3.48,3.48,0,0,0,1.727-.565l.415.788a5.146,5.146,0,0,1-2.424.655c-2.649,0-4.034-2.277-4.034-5.015,0-2.768,1.5-5.09,4.271-5.09a4.708,4.708,0,0,1,2.158.492Z" fill="#161615"/>
    <path id="Trazado_870485" data-name="Trazado 870485" d="M559.055,110.943c-.1,2.352.864,3.349,1.979,3.349a3.31,3.31,0,0,0,1.682-.655l.418.7a4.525,4.525,0,0,1-2.337.774c-1.906,0-3.26-1.607-3.26-3.824,0-2.292,1.429-3.825,3.17-3.825,2.934,0,2.71,3.154,2.71,3.482Zm2.992-.714c.03-1.414-.6-2.039-1.34-2.039-.446,0-1.414.327-1.607,2.039Z" fill="#161615"/>
    <path id="Trazado_870486" data-name="Trazado 870486" d="M566.349,107.61l.031,1.354a2.358,2.358,0,0,1,2.218-1.5,2.025,2.025,0,0,1,1.889,1.072,4.1,4.1,0,0,1,.238,1.711v4.718h-1.4v-4.569c0-.372.164-2.024-1.205-2.024-1.668,0-1.637,2.456-1.637,3.111v3.482H565.1V107.61Z" fill="#161615"/>
    <path id="Trazado_870487" data-name="Trazado 870487" d="M574.594,105.66v1.949h1.43v.789h-1.4v4.673c0,.61,0,1.161.684,1.161a1.583,1.583,0,0,0,.626-.134l.208.759a4.145,4.145,0,0,1-1.354.193,1.385,1.385,0,0,1-1.37-.654,2.707,2.707,0,0,1-.193-1.235V108.4h-1.057v-.789H573.3l.03-1.949Z" fill="#161615"/>
    <path id="Trazado_870488" data-name="Trazado 870488" d="M578.627,110.943c-.1,2.352.864,3.349,1.979,3.349a3.311,3.311,0,0,0,1.682-.655l.418.7a4.526,4.526,0,0,1-2.338.774c-1.9,0-3.259-1.607-3.259-3.824,0-2.292,1.429-3.825,3.17-3.825,2.933,0,2.709,3.154,2.709,3.482Zm2.991-.714c.031-1.414-.595-2.039-1.339-2.039-.446,0-1.414.327-1.607,2.039Z" fill="#161615"/>
    <path id="Trazado_870489" data-name="Trazado 870489" d="M585.934,107.61l.015,1.816c.462-1.518,1.355-1.949,1.845-1.949a2.123,2.123,0,0,1,.7.133l-.269,1.221a2.115,2.115,0,0,0-.579-.09,1.5,1.5,0,0,0-1.326,1.1,7.482,7.482,0,0,0-.266,2.307v2.813h-1.385V107.61Z" fill="#161615"/>
    <path id="Trazado_870490" data-name="Trazado 870490" d="M592.945,108.548a3.419,3.419,0,0,0-1.37-.313c-.8,0-1.19.417-1.19.908,0,.387.209.685.953,1.161l.655.432c.788.5,1.621,1.1,1.621,2.2a2.3,2.3,0,0,1-2.545,2.173,3.968,3.968,0,0,1-1.994-.551l.358-.714a3.3,3.3,0,0,0,1.621.461,1.139,1.139,0,0,0,1.281-1.087c0-.728-.744-1.1-1.37-1.517l-.6-.417c-.924-.64-1.279-1.191-1.279-1.875a2.2,2.2,0,0,1,2.455-1.95,4.349,4.349,0,0,1,1.681.358Z" fill="#161615"/>
    <path id="Trazado_870491" data-name="Trazado 870491" d="M545.445,74.294c-40.206-4.622-40.206,19.154-40.206,19.154" fill="none" stroke="#161615" stroke-miterlimit="3.864" stroke-width="1.751"/>
    <path id="Trazado_870492" data-name="Trazado 870492" d="M505.239,92.72h4.377l-4.377,10.944L500.862,92.72Z" fill="#161615" fill-rule="evenodd"/>
    <path id="Trazado_870493" data-name="Trazado 870493" d="M480.7,388.189c-18.063-1.056-21.234-11.541-21.234-11.541" fill="none" stroke="#161615" stroke-miterlimit="3.864" stroke-width="1.751"/>
    <path id="Trazado_870494" data-name="Trazado 870494" d="M459.681,377.347l-4.187,1.28.988-11.746,7.384,9.186Z" fill="#161615" fill-rule="evenodd"/>
    <path id="Trazado_870495" data-name="Trazado 870495" d="M573.28,118.862c61.245,118.2-38.539,197.077-38.539,197.077" fill="none" stroke="#161615" stroke-miterlimit="3.864" stroke-width="1.751"/>
    <path id="Trazado_870496" data-name="Trazado 870496" d="M535.316,315.49l2.695,3.448-11.319,3.288,5.929-10.187Z" fill="#161615" fill-rule="evenodd"/>
  </g>
</svg>
