<svg xmlns="http://www.w3.org/2000/svg" xmlns:xlink="http://www.w3.org/1999/xlink" width="80.333" height="175.645" viewBox="0 0 80.333 175.645">
  <defs>
    <clipPath id="clip-path">
      <rect id="Rect치ngulo_399244" data-name="Rect치ngulo 399244" width="175.644" height="80.333" transform="translate(0)" fill="#5573c6" stroke="#707070" stroke-width="1"/>
    </clipPath>
  </defs>
  <g id="Grupo_1051640" data-name="Grupo 1051640" transform="translate(80.333) rotate(90)" opacity="0.2" clip-path="url(#clip-path)">
    <g id="Grupo_1051639" data-name="Grupo 1051639" transform="translate(4.085 -92.587)">
      <path id="Sustracci칩n_68" data-name="Sustracci칩n 68" d="M85.1,0a85.728,85.728,0,0,0-17.15,1.729,84.633,84.633,0,0,0-30.429,12.8A85.347,85.347,0,0,0,6.688,51.975,84.673,84.673,0,0,0,1.729,67.949a85.93,85.93,0,0,0,0,34.3,84.634,84.634,0,0,0,12.8,30.429,85.347,85.347,0,0,0,37.441,30.832,84.672,84.672,0,0,0,15.974,4.959,85.93,85.93,0,0,0,34.3,0,84.634,84.634,0,0,0,30.429-12.8,85.348,85.348,0,0,0,30.832-37.441,84.675,84.675,0,0,0,4.959-15.974,85.93,85.93,0,0,0,0-34.3,84.632,84.632,0,0,0-12.8-30.429A85.347,85.347,0,0,0,118.223,6.687a84.674,84.674,0,0,0-15.974-4.959A85.728,85.728,0,0,0,85.1,0Zm-.317,129.812a44.723,44.723,0,0,1-8.947-.9,44.154,44.154,0,0,1-15.875-6.68A44.526,44.526,0,0,1,43.875,102.7a44.171,44.171,0,0,1-2.587-8.334,44.829,44.829,0,0,1,0-17.895,44.152,44.152,0,0,1,6.68-15.875A44.525,44.525,0,0,1,67.5,44.509a44.171,44.171,0,0,1,8.334-2.587,44.829,44.829,0,0,1,17.895,0A44.153,44.153,0,0,1,109.6,48.6a44.525,44.525,0,0,1,16.085,19.533,44.17,44.17,0,0,1,2.587,8.334,44.829,44.829,0,0,1,0,17.895,44.153,44.153,0,0,1-6.68,15.875,44.525,44.525,0,0,1-19.533,16.085,44.17,44.17,0,0,1-8.334,2.587A44.723,44.723,0,0,1,84.782,129.812Z" transform="translate(0)" fill="#5573c6"/>
    </g>
  </g>
</svg>
