<svg id="Grupo_1051965" data-name="Grupo 1051965" xmlns="http://www.w3.org/2000/svg" width="64.937" height="66.1" viewBox="0 0 64.937 66.1">
  <g id="Grupo_1037074" data-name="Grupo 1037074" transform="translate(0 0)">
    <path id="Sustracci贸n_64" data-name="Sustracci贸n 64" d="M0,66.1H0V0A32.831,32.831,0,0,1,12.729,2.7a32.941,32.941,0,0,1,10.38,7.1A32.93,32.93,0,0,1,30.1,20.27a32.853,32.853,0,0,1,2.562,12.781A32.853,32.853,0,0,1,30.1,45.831a32.93,32.93,0,0,1-6.992,10.463,32.961,32.961,0,0,1-10.38,7.1A32.826,32.826,0,0,1,0,66.1Z" transform="translate(32.274 0)" fill="#4adbd1"/>
    <g id="Sustracci贸n_65" data-name="Sustracci贸n 65" transform="translate(32.662 66.1) rotate(180)" fill="#fff">
      <path d="M 0.5000044703483582 65.59064483642578 L 0.5000044703483582 0.5095035433769226 C 4.670988082885742 0.6200622916221619 8.717422485351562 1.511567354202271 12.5303840637207 3.161870956420898 C 16.36432456970215 4.822140693664551 19.80386352539062 7.176021099090576 22.75338363647461 10.15809059143066 C 25.70660400390625 13.14347076416016 28.02346420288086 16.61040115356445 29.63963508605957 20.46260070800781 C 31.31366539001465 24.45168113708496 32.16245269775391 28.68661117553711 32.16245269775391 33.04978942871094 C 32.16245269775391 37.41297149658203 31.31366539001465 41.64789962768555 29.6396541595459 45.63694000244141 C 28.02346420288086 49.48917007446289 25.70660400390625 52.95610046386719 22.75341415405273 55.94145965576172 C 19.80299377441406 58.92478942871094 16.36349487304688 61.27865219116211 12.53037452697754 62.93770217895508 C 8.72059440612793 64.587158203125 4.675866603851318 65.47883605957031 0.5000044703483582 65.59064483642578 Z" stroke="none"/>
      <path d="M 0.9999942779541016 1.027099609375 L 0.9999942779541016 65.07305908203125 C 4.929830551147461 64.90620422363281 8.737274169921875 64.03507995605469 12.33177375793457 62.47883224487305 C 16.10593414306641 60.84529876708984 19.49265480041504 58.52753067016602 22.39794540405273 55.58982086181641 C 25.30594444274902 52.65013885498047 27.5872745513916 49.23644256591797 29.17860412597656 45.44345855712891 C 30.8267650604248 41.51602172851562 31.66244506835938 37.34619140625 31.66244506835938 33.04978942871094 C 31.66244506835938 28.75337982177734 30.8267650604248 24.58354949951172 29.17857360839844 20.65604019165039 C 27.5872745513916 16.86313247680664 25.30593490600586 13.44942092895508 22.39789581298828 10.50970077514648 C 19.49351501464844 7.573272705078125 16.10672378540039 5.255462646484375 12.33177375793457 3.620742797851562 C 8.73546028137207 2.064201354980469 4.92823600769043 1.193283081054688 0.9999942779541016 1.027099609375 M -3.814697265625e-06 0 L 0.00075531005859375 0 C 4.419445037841797 0.0508880615234375 8.701805114746094 0.959991455078125 12.72898483276367 2.703010559082031 C 16.62248420715332 4.389072418212891 20.11460494995117 6.779170989990234 23.1088752746582 9.806480407714844 C 26.10656356811523 12.83683013916016 28.45907402038574 16.35629272460938 30.10070419311523 20.26916122436523 C 31.80043411254883 24.31949234008789 32.66244506835938 28.61970138549805 32.66244506835938 33.04978942871094 C 32.66244506835938 37.47987365722656 31.80043411254883 41.78008270263672 30.10070419311523 45.83042144775391 C 28.45907402038574 49.74328994750977 26.10656356811523 53.26274108886719 23.1088752746582 56.2930908203125 C 20.11346435546875 59.32192230224609 16.62096405029297 61.71203231811523 12.72898483276367 63.39656066894531 C 8.704843521118164 65.13883209228516 4.4224853515625 66.04869079589844 -3.814697265625e-06 66.100341796875 L -3.814697265625e-06 0 Z" stroke="none" fill="#4adbd1"/>
    </g>
  </g>
  <g id="Grupo_1037060" data-name="Grupo 1037060" transform="translate(6.222 7)">
    <g id="Elipse_8632" data-name="Elipse 8632" transform="translate(0 0)" fill="#4adbd1" stroke="#fff" stroke-width="3">
      <circle cx="26.053" cy="26.053" r="26.053" stroke="none"/>
      <circle cx="26.053" cy="26.053" r="24.553" fill="none"/>
    </g>
    <path id="Trazado_782066" data-name="Trazado 782066" d="M175.086,207.226c4.039-4.044,7.9-7.938,11.8-11.8,1.48-1.469,3.593-1.2,4.407.515a2.432,2.432,0,0,1-.449,2.927q-6.908,6.971-13.878,13.879a2.509,2.509,0,0,1-3.768-.069q-3.351-3.261-6.614-6.613a2.622,2.622,0,1,1,3.7-3.714c1.605,1.556,3.142,3.183,4.805,4.879" transform="translate(-152.903 -177.855)" fill="#fff" stroke="#fff" stroke-width="3"/>
  </g>
</svg>
