<svg xmlns="http://www.w3.org/2000/svg" xmlns:xlink="http://www.w3.org/1999/xlink" width="98.533" height="215.438" viewBox="0 0 98.533 215.438">
  <defs>
    <clipPath id="clip-path">
      <rect id="Rect치ngulo_399838" data-name="Rect치ngulo 399838" width="215.437" height="98.533" transform="translate(0)" fill="#5573c6" stroke="#707070" stroke-width="1"/>
    </clipPath>
  </defs>
  <g id="Grupo_1051972" data-name="Grupo 1051972" transform="translate(98.533) rotate(90)" opacity="0.25" clip-path="url(#clip-path)">
    <g id="Grupo_1051971" data-name="Grupo 1051971" transform="translate(5.01 -113.563)">
      <path id="Sustracci칩n_69" data-name="Sustracci칩n 69" d="M104.378,0A105.15,105.15,0,0,0,83.342,2.121,103.807,103.807,0,0,0,46.019,17.826,104.683,104.683,0,0,0,8.2,63.75,103.856,103.856,0,0,0,2.121,83.342a105.4,105.4,0,0,0,0,42.072,103.808,103.808,0,0,0,15.706,37.323A104.683,104.683,0,0,0,63.75,200.554a103.856,103.856,0,0,0,19.593,6.082,105.4,105.4,0,0,0,42.072,0,103.808,103.808,0,0,0,37.323-15.706,104.684,104.684,0,0,0,37.817-45.923,103.859,103.859,0,0,0,6.082-19.593,105.4,105.4,0,0,0,0-42.072,103.805,103.805,0,0,0-15.706-37.323A104.683,104.683,0,0,0,145.007,8.2a103.857,103.857,0,0,0-19.593-6.082A105.15,105.15,0,0,0,104.378,0Zm-.389,159.221a54.856,54.856,0,0,1-10.974-1.106,54.157,54.157,0,0,1-19.471-8.194,54.614,54.614,0,0,1-19.729-23.958,54.178,54.178,0,0,1-3.173-10.222,54.985,54.985,0,0,1,0-21.949,54.155,54.155,0,0,1,8.194-19.471A54.612,54.612,0,0,1,82.794,54.592a54.179,54.179,0,0,1,10.222-3.173,54.985,54.985,0,0,1,21.949,0,54.156,54.156,0,0,1,19.471,8.194,54.613,54.613,0,0,1,19.729,23.958,54.177,54.177,0,0,1,3.173,10.222,54.985,54.985,0,0,1,0,21.949,54.156,54.156,0,0,1-8.194,19.471,54.613,54.613,0,0,1-23.958,19.729,54.176,54.176,0,0,1-10.222,3.173A54.855,54.855,0,0,1,103.99,159.221Z" fill="#5573c6"/>
    </g>
  </g>
</svg>
