<svg xmlns="http://www.w3.org/2000/svg" xmlns:xlink="http://www.w3.org/1999/xlink" width="96.267" height="210.48" viewBox="0 0 96.267 210.48">
  <defs>
    <clipPath id="clip-path">
      <rect id="Rect치ngulo_399839" data-name="Rect치ngulo 399839" width="210.481" height="96.267" transform="translate(0)" fill="#f0dcc0" stroke="#707070" stroke-width="1"/>
    </clipPath>
  </defs>
  <g id="Grupo_1051974" data-name="Grupo 1051974" transform="translate(0 210.48) rotate(-90)" opacity="0.25" clip-path="url(#clip-path)">
    <g id="Grupo_1051973" data-name="Grupo 1051973" transform="translate(4.895 -110.951)">
      <path id="Sustracci칩n_70" data-name="Sustracci칩n 70" d="M101.977,0A102.731,102.731,0,0,0,81.425,2.072,101.419,101.419,0,0,0,44.961,17.416,102.275,102.275,0,0,0,8.014,62.283,101.467,101.467,0,0,0,2.072,81.425a102.973,102.973,0,0,0,0,41.1,101.42,101.42,0,0,0,15.344,36.464,102.275,102.275,0,0,0,44.867,36.947,101.468,101.468,0,0,0,19.142,5.942,102.972,102.972,0,0,0,41.1,0,101.42,101.42,0,0,0,36.464-15.344,102.275,102.275,0,0,0,36.947-44.867,101.469,101.469,0,0,0,5.942-19.142,102.972,102.972,0,0,0,0-41.1,101.418,101.418,0,0,0-15.344-36.464A102.275,102.275,0,0,0,141.672,8.014a101.468,101.468,0,0,0-19.142-5.942A102.731,102.731,0,0,0,101.977,0Zm-.38,155.559a53.593,53.593,0,0,1-10.722-1.081,52.911,52.911,0,0,1-19.023-8.005,53.357,53.357,0,0,1-19.275-23.407,52.931,52.931,0,0,1-3.1-9.986,53.72,53.72,0,0,1,0-21.444,52.909,52.909,0,0,1,8.005-19.023A53.356,53.356,0,0,1,80.889,53.337a52.933,52.933,0,0,1,9.986-3.1,53.721,53.721,0,0,1,21.444,0,52.91,52.91,0,0,1,19.023,8.005,53.356,53.356,0,0,1,19.275,23.407,52.931,52.931,0,0,1,3.1,9.986,53.72,53.72,0,0,1,0,21.444,52.91,52.91,0,0,1-8.005,19.024,53.356,53.356,0,0,1-23.407,19.275,52.93,52.93,0,0,1-9.986,3.1A53.593,53.593,0,0,1,101.6,155.559Z" fill="#f0dcc0"/>
    </g>
  </g>
</svg>
