<svg xmlns="http://www.w3.org/2000/svg" xmlns:xlink="http://www.w3.org/1999/xlink" width="190" height="186.688" viewBox="0 0 190 186.688">
  <defs>
    <clipPath id="clip-path">
      <rect id="Rectángulo_402885" data-name="Rectángulo 402885" width="115.177" height="126.185" fill="none"/>
    </clipPath>
  </defs>
  <g id="Grupo_1054588" data-name="Grupo 1054588" transform="translate(-285 -23599.41)">
    <g id="Grupo_1054508" data-name="Grupo 1054508">
      <g id="Grupo_133713" data-name="Grupo 133713" transform="translate(285 23786.098) rotate(-90)">
        <path id="Sustracción_24" data-name="Sustracción 24" d="M0,190V0A95.7,95.7,0,0,1,19.146,1.93,94.521,94.521,0,0,1,36.978,7.466a95.007,95.007,0,0,1,16.137,8.759,95.682,95.682,0,0,1,14.06,11.6,95.682,95.682,0,0,1,11.6,14.06,95.008,95.008,0,0,1,8.759,16.137A94.521,94.521,0,0,1,93.07,75.854,95.7,95.7,0,0,1,95,95a95.7,95.7,0,0,1-1.93,19.146,94.52,94.52,0,0,1-5.536,17.832,95.007,95.007,0,0,1-8.759,16.137,95.682,95.682,0,0,1-11.6,14.06,95.684,95.684,0,0,1-14.06,11.6,95.011,95.011,0,0,1-16.137,8.759,94.522,94.522,0,0,1-17.832,5.536A95.7,95.7,0,0,1,0,190Z" transform="translate(95 190) rotate(180)" fill="#5573c6"/>
        <path id="Sustracción_25" data-name="Sustracción 25" d="M0,190V0A95.7,95.7,0,0,1,19.146,1.93,94.522,94.522,0,0,1,36.978,7.466a95.008,95.008,0,0,1,16.137,8.759,95.681,95.681,0,0,1,14.06,11.6,95.683,95.683,0,0,1,11.6,14.06,95.007,95.007,0,0,1,8.759,16.137A94.52,94.52,0,0,1,93.07,75.854,95.7,95.7,0,0,1,95,95a95.7,95.7,0,0,1-1.93,19.146,94.519,94.519,0,0,1-5.536,17.832,95,95,0,0,1-8.759,16.137,95.68,95.68,0,0,1-11.6,14.06,95.68,95.68,0,0,1-14.06,11.6,95.009,95.009,0,0,1-16.137,8.759,94.52,94.52,0,0,1-17.832,5.535A95.7,95.7,0,0,1,0,190Z" transform="translate(91.688 0)" fill="#e8e8e8"/>
      </g>
      <path id="Trazado_151972" data-name="Trazado 151972" d="M84.689,0c46.773,0,84.689,38.07,84.689,85.032s-37.917,85.032-84.689,85.032S0,131.994,0,85.032,37.917,0,84.689,0Z" transform="translate(295.33 23607.684)" fill="#12263f"/>
      <g id="Grupo_133716" data-name="Grupo 133716" transform="translate(436.366 23722.766)" style="isolation: isolate">
        <g id="Grupo_133714" data-name="Grupo 133714" transform="translate(0 3.576)">
          <path id="Trazado_150984" data-name="Trazado 150984" d="M.057,15.871C.019,15.39,0,14.9,0,14.412A18.351,18.351,0,0,1,6.941,0l.134.167A18.138,18.138,0,0,0,.214,14.412c0,.481.019.966.056,1.442Z" transform="translate(0 0)" fill="#4adbd1"/>
        </g>
        <g id="Grupo_133715" data-name="Grupo 133715" transform="translate(9.005 0)">
          <path id="Trazado_150985" data-name="Trazado 150985" d="M.11,2.331,0,2.147A18.3,18.3,0,0,1,5.395,0l.047.209A18.082,18.082,0,0,0,.11,2.331Z" transform="translate(0 0)" fill="#4adbd1"/>
        </g>
        <path id="Trazado_150986" data-name="Trazado 150986" d="M15.42,0a15.42,15.42,0,1,0,15.42,15.42A15.42,15.42,0,0,0,15.42,0Zm0,26.323a10.9,10.9,0,1,1,10.9-10.9A10.9,10.9,0,0,1,15.42,26.323Z" transform="translate(3.011 2.569)" fill="#4adbd1" style="mix-blend-mode: multiply;isolation: isolate"/>
      </g>
      <path id="Trazado_150987" data-name="Trazado 150987" d="M4.346,0A4.346,4.346,0,1,0,8.693,4.346,4.346,4.346,0,0,0,4.346,0Zm0,7.42A3.073,3.073,0,1,1,7.42,4.346,3.073,3.073,0,0,1,4.346,7.42Z" transform="matrix(0.966, -0.259, 0.259, 0.966, 314.411, 23610.23)" fill="#0f0140" style="mix-blend-mode: multiply;isolation: isolate"/>
      <ellipse id="Elipse_5034" data-name="Elipse 5034" cx="3.891" cy="3.891" rx="3.891" ry="3.891" transform="translate(464.708 23718.953)" fill="#dad6f7"/>
      <ellipse id="Elipse_5035" data-name="Elipse 5035" cx="11.241" cy="11.241" rx="11.241" ry="11.241" transform="translate(302.311 23618.508)" fill="#5573c6"/>
      <g id="Grupo_1054507" data-name="Grupo 1054507" transform="translate(314.933 23629.406)">
        <path id="Trazado_877194" data-name="Trazado 877194" d="M39.951,73.889l4.192-2.437-10.9-18.88-4.193,2.437Z" transform="translate(23.458 42.453)" fill="#61e8cf"/>
        <path id="Trazado_877195" data-name="Trazado 877195" d="M33.909,52.573l-1.495.851-4.192,2.437,1.495-.851Z" transform="translate(22.791 42.453)" fill="#999e9f"/>
        <g id="Grupo_1054506" data-name="Grupo 1054506" transform="translate(0 0.001)">
          <g id="Grupo_1054505" data-name="Grupo 1054505" clip-path="url(#clip-path)">
            <path id="Trazado_877196" data-name="Trazado 877196" d="M40.8,71.475c2.07,1.195,4.143,1.484,5.723.584l4.192-2.437c-1.58.9-3.653.611-5.723-.584a16.458,16.458,0,0,1-5.715-6.021L35.08,65.455A16.473,16.473,0,0,0,40.8,71.475" transform="translate(28.328 50.887)" fill="#61e8cf"/>
            <path id="Trazado_877197" data-name="Trazado 877197" d="M58.846,59.123,54.654,61.56l1.486,2.572L60.332,61.7Z" transform="translate(44.134 47.742)" fill="#999e9f"/>
            <path id="Trazado_877198" data-name="Trazado 877198" d="M65.351,61.56l4.192-2.437L45.6,72.768,41.408,75.2Z" transform="translate(33.438 47.742)" fill="#999e9f"/>
            <path id="Trazado_877199" data-name="Trazado 877199" d="M52.056,79.4c-1.582.9-3.653.611-5.723-.584A16.444,16.444,0,0,1,40.618,72.8l-10.9-18.878-1.495.851,10.9,18.88a20.731,20.731,0,0,0,7.2,7.588c2.61,1.507,5.224,1.873,7.219.737L77.484,68.333,76,65.759Z" transform="translate(22.79 43.542)" fill="#00b8ac"/>
            <path id="Trazado_877200" data-name="Trazado 877200" d="M.585,58.227l10.478-6.091,11.44,6.6-10.48,6.091Z" transform="translate(0.472 42.099)" fill="#127177"/>
            <path id="Trazado_877201" data-name="Trazado 877201" d="M6.914,61.88l10.48-6.09,0,1.209L6.912,63.091Z" transform="translate(5.581 45.051)" fill="#61e8cf"/>
            <path id="Trazado_877202" data-name="Trazado 877202" d="M.621,50.959,11.1,44.871,11.063,58,.585,64.092Z" transform="translate(0.472 36.233)" fill="#18979e"/>
            <path id="Trazado_877203" data-name="Trazado 877203" d="M.022,50.624l10.48-6.09,1.054.609L1.076,51.231Z" transform="translate(0.018 35.961)" fill="#00b8ac"/>
            <path id="Trazado_877204" data-name="Trazado 877204" d="M1.094,48.511,1.057,61.644l11.438,6.6,0,1.211-11.438-6.6L0,62.248l0-1.211L.04,47.9Z" transform="translate(0 38.682)" fill="#0c4c4f"/>
            <path id="Trazado_877205" data-name="Trazado 877205" d="M8.523,48.981,8.5,63.779l1.047-.607.029-14.8Z" transform="translate(6.86 39.062)" fill="#61e8cf"/>
            <path id="Trazado_877206" data-name="Trazado 877206" d="M10.619,48.986l-2.373-1.37L7.2,48.225,9.57,49.593Z" transform="translate(5.812 38.449)" fill="#889799"/>
            <path id="Trazado_877207" data-name="Trazado 877207" d="M7.21,47.952l-.027,14.8,2.373,1.37.027-14.8Z" transform="translate(5.8 38.721)" fill="#0c4c4f"/>
            <path id="Trazado_877208" data-name="Trazado 877208" d="M35.758,40.646A3.018,3.018,0,0,0,31.832,39.2a2,2,0,0,0-.258.2,1.966,1.966,0,0,1,.188-.157L5.305,55.851l-.455.286a7.332,7.332,0,0,0-2.981,5.5,2.43,2.43,0,0,0,.793,1.986,2.5,2.5,0,0,0,2.361.007c.025-.013.049-.027.072-.042l.775-.486L35.212,44.687c-.023.014-.047.031-.07.043,1.256-.73,1.529-2.561.616-4.085" transform="translate(1.509 31.414)" fill="#00b8ac"/>
            <path id="Trazado_877209" data-name="Trazado 877209" d="M50.145,114.1q-1.684.48-3.308.786c-.161.029-.318.051-.475.078a31.217,31.217,0,0,1-3.264.392c-.092.005-.183.005-.275.009a26.793,26.793,0,0,1-3.19-.013c-.036,0-.074,0-.11-.005a23.713,23.713,0,0,1-3.022-.418c-.112-.023-.231-.04-.345-.065a22.27,22.27,0,0,1-2.717-.781c-.143-.052-.282-.1-.421-.152a21.078,21.078,0,0,1-2.48-1.135c-.137-.072-.273-.148-.407-.224a21.049,21.049,0,0,1-2.285-1.5c-.112-.083-.217-.172-.325-.257a21.783,21.783,0,0,1-2.12-1.9c-.063-.065-.121-.137-.184-.2a23.175,23.175,0,0,1-1.952-2.332l-.031-.042a25.782,25.782,0,0,1-1.683-2.681c-.06-.1-.117-.2-.175-.305a29.586,29.586,0,0,1-1.336-2.887c-.065-.157-.132-.313-.192-.472q-.58-1.5-1.036-3.145c-.052-.186-.1-.374-.15-.562-.293-1.11-.54-2.258-.745-3.452-.033-.186-.058-.376-.089-.566-.193-1.236-.347-2.509-.445-3.834-.013-.139-.014-.286-.025-.425-.094-1.4-.141-2.847-.125-4.343.023-1.78.13-3.584.307-5.4.06-.613.17-1.236.248-1.853.148-1.213.291-2.424.506-3.648.013-.076.018-.15.031-.224v0c.186-.907.389-1.974.607-3.033.014-.072.031-.146.045-.222.085-.374.188-.752.277-1.13.094-.4.192-.79.293-1.186.4-1.582.83-3.165,1.319-4.747.051-.155.107-.309.157-.466.47-1.475.985-2.943,1.531-4.407.141-.381.282-.761.427-1.141q.906-2.326,1.923-4.627c.13-.295.273-.582.4-.877q.927-2.031,1.949-4.029c.163-.322.32-.642.488-.963q1.177-2.245,2.458-4.432c.2-.338.4-.672.6-1.009Q32,38.3,33.258,36.376c.137-.208.269-.419.407-.625q1.421-2.115,2.937-4.139c.248-.333.5-.662.748-.991,1.038-1.359,2.095-2.7,3.187-3.986.043-.051.089-.1.132-.15,1.063-1.247,2.16-2.449,3.273-3.626.277-.291.551-.584.831-.871,1.068-1.1,2.153-2.178,3.259-3.2.072-.063.157-.137.231-.2.183-.168.367-.324.551-.486.622-.549,1.374-1.207,2.353-2.064.345-.286.694-.551,1.039-.828.24-.193.481-.387.721-.577q1.852-1.451,3.756-2.751c.217-.148.439-.289.66-.434,1.332-.884,2.673-1.724,4.036-2.485l.005,0,.005,0c1.256-.7,2.494-1.312,3.72-1.876.148-.069.3-.141.441-.206,1.164-.521,2.31-.972,3.445-1.374.19-.067.381-.136.573-.2q1.665-.561,3.281-.951c.19-.047.376-.087.562-.13,1.085-.242,2.151-.437,3.2-.568.141-.016.278-.027.421-.042a28.987,28.987,0,0,1,3.2-.19c.025,0,.052,0,.08,0a25.584,25.584,0,0,1,3.035.206c.11.014.219.02.325.034a22.967,22.967,0,0,1,2.773.573c.148.04.3.078.443.121a21.091,21.091,0,0,1,2.54.916c.145.063.287.13.432.2a20.894,20.894,0,0,1,2.37,1.276c.1.069.211.143.318.215A21.473,21.473,0,0,1,94.8,8.636c.034.031.067.063.1.092a21.647,21.647,0,0,1,2.019,2.032c.061.067.127.132.186.2a24.2,24.2,0,0,1,1.744,2.324c.089.128.177.257.262.389a27.081,27.081,0,0,1,1.451,2.581c.081.161.157.324.235.486.437.924.84,1.887,1.2,2.9.052.152.1.307.152.461.363,1.063.689,2.162.963,3.319.014.074.029.155.047.23q.4,1.743.662,3.622c.011.076.029.139.038.215q-.165-1.228-.329-2.453C100.414,1.9,81.938-6.813,59.371,5.762c-25,13.931-45.551,48.711-45.9,77.685-.327,26.608,16.494,39.066,38.6,30.135l.23-.094.114-.047c.07-.027.161-.065.23-.092s.161-.065.23-.094l.116-.045.23-.092.23-.092c.034-.016.08-.033.116-.049l.23-.092c.069-.027.159-.065.231-.092.033-.013.078-.033.112-.045l.23-.094c-.085.034-.164.054-.249.089q-1.727.683-3.405,1.188c-.19.058-.38.112-.566.166" transform="translate(10.871 0)" fill="#f2f5f5"/>
            <path id="Trazado_877210" data-name="Trazado 877210" d="M102.138,25.752q-.263-1.876-.663-3.622c-.016-.074-.031-.155-.047-.23-.275-1.157-.6-2.256-.962-3.319-.052-.152-.1-.309-.154-.459a30.743,30.743,0,0,0-1.2-2.9c-.078-.163-.155-.325-.235-.486a27.49,27.49,0,0,0-1.453-2.581c-.085-.132-.174-.258-.262-.389a23.894,23.894,0,0,0-1.742-2.324c-.06-.07-.125-.134-.186-.2a21.626,21.626,0,0,0-2.019-2.03c-.034-.031-.065-.063-.1-.094a21.473,21.473,0,0,0-2.252-1.685c-.107-.072-.213-.146-.32-.215a20.74,20.74,0,0,0-2.37-1.276c-.143-.065-.286-.132-.43-.2a21.2,21.2,0,0,0-2.54-.916c-.146-.043-.3-.081-.445-.121a22.9,22.9,0,0,0-2.773-.573c-.1-.014-.215-.02-.324-.034a25.584,25.584,0,0,0-3.035-.206c-.027,0-.054,0-.081,0a29.013,29.013,0,0,0-3.2.19c-.141.014-.28.025-.421.042-1.045.13-2.111.325-3.2.568-.188.043-.374.083-.562.13q-1.616.388-3.281.951c-.192.063-.383.134-.575.2-1.133.4-2.281.851-3.443,1.372-.146.065-.293.139-.441.206-1.225.564-2.464,1.179-3.72,1.876l-.005,0-.005,0c-1.363.761-2.7,1.6-4.036,2.485-.221.145-.443.286-.662.434q-1.9,1.3-3.754,2.751c-.242.188-.481.383-.721.577-.345.277-.7.542-1.039.828-.981.857-1.732,1.515-2.355,2.064-.2.172-.378.334-.549.486-.074.067-.159.141-.231.2-1.108,1.027-2.191,2.106-3.259,3.207-.28.286-.557.578-.83.869-1.115,1.177-2.212,2.379-3.275,3.626-.043.052-.089.1-.132.15C37.76,26.4,36.7,27.74,35.667,29.1c-.251.327-.5.656-.748.989-1.009,1.352-1.992,2.729-2.937,4.139-.137.206-.269.419-.407.625q-1.266,1.917-2.451,3.9c-.2.336-.4.671-.6,1.009q-1.28,2.188-2.456,4.432c-.166.32-.325.642-.488.963q-1.019,2-1.949,4.029c-.132.295-.275.582-.4.877q-1.022,2.3-1.923,4.627c-.145.38-.286.761-.427,1.141-.546,1.464-1.063,2.932-1.531,4.407-.051.157-.108.313-.157.468-.492,1.58-.922,3.163-1.323,4.745-.1.4-.2.79-.289,1.186-.089.378-.193.756-.277,1.132-.016.074-.033.148-.047.221-.217,1.059-.421,2.126-.606,3.033v0c-.013.074-.018.148-.033.224-.213,1.224-.356,2.435-.506,3.648-.076.616-.188,1.24-.249,1.853-.175,1.82-.28,3.626-.3,5.4-.018,1.5.031,2.939.125,4.343.009.139.013.286.025.425.1,1.325.251,2.6.445,3.834.031.19.058.38.087.566.2,1.195.454,2.343.745,3.452.049.188.1.376.15.562q.458,1.64,1.036,3.145c.061.159.127.315.19.472a30.474,30.474,0,0,0,1.339,2.887c.056.1.116.2.175.305a25.189,25.189,0,0,0,1.683,2.681l.031.042a23.175,23.175,0,0,0,1.952,2.332c.063.065.121.137.184.2a21.976,21.976,0,0,0,2.118,1.9c.108.085.215.174.325.257a21.072,21.072,0,0,0,2.287,1.5c.134.076.269.152.407.224a20.944,20.944,0,0,0,2.48,1.135c.137.052.278.1.421.152a21.953,21.953,0,0,0,2.717.781c.114.023.233.042.345.065a23.713,23.713,0,0,0,3.022.418c.036,0,.072,0,.108.005a26.825,26.825,0,0,0,3.192.013c.092,0,.183,0,.275-.009a31.333,31.333,0,0,0,3.264-.392c.157-.027.315-.049.475-.078q1.624-.3,3.306-.786c.188-.054.378-.108.568-.166q1.678-.5,3.405-1.188a51.67,51.67,0,0,0,6.033-2.872c24.044-13.4,43.809-46.851,44.15-74.719a52.261,52.261,0,0,0-.479-7.875" transform="translate(12.554 1.523)" fill="#dfe5e5"/>
            <path id="Trazado_877211" data-name="Trazado 877211" d="M99.808,25.8c-.17-1.213-.38-2.384-.642-3.508-.016-.072-.029-.15-.047-.222-.264-1.121-.58-2.185-.931-3.216-.051-.146-.1-.3-.148-.445a29.869,29.869,0,0,0-1.164-2.811c-.074-.157-.148-.315-.226-.47a25.444,25.444,0,0,0-1.408-2.5c-.083-.127-.168-.249-.253-.376A23.407,23.407,0,0,0,93.3,10c-.058-.069-.121-.13-.181-.2a20.28,20.28,0,0,0-1.954-1.967c-.034-.029-.063-.061-.1-.089a21.5,21.5,0,0,0-2.182-1.634c-.1-.069-.206-.141-.311-.208a19.985,19.985,0,0,0-2.294-1.236c-.137-.063-.277-.128-.416-.19a20.617,20.617,0,0,0-2.46-.887c-.143-.042-.287-.078-.43-.116a20.983,20.983,0,0,0-2.686-.555c-.1-.014-.21-.02-.315-.034a24.385,24.385,0,0,0-2.939-.2c-.027,0-.052,0-.08,0a28.057,28.057,0,0,0-3.1.183c-.136.016-.271.025-.407.042-1.014.127-2.048.315-3.1.549-.183.042-.363.081-.546.127-1.043.253-2.1.562-3.178.92-.184.061-.371.13-.555.2-1.1.389-2.209.826-3.335,1.33-.143.063-.286.134-.427.2a16.493,16.493,0,0,0-3.6,1.817l-.005,0-.007,0c-1.318.736-2.617,1.551-3.908,2.406-.213.141-.428.278-.642.421-1.227.837-2.437,1.73-3.635,2.664-.233.183-.466.371-.7.559-.334.268-.678.521-1.007.8-.96.819-1.677,1.468-2.281,2-.19.168-.365.325-.531.472l-.224.2c-1.085.981-2.122,2.039-3.158,3.1q-.407.418-.8.844c-1.079,1.139-2.147,2.3-3.172,3.512-.042.051-.085.1-.127.145-1.063,1.244-2.082,2.545-3.085,3.861q-.366.477-.727.96c-.976,1.31-1.929,2.643-2.845,4.009-.134.2-.26.4-.394.606q-1.225,1.857-2.371,3.772c-.2.327-.394.649-.586.976q-1.239,2.123-2.379,4.295c-.163.309-.315.62-.474.931q-.987,1.939-1.887,3.9c-.13.284-.266.564-.392.848q-.992,2.229-1.862,4.484c-.141.367-.277.736-.414,1.1-.53,1.419-1.03,2.841-1.484,4.268-.049.154-.1.3-.15.454-.479,1.531-.9,3.064-1.282,4.6-.1.383-.192.765-.282,1.15-.085.365-.19.728-.268,1.094-.016.072-.031.145-.045.215-.211,1.025-.408,2.059-.587,2.937v0c-.013.072-.018.145-.031.219-.2,1.184-.345,2.357-.49,3.532-.074.6-.183,1.2-.24,1.795-.172,1.762-.275,3.51-.295,5.233-.018,1.451.029,2.849.119,4.208.009.136.013.277.022.412.1,1.283.246,2.516.434,3.713.027.183.054.367.085.548.2,1.157.439,2.27.719,3.346.047.181.1.363.146.544.295,1.057.627,2.075,1,3.046.06.154.123.3.184.457a27.958,27.958,0,0,0,1.3,2.8c.054.1.114.2.168.295a21.043,21.043,0,0,0,1.63,2.6.332.332,0,0,1,.031.04,19.144,19.144,0,0,0,1.891,2.258c.06.065.117.134.179.2a21.534,21.534,0,0,0,2.053,1.835c.1.083.208.17.315.249a20.457,20.457,0,0,0,2.214,1.451c.13.074.26.146.392.219a20.081,20.081,0,0,0,2.4,1.1c.134.051.269.1.407.146a20.633,20.633,0,0,0,2.634.757c.108.023.222.04.333.063a25.432,25.432,0,0,0,2.928.4l.1,0a25.15,25.15,0,0,0,3.091.013c.09-.005.177,0,.268-.009a29.331,29.331,0,0,0,3.161-.38c.154-.027.305-.049.459-.076,1.05-.193,2.118-.452,3.2-.761.183-.052.365-.1.549-.161q1.627-.488,3.3-1.151a49.9,49.9,0,0,0,5.844-2.782C80.8,92.819,99.942,60.416,100.272,33.426a50.5,50.5,0,0,0-.465-7.63" transform="translate(12.871 2.165)" fill="#dde3e3"/>
            <path id="Trazado_877212" data-name="Trazado 877212" d="M97.478,25.842c-.164-1.173-.367-2.306-.622-3.395-.016-.07-.027-.145-.045-.215-.255-1.083-.562-2.115-.9-3.111-.049-.143-.094-.289-.143-.43a29.114,29.114,0,0,0-1.126-2.72c-.072-.152-.145-.3-.219-.455A25.311,25.311,0,0,0,93.061,13.1c-.08-.123-.164-.244-.246-.365a22.358,22.358,0,0,0-1.634-2.178c-.054-.065-.116-.125-.174-.19a19.792,19.792,0,0,0-1.891-1.9c-.033-.027-.061-.058-.094-.085A20.812,20.812,0,0,0,86.913,6.8c-.1-.067-.2-.137-.3-.2a19.586,19.586,0,0,0-2.221-1.2c-.132-.06-.266-.123-.4-.183a19.916,19.916,0,0,0-2.38-.859c-.137-.04-.278-.076-.416-.112a20.63,20.63,0,0,0-2.6-.539c-.1-.013-.2-.018-.3-.031a22.845,22.845,0,0,0-2.843-.193c-.027,0-.052,0-.078,0a27.143,27.143,0,0,0-3,.177c-.13.014-.26.023-.392.04-.981.121-1.981.3-3,.531-.175.04-.351.08-.526.121q-1.516.369-3.075.891c-.179.06-.36.127-.539.19-1.063.376-2.136.8-3.226,1.287-.137.06-.275.13-.414.193a16.028,16.028,0,0,0-3.487,1.759l-.005,0-.005,0c-1.276.712-2.534,1.5-3.781,2.328-.206.137-.414.269-.62.408-1.189.81-2.359,1.674-3.519,2.578q-.339.266-.674.54c-.325.258-.658.5-.976.775-.927.792-1.621,1.419-2.207,1.934-.183.163-.352.315-.513.455-.07.063-.15.132-.217.193-1.05.949-2.053,1.972-3.057,3-.26.269-.521.542-.777.817-1.045,1.1-2.079,2.223-3.069,3.4-.04.047-.083.092-.123.139-1.028,1.2-2.014,2.464-2.986,3.736-.235.307-.47.616-.7.929-.944,1.267-1.867,2.556-2.755,3.879-.128.192-.251.39-.38.584q-1.188,1.8-2.3,3.653c-.188.315-.381.627-.566.944q-1.2,2.052-2.3,4.154c-.155.3-.3.6-.457.9Q24.77,45.9,23.9,47.8c-.127.277-.257.546-.38.822-.642,1.437-1.238,2.883-1.8,4.338-.137.354-.268.71-.4,1.066-.512,1.374-1,2.749-1.435,4.13-.045.146-.1.293-.145.437-.463,1.482-.868,2.966-1.24,4.448q-.141.556-.273,1.112c-.083.354-.184.707-.258,1.059-.016.07-.031.139-.045.208-.2.992-.394,1.992-.566,2.841v0c-.014.07-.018.139-.031.211-.2,1.146-.334,2.281-.475,3.418-.072.577-.177,1.162-.233,1.735-.164,1.706-.264,3.4-.284,5.065-.016,1.4.029,2.756.116,4.071.007.132.013.268.022.4.092,1.242.237,2.433.418,3.592.027.177.054.356.083.53.19,1.121.425,2.2.7,3.237.047.175.094.352.143.526q.426,1.537.969,2.948c.058.148.119.295.179.441a27.56,27.56,0,0,0,1.254,2.706c.052.1.11.19.163.286a20.534,20.534,0,0,0,1.578,2.514l.031.038a18.349,18.349,0,0,0,1.827,2.183c.06.063.114.13.175.19a20.6,20.6,0,0,0,1.985,1.777c.1.08.2.163.305.242a19.562,19.562,0,0,0,2.142,1.4q.187.108.38.211a19.207,19.207,0,0,0,2.326,1.065c.128.049.26.092.392.141a20.057,20.057,0,0,0,2.549.732c.107.023.215.04.324.061a24.589,24.589,0,0,0,2.831.392l.1,0a24.61,24.61,0,0,0,2.991.013c.087-.005.17,0,.258-.009a27.811,27.811,0,0,0,3.057-.369c.15-.025.3-.045.446-.072q1.524-.285,3.1-.737l.533-.154c1.047-.318,2.111-.687,3.19-1.113a48.414,48.414,0,0,0,5.654-2.691C79.083,90.691,97.608,59.339,97.928,33.224a49.188,49.188,0,0,0-.45-7.382" transform="translate(13.187 2.808)" fill="#dae1e1"/>
            <path id="Trazado_877213" data-name="Trazado 877213" d="M95.149,25.888c-.159-1.133-.354-2.229-.6-3.281-.016-.067-.027-.141-.043-.208-.248-1.047-.544-2.042-.871-3.006-.047-.139-.09-.28-.139-.418a27.561,27.561,0,0,0-1.088-2.628c-.069-.146-.139-.295-.211-.439A24.086,24.086,0,0,0,90.88,13.57c-.078-.119-.159-.235-.237-.352a21.874,21.874,0,0,0-1.58-2.1c-.054-.063-.112-.121-.168-.184a18.672,18.672,0,0,0-1.827-1.838c-.031-.027-.06-.058-.09-.083a19.967,19.967,0,0,0-2.039-1.527c-.1-.065-.192-.132-.291-.2A18.83,18.83,0,0,0,82.5,6.129c-.128-.058-.258-.119-.389-.175a19.337,19.337,0,0,0-2.3-.831c-.132-.038-.268-.072-.4-.108A19.957,19.957,0,0,0,76.9,4.495c-.1-.013-.2-.018-.293-.031a22.4,22.4,0,0,0-2.749-.188l-.074,0a26.171,26.171,0,0,0-2.9.172c-.127.013-.253.022-.38.038-.947.117-1.914.295-2.9.513-.17.038-.34.076-.51.117q-1.464.355-2.972.862c-.174.058-.347.119-.521.183-1.025.363-2.064.77-3.118,1.244-.132.058-.266.125-.4.186a15.556,15.556,0,0,0-3.369,1.7l-.005,0-.005,0c-1.233.687-2.449,1.45-3.655,2.249-.2.132-.4.26-.6.4q-1.722,1.174-3.4,2.491c-.219.17-.436.347-.653.521-.313.251-.634.488-.942.75-.9.766-1.569,1.372-2.133,1.871-.179.155-.343.3-.5.441-.069.06-.146.127-.21.184-1.016.918-1.985,1.907-2.953,2.9-.253.26-.5.524-.754.788-1.007,1.066-2.006,2.149-2.964,3.286l-.119.134c-.994,1.164-1.947,2.38-2.885,3.611-.228.3-.455.595-.68.9-.911,1.225-1.8,2.471-2.661,3.749-.125.188-.242.38-.367.566q-1.147,1.738-2.22,3.53c-.183.3-.367.606-.546.911q-1.16,1.985-2.227,4.016c-.15.289-.293.58-.441.871q-.925,1.811-1.766,3.649c-.121.266-.248.528-.365.793-.62,1.388-1.2,2.787-1.742,4.193-.132.342-.258.687-.387,1.03-.5,1.327-.963,2.657-1.386,3.993-.045.141-.1.282-.141.423-.448,1.432-.839,2.865-1.2,4.3q-.136.537-.264,1.074c-.08.342-.177.683-.249,1.025l-.043.2c-.2.958-.381,1.925-.548,2.746v0c-.013.069-.018.136-.029.2-.19,1.108-.324,2.205-.459,3.3-.07.557-.172,1.122-.226,1.677-.159,1.648-.255,3.282-.275,4.895-.016,1.356.027,2.662.112,3.933.007.128.011.258.022.385.089,1.2.228,2.353.4,3.472.027.172.052.343.08.512.184,1.083.412,2.124.674,3.129.043.17.09.34.137.51q.412,1.483.936,2.849c.056.143.116.284.174.427A26.715,26.715,0,0,0,20.473,94.8c.052.094.107.183.159.275A19.857,19.857,0,0,0,22.156,97.5c.009.013.02.023.029.038a17.755,17.755,0,0,0,1.768,2.109c.056.061.11.127.168.184a19.934,19.934,0,0,0,1.92,1.717c.1.078.193.157.295.233a18.944,18.944,0,0,0,2.07,1.356c.121.07.244.139.367.2a18.327,18.327,0,0,0,2.249,1.028c.125.047.251.09.38.137a19,19,0,0,0,2.462.707c.1.023.21.038.313.06a23.8,23.8,0,0,0,2.737.38l.1,0a23.684,23.684,0,0,0,2.89.011c.085,0,.166,0,.249-.007a27.233,27.233,0,0,0,2.955-.356c.145-.025.287-.045.432-.07.98-.183,1.979-.423,2.993-.712.172-.049.342-.1.515-.15,1.012-.307,2.041-.663,3.084-1.075a46.8,46.8,0,0,0,5.466-2.6C77.37,88.562,95.274,58.263,95.583,33.023a47.182,47.182,0,0,0-.434-7.134" transform="translate(13.503 3.45)" fill="#d8dfe0"/>
            <path id="Trazado_877214" data-name="Trazado 877214" d="M92.819,25.934c-.154-1.094-.342-2.151-.578-3.167-.016-.065-.027-.136-.043-.2-.239-1.01-.524-1.972-.839-2.9-.047-.132-.089-.269-.136-.4a27,27,0,0,0-1.05-2.538c-.067-.141-.134-.284-.2-.423A23.779,23.779,0,0,0,88.7,14.044c-.074-.116-.152-.228-.23-.342a21.107,21.107,0,0,0-1.524-2.032c-.052-.06-.108-.116-.163-.177a18.18,18.18,0,0,0-1.764-1.775c-.029-.025-.056-.054-.087-.08a19.254,19.254,0,0,0-1.968-1.475c-.094-.061-.186-.128-.28-.188a17.959,17.959,0,0,0-2.071-1.115c-.125-.058-.249-.116-.376-.172a18.4,18.4,0,0,0-2.22-.8c-.128-.038-.26-.07-.389-.1a19.259,19.259,0,0,0-2.424-.5c-.094-.013-.19-.018-.284-.031a21.942,21.942,0,0,0-2.653-.181c-.023,0-.047,0-.07,0a25.624,25.624,0,0,0-2.8.166c-.123.014-.244.022-.367.038-.915.114-1.847.284-2.794.5-.164.038-.327.074-.492.114q-1.413.342-2.869.831c-.168.056-.334.116-.5.175-.991.351-1.994.745-3.011,1.2-.127.058-.257.121-.385.181-1.07.5-2.155,1.03-3.252,1.641l-.005,0-.005,0c-1.191.665-2.364,1.4-3.528,2.173-.193.127-.387.251-.578.381-1.11.754-2.2,1.56-3.282,2.4-.211.164-.419.334-.631.5-.3.242-.613.472-.909.725-.866.739-1.513,1.323-2.059,1.806-.172.15-.331.291-.479.425-.067.058-.141.123-.2.179-.981.886-1.916,1.84-2.852,2.8-.244.251-.484.506-.725.761-.974,1.028-1.938,2.075-2.863,3.17-.038.045-.078.087-.114.13-.962,1.124-1.88,2.3-2.787,3.487q-.328.428-.654.866c-.88,1.182-1.741,2.386-2.568,3.619-.121.181-.235.365-.354.546q-1.109,1.678-2.144,3.407c-.175.293-.354.584-.526.88q-1.12,1.914-2.149,3.875c-.146.278-.284.562-.427.842q-.892,1.749-1.7,3.523c-.116.257-.239.51-.352.766-.6,1.339-1.155,2.69-1.681,4.047-.128.331-.251.663-.374,1-.477,1.28-.929,2.563-1.339,3.852-.043.137-.094.273-.136.408-.432,1.383-.808,2.767-1.157,4.15-.089.345-.172.69-.255,1.038-.078.329-.17.658-.24.987-.014.065-.029.13-.042.2-.19.925-.369,1.858-.53,2.652-.011.067-.016.13-.027.2-.184,1.07-.313,2.129-.443,3.19-.069.537-.166,1.083-.219,1.62-.154,1.591-.246,3.169-.266,4.723-.014,1.31.027,2.572.108,3.8.007.123.011.249.02.372.087,1.159.222,2.27.39,3.351.025.166.051.333.078.5q.266,1.567.651,3.019c.042.164.087.329.132.492q.4,1.434.9,2.751c.054.137.112.275.168.41a25.3,25.3,0,0,0,1.169,2.525c.049.092.1.175.152.266a19.211,19.211,0,0,0,1.471,2.346l.029.034a17,17,0,0,0,1.7,2.039c.056.058.107.119.163.177a19.468,19.468,0,0,0,1.853,1.657c.1.074.188.152.284.224a18.276,18.276,0,0,0,2,1.31c.117.067.235.132.354.2a18,18,0,0,0,2.171.992c.119.045.242.087.367.132a18.634,18.634,0,0,0,2.377.683c.1.022.2.036.3.056a22.631,22.631,0,0,0,2.643.367l.1,0a23.148,23.148,0,0,0,2.791.011c.081,0,.159,0,.24-.007a26.233,26.233,0,0,0,2.852-.343c.139-.023.277-.043.416-.069.947-.177,1.912-.408,2.892-.687.164-.047.329-.094.5-.145.978-.3,1.97-.64,2.977-1.039a45.027,45.027,0,0,0,5.276-2.511c21.021-11.715,38.3-40.964,38.6-65.327a45.642,45.642,0,0,0-.419-6.887" transform="translate(13.819 4.092)" fill="#d6ddde"/>
            <path id="Trazado_877215" data-name="Trazado 877215" d="M90.49,25.98c-.148-1.056-.331-2.075-.559-3.053-.014-.063-.025-.13-.042-.193-.23-.974-.5-1.9-.81-2.8-.043-.128-.083-.26-.128-.389A26.41,26.41,0,0,0,87.94,17.1c-.065-.137-.13-.273-.2-.409a22.916,22.916,0,0,0-1.225-2.176c-.072-.11-.148-.219-.221-.327a20.2,20.2,0,0,0-1.47-1.959c-.051-.06-.1-.112-.157-.172a17.687,17.687,0,0,0-1.7-1.712c-.029-.023-.054-.052-.083-.076a18.593,18.593,0,0,0-1.9-1.421c-.09-.061-.179-.125-.271-.183a17.508,17.508,0,0,0-2-1.075c-.121-.056-.24-.112-.363-.164a17.821,17.821,0,0,0-2.14-.774c-.125-.036-.249-.067-.374-.1a18.211,18.211,0,0,0-2.337-.484c-.09-.013-.183-.018-.273-.029a20.784,20.784,0,0,0-2.558-.174c-.023,0-.047,0-.07,0a24.2,24.2,0,0,0-2.7.161c-.119.013-.237.02-.354.036-.882.108-1.782.273-2.7.477-.157.036-.315.07-.474.11-.907.219-1.829.488-2.765.8-.161.054-.322.112-.484.17-.954.338-1.921.718-2.9,1.157-.123.054-.246.117-.371.174a14.479,14.479,0,0,0-3.136,1.583l-.005,0-.005,0c-1.146.642-2.277,1.35-3.4,2.095-.186.123-.374.242-.559.367-1.068.728-2.122,1.506-3.163,2.319-.2.159-.4.322-.609.484-.291.233-.589.454-.875.7-.837.712-1.46,1.278-1.986,1.741-.164.145-.318.282-.463.41-.063.056-.134.117-.193.172-.945.853-1.847,1.775-2.749,2.7-.235.242-.468.488-.7.734-.938.991-1.867,2-2.758,3.057-.036.043-.074.083-.11.125-.925,1.085-1.813,2.216-2.686,3.36q-.317.415-.633.835c-.848,1.141-1.677,2.3-2.476,3.489-.116.175-.226.354-.342.528q-1.068,1.616-2.064,3.284c-.17.284-.343.564-.51.848q-1.079,1.846-2.071,3.738c-.139.268-.273.54-.41.81q-.859,1.686-1.643,3.4c-.112.246-.231.49-.342.737q-.862,1.939-1.62,3.9c-.123.32-.24.642-.36.962-.461,1.235-.9,2.471-1.292,3.714-.042.132-.09.262-.13.394-.416,1.332-.779,2.666-1.115,4q-.127.5-.246,1c-.074.318-.164.636-.233.953l-.038.186c-.184.893-.356,1.793-.512,2.556v0c-.011.063-.014.127-.025.19-.177,1.032-.3,2.053-.428,3.075-.065.519-.159,1.045-.21,1.562-.148,1.535-.239,3.055-.257,4.555-.014,1.262.027,2.478.1,3.662.007.117.011.239.02.358.083,1.117.213,2.189.376,3.23.025.161.047.32.074.477.172,1.007.383,1.976.627,2.91.042.159.083.318.127.474q.385,1.383.873,2.652c.052.134.107.266.161.4A24.246,24.246,0,0,0,21,90.107c.047.089.1.17.146.257a18.682,18.682,0,0,0,1.419,2.261l.027.034a16.873,16.873,0,0,0,1.645,1.965c.052.056.1.116.155.172a18.323,18.323,0,0,0,1.788,1.6c.09.072.181.148.273.219a17.472,17.472,0,0,0,1.927,1.262c.114.063.226.128.342.19a17.218,17.218,0,0,0,2.091.956c.117.045.235.085.354.128a17.767,17.767,0,0,0,2.292.658c.1.022.193.036.289.056a22.24,22.24,0,0,0,2.549.351c.031,0,.061,0,.09.005a22.623,22.623,0,0,0,2.691.011c.078,0,.154,0,.233-.007a24.811,24.811,0,0,0,2.749-.333c.134-.022.266-.042.4-.065.913-.17,1.842-.394,2.787-.663.159-.045.318-.09.477-.139.944-.286,1.9-.616,2.87-1A43.1,43.1,0,0,0,53.68,95.6C73.946,84.3,90.606,56.108,90.9,32.619a44.084,44.084,0,0,0-.4-6.639" transform="translate(14.134 4.734)" fill="#d3dbdc"/>
            <path id="Trazado_877216" data-name="Trazado 877216" d="M88.161,26.026c-.145-1.016-.32-2-.537-2.939-.014-.061-.025-.127-.04-.188-.224-.936-.486-1.829-.779-2.691-.045-.125-.083-.251-.125-.374-.295-.822-.622-1.605-.976-2.355-.063-.132-.127-.262-.19-.392a21.238,21.238,0,0,0-1.18-2.095c-.07-.108-.143-.211-.211-.316a19.672,19.672,0,0,0-1.415-1.887c-.049-.056-.1-.107-.152-.164a16.957,16.957,0,0,0-1.636-1.647c-.027-.023-.052-.051-.081-.074a17.859,17.859,0,0,0-1.826-1.368c-.089-.058-.174-.119-.262-.175a16.931,16.931,0,0,0-1.921-1.036c-.114-.052-.233-.107-.349-.157a17.037,17.037,0,0,0-2.061-.745c-.121-.034-.24-.065-.362-.1a17.72,17.72,0,0,0-2.25-.465c-.087-.013-.175-.016-.262-.029a19.915,19.915,0,0,0-2.462-.166c-.023,0-.045,0-.065,0a23.261,23.261,0,0,0-2.6.154c-.112.013-.226.022-.34.034-.85.107-1.715.264-2.594.461l-.459.1q-1.307.32-2.662.772c-.154.052-.307.108-.465.164-.92.325-1.849.69-2.793,1.113-.121.052-.239.112-.36.168a13.784,13.784,0,0,0-3.017,1.522l0,0-.007,0c-1.1.616-2.194,1.3-3.275,2.015-.177.119-.358.233-.537.354-1.03.7-2.041,1.45-3.046,2.232-.2.152-.389.309-.586.466-.28.224-.568.437-.842.672-.8.685-1.4,1.229-1.912,1.676l-.445.394c-.06.054-.13.114-.188.166-.909.821-1.777,1.708-2.646,2.6-.226.231-.45.47-.674.707-.9.954-1.8,1.925-2.655,2.943-.036.042-.072.08-.107.119-.891,1.045-1.744,2.133-2.587,3.235-.2.268-.407.533-.607.8C32.8,30.642,32,31.759,31.229,32.9c-.112.168-.217.34-.329.508q-1.028,1.556-1.988,3.161c-.163.273-.329.542-.49.817q-1.038,1.776-1.994,3.6c-.136.258-.264.521-.4.781q-.824,1.624-1.582,3.27c-.107.239-.221.474-.327.71-.555,1.245-1.072,2.5-1.56,3.758-.117.307-.231.616-.347.924-.443,1.188-.866,2.379-1.244,3.575-.04.128-.087.255-.125.38-.4,1.283-.75,2.568-1.074,3.852q-.122.48-.235.962c-.072.305-.161.613-.226.918l-.038.179c-.175.859-.342,1.724-.49,2.462h0c-.011.061-.014.121-.025.184-.17.992-.289,1.976-.41,2.959-.063.5-.154,1.007-.2,1.5-.143,1.477-.23,2.941-.248,4.385-.013,1.215.025,2.386.1,3.525.009.114.013.231.022.343.08,1.075.2,2.109.362,3.113.023.152.045.307.07.457q.249,1.456.6,2.8l.125.455q.371,1.331.84,2.552c.049.128.1.255.155.383a23.4,23.4,0,0,0,1.085,2.343c.045.085.1.163.141.246a18.015,18.015,0,0,0,1.366,2.176.418.418,0,0,1,.025.034,16.265,16.265,0,0,0,1.583,1.891c.051.054.1.112.152.164a17.427,17.427,0,0,0,1.719,1.538c.089.069.174.141.264.21a16.688,16.688,0,0,0,1.855,1.215c.108.063.217.123.329.183a16.351,16.351,0,0,0,2.014.922c.112.042.226.081.342.123a17.6,17.6,0,0,0,2.205.634c.092.02.186.033.28.052a21.773,21.773,0,0,0,2.453.34l.087,0a21.694,21.694,0,0,0,2.59.009c.076,0,.148,0,.224-.005a23.737,23.737,0,0,0,2.648-.32c.128-.022.257-.04.385-.063q1.32-.247,2.684-.638c.152-.043.305-.087.459-.134q1.361-.412,2.762-.965a41.2,41.2,0,0,0,4.9-2.33c19.512-10.872,35.55-38.019,35.827-60.631a42.088,42.088,0,0,0-.387-6.391" transform="translate(14.45 5.377)" fill="#d1dada"/>
            <path id="Trazado_877217" data-name="Trazado 877217" d="M85.83,26.071c-.137-.976-.305-1.92-.517-2.825-.014-.058-.023-.121-.038-.181-.215-.9-.468-1.759-.748-2.588-.042-.117-.08-.24-.121-.358a23.925,23.925,0,0,0-.936-2.265c-.06-.127-.121-.253-.183-.378a20.585,20.585,0,0,0-1.135-2.014c-.065-.1-.136-.2-.2-.3a18.67,18.67,0,0,0-1.361-1.813c-.045-.054-.1-.1-.145-.159A16.486,16.486,0,0,0,78.869,11.6c-.025-.022-.051-.049-.078-.07a17.017,17.017,0,0,0-1.755-1.316c-.085-.054-.166-.114-.251-.168a16.2,16.2,0,0,0-1.847-1L74.6,8.9a16.648,16.648,0,0,0-1.981-.716c-.116-.033-.231-.061-.347-.092a17.184,17.184,0,0,0-2.164-.448c-.083-.011-.168-.016-.251-.025a19.119,19.119,0,0,0-2.368-.163l-.063,0a21.918,21.918,0,0,0-2.5.148c-.108.013-.217.02-.327.033-.815.1-1.648.253-2.493.443-.148.033-.293.065-.439.1q-1.261.306-2.559.741c-.15.051-.3.1-.448.157-.884.313-1.779.665-2.686,1.072-.114.051-.23.107-.343.161a13.265,13.265,0,0,0-2.9,1.464l0,0-.005,0c-1.061.591-2.109,1.249-3.147,1.938-.172.112-.345.224-.517.34q-1.483,1.011-2.928,2.146c-.188.146-.374.3-.562.448-.269.217-.546.419-.812.645-.772.66-1.35,1.182-1.836,1.611-.154.136-.295.262-.428.38-.058.052-.125.11-.181.159-.875.79-1.71,1.643-2.543,2.5-.219.222-.434.452-.649.678-.868.918-1.728,1.853-2.554,2.831-.033.04-.069.076-.1.116-.857,1-1.677,2.05-2.485,3.109-.2.257-.392.513-.584.774-.786,1.054-1.554,2.127-2.292,3.228-.108.161-.21.325-.316.488-.66,1-1.3,2.012-1.912,3.038-.155.262-.316.522-.47.784q-1,1.708-1.918,3.46c-.13.248-.253.5-.38.75q-.8,1.559-1.52,3.143c-.1.23-.213.454-.316.683q-.8,1.795-1.5,3.611c-.114.295-.224.591-.334.887-.427,1.142-.831,2.287-1.195,3.438-.038.123-.083.244-.121.365-.385,1.233-.721,2.467-1.032,3.7-.078.307-.154.616-.226.924s-.154.589-.217.884c-.013.058-.023.114-.036.172-.17.826-.329,1.659-.472,2.366v0c-.011.058-.014.116-.025.175-.163.954-.278,1.9-.4,2.845-.06.481-.146.967-.193,1.444-.137,1.421-.221,2.829-.237,4.215-.014,1.169.023,2.294.1,3.389.007.108.011.222.018.331.078,1.034.2,2.026.349,2.991.023.146.043.295.069.439q.239,1.4.58,2.695c.038.146.078.293.117.437q.355,1.28.808,2.455c.047.123.1.246.148.367a23.005,23.005,0,0,0,1.043,2.252c.045.081.092.157.136.239a17.724,17.724,0,0,0,1.314,2.091l.025.033A15.481,15.481,0,0,0,24.513,89.6c.049.052.094.108.145.159a17.38,17.38,0,0,0,1.652,1.479c.085.067.168.136.255.2A16.258,16.258,0,0,0,28.347,92.6c.1.058.21.117.316.175a16.018,16.018,0,0,0,1.936.886l.327.117a16.721,16.721,0,0,0,2.12.609c.089.02.181.033.269.051a21.021,21.021,0,0,0,2.357.327l.085,0a21.172,21.172,0,0,0,2.491.009c.072,0,.143,0,.215-.007a22.733,22.733,0,0,0,2.545-.305c.123-.022.246-.038.371-.061.846-.157,1.706-.363,2.579-.613.146-.042.295-.085.443-.13.871-.264,1.759-.569,2.655-.925A40.007,40.007,0,0,0,51.764,90.5C70.518,80.047,85.938,53.952,86.2,32.214a40.772,40.772,0,0,0-.374-6.144" transform="translate(14.766 6.019)" fill="#cfd8d8"/>
            <path id="Trazado_877218" data-name="Trazado 877218" d="M83.5,26.117c-.132-.938-.293-1.842-.5-2.711-.014-.056-.023-.117-.038-.174-.206-.864-.448-1.688-.718-2.484-.04-.114-.076-.231-.116-.345-.269-.757-.571-1.48-.9-2.173-.058-.121-.116-.242-.175-.362a20.526,20.526,0,0,0-1.09-1.934c-.063-.1-.13-.193-.2-.291A17.876,17.876,0,0,0,78.47,13.9c-.043-.052-.092-.1-.139-.154a15.567,15.567,0,0,0-1.511-1.518c-.025-.023-.049-.047-.074-.069A16.371,16.371,0,0,0,75.061,10.9c-.081-.052-.159-.108-.24-.161a15.78,15.78,0,0,0-1.773-.956c-.107-.047-.213-.1-.322-.145a15.338,15.338,0,0,0-1.9-.687c-.11-.033-.222-.06-.333-.09a16.483,16.483,0,0,0-2.075-.428c-.081-.011-.163-.016-.242-.025A18.322,18.322,0,0,0,65.9,8.253l-.061,0a20.918,20.918,0,0,0-2.4.141c-.1.013-.21.02-.315.033-.783.1-1.582.242-2.393.425-.141.031-.28.063-.421.1q-1.209.293-2.456.71c-.143.049-.286.1-.43.152-.848.3-1.706.638-2.578,1.027-.108.049-.219.1-.329.155a12.792,12.792,0,0,0-2.785,1.4l0,0-.005,0c-1.019.569-2.024,1.2-3.02,1.86-.166.108-.333.215-.5.325-.951.647-1.885,1.338-2.811,2.061-.181.139-.36.286-.54.43-.258.208-.524.4-.779.62-.741.633-1.3,1.133-1.762,1.545-.146.128-.282.249-.41.363l-.174.154c-.84.757-1.641,1.576-2.442,2.4-.208.213-.416.432-.622.651-.833.88-1.657,1.777-2.451,2.715-.031.038-.065.074-.1.112-.821.962-1.609,1.967-2.386,2.984-.188.246-.374.492-.56.741-.754,1.012-1.491,2.042-2.2,3.1-.1.155-.2.315-.3.468q-.946,1.437-1.835,2.917c-.15.251-.3.5-.45.754q-.96,1.638-1.84,3.319c-.125.239-.244.481-.365.721q-.765,1.5-1.459,3.017c-.1.219-.206.436-.3.654q-.767,1.722-1.439,3.467c-.11.282-.215.568-.32.851-.41,1.1-.8,2.2-1.148,3.3-.036.116-.08.233-.116.349-.369,1.184-.692,2.37-.991,3.552-.076.3-.146.593-.217.889s-.146.564-.208.846c-.011.056-.023.11-.034.166-.163.792-.316,1.591-.454,2.27v0c-.011.056-.014.11-.023.168-.157.916-.268,1.822-.38,2.731-.058.459-.141.927-.186,1.386-.132,1.361-.211,2.713-.228,4.045-.013,1.121.023,2.2.092,3.252.007.1.011.213.018.318.074.992.19,1.945.334,2.87.022.141.042.282.065.421.154.895.34,1.755.557,2.587.036.141.074.282.114.421.228.817.484,1.6.774,2.353.047.119.1.237.145.354a21.531,21.531,0,0,0,1,2.16c.042.08.087.152.13.228a16.924,16.924,0,0,0,1.26,2.008l.023.031a14.921,14.921,0,0,0,1.46,1.744c.047.051.092.1.139.154a16.74,16.74,0,0,0,1.587,1.419c.081.063.161.13.244.193a15.625,15.625,0,0,0,1.71,1.121l.3.168a15.416,15.416,0,0,0,1.858.85c.1.04.208.074.315.112a15.693,15.693,0,0,0,2.035.586c.085.018.172.033.257.049a19.432,19.432,0,0,0,2.263.313c.027,0,.054,0,.081.005a20.629,20.629,0,0,0,2.39.009c.07,0,.137,0,.206-.007a22.141,22.141,0,0,0,2.444-.293c.119-.022.235-.038.356-.06.81-.15,1.636-.349,2.474-.589.141-.04.282-.08.425-.123.837-.255,1.688-.548,2.549-.889a38.522,38.522,0,0,0,4.517-2.151c18-10.03,32.8-35.073,33.054-55.935a39.233,39.233,0,0,0-.36-5.9" transform="translate(15.082 6.662)" fill="#ccd6d7"/>
            <path id="Trazado_877219" data-name="Trazado 877219" d="M81.17,26.162c-.127-.9-.28-1.766-.475-2.6-.013-.054-.022-.112-.034-.166-.2-.828-.43-1.618-.689-2.38-.038-.108-.072-.221-.11-.329A22.3,22.3,0,0,0,79,18.607q-.081-.174-.168-.347a19.012,19.012,0,0,0-1.043-1.851c-.06-.1-.125-.186-.186-.28a17.419,17.419,0,0,0-1.251-1.667c-.043-.051-.089-.1-.134-.146a15.061,15.061,0,0,0-1.446-1.455c-.025-.022-.047-.045-.072-.065a15.708,15.708,0,0,0-1.614-1.209c-.078-.051-.152-.1-.23-.155a15.058,15.058,0,0,0-1.7-.915c-.1-.047-.2-.1-.309-.141a15.132,15.132,0,0,0-1.82-.658l-.32-.085a16.074,16.074,0,0,0-1.988-.412c-.076-.009-.155-.014-.231-.023a17.5,17.5,0,0,0-2.176-.148l-.06,0a19.951,19.951,0,0,0-2.3.136c-.1.011-.2.018-.3.031-.75.092-1.515.231-2.292.407-.136.031-.269.06-.4.092-.774.188-1.558.414-2.353.683-.137.045-.275.1-.412.143-.813.289-1.636.613-2.469.985-.1.047-.211.1-.316.148-.878.407-1.768.846-2.668,1.347l-.005,0,0,0c-.978.546-1.941,1.15-2.9,1.782-.159.1-.318.206-.475.313-.909.62-1.8,1.282-2.691,1.974-.174.134-.345.273-.519.412-.248.2-.5.385-.745.593-.71.607-1.242,1.086-1.69,1.482-.139.123-.271.239-.392.347-.054.049-.116.1-.166.148-.8.725-1.573,1.509-2.339,2.3-.2.2-.4.414-.6.624-.8.842-1.589,1.7-2.348,2.6-.031.036-.063.07-.092.107-.788.922-1.544,1.885-2.287,2.859-.181.235-.36.47-.537.71q-1.085,1.453-2.108,2.968c-.1.148-.192.3-.291.448-.606.916-1.191,1.851-1.757,2.794-.145.24-.291.479-.434.721q-.916,1.573-1.762,3.179c-.119.23-.231.461-.349.69q-.732,1.437-1.4,2.89c-.1.211-.2.418-.291.629q-.735,1.648-1.379,3.32c-.1.271-.2.544-.305.817-.392,1.05-.766,2.1-1.1,3.16-.036.112-.076.224-.112.336-.354,1.133-.663,2.268-.949,3.4-.072.286-.141.568-.208.851s-.141.54-.2.812l-.033.159c-.157.759-.3,1.524-.434,2.174l0,0c-.009.052-.013.107-.022.161-.15.878-.257,1.746-.363,2.615-.056.443-.136.889-.179,1.329-.127,1.305-.2,2.6-.217,3.875-.014,1.075.022,2.109.087,3.116.007.1.011.2.018.305.07.949.181,1.862.32,2.749.022.136.04.271.063.4.145.857.325,1.681.533,2.476.034.136.07.269.108.4q.325,1.177.741,2.256c.045.114.092.226.137.338a20.755,20.755,0,0,0,.96,2.071c.04.074.085.145.125.219a16.559,16.559,0,0,0,1.207,1.923l.023.029a14.3,14.3,0,0,0,1.4,1.672c.045.047.087.1.132.146a16.006,16.006,0,0,0,1.52,1.357c.078.061.155.127.233.186a15.117,15.117,0,0,0,1.639,1.074c.1.054.193.108.291.161a14.422,14.422,0,0,0,1.78.815l.3.107a15.124,15.124,0,0,0,1.95.562c.081.018.164.029.248.047a19.012,19.012,0,0,0,2.167.3c.025,0,.052,0,.078,0a19.329,19.329,0,0,0,2.29.009c.067,0,.13,0,.2-.005a21.1,21.1,0,0,0,2.341-.282c.114-.02.226-.034.34-.056.777-.145,1.569-.334,2.371-.564.136-.038.271-.078.409-.119q1.2-.363,2.44-.851A36.89,36.89,0,0,0,49.85,85.4C67.094,75.79,81.27,51.8,81.514,31.811a37.461,37.461,0,0,0-.343-5.648" transform="translate(15.398 7.305)" fill="#cad4d5"/>
            <path id="Trazado_877220" data-name="Trazado 877220" d="M78.841,26.207c-.121-.859-.269-1.688-.454-2.484-.013-.052-.022-.107-.034-.159-.19-.792-.41-1.545-.658-2.276-.036-.1-.069-.211-.1-.315a21.543,21.543,0,0,0-.824-1.992c-.052-.11-.107-.221-.161-.331a18.565,18.565,0,0,0-1-1.771c-.058-.09-.119-.177-.179-.268a16.625,16.625,0,0,0-1.195-1.592c-.042-.049-.085-.092-.128-.141a14.788,14.788,0,0,0-1.383-1.392c-.023-.02-.045-.042-.069-.063A15.045,15.045,0,0,0,71.11,12.27c-.074-.049-.146-.1-.221-.148a13.9,13.9,0,0,0-1.625-.875c-.1-.045-.2-.09-.295-.134a14.129,14.129,0,0,0-1.741-.629c-.1-.029-.2-.054-.305-.081a15.079,15.079,0,0,0-1.9-.394c-.072-.009-.148-.014-.222-.023a16.635,16.635,0,0,0-2.08-.141l-.056,0a19.444,19.444,0,0,0-2.2.128c-.1.011-.192.018-.287.031-.718.089-1.45.221-2.193.389-.128.029-.257.058-.385.089q-1.109.266-2.25.653c-.132.043-.262.09-.394.137-.777.275-1.563.584-2.361.942-.1.045-.2.1-.3.143a11.707,11.707,0,0,0-2.552,1.287l0,0-.005,0c-.933.521-1.853,1.1-2.765,1.7-.152.1-.3.2-.455.3-.869.593-1.724,1.224-2.574,1.887-.164.128-.329.262-.493.394-.239.19-.481.369-.714.568-.68.578-1.188,1.038-1.616,1.415l-.376.333c-.051.047-.11.1-.157.141-.77.694-1.5,1.444-2.238,2.2-.192.2-.38.4-.569.6-.763.806-1.518,1.627-2.245,2.487-.029.034-.06.067-.089.1-.754.882-1.475,1.8-2.187,2.733q-.258.339-.513.68c-.69.927-1.365,1.871-2.014,2.838-.1.143-.184.287-.278.43q-.87,1.315-1.681,2.672c-.137.231-.278.459-.414.69q-.878,1.5-1.685,3.04c-.114.219-.222.441-.336.66q-.7,1.372-1.336,2.764c-.09.2-.188.4-.277.6-.47,1.052-.906,2.111-1.319,3.176-.1.258-.2.521-.293.781-.374,1-.732,2.01-1.05,3.022-.034.107-.072.213-.107.32-.338,1.085-.634,2.171-.907,3.254-.069.273-.134.542-.2.813s-.134.519-.19.777l-.033.152c-.148.725-.287,1.457-.414,2.079l0,0c-.009.051-.011.1-.02.154-.145.84-.246,1.67-.349,2.5-.052.423-.128.85-.17,1.271-.121,1.247-.193,2.485-.208,3.705-.013,1.027.02,2.017.083,2.979.007.1.009.2.016.291.069.909.174,1.782.307,2.63.02.128.038.258.06.387.139.819.311,1.607.51,2.368.034.13.069.258.1.387.208.748.443,1.47.709,2.156.043.11.089.215.132.324a19.69,19.69,0,0,0,.916,1.979c.04.072.081.139.119.21a15.9,15.9,0,0,0,1.155,1.838l.022.029a13.85,13.85,0,0,0,1.338,1.6c.043.045.085.1.128.139a14.676,14.676,0,0,0,1.453,1.3c.074.058.146.119.222.177A14.328,14.328,0,0,0,28.3,84.7c.092.052.184.1.278.155a13.8,13.8,0,0,0,1.7.777c.094.036.19.069.287.1a14.642,14.642,0,0,0,1.864.535c.078.018.159.029.237.045a18.588,18.588,0,0,0,2.073.286c.023,0,.049,0,.074,0a18.78,18.78,0,0,0,2.189.009c.063,0,.125,0,.19-.005a20.544,20.544,0,0,0,2.238-.269c.108-.018.215-.034.325-.054.743-.137,1.5-.32,2.267-.539.13-.038.26-.074.39-.114.766-.233,1.545-.5,2.334-.815a35.255,35.255,0,0,0,4.139-1.968C65.38,73.66,78.935,50.719,79.17,31.608a35.905,35.905,0,0,0-.329-5.4" transform="translate(15.714 7.947)" fill="#c8d2d3"/>
            <path id="Trazado_877221" data-name="Trazado 877221" d="M76.512,26.253c-.116-.819-.257-1.611-.434-2.37-.011-.051-.02-.1-.033-.152-.181-.756-.39-1.475-.627-2.171-.034-.1-.065-.2-.1-.3a19.753,19.753,0,0,0-.786-1.9c-.049-.107-.1-.213-.152-.318a18.073,18.073,0,0,0-.953-1.688c-.054-.087-.114-.17-.17-.255a15.972,15.972,0,0,0-1.141-1.522c-.04-.045-.083-.087-.123-.132a13.67,13.67,0,0,0-1.319-1.329c-.023-.02-.043-.042-.065-.06a14.352,14.352,0,0,0-1.473-1.1c-.07-.045-.139-.1-.21-.141a13.467,13.467,0,0,0-1.551-.835l-.28-.127a13.272,13.272,0,0,0-1.663-.6c-.1-.029-.193-.052-.291-.08a14.774,14.774,0,0,0-1.813-.374c-.07-.011-.143-.014-.213-.023a16.186,16.186,0,0,0-1.985-.136h-.054a18.09,18.09,0,0,0-2.095.123c-.092.011-.183.016-.275.029-.685.085-1.383.211-2.091.371-.123.027-.246.054-.369.085-.7.168-1.421.378-2.147.622-.125.042-.249.087-.374.132-.743.262-1.493.557-2.254.9-.1.043-.192.09-.287.136a11.154,11.154,0,0,0-2.435,1.227l0,0h-.005c-.891.5-1.768,1.048-2.639,1.627-.145.094-.291.188-.434.286-.83.564-1.647,1.168-2.456,1.8-.157.123-.315.251-.472.376-.226.183-.459.352-.68.542-.649.553-1.133.992-1.542,1.352-.128.112-.248.219-.36.318-.049.043-.1.092-.15.134-.736.662-1.435,1.377-2.135,2.1-.183.188-.363.38-.544.569-.728.77-1.448,1.554-2.142,2.375-.029.033-.058.063-.085.1-.719.842-1.408,1.719-2.086,2.608-.164.215-.329.43-.49.649q-.99,1.326-1.923,2.708c-.09.136-.175.275-.266.41q-.827,1.255-1.6,2.549c-.13.221-.264.437-.394.658q-.838,1.434-1.609,2.9c-.108.21-.211.421-.32.631-.443.873-.869,1.75-1.274,2.637-.087.192-.179.38-.264.573-.448,1-.864,2.014-1.258,3.029-.1.248-.188.5-.28.745-.358.958-.7,1.918-1,2.883-.031.1-.069.2-.1.307-.322,1.034-.6,2.07-.866,3.1-.065.26-.128.519-.19.777s-.128.493-.181.739c-.011.049-.02.1-.031.146-.143.69-.275,1.39-.4,1.983v0c-.009.049-.013.1-.022.146-.136.8-.233,1.594-.331,2.388-.051.4-.123.812-.163,1.213-.116,1.189-.184,2.371-.2,3.536-.013.98.02,1.923.08,2.841.007.092.009.186.016.278.063.868.166,1.7.293,2.509.018.123.036.248.056.369.134.783.3,1.535.488,2.261.031.123.065.246.1.367q.3,1.074.676,2.059c.04.1.083.206.125.307a19.109,19.109,0,0,0,.877,1.891c.036.069.076.132.112.2a15.257,15.257,0,0,0,1.1,1.755l.022.027a13.061,13.061,0,0,0,1.276,1.524c.042.043.08.092.121.134a14.2,14.2,0,0,0,1.386,1.24c.07.056.141.114.213.168a13.465,13.465,0,0,0,1.495.981l.266.146a13.043,13.043,0,0,0,1.623.743c.09.034.183.065.275.1a14.106,14.106,0,0,0,1.78.513c.074.016.15.027.224.042a17.806,17.806,0,0,0,1.979.275c.022,0,.047,0,.07,0a18.246,18.246,0,0,0,2.088.009c.061,0,.121,0,.181-.005a19.44,19.44,0,0,0,2.135-.257c.1-.018.208-.033.313-.052.709-.132,1.43-.305,2.162-.515.125-.034.248-.069.372-.108.73-.222,1.475-.477,2.229-.775a33.913,33.913,0,0,0,3.948-1.88C63.667,71.531,76.6,49.641,76.826,31.406a34.382,34.382,0,0,0-.315-5.153" transform="translate(16.03 8.589)" fill="#c5d0d1"/>
            <path id="Trazado_877222" data-name="Trazado 877222" d="M74.182,26.3c-.11-.781-.244-1.533-.412-2.256-.011-.047-.02-.1-.031-.145-.174-.719-.372-1.4-.6-2.068-.033-.094-.063-.192-.1-.286a18.715,18.715,0,0,0-.748-1.808c-.047-.1-.1-.2-.146-.3a16.606,16.606,0,0,0-.906-1.609c-.052-.081-.108-.161-.163-.242A14.677,14.677,0,0,0,70,16.137c-.036-.043-.078-.083-.116-.127a12.777,12.777,0,0,0-1.256-1.265c-.022-.018-.042-.038-.061-.056a13.494,13.494,0,0,0-1.4-1.05c-.069-.045-.132-.092-.2-.136a12.7,12.7,0,0,0-1.475-.793c-.089-.042-.177-.083-.268-.123a12.654,12.654,0,0,0-1.582-.571c-.092-.027-.184-.051-.278-.074a13.711,13.711,0,0,0-1.726-.358c-.067-.009-.136-.013-.2-.022a15.734,15.734,0,0,0-1.891-.128l-.051,0a17.958,17.958,0,0,0-1.994.117c-.087.011-.174.016-.262.027-.651.081-1.316.2-1.992.354-.116.025-.233.052-.349.081q-1.009.241-2.044.591c-.119.04-.239.083-.358.125-.707.251-1.421.531-2.146.857-.09.04-.183.085-.275.128a10.649,10.649,0,0,0-2.317,1.169l0,0,0,0c-.85.474-1.686,1-2.516,1.547-.136.09-.275.179-.412.271-.79.539-1.567,1.113-2.337,1.714-.15.117-.3.239-.45.358-.215.174-.436.336-.647.517-.618.526-1.079.944-1.468,1.287-.121.107-.235.206-.342.3-.047.042-.1.089-.145.127-.7.631-1.365,1.312-2.032,2-.174.179-.345.362-.517.542-.692.732-1.379,1.48-2.039,2.259-.027.033-.056.061-.081.092-.683.8-1.339,1.638-1.986,2.484q-.233.306-.466.618c-.627.84-1.24,1.7-1.829,2.578-.087.128-.168.26-.253.389-.526.8-1.034,1.609-1.526,2.427-.127.21-.253.418-.376.627q-.8,1.364-1.531,2.762c-.1.2-.2.4-.305.6q-.634,1.244-1.213,2.509c-.083.183-.17.363-.251.546-.427.956-.822,1.918-1.2,2.885-.09.235-.177.472-.266.709-.342.913-.665,1.826-.954,2.746-.031.1-.067.2-.1.291-.307.985-.575,1.972-.824,2.955-.061.248-.121.493-.181.739s-.121.47-.172.7c-.011.045-.02.092-.029.139-.136.658-.262,1.323-.378,1.889-.009.047-.011.092-.02.141-.13.763-.222,1.517-.315,2.272-.049.383-.117.772-.155,1.153-.11,1.133-.177,2.258-.19,3.366-.011.934.02,1.833.076,2.706.007.087.009.179.016.266.06.826.157,1.618.277,2.388.02.117.036.237.056.352q.19,1.114.463,2.151c.031.117.061.235.094.351q.285,1.019.645,1.959c.038.1.08.2.119.293a17.856,17.856,0,0,0,.833,1.8c.034.065.072.127.108.19a14.745,14.745,0,0,0,1.048,1.67l.02.025a12.325,12.325,0,0,0,1.215,1.451c.04.042.076.087.116.128a13.527,13.527,0,0,0,1.321,1.18c.067.052.134.108.2.161a12.667,12.667,0,0,0,1.423.933l.253.141a12.707,12.707,0,0,0,1.545.707c.087.033.174.061.262.092a13.123,13.123,0,0,0,1.694.488c.07.016.143.025.215.042a17.466,17.466,0,0,0,1.882.26c.023,0,.045,0,.069,0a17.337,17.337,0,0,0,1.988.009c.058,0,.114,0,.172-.005a17.975,17.975,0,0,0,2.032-.246c.1-.016.2-.031.3-.049.676-.125,1.363-.291,2.061-.49.116-.033.235-.067.352-.1.7-.211,1.4-.456,2.122-.739a31.986,31.986,0,0,0,3.758-1.789C61.954,69.4,74.269,48.564,74.48,31.206a32.6,32.6,0,0,0-.3-4.907" transform="translate(16.346 9.231)" fill="#c3cecf"/>
            <path id="Trazado_877223" data-name="Trazado 877223" d="M71.852,26.345c-.1-.741-.231-1.455-.392-2.144-.011-.043-.018-.09-.029-.136-.164-.683-.352-1.334-.568-1.963-.031-.09-.06-.183-.09-.273a18.11,18.11,0,0,0-.71-1.715c-.045-.1-.092-.192-.139-.287a16.279,16.279,0,0,0-.86-1.526c-.051-.08-.1-.155-.154-.231a14.439,14.439,0,0,0-1.032-1.376c-.034-.042-.074-.08-.11-.119a12.487,12.487,0,0,0-1.193-1.2c-.02-.016-.038-.036-.058-.052a12.533,12.533,0,0,0-1.332-1c-.065-.042-.127-.087-.19-.128a12.143,12.143,0,0,0-1.4-.754c-.085-.04-.17-.078-.255-.116a11.778,11.778,0,0,0-1.5-.542c-.087-.025-.175-.049-.264-.072a12.972,12.972,0,0,0-1.639-.338c-.063-.009-.128-.013-.192-.022a14.574,14.574,0,0,0-1.795-.121l-.049,0a16.139,16.139,0,0,0-1.892.112c-.083.009-.166.014-.249.025-.618.078-1.251.192-1.891.336-.11.023-.221.049-.333.076-.638.154-1.283.342-1.941.562-.112.038-.226.08-.34.119-.671.237-1.348.5-2.035.813-.087.038-.174.081-.262.121-.723.336-1.457.7-2.2,1.11l0,0h0c-.806.45-1.6.947-2.388,1.47-.13.087-.26.17-.39.258-.75.512-1.489,1.057-2.221,1.627l-.427.34c-.2.164-.414.318-.615.49-.586.5-1.023.9-1.394,1.222-.116.1-.222.2-.324.287-.045.04-.1.083-.137.121-.665.6-1.3,1.245-1.929,1.9-.164.17-.329.342-.492.515-.658.7-1.309,1.4-1.936,2.146l-.078.087c-.649.761-1.272,1.554-1.885,2.359-.148.193-.3.389-.443.586-.595.8-1.179,1.614-1.739,2.447-.081.123-.157.249-.239.371-.5.757-.981,1.526-1.45,2.3-.119.2-.24.4-.358.595q-.756,1.3-1.453,2.623c-.1.19-.192.381-.289.569Q25.961,39,25.411,40.2c-.08.174-.163.345-.239.517q-.607,1.361-1.137,2.74c-.087.222-.17.448-.255.672-.322.866-.631,1.735-.906,2.608-.029.092-.063.184-.092.277-.291.934-.546,1.871-.783,2.805-.06.235-.116.468-.17.7s-.117.446-.164.671l-.027.13c-.13.625-.249,1.258-.36,1.795-.007.043-.011.089-.018.134-.123.723-.211,1.441-.3,2.156-.045.365-.112.734-.146,1.1-.1,1.075-.168,2.144-.181,3.2-.011.886.018,1.739.074,2.568.005.083.007.17.013.253.058.783.15,1.536.264,2.267.018.112.034.224.052.334.121.707.269,1.386.439,2.042.031.112.06.222.09.333.181.647.383,1.267.613,1.86.036.1.074.186.112.28a16.8,16.8,0,0,0,.792,1.706c.033.063.069.119.1.181a14.11,14.11,0,0,0,1,1.587l.018.023a12.084,12.084,0,0,0,1.155,1.379c.036.038.072.081.11.119a12.369,12.369,0,0,0,1.253,1.121c.065.051.127.1.192.154a12.241,12.241,0,0,0,1.352.886c.08.045.159.09.24.134a11.71,11.71,0,0,0,1.468.671c.081.031.166.06.249.089a12.649,12.649,0,0,0,1.607.463c.067.016.137.025.2.04a16.246,16.246,0,0,0,1.788.246c.022,0,.043,0,.065,0a17.262,17.262,0,0,0,1.887.007c.056,0,.108,0,.163-.005a16.952,16.952,0,0,0,1.93-.231c.094-.016.186-.029.282-.047.64-.119,1.292-.277,1.956-.465.11-.033.222-.063.336-.1.66-.2,1.332-.434,2.014-.7a30.216,30.216,0,0,0,3.568-1.7C60.24,67.274,71.933,47.487,72.136,31a31.051,31.051,0,0,0-.284-4.658" transform="translate(16.66 9.873)" fill="#c1cccd"/>
            <path id="Trazado_877224" data-name="Trazado 877224" d="M69.522,26.391c-.1-.7-.221-1.379-.371-2.03-.011-.042-.018-.087-.029-.128-.155-.645-.333-1.263-.537-1.858-.029-.085-.056-.174-.087-.258a16.43,16.43,0,0,0-.672-1.625l-.13-.271a15.682,15.682,0,0,0-.815-1.446c-.047-.074-.1-.146-.146-.219a13.418,13.418,0,0,0-.976-1.3c-.033-.04-.07-.076-.1-.114A11.375,11.375,0,0,0,64.524,16c-.018-.016-.036-.034-.056-.051a11.927,11.927,0,0,0-1.26-.945c-.061-.04-.119-.081-.181-.121a11.27,11.27,0,0,0-1.327-.714c-.08-.036-.159-.074-.24-.11a11.365,11.365,0,0,0-1.423-.513c-.081-.023-.166-.045-.249-.067a12.631,12.631,0,0,0-1.553-.322c-.06-.007-.121-.011-.181-.018a13.407,13.407,0,0,0-1.7-.116l-.047,0a15.221,15.221,0,0,0-1.793.1c-.078.009-.155.014-.235.025-.586.074-1.184.181-1.789.318l-.316.072c-.6.145-1.215.324-1.836.531-.108.036-.215.076-.322.114-.636.224-1.278.477-1.929.768l-.248.116a9.728,9.728,0,0,0-2.084,1.052l0,0,0,0c-.763.425-1.515.9-2.261,1.392-.123.081-.248.159-.371.244-.71.483-1.41,1-2.1,1.54-.136.1-.269.213-.4.322-.2.155-.392.3-.584.465-.553.474-.969.848-1.319,1.157-.108.1-.211.186-.305.271l-.13.116c-.629.566-1.227,1.179-1.827,1.795-.155.161-.311.324-.465.488-.624.658-1.24,1.33-1.833,2.032-.025.027-.051.054-.074.081-.615.721-1.2,1.473-1.786,2.234-.139.184-.28.367-.418.555-.564.757-1.117,1.527-1.647,2.317-.078.116-.15.235-.226.351q-.71,1.074-1.374,2.182c-.112.188-.228.374-.338.564-.477.817-.938,1.647-1.376,2.484-.094.179-.183.36-.275.539q-.569,1.12-1.09,2.258c-.076.163-.154.325-.228.49-.383.859-.739,1.724-1.075,2.594-.081.211-.161.425-.24.638-.305.819-.6,1.641-.859,2.467-.027.089-.058.175-.087.262-.275.886-.517,1.771-.741,2.657-.056.222-.108.445-.161.665s-.11.423-.155.634l-.027.123c-.121.593-.235,1.189-.338,1.7h0c-.007.042-.009.083-.016.127-.117.685-.2,1.363-.284,2.042-.043.345-.107.694-.139,1.038-.1,1.019-.159,2.03-.17,3.028-.011.839.016,1.647.069,2.431.005.08.007.161.013.239.054.743.141,1.455.249,2.147l.049.316c.114.669.255,1.312.418,1.934.027.107.056.211.085.314.172.613.363,1.2.58,1.762.034.09.07.177.107.264A16.011,16.011,0,0,0,23.343,69c.033.058.065.112.1.17a13.454,13.454,0,0,0,.944,1.5l.018.023A11.281,11.281,0,0,0,25.494,72c.036.036.069.078.1.114a11.921,11.921,0,0,0,1.188,1.061c.06.049.119.1.181.145a11.372,11.372,0,0,0,1.28.839c.076.043.152.085.228.127a11.115,11.115,0,0,0,1.39.636c.078.029.155.056.235.083a12.081,12.081,0,0,0,1.522.439l.193.036a15.4,15.4,0,0,0,1.694.233l.06,0a16.386,16.386,0,0,0,1.789.007c.051,0,.1,0,.154-.005a15.959,15.959,0,0,0,1.827-.219c.089-.016.177-.029.266-.045.607-.112,1.226-.262,1.853-.441.1-.029.211-.06.318-.092.625-.19,1.262-.409,1.907-.665a28.847,28.847,0,0,0,3.378-1.607C58.528,65.146,69.6,46.409,69.791,30.8a29.522,29.522,0,0,0-.269-4.412" transform="translate(16.977 10.516)" fill="#becacc"/>
            <path id="Trazado_877225" data-name="Trazado 877225" d="M67.192,26.435q-.138-1-.351-1.916c-.009-.04-.016-.081-.025-.121-.148-.609-.315-1.193-.508-1.755-.027-.08-.052-.163-.081-.242a15.844,15.844,0,0,0-.634-1.535c-.042-.085-.081-.172-.125-.257a14.805,14.805,0,0,0-.768-1.365l-.137-.206a12.938,12.938,0,0,0-.922-1.227c-.033-.038-.067-.072-.1-.108a10.684,10.684,0,0,0-1.066-1.074c-.018-.014-.034-.033-.052-.047a11.02,11.02,0,0,0-1.189-.891c-.058-.038-.112-.078-.17-.116a11.12,11.12,0,0,0-1.253-.674l-.228-.1a10.565,10.565,0,0,0-1.341-.484c-.078-.023-.157-.043-.237-.063a11.672,11.672,0,0,0-1.464-.3c-.058-.007-.116-.011-.172-.018a12.935,12.935,0,0,0-1.605-.108l-.043,0a14.282,14.282,0,0,0-1.692.1c-.074.009-.146.013-.222.023-.551.07-1.117.172-1.69.3-.1.022-.2.043-.3.069-.571.136-1.148.305-1.735.5-.1.033-.2.07-.3.1-.6.211-1.206.452-1.82.727-.078.034-.155.074-.233.11a9.092,9.092,0,0,0-1.967.992l0,0h0c-.721.4-1.43.848-2.135,1.314-.116.078-.233.152-.349.23-.671.457-1.33.945-1.985,1.455-.128.1-.255.2-.381.3-.184.146-.371.284-.549.437-.524.448-.916.8-1.245,1.092l-.289.257c-.04.036-.087.076-.123.108-.595.535-1.159,1.113-1.724,1.7-.148.152-.293.305-.439.459-.589.622-1.169,1.256-1.73,1.918l-.07.08c-.578.681-1.137,1.388-1.685,2.106l-.4.524c-.531.716-1.052,1.442-1.553,2.189-.074.108-.143.222-.215.331q-.67,1.014-1.3,2.059c-.1.179-.213.354-.318.531q-.678,1.16-1.3,2.346c-.089.168-.172.338-.258.508q-.537,1.057-1.028,2.129c-.072.155-.146.309-.215.463-.362.812-.7,1.629-1.016,2.449-.078.2-.152.4-.226.6-.289.774-.566,1.549-.81,2.33-.027.083-.056.164-.083.248-.262.835-.488,1.672-.7,2.507-.052.21-.1.419-.152.627s-.1.4-.146.6c-.009.04-.018.078-.025.117-.116.559-.222,1.122-.32,1.6-.007.04-.011.08-.016.119-.112.647-.19,1.287-.269,1.929-.04.325-.1.656-.13.98-.094.962-.15,1.916-.161,2.856-.011.793.014,1.554.065,2.3.005.074.007.152.013.226.051.7.134,1.374.235,2.026.016.1.031.2.047.3.107.633.24,1.24.392,1.827.027.1.054.2.081.3.161.577.342,1.133.546,1.663.033.085.069.166.1.249a14.964,14.964,0,0,0,.709,1.526c.029.056.061.107.09.161a12.82,12.82,0,0,0,.891,1.419l.016.022a10.506,10.506,0,0,0,1.032,1.231c.033.036.063.074.1.108a11.442,11.442,0,0,0,1.121,1c.058.045.114.092.172.137a10.862,10.862,0,0,0,1.209.792c.07.04.141.08.213.117a10.506,10.506,0,0,0,1.312.6c.072.029.146.054.222.08a11.337,11.337,0,0,0,1.437.414c.06.014.121.023.181.034a14.2,14.2,0,0,0,1.6.221l.056,0A15.908,15.908,0,0,0,34.945,73c.049,0,.1,0,.145-.005a14.964,14.964,0,0,0,1.726-.208c.083-.014.166-.025.251-.042.573-.107,1.155-.248,1.748-.416.1-.027.2-.056.3-.087.591-.181,1.191-.387,1.8-.627a27.257,27.257,0,0,0,3.19-1.518c12.71-7.085,23.16-24.77,23.34-39.5a27.751,27.751,0,0,0-.253-4.165" transform="translate(17.293 11.158)" fill="#bcc8ca"/>
            <path id="Trazado_877226" data-name="Trazado 877226" d="M64.863,26.481c-.087-.624-.2-1.224-.329-1.8-.009-.036-.016-.076-.025-.114-.139-.573-.3-1.122-.477-1.65-.025-.076-.049-.154-.076-.23a14.782,14.782,0,0,0-.6-1.442c-.038-.081-.076-.161-.116-.24a13.89,13.89,0,0,0-.723-1.283c-.042-.067-.087-.13-.128-.2a12.5,12.5,0,0,0-.868-1.155c-.031-.034-.063-.067-.092-.1a10.382,10.382,0,0,0-1-1.009l-.049-.045a10.373,10.373,0,0,0-1.119-.839c-.054-.036-.107-.072-.161-.107a10.1,10.1,0,0,0-1.177-.636l-.213-.1a9.9,9.9,0,0,0-1.263-.457l-.222-.06a11.263,11.263,0,0,0-1.377-.284c-.054-.007-.108-.011-.161-.018a12.468,12.468,0,0,0-1.509-.1h-.042a13.314,13.314,0,0,0-1.591.092c-.07.009-.139.014-.21.023-.519.065-1.05.161-1.589.282-.094.02-.186.042-.28.063-.535.128-1.079.287-1.632.474-.094.031-.19.067-.284.1-.566.2-1.135.425-1.714.683-.072.033-.145.069-.219.1-.609.282-1.226.586-1.849.933l0,0,0,0c-.676.378-1.343.8-2.006,1.235-.108.072-.221.143-.329.217-.631.43-1.251.889-1.867,1.368-.119.094-.239.19-.358.286-.172.137-.349.268-.517.412-.492.421-.86.752-1.171,1.027-.1.085-.188.164-.273.24-.036.034-.08.07-.114.1-.56.5-1.09,1.047-1.623,1.594-.137.143-.275.287-.412.432-.553.584-1.1,1.182-1.629,1.8-.02.025-.043.049-.065.074-.544.64-1.068,1.307-1.583,1.981-.125.164-.249.327-.372.493-.5.674-.991,1.356-1.462,2.057-.069.1-.132.21-.2.313-.419.634-.826,1.282-1.218,1.936-.1.168-.2.333-.3.5q-.637,1.09-1.222,2.205c-.083.157-.163.32-.244.477q-.507,1-.969,2c-.065.145-.136.289-.2.436-.34.763-.656,1.531-.956,2.3-.072.188-.141.378-.213.566-.271.728-.53,1.457-.761,2.193-.023.078-.052.154-.078.231-.246.786-.459,1.573-.658,2.359-.049.2-.1.394-.143.589s-.1.376-.137.564c-.009.036-.016.072-.023.11-.108.524-.21,1.056-.3,1.507-.007.038-.009.074-.014.112-.1.609-.179,1.211-.253,1.815-.038.305-.094.616-.123.92-.089.906-.141,1.8-.152,2.688-.009.745.014,1.462.061,2.16.005.069.007.141.011.211.049.658.127,1.292.222,1.905l.043.282c.1.593.226,1.164.371,1.717.023.094.049.186.076.278.152.544.322,1.066.513,1.565.031.08.063.157.1.233a14.365,14.365,0,0,0,.665,1.437c.027.052.058.1.087.152A12.306,12.306,0,0,0,24.79,65.8l.016.02a10.087,10.087,0,0,0,.969,1.159c.033.034.061.07.092.1a10.774,10.774,0,0,0,1.056.942c.052.042.1.087.161.128a9.994,9.994,0,0,0,1.137.745c.065.038.134.076.2.112a9.9,9.9,0,0,0,1.235.564c.069.025.137.051.208.074a10.771,10.771,0,0,0,1.352.39c.056.013.114.02.172.033a14.308,14.308,0,0,0,1.5.206l.054,0a15.461,15.461,0,0,0,1.587.007c.047,0,.092,0,.137-.005a13.971,13.971,0,0,0,1.623-.2c.08-.013.157-.025.237-.04.539-.1,1.086-.233,1.643-.39l.284-.083c.555-.17,1.119-.363,1.692-.589a25.774,25.774,0,0,0,3-1.428C55.1,60.887,64.932,44.255,65.1,30.4a26.21,26.21,0,0,0-.239-3.917" transform="translate(17.609 11.801)" fill="#bac7c8"/>
            <path id="Trazado_877227" data-name="Trazado 877227" d="M62.534,26.527c-.081-.584-.183-1.146-.309-1.688-.007-.034-.014-.072-.023-.107-.13-.537-.277-1.05-.446-1.545-.023-.07-.045-.145-.07-.215a14.205,14.205,0,0,0-.56-1.352l-.108-.226c-.21-.419-.437-.821-.678-1.2-.04-.061-.081-.121-.121-.181a10.986,10.986,0,0,0-.813-1.083c-.027-.033-.058-.063-.085-.1a9.878,9.878,0,0,0-.94-.945c-.016-.014-.031-.029-.047-.042a9.909,9.909,0,0,0-1.048-.786c-.051-.033-.1-.067-.15-.1a9.514,9.514,0,0,0-1.1-.593l-.2-.092a9.3,9.3,0,0,0-1.184-.427c-.069-.02-.137-.038-.208-.056a10.526,10.526,0,0,0-1.291-.268c-.051-.007-.1-.009-.15-.016a11.293,11.293,0,0,0-1.413-.1h-.038a12.364,12.364,0,0,0-1.491.087l-.2.02q-.729.095-1.489.266-.13.027-.26.06-.754.182-1.529.443c-.089.031-.179.061-.268.094-.53.184-1.063.4-1.6.64-.069.031-.137.063-.206.1-.569.264-1.148.549-1.733.875l0,0h0c-.636.354-1.262.747-1.882,1.159-.1.067-.206.132-.307.2-.591.4-1.173.833-1.75,1.282-.112.087-.224.177-.336.268-.161.128-.325.251-.484.385-.461.394-.806.707-1.1.963l-.255.224c-.034.033-.074.067-.107.1-.526.47-1.021.981-1.52,1.495-.13.134-.258.269-.387.4-.519.548-1.028,1.108-1.526,1.69l-.06.069c-.51.6-1,1.224-1.486,1.856-.116.154-.233.307-.349.463-.466.631-.927,1.269-1.368,1.927-.065.1-.125.2-.188.291q-.591.895-1.142,1.815c-.094.157-.188.313-.28.47q-.6,1.019-1.146,2.066c-.078.146-.152.3-.228.446q-.474.933-.907,1.878c-.061.136-.127.271-.188.407-.318.716-.615,1.435-.895,2.158-.069.175-.134.352-.2.53-.253.681-.5,1.366-.714,2.053-.022.072-.049.145-.07.219-.233.736-.432,1.473-.616,2.209q-.07.277-.136.553c-.042.175-.09.352-.13.528l-.022.1c-.1.492-.2.989-.28,1.412h0c-.005.036-.007.07-.014.107-.1.569-.166,1.133-.235,1.7-.036.286-.089.577-.116.862-.083.848-.132,1.688-.143,2.516-.009.7.013,1.37.058,2.024,0,.065.005.132.011.2.045.618.117,1.211.208,1.788.014.087.025.175.042.262.094.557.211,1.092.345,1.609.023.089.047.175.07.262.145.508.3,1,.483,1.466.029.074.06.146.089.219a13.713,13.713,0,0,0,.624,1.345c.027.049.054.094.081.143a11.682,11.682,0,0,0,.784,1.249l.014.018a9.485,9.485,0,0,0,.909,1.086c.029.031.056.065.087.094a9.883,9.883,0,0,0,.987.884c.051.038.1.081.152.119a9.139,9.139,0,0,0,1.065.7c.061.036.125.07.188.1a9.186,9.186,0,0,0,1.157.53c.063.023.128.045.2.069a10.306,10.306,0,0,0,1.265.365c.052.013.108.02.161.031a14.044,14.044,0,0,0,1.408.2l.051,0a14.059,14.059,0,0,0,1.488.005l.128,0a13.379,13.379,0,0,0,1.52-.183c.074-.013.146-.023.221-.038.506-.094,1.018-.219,1.54-.365.089-.025.177-.051.266-.078.519-.159,1.048-.34,1.585-.553A24,24,0,0,0,42.19,65C53.389,58.761,62.6,43.176,62.758,30.2a24.2,24.2,0,0,0-.224-3.669" transform="translate(17.924 12.444)" fill="#b7c5c6"/>
            <path id="Trazado_877228" data-name="Trazado 877228" d="M60.2,26.572c-.076-.544-.17-1.068-.287-1.574l-.022-.1c-.123-.5-.258-.98-.418-1.442-.022-.065-.043-.134-.067-.2A13.124,13.124,0,0,0,58.89,22c-.034-.07-.067-.139-.1-.21a12.151,12.151,0,0,0-.631-1.121c-.038-.058-.076-.114-.114-.17a10.151,10.151,0,0,0-.757-1.01c-.025-.031-.054-.058-.08-.089a9.182,9.182,0,0,0-.877-.882c-.016-.013-.029-.025-.043-.038a9.078,9.078,0,0,0-.978-.734c-.047-.031-.092-.063-.141-.094a8.645,8.645,0,0,0-1.028-.553c-.061-.029-.123-.058-.186-.085a8.517,8.517,0,0,0-1.1-.4l-.193-.052a9.728,9.728,0,0,0-1.2-.248c-.047-.007-.094-.009-.141-.016a10.481,10.481,0,0,0-1.319-.089h-.034a11.431,11.431,0,0,0-1.392.08c-.06.009-.121.013-.183.02-.454.06-.916.143-1.388.246-.081.018-.163.038-.244.058-.468.112-.944.251-1.426.412-.083.027-.166.058-.249.087-.492.174-.991.371-1.495.6-.063.027-.128.06-.192.089-.531.248-1.072.513-1.616.815l0,0,0,0c-.591.329-1.175.7-1.753,1.079-.1.063-.192.125-.287.19-.551.374-1.094.775-1.63,1.195-.1.081-.21.164-.313.249-.152.119-.305.233-.452.36-.43.367-.752.658-1.023.9-.085.076-.164.145-.239.211l-.1.089c-.488.437-.953.915-1.415,1.394-.121.123-.242.249-.362.376-.484.512-.96,1.034-1.423,1.578-.018.022-.038.042-.056.063-.475.56-.934,1.142-1.385,1.732-.11.143-.219.286-.325.43-.436.589-.866,1.186-1.276,1.8-.061.09-.117.184-.177.273q-.55.835-1.065,1.692c-.087.146-.175.291-.262.437q-.556.952-1.066,1.927c-.074.137-.143.278-.213.418-.3.578-.577,1.162-.846,1.75-.058.128-.119.253-.175.38-.3.669-.573,1.339-.835,2.014-.063.163-.125.329-.186.493-.237.636-.465,1.274-.665,1.916-.022.067-.047.134-.067.2-.217.687-.4,1.374-.575,2.061-.045.172-.085.345-.127.515s-.085.329-.121.492c-.005.033-.013.065-.02.1-.094.459-.183.924-.262,1.318h0c-.005.033-.007.065-.013.1-.09.531-.155,1.057-.221,1.583-.033.268-.081.539-.107.806-.078.79-.125,1.574-.132,2.346-.009.651.011,1.278.052,1.887,0,.06.005.123.011.184.042.577.11,1.13.193,1.667.013.081.023.163.038.244.089.519.2,1.018.324,1.5.022.083.043.163.065.244.134.475.282.931.45,1.366.027.07.056.137.083.206a12.871,12.871,0,0,0,.58,1.254c.025.045.051.087.076.132a11.226,11.226,0,0,0,.732,1.164l.013.018a9.07,9.07,0,0,0,.848,1.012l.081.089a9.593,9.593,0,0,0,.92.822l.141.114a8.528,8.528,0,0,0,.994.649c.058.033.116.067.175.1a8.331,8.331,0,0,0,1.079.493c.06.023.119.043.181.065a9.454,9.454,0,0,0,1.182.34c.049.011.1.018.148.029a12.3,12.3,0,0,0,1.314.181l.047,0c.45.022.915.029,1.386.005l.119,0a12.735,12.735,0,0,0,1.419-.17l.206-.036c.47-.087.949-.206,1.435-.342.083-.023.164-.047.248-.072.484-.148.978-.316,1.479-.515a22.367,22.367,0,0,0,2.621-1.247c10.446-5.82,19.031-20.353,19.18-32.458a22.413,22.413,0,0,0-.208-3.422" transform="translate(18.241 13.086)" fill="#b5c3c4"/>
            <path id="Trazado_877229" data-name="Trazado 877229" d="M57.875,26.619c-.072-.506-.161-.992-.269-1.46l-.02-.092c-.112-.465-.239-.909-.387-1.338-.02-.061-.04-.125-.061-.186a11.484,11.484,0,0,0-.484-1.169c-.031-.065-.061-.13-.094-.193a11.508,11.508,0,0,0-.586-1.041c-.034-.054-.07-.1-.1-.157a9.439,9.439,0,0,0-.7-.936c-.023-.029-.051-.054-.074-.083a8.467,8.467,0,0,0-.813-.817c-.014-.013-.027-.025-.042-.036a8.162,8.162,0,0,0-.906-.68c-.045-.029-.087-.06-.13-.087a8.22,8.22,0,0,0-.954-.515l-.174-.078a7.826,7.826,0,0,0-1.023-.371c-.06-.018-.119-.033-.179-.049a9.333,9.333,0,0,0-1.117-.231c-.043-.005-.087-.007-.13-.013A9.681,9.681,0,0,0,48.4,17l-.033,0a10.853,10.853,0,0,0-1.291.076c-.056.007-.11.011-.17.018-.418.054-.851.132-1.287.228-.076.018-.152.034-.228.054-.434.1-.873.231-1.321.381l-.23.081q-.689.239-1.39.553c-.058.027-.116.056-.177.083-.492.23-.994.475-1.5.757l0,0h0c-.549.305-1.09.645-1.627,1-.089.06-.179.116-.266.175-.51.351-1.012.721-1.513,1.11-.1.074-.2.154-.289.23-.143.114-.282.217-.421.334-.4.342-.7.611-.947.833-.081.069-.155.134-.221.2l-.094.081c-.455.407-.884.85-1.316,1.294-.112.114-.222.231-.334.349-.446.474-.891.96-1.318,1.462q-.03.03-.054.06c-.441.521-.868,1.059-1.283,1.605-.1.134-.2.266-.3.4-.4.546-.8,1.1-1.184,1.667-.056.083-.107.17-.163.253q-.507.773-.987,1.569c-.08.137-.163.269-.242.4-.345.589-.672,1.186-.992,1.789-.065.127-.132.258-.2.385q-.412.808-.784,1.625c-.056.117-.112.235-.163.352-.277.618-.533,1.242-.777,1.867-.058.152-.114.305-.17.459-.221.589-.434,1.18-.618,1.775-.022.063-.043.127-.061.19-.2.636-.374,1.274-.533,1.911-.043.161-.081.32-.117.477s-.081.305-.114.457l-.018.089c-.087.427-.17.857-.244,1.222,0,.031-.007.061-.013.092-.083.493-.145.981-.2,1.47-.031.248-.076.5-.1.746-.072.732-.116,1.46-.125,2.178-.007.6.011,1.186.049,1.75.005.056.005.114.011.172.04.533.1,1.047.179,1.545.013.074.023.152.036.226.081.483.183.945.3,1.392.02.078.04.152.061.226.123.441.26.864.418,1.269.023.065.049.128.074.19a11.875,11.875,0,0,0,.54,1.164c.023.042.049.081.069.123a10.634,10.634,0,0,0,.681,1.081l.013.016a7.912,7.912,0,0,0,.786.938c.025.027.049.056.074.083a8.51,8.51,0,0,0,.855.763c.043.034.083.07.13.1a7.753,7.753,0,0,0,.92.6c.054.029.11.06.163.09a8.067,8.067,0,0,0,1,.457l.17.06a9.093,9.093,0,0,0,1.1.316l.139.025a11.493,11.493,0,0,0,1.218.168l.043,0c.419.018.848.027,1.287.005l.112,0a11.357,11.357,0,0,0,1.314-.159c.065-.011.128-.02.192-.033.436-.08.878-.192,1.332-.316l.23-.067c.448-.137.906-.295,1.37-.477A20.933,20.933,0,0,0,40.277,59.9c9.686-5.4,17.652-18.881,17.79-30.11a21.113,21.113,0,0,0-.192-3.174" transform="translate(18.556 13.728)" fill="#b3c1c3"/>
            <path id="Trazado_877230" data-name="Trazado 877230" d="M55.544,26.665q-.1-.7-.246-1.347c-.007-.027-.013-.058-.018-.085-.107-.428-.222-.839-.358-1.235-.018-.056-.036-.114-.056-.17a11.33,11.33,0,0,0-.446-1.079l-.087-.179c-.166-.336-.351-.654-.54-.958-.033-.051-.065-.1-.1-.146a8.674,8.674,0,0,0-.647-.864c-.023-.025-.047-.049-.069-.076a7.983,7.983,0,0,0-.75-.754l-.038-.033a7.37,7.37,0,0,0-.837-.627c-.04-.027-.078-.054-.119-.08a7.214,7.214,0,0,0-.878-.475c-.054-.023-.107-.049-.159-.072a7.609,7.609,0,0,0-.944-.342l-.166-.043a8.256,8.256,0,0,0-1.03-.213c-.04-.005-.08-.007-.119-.013A8.861,8.861,0,0,0,46.81,17.8h-.031a9.556,9.556,0,0,0-1.189.07c-.052.005-.1.009-.157.016-.387.051-.784.121-1.188.21l-.208.049q-.6.144-1.22.352l-.213.076q-.632.22-1.28.51c-.052.025-.108.051-.163.078-.455.211-.916.437-1.383.7l0,0h0c-.5.282-1,.595-1.5.922-.081.054-.164.107-.246.163-.47.322-.934.665-1.4,1.023-.089.069-.179.141-.268.211-.128.1-.26.2-.385.309-.369.315-.643.564-.877.768-.072.063-.141.121-.2.179-.029.025-.061.052-.087.076-.419.374-.815.784-1.213,1.191-.1.107-.206.215-.307.324q-.621.653-1.216,1.348l-.049.054c-.407.479-.8.978-1.184,1.48-.094.123-.186.246-.278.369-.372.5-.741,1.014-1.092,1.538-.051.076-.1.155-.15.233q-.472.713-.911,1.448c-.076.125-.15.248-.224.372-.318.542-.62,1.094-.913,1.648-.063.117-.121.239-.183.356q-.38.743-.723,1.5c-.051.108-.1.217-.15.324q-.382.857-.714,1.723c-.054.139-.107.282-.161.423-.2.542-.4,1.088-.568,1.638-.018.058-.04.116-.058.174-.186.587-.343,1.175-.492,1.762-.038.148-.074.295-.108.441s-.072.28-.1.421L24,42.356c-.08.392-.157.79-.226,1.128-.005.027-.007.054-.011.083-.078.455-.132.906-.19,1.356-.027.228-.069.461-.09.689-.067.674-.107,1.347-.114,2.006-.007.559.009,1.094.045,1.614,0,.052.005.107.009.159.036.492.094.965.166,1.424.011.069.02.139.033.21q.114.664.277,1.282c.018.072.036.141.056.21.114.407.24.8.385,1.169.023.06.047.117.07.175a10.409,10.409,0,0,0,.5,1.072c.022.04.043.076.063.114a10,10,0,0,0,.627,1l.011.014a7.721,7.721,0,0,0,.725.866c.023.025.047.052.069.078a8.239,8.239,0,0,0,.788.7c.042.031.08.065.121.1a7.461,7.461,0,0,0,.85.557l.15.083a6.966,6.966,0,0,0,.922.421l.155.056a8.117,8.117,0,0,0,1.01.291l.128.025c.365.076.739.114,1.124.155h.04c.385.016.781.027,1.186.005.034,0,.069,0,.1,0a9.845,9.845,0,0,0,1.213-.145c.06-.011.117-.018.177-.029.4-.076.812-.179,1.229-.295.069-.018.139-.038.211-.061.414-.127.837-.269,1.263-.439a19.41,19.41,0,0,0,2.243-1.066c8.933-4.98,16.277-17.41,16.405-27.763a19.326,19.326,0,0,0-.179-2.926" transform="translate(18.872 14.37)" fill="#b0bfc1"/>
            <path id="Trazado_877231" data-name="Trazado 877231" d="M53.214,26.71q-.089-.64-.226-1.233c-.005-.025-.009-.052-.016-.078-.092-.394-.2-.768-.325-1.13-.018-.051-.034-.1-.052-.157-.123-.343-.26-.671-.41-.987-.025-.054-.051-.108-.078-.164a9.75,9.75,0,0,0-.5-.877c-.029-.045-.06-.089-.089-.134a8.489,8.489,0,0,0-.593-.79c-.022-.023-.043-.047-.063-.07a7.718,7.718,0,0,0-.687-.689c-.013-.011-.022-.022-.034-.031a6.725,6.725,0,0,0-.766-.575c-.036-.023-.07-.049-.108-.072a6.9,6.9,0,0,0-.8-.434c-.049-.023-.1-.045-.146-.067a7.446,7.446,0,0,0-.864-.313l-.152-.042a7.926,7.926,0,0,0-.944-.193c-.036-.005-.072-.007-.11-.013a9.129,9.129,0,0,0-1.032-.07h-.027a10.2,10.2,0,0,0-1.088.063c-.049.007-.1.009-.145.016-.354.043-.718.108-1.086.192l-.192.045c-.367.087-.737.2-1.117.324l-.193.067c-.387.137-.777.291-1.171.468-.051.022-.1.047-.15.07-.418.192-.839.4-1.265.638l0,0h0c-.463.258-.918.546-1.372.846-.074.049-.15.1-.224.148q-.648.439-1.278.936l-.246.193c-.117.1-.237.184-.352.282-.334.293-.589.515-.8.7-.065.058-.127.114-.186.164l-.078.07c-.378.349-.747.716-1.11,1.09-.094.1-.188.2-.282.3-.38.4-.752.808-1.113,1.235l-.045.049c-.372.439-.732.895-1.085,1.356-.085.112-.17.224-.253.338q-.515.689-1,1.406c-.047.07-.092.145-.139.215-.287.434-.564.877-.833,1.325-.069.114-.137.226-.2.342q-.437.743-.837,1.509c-.056.107-.11.217-.166.325-.23.454-.452.909-.662,1.372-.045.1-.094.2-.137.3q-.35.784-.654,1.576c-.051.128-.1.257-.146.387-.184.5-.362,1-.521,1.5-.016.052-.036.1-.052.157-.168.539-.315,1.077-.45,1.614-.034.136-.067.269-.1.4s-.065.258-.094.387c-.005.023-.011.049-.014.074-.076.358-.145.723-.206,1.032h0l-.009.076c-.074.418-.121.828-.174,1.242-.025.208-.063.421-.085.629-.06.618-.1,1.235-.1,1.838-.007.51.011,1,.042,1.477,0,.047.005.1.009.145.033.452.085.886.152,1.305.009.063.018.128.029.192.07.407.155.8.253,1.175.016.065.034.128.052.19q.155.559.351,1.072c.022.054.045.107.065.159a10.69,10.69,0,0,0,.455.983c.02.036.04.067.06.1a8.865,8.865,0,0,0,.573.913l.011.013a7.672,7.672,0,0,0,.663.793c.022.022.042.047.063.069a7.089,7.089,0,0,0,.721.643c.036.031.072.06.11.09a6.828,6.828,0,0,0,.777.508l.137.076a6.991,6.991,0,0,0,.844.387c.047.018.1.034.143.051a7.789,7.789,0,0,0,.925.268c.038.007.078.013.116.022a7.914,7.914,0,0,0,1.028.141l.038,0a8.667,8.667,0,0,0,1.085.005l.094,0a10.47,10.47,0,0,0,1.11-.132c.054-.011.108-.018.163-.027q.553-.1,1.124-.269c.063-.016.128-.036.193-.056.38-.114.766-.248,1.157-.4A17.635,17.635,0,0,0,38.36,54.8c8.177-4.559,14.9-15.937,15.017-25.415a17.56,17.56,0,0,0-.163-2.679" transform="translate(19.188 15.012)" fill="#aebdbf"/>
            <path id="Trazado_877232" data-name="Trazado 877232" d="M28.687,27.068,28.658,27l-.023-.04a.342.342,0,0,0-.04-.06l-.049-.051a.509.509,0,0,0-.669.011,1.847,1.847,0,0,0-.84,1.457.592.592,0,0,0,.246.54.407.407,0,0,0,.1.043.491.491,0,0,0,.114.014.671.671,0,0,0,.271-.056.822.822,0,0,0,.132-.067,1.113,1.113,0,0,0,.132-.089,1.48,1.48,0,0,0,.127-.108l.117-.127c.018-.022.04-.049.056-.07s.038-.049.054-.072c.029-.043.069-.1.1-.152a1.494,1.494,0,0,0,.083-.161,1.674,1.674,0,0,0,.069-.163,1.355,1.355,0,0,0,.049-.17,1.206,1.206,0,0,0,.033-.164,1.176,1.176,0,0,0,.011-.164.9.9,0,0,0-.043-.282" transform="translate(21.833 21.594)" fill="#334142"/>
            <path id="Trazado_877233" data-name="Trazado 877233" d="M37.585,22.119a.6.6,0,0,0-.031-.07.3.3,0,0,0-.022-.042.564.564,0,0,0-.09-.11.626.626,0,0,0-.067-.047.6.6,0,0,0-.6.058,1.853,1.853,0,0,0-.84,1.457.591.591,0,0,0,.246.542.447.447,0,0,0,.1.043.614.614,0,0,0,.112.014.641.641,0,0,0,.125-.011.743.743,0,0,0,.148-.045,1.136,1.136,0,0,0,.132-.067,1.176,1.176,0,0,0,.132-.09,1.479,1.479,0,0,0,.127-.108c.036-.036.083-.089.117-.125l.056-.07a.742.742,0,0,0,.052-.072c.031-.045.069-.1.1-.152a1.491,1.491,0,0,0,.083-.161s.036-.074.069-.164c.023-.069.033-.1.051-.168,0,0,.018-.076.031-.166a1.474,1.474,0,0,0,.011-.164.879.879,0,0,0-.043-.28" transform="translate(29.018 17.597)" fill="#334142"/>
            <path id="Trazado_877234" data-name="Trazado 877234" d="M28.687,37.389c-.007-.022-.02-.051-.029-.07s-.016-.029-.023-.042a.428.428,0,0,0-.04-.06l-.049-.051c-.02-.014-.047-.034-.069-.047a.6.6,0,0,0-.6.058,1.853,1.853,0,0,0-.84,1.459.594.594,0,0,0,.246.54.486.486,0,0,0,.1.042.5.5,0,0,0,.114.016.514.514,0,0,0,.123-.013.771.771,0,0,0,.148-.043,1.008,1.008,0,0,0,.132-.067,1.26,1.26,0,0,0,.132-.09c.065-.052.094-.078.127-.108s.083-.089.117-.125l.056-.07.054-.072c.029-.045.069-.1.1-.152a1.493,1.493,0,0,0,.083-.161,1.552,1.552,0,0,0,.069-.164A1.424,1.424,0,0,0,28.687,38a1.2,1.2,0,0,0,.033-.166,1.154,1.154,0,0,0,.011-.164.886.886,0,0,0-.043-.28" transform="translate(21.833 29.928)" fill="#334142"/>
            <path id="Trazado_877235" data-name="Trazado 877235" d="M37.585,32.44a.785.785,0,0,0-.031-.072l-.022-.04a.351.351,0,0,0-.042-.06.428.428,0,0,0-.049-.051.343.343,0,0,0-.067-.047.591.591,0,0,0-.6.058,1.85,1.85,0,0,0-.84,1.457.588.588,0,0,0,.246.54.381.381,0,0,0,.1.043.489.489,0,0,0,.112.014.838.838,0,0,0,.125-.009.718.718,0,0,0,.148-.047.906.906,0,0,0,.132-.067,1.334,1.334,0,0,0,.132-.089,1.48,1.48,0,0,0,.127-.108l.117-.127c.018-.02.04-.049.056-.07a.743.743,0,0,0,.052-.072c.031-.043.069-.1.1-.152a1.2,1.2,0,0,0,.083-.161,1.673,1.673,0,0,0,.069-.163c.023-.069.033-.1.051-.168,0,0,.018-.078.031-.166a1.543,1.543,0,0,0,.011-.164.879.879,0,0,0-.043-.28" transform="translate(29.018 25.931)" fill="#334142"/>
            <path id="Trazado_877236" data-name="Trazado 877236" d="M55.369,64.342l-2.1-1.216a.984.984,0,0,0,.41.9l2.1,1.218a.74.74,0,0,1-.2-.224c-.031-.042-.078-.063-.1-.112a1.338,1.338,0,0,1-.112-.564" transform="translate(43.018 50.974)" fill="#127177"/>
            <path id="Trazado_877237" data-name="Trazado 877237" d="M60.57,56.181c.022,0,.036.013.058.013a.744.744,0,0,1,.389.08l-2.095-1.218a.987.987,0,0,0-1,.1l2.095,1.218a1.345,1.345,0,0,1,.549-.188" transform="translate(46.776 44.38)" fill="#127177"/>
            <path id="Trazado_877238" data-name="Trazado 877238" d="M55.356,59.878l-2.1-1.218.023,8.072,2.1,1.216Z" transform="translate(43.008 47.368)" fill="#127177"/>
            <path id="Trazado_877239" data-name="Trazado 877239" d="M63.164,56.283l-2.1-1.218-7.033,4.061,2.1,1.218Z" transform="translate(43.633 44.465)" fill="#127177"/>
            <path id="Trazado_877240" data-name="Trazado 877240" d="M56.756,58.53l-2.1-1.218a3.11,3.11,0,0,0-1.4,2.437l2.095,1.218a3.115,3.115,0,0,1,1.4-2.437" transform="translate(43.008 46.279)" fill="#127177"/>
            <path id="Trazado_877241" data-name="Trazado 877241" d="M64.263,56.637a.992.992,0,0,0-.414-.909.745.745,0,0,0-.389-.081c-.022,0-.036-.013-.058-.013a1.372,1.372,0,0,0-.549.188L55.82,59.885a3.112,3.112,0,0,0-1.4,2.437l.023,8.071a1.344,1.344,0,0,0,.112.564c.023.049.07.069.1.112a.85.85,0,0,0,1.2.128l7.033-4.061a3.082,3.082,0,0,0,1.4-2.426Z" transform="translate(43.944 44.924)" fill="#00b8ac"/>
          </g>
        </g>
      </g>
    </g>
  </g>
</svg>
