<svg xmlns="http://www.w3.org/2000/svg" xmlns:xlink="http://www.w3.org/1999/xlink" width="114.775" height="250.949" viewBox="0 0 114.775 250.949">
  <defs>
    <clipPath id="clip-path">
      <rect id="Rect치ngulo_401046" data-name="Rect치ngulo 401046" width="250.949" height="114.775" transform="translate(0)" fill="#5573c6" stroke="#707070" stroke-width="1"/>
    </clipPath>
  </defs>
  <g id="Grupo_1053231" data-name="Grupo 1053231" transform="translate(114.775) rotate(90)" opacity="0.2" clip-path="url(#clip-path)">
    <g id="Grupo_1053230" data-name="Grupo 1053230" transform="translate(5.836 -132.283)">
      <path id="Sustracci칩n_75" data-name="Sustracci칩n 75" d="M121.584,0a122.482,122.482,0,0,0-24.5,2.47A120.918,120.918,0,0,0,53.605,20.765,121.939,121.939,0,0,0,9.555,74.258,120.975,120.975,0,0,0,2.47,97.08a122.771,122.771,0,0,0,0,49.007,120.919,120.919,0,0,0,18.294,43.475,121.938,121.938,0,0,0,53.493,44.05A120.975,120.975,0,0,0,97.08,240.7a122.771,122.771,0,0,0,49.007,0A120.92,120.92,0,0,0,189.563,222.4a121.939,121.939,0,0,0,44.051-53.493,120.979,120.979,0,0,0,7.085-22.823,122.771,122.771,0,0,0,0-49.007A120.917,120.917,0,0,0,222.4,53.605,121.939,121.939,0,0,0,168.91,9.555,120.976,120.976,0,0,0,146.087,2.47,122.482,122.482,0,0,0,121.584,0Zm-.453,185.467a63.9,63.9,0,0,1-12.783-1.289,63.084,63.084,0,0,1-22.681-9.544,63.616,63.616,0,0,1-22.981-27.908,63.108,63.108,0,0,1-3.7-11.906,64.049,64.049,0,0,1,0-25.567,63.081,63.081,0,0,1,9.544-22.681A63.615,63.615,0,0,1,96.441,63.591a63.109,63.109,0,0,1,11.906-3.7,64.049,64.049,0,0,1,25.567,0A63.083,63.083,0,0,1,156.6,69.439a63.615,63.615,0,0,1,22.981,27.907,63.108,63.108,0,0,1,3.7,11.907,64.049,64.049,0,0,1,0,25.567,63.083,63.083,0,0,1-9.544,22.681,63.615,63.615,0,0,1-27.907,22.981,63.108,63.108,0,0,1-11.906,3.7A63.9,63.9,0,0,1,121.131,185.467Z" transform="translate(0)" fill="#5573c6"/>
    </g>
  </g>
</svg>
