<svg id="Grupo_1054465" data-name="Grupo 1054465" xmlns="http://www.w3.org/2000/svg" xmlns:xlink="http://www.w3.org/1999/xlink" width="610" height="233.819" viewBox="0 0 610 233.819">
  <defs>
    <clipPath id="clip-path">
      <rect id="Rectángulo_402840" data-name="Rectángulo 402840" width="610" height="233.819" fill="none"/>
    </clipPath>
    <clipPath id="clip-path-2">
      <path id="Rectángulo_402841" data-name="Rectángulo 402841" d="M2.026,0H89.165A2.025,2.025,0,0,1,91.19,2.025V62.818a2.027,2.027,0,0,1-2.027,2.027H2.025A2.025,2.025,0,0,1,0,62.82V2.026A2.026,2.026,0,0,1,2.026,0Z" transform="translate(37.723 58.795)" fill="none"/>
    </clipPath>
    <clipPath id="clip-path-4">
      <path id="Rectángulo_402844" data-name="Rectángulo 402844" d="M2.025,0H66.849a2.025,2.025,0,0,1,2.025,2.025V44.567a2.025,2.025,0,0,1-2.025,2.025H2.026A2.026,2.026,0,0,1,0,44.566V2.025A2.025,2.025,0,0,1,2.025,0Z" transform="translate(49.845 67.027)" fill="none"/>
    </clipPath>
    <clipPath id="clip-path-5">
      <rect id="Rectángulo_402845" data-name="Rectángulo 402845" width="117.518" height="38.498" transform="translate(23.531 137.844)" fill="none"/>
    </clipPath>
    <clipPath id="clip-path-7">
      <path id="Trazado_872771" data-name="Trazado 872771" d="M55.849,68.681a4.151,4.151,0,0,0-3.975,4.194V107.53a3.918,3.918,0,0,0,3.975,3.754h56.727a3.916,3.916,0,0,0,3.971-3.754V72.875a4.149,4.149,0,0,0-3.971-4.194Z" fill="none"/>
    </clipPath>
  </defs>
  <g id="Grupo_1054450" data-name="Grupo 1054450">
    <g id="Grupo_1054449" data-name="Grupo 1054449" clip-path="url(#clip-path)">
      <path id="Trazado_872579" data-name="Trazado 872579" d="M28.708,169.015c-7.034-1.518-14.688.9-17.729,3.941-.956.956-3.546,2.418-2.251,5.064,1.407,3.153,9.287,2.532,13.228,2.532,5.852,0,8.61-1.969,14.913-1.969" fill="none" stroke="#1d1d1b" stroke-linecap="round" stroke-miterlimit="3.864" stroke-width="3.802"/>
      <path id="Trazado_872580" data-name="Trazado 872580" d="M28.708,169.015c-7.034-1.518-14.688.9-17.729,3.941-.956.956-3.546,2.418-2.251,5.064,1.407,3.153,9.287,2.532,13.228,2.532,5.852,0,8.61-1.969,14.913-1.969" fill="none" stroke="#dadada" stroke-linecap="square" stroke-miterlimit="3.864" stroke-width="2.854"/>
    </g>
  </g>
  <g id="Grupo_1054452" data-name="Grupo 1054452">
    <g id="Grupo_1054451" data-name="Grupo 1054451" clip-path="url(#clip-path-2)">
      <path id="Trazado_872581" data-name="Trazado 872581" d="M8.926,86.77,94.408,17.548l-1.764-2.177L7.162,84.593" fill="#c6c6c6"/>
      <path id="Trazado_872582" data-name="Trazado 872582" d="M10.682,88.939l85.482-69.22L94.4,17.54,8.918,86.762" fill="#c7c7c7"/>
      <path id="Trazado_872583" data-name="Trazado 872583" d="M12.441,91.111,97.923,21.889l-1.764-2.177L10.677,88.931" fill="#c8c8c8"/>
      <path id="Trazado_872584" data-name="Trazado 872584" d="M14.2,93.281,99.68,24.059l-1.764-2.177L12.434,91.1" fill="#c9c9c8"/>
      <path id="Trazado_872585" data-name="Trazado 872585" d="M15.957,95.451l85.482-69.22-1.764-2.179L14.193,93.274" fill="#cac9c9"/>
      <path id="Trazado_872586" data-name="Trazado 872586" d="M17.713,97.623,103.2,28.4l-1.764-2.177L15.949,95.446" fill="#cacaca"/>
      <path id="Trazado_872587" data-name="Trazado 872587" d="M19.472,99.792l85.482-69.22-1.764-2.179L17.708,97.615" fill="#cbcbcb"/>
      <path id="Trazado_872588" data-name="Trazado 872588" d="M21.229,101.964l85.482-69.222-1.764-2.177L19.465,99.785" fill="#ccc"/>
      <path id="Trazado_872589" data-name="Trazado 872589" d="M22.988,104.134,108.47,34.912l-1.764-2.177L21.224,101.957" fill="#cdcdcc"/>
      <path id="Trazado_872590" data-name="Trazado 872590" d="M24.744,106.3l85.482-69.22L108.462,34.9,22.98,104.127" fill="#cdcdcd"/>
      <path id="Trazado_872591" data-name="Trazado 872591" d="M26.5,108.476l85.479-69.222-1.761-2.177L24.739,106.3" fill="#cecece"/>
      <path id="Trazado_872592" data-name="Trazado 872592" d="M28.26,110.646l85.482-69.222-1.764-2.177L26.5,108.469" fill="#cfcfcf"/>
      <path id="Trazado_872593" data-name="Trazado 872593" d="M30.019,112.815,115.5,43.6l-1.761-2.179L28.255,110.638" fill="#d0d0d0"/>
      <path id="Trazado_872594" data-name="Trazado 872594" d="M31.775,114.987l85.482-69.222-1.764-2.177L30.011,112.81" fill="#d1d1d1"/>
      <path id="Trazado_872595" data-name="Trazado 872595" d="M33.534,117.157l85.479-69.22-1.761-2.179L31.77,114.98" fill="#d2d2d1"/>
      <path id="Trazado_872596" data-name="Trazado 872596" d="M35.291,119.329l85.482-69.222-1.764-2.177L33.527,117.149" fill="#d2d2d2"/>
      <path id="Trazado_872597" data-name="Trazado 872597" d="M37.05,121.5l85.479-69.222L120.768,50.1,35.286,119.322" fill="#d3d3d3"/>
      <path id="Trazado_872598" data-name="Trazado 872598" d="M38.806,123.668l85.482-69.22-1.764-2.179L37.042,121.491" fill="#d4d4d4"/>
      <path id="Trazado_872599" data-name="Trazado 872599" d="M40.563,125.84l85.482-69.222-1.764-2.177L38.8,123.66" fill="#d5d5d5"/>
      <path id="Trazado_872600" data-name="Trazado 872600" d="M42.322,128.01,127.8,58.788l-1.764-2.177L40.558,125.833" fill="#d6d6d5"/>
      <path id="Trazado_872601" data-name="Trazado 872601" d="M44.078,130.182,129.56,60.96,127.8,58.783,42.316,128" fill="#d6d6d6"/>
      <path id="Trazado_872602" data-name="Trazado 872602" d="M45.837,132.352,131.319,63.13l-1.764-2.177L44.073,130.175" fill="#d7d7d7"/>
      <path id="Trazado_872603" data-name="Trazado 872603" d="M47.593,134.521,133.076,65.3l-1.764-2.179-85.48,69.222" fill="#d8d8d8"/>
      <path id="Trazado_872604" data-name="Trazado 872604" d="M49.353,136.693l85.482-69.222-1.764-2.177L47.589,134.514" fill="#d9d9d9"/>
      <path id="Trazado_872605" data-name="Trazado 872605" d="M51.109,138.863l85.482-69.222-1.764-2.177L49.345,136.686" fill="#dad9d9"/>
      <path id="Trazado_872606" data-name="Trazado 872606" d="M52.868,141.033l85.482-69.22-1.764-2.179L51.1,138.856" fill="#dadada"/>
      <path id="Trazado_872607" data-name="Trazado 872607" d="M54.625,143.2l85.482-69.222-1.764-2.177L52.86,141.025" fill="#dbdbdb"/>
      <path id="Trazado_872608" data-name="Trazado 872608" d="M56.383,145.374l85.482-69.222L140.1,73.975,54.619,143.2" fill="#dcdcdc"/>
      <path id="Trazado_872609" data-name="Trazado 872609" d="M58.14,147.547l85.482-69.222-1.764-2.177L56.376,145.367" fill="#ddd"/>
      <path id="Trazado_872610" data-name="Trazado 872610" d="M59.9,149.716l85.482-69.222-1.764-2.177L58.135,147.539" fill="#ddd"/>
      <path id="Trazado_872611" data-name="Trazado 872611" d="M61.655,151.886l85.482-69.22-1.764-2.179L59.891,149.709" fill="#dedede"/>
      <path id="Trazado_872612" data-name="Trazado 872612" d="M63.415,154.058,148.9,84.836l-1.764-2.177L61.65,151.878" fill="#dfdfdf"/>
      <path id="Trazado_872613" data-name="Trazado 872613" d="M65.171,156.228l85.482-69.222-1.764-2.177L63.407,154.051" fill="#e0e0e0"/>
      <path id="Trazado_872614" data-name="Trazado 872614" d="M66.93,158.4l85.482-69.22L150.648,87,65.166,156.22" fill="#e0e0e0"/>
      <path id="Trazado_872615" data-name="Trazado 872615" d="M68.686,160.569l85.482-69.222L152.4,89.17,66.922,158.389" fill="#e1e1e1"/>
      <path id="Trazado_872616" data-name="Trazado 872616" d="M70.445,162.739l85.482-69.22-1.764-2.179L68.681,160.562" fill="#e2e2e2"/>
      <path id="Trazado_872617" data-name="Trazado 872617" d="M72.2,164.911l85.482-69.222-1.764-2.177L70.438,162.731" fill="#e3e3e2"/>
      <path id="Trazado_872618" data-name="Trazado 872618" d="M73.961,167.081,159.44,97.859l-1.761-2.177L72.2,164.9" fill="#e3e3e3"/>
    </g>
  </g>
  <g id="Grupo_1054454" data-name="Grupo 1054454">
    <g id="Grupo_1054453" data-name="Grupo 1054453" clip-path="url(#clip-path)">
      <rect id="Rectángulo_402842" data-name="Rectángulo 402842" width="91.189" height="64.845" rx="2.025" transform="translate(37.724 58.795)" fill="none" stroke="#1d1d1b" stroke-miterlimit="3.864" stroke-width="0.355"/>
    </g>
  </g>
  <g id="Grupo_1054456" data-name="Grupo 1054456">
    <g id="Grupo_1054455" data-name="Grupo 1054455" clip-path="url(#clip-path-4)">
      <path id="Trazado_872619" data-name="Trazado 872619" d="M32.087,78.707l71.749-38.151-.578-1.084L31.512,77.62" fill="#706f6f"/>
      <path id="Trazado_872620" data-name="Trazado 872620" d="M32.683,79.822,104.43,41.674l-.576-1.088L32.1,78.737" fill="#717170"/>
      <path id="Trazado_872621" data-name="Trazado 872621" d="M33.276,80.938,105.025,42.79l-.578-1.087L32.7,79.853" fill="#737372"/>
      <path id="Trazado_872622" data-name="Trazado 872622" d="M33.869,82.055,105.618,43.9l-.578-1.084L33.291,80.968" fill="#757474"/>
      <path id="Trazado_872623" data-name="Trazado 872623" d="M34.462,83.171l71.749-38.148-.578-1.087L33.884,82.086" fill="#777676"/>
      <path id="Trazado_872624" data-name="Trazado 872624" d="M35.055,84.286,106.8,46.138l-.578-1.087L34.477,83.2" fill="#787878"/>
      <path id="Trazado_872625" data-name="Trazado 872625" d="M35.648,85.4,107.4,47.253l-.578-1.085L35.07,84.317" fill="#7a7a79"/>
      <path id="Trazado_872626" data-name="Trazado 872626" d="M36.241,86.519,107.99,48.368l-.578-1.084L35.666,85.434" fill="#7c7c7b"/>
      <path id="Trazado_872627" data-name="Trazado 872627" d="M36.834,87.634l71.749-38.148-.578-1.088L36.259,86.549" fill="#7d7d7d"/>
      <path id="Trazado_872628" data-name="Trazado 872628" d="M37.43,88.752,109.177,50.6l-.576-1.084L36.852,87.665" fill="#7f7f7e"/>
      <path id="Trazado_872629" data-name="Trazado 872629" d="M38.023,89.867l71.749-38.151-.578-1.084L37.445,88.78" fill="#818180"/>
      <path id="Trazado_872630" data-name="Trazado 872630" d="M38.616,90.982l71.749-38.148-.578-1.087L38.038,89.9" fill="#838282"/>
      <path id="Trazado_872631" data-name="Trazado 872631" d="M39.209,92.1l71.749-38.151-.578-1.084L38.631,91.013" fill="#848483"/>
      <path id="Trazado_872632" data-name="Trazado 872632" d="M39.8,93.215l71.749-38.151-.578-1.084L39.224,92.128" fill="#868685"/>
      <path id="Trazado_872633" data-name="Trazado 872633" d="M40.4,94.33l71.749-38.148-.578-1.088L39.817,93.245" fill="#878787"/>
      <path id="Trazado_872634" data-name="Trazado 872634" d="M40.988,95.448,112.737,57.3l-.578-1.085L40.41,94.361" fill="#898988"/>
      <path id="Trazado_872635" data-name="Trazado 872635" d="M41.582,96.563,113.33,58.412l-.578-1.084L41.007,95.476" fill="#8b8a8a"/>
      <path id="Trazado_872636" data-name="Trazado 872636" d="M42.177,97.678l71.747-38.148-.576-1.087L41.6,96.594" fill="#8c8c8b"/>
      <path id="Trazado_872637" data-name="Trazado 872637" d="M42.77,98.8l71.749-38.151-.578-1.084L42.192,97.709" fill="#8e8e8d"/>
      <path id="Trazado_872638" data-name="Trazado 872638" d="M43.363,99.911,115.112,61.76l-.578-1.085L42.785,98.825" fill="#8f8f8f"/>
      <path id="Trazado_872639" data-name="Trazado 872639" d="M43.956,101.027l71.749-38.148-.578-1.087L43.378,99.942" fill="#919190"/>
      <path id="Trazado_872640" data-name="Trazado 872640" d="M44.549,102.145,116.3,63.993l-.578-1.085L43.971,101.058" fill="#929292"/>
      <path id="Trazado_872641" data-name="Trazado 872641" d="M45.143,103.26l71.749-38.151-.578-1.084L44.565,102.173" fill="#949493"/>
      <path id="Trazado_872642" data-name="Trazado 872642" d="M45.736,104.375l71.749-38.148-.578-1.088L45.158,103.29" fill="#959595"/>
      <path id="Trazado_872643" data-name="Trazado 872643" d="M46.329,105.49l71.749-38.148-.578-1.087-71.746,38.15" fill="#979796"/>
      <path id="Trazado_872644" data-name="Trazado 872644" d="M46.924,106.608l71.747-38.151-.576-1.084L46.346,105.521" fill="#999898"/>
      <path id="Trazado_872645" data-name="Trazado 872645" d="M47.518,107.723l71.747-38.148-.576-1.087-71.749,38.15" fill="#9a9a99"/>
      <path id="Trazado_872646" data-name="Trazado 872646" d="M48.111,108.838,119.86,70.69l-.578-1.088L47.533,107.753" fill="#9c9b9b"/>
      <path id="Trazado_872647" data-name="Trazado 872647" d="M48.7,109.956l71.749-38.151-.578-1.084L48.126,108.869" fill="#9d9d9c"/>
      <path id="Trazado_872648" data-name="Trazado 872648" d="M49.3,111.071l71.749-38.148-.578-1.087-71.749,38.15" fill="#9f9e9e"/>
      <path id="Trazado_872649" data-name="Trazado 872649" d="M49.89,112.187l71.749-38.148-.578-1.087L49.312,111.1" fill="#a0a09f"/>
      <path id="Trazado_872650" data-name="Trazado 872650" d="M50.483,113.3l71.749-38.151-.578-1.084L49.9,112.217" fill="#a2a1a1"/>
      <path id="Trazado_872651" data-name="Trazado 872651" d="M51.076,114.42l71.749-38.148-.578-1.087L50.5,113.335" fill="#a3a3a3"/>
      <path id="Trazado_872652" data-name="Trazado 872652" d="M51.672,115.535l71.747-38.148-.576-1.087L51.094,114.45" fill="#a5a5a4"/>
      <path id="Trazado_872653" data-name="Trazado 872653" d="M52.265,116.653,124.012,78.5l-.576-1.085L51.687,115.566" fill="#a6a6a6"/>
      <path id="Trazado_872654" data-name="Trazado 872654" d="M52.858,117.768l71.749-38.151-.578-1.084L52.28,116.683" fill="#a8a8a7"/>
      <path id="Trazado_872655" data-name="Trazado 872655" d="M53.451,118.883,125.2,80.735l-.578-1.088L52.873,117.8" fill="#a9a9a9"/>
      <path id="Trazado_872656" data-name="Trazado 872656" d="M54.044,120,125.793,81.85l-.578-1.084L53.466,118.914" fill="#ababaa"/>
      <path id="Trazado_872657" data-name="Trazado 872657" d="M54.637,121.116l71.749-38.151-.578-1.084-71.749,38.15" fill="#acacac"/>
      <path id="Trazado_872658" data-name="Trazado 872658" d="M55.23,122.231l71.749-38.148L126.4,83l-71.749,38.15" fill="#aeaeae"/>
      <path id="Trazado_872659" data-name="Trazado 872659" d="M55.823,123.349,127.572,85.2l-.578-1.084L55.248,122.262" fill="#afafaf"/>
      <path id="Trazado_872660" data-name="Trazado 872660" d="M56.419,124.464l71.747-38.151-.576-1.084L55.841,123.377" fill="#b1b1b0"/>
      <path id="Trazado_872661" data-name="Trazado 872661" d="M57.012,125.579l71.747-38.148-.576-1.087-71.749,38.15" fill="#b2b2b2"/>
      <path id="Trazado_872662" data-name="Trazado 872662" d="M57.605,126.7l71.749-38.151-.578-1.084L57.027,125.61" fill="#b4b4b3"/>
      <path id="Trazado_872663" data-name="Trazado 872663" d="M58.2,127.812l71.749-38.151-.578-1.084L57.62,126.725" fill="#b5b5b5"/>
      <path id="Trazado_872664" data-name="Trazado 872664" d="M58.791,128.927,130.54,90.78l-.578-1.087-71.749,38.15" fill="#b7b7b6"/>
      <path id="Trazado_872665" data-name="Trazado 872665" d="M59.384,130.045l71.749-38.151-.578-1.084L58.806,128.958" fill="#b8b8b8"/>
      <path id="Trazado_872666" data-name="Trazado 872666" d="M59.978,131.16,131.727,93.01l-.578-1.085L59.4,130.074" fill="#babab9"/>
      <path id="Trazado_872667" data-name="Trazado 872667" d="M60.571,132.276,132.32,94.128l-.578-1.087L60,131.191" fill="#bbb"/>
      <path id="Trazado_872668" data-name="Trazado 872668" d="M61.166,133.393l71.747-38.151-.576-1.084L60.588,132.306" fill="#bdbcbc"/>
      <path id="Trazado_872669" data-name="Trazado 872669" d="M61.759,134.509l71.747-38.151-.576-1.084L61.181,133.422" fill="#bebebd"/>
      <path id="Trazado_872670" data-name="Trazado 872670" d="M62.353,135.624,134.1,97.476l-.578-1.087-71.749,38.15" fill="#bfbfbf"/>
      <path id="Trazado_872671" data-name="Trazado 872671" d="M62.946,136.739l71.749-38.148-.578-1.085L62.368,135.654" fill="#c1c1c0"/>
      <path id="Trazado_872672" data-name="Trazado 872672" d="M63.539,137.857l71.749-38.151-.578-1.084L62.961,136.77" fill="#c2c2c2"/>
      <path id="Trazado_872673" data-name="Trazado 872673" d="M64.132,138.972l71.749-38.148-.578-1.087-71.749,38.15" fill="#c4c3c3"/>
      <path id="Trazado_872674" data-name="Trazado 872674" d="M64.725,140.087l71.749-38.148-.578-1.087L64.147,139" fill="#c5c5c5"/>
      <path id="Trazado_872675" data-name="Trazado 872675" d="M65.318,141.205l71.749-38.151-.578-1.084L64.743,140.118" fill="#c6c6c6"/>
    </g>
  </g>
  <g id="Grupo_1054458" data-name="Grupo 1054458">
    <g id="Grupo_1054457" data-name="Grupo 1054457" clip-path="url(#clip-path-5)">
      <path id="Trazado_872676" data-name="Trazado 872676" d="M6.422,155.216l89.77-72.7L94.474,80.4,4.7,153.092" fill="#c6c6c6"/>
      <path id="Trazado_872677" data-name="Trazado 872677" d="M8.14,157.34l89.773-72.7-1.721-2.126-89.773,72.7" fill="#c7c7c7"/>
      <path id="Trazado_872678" data-name="Trazado 872678" d="M9.861,159.467l89.773-72.7-1.721-2.124L8.14,157.34" fill="#c8c8c8"/>
      <path id="Trazado_872679" data-name="Trazado 872679" d="M11.582,161.591l89.773-72.7L99.634,86.77,9.861,159.465" fill="#c9c9c8"/>
      <path id="Trazado_872680" data-name="Trazado 872680" d="M13.3,163.715l89.773-72.7-1.721-2.124-89.77,72.7" fill="#cac9c9"/>
      <path id="Trazado_872681" data-name="Trazado 872681" d="M15.021,165.839l89.773-72.7-1.721-2.124L13.3,163.715" fill="#cacaca"/>
      <path id="Trazado_872682" data-name="Trazado 872682" d="M16.743,167.963l89.773-72.7-1.721-2.126-89.773,72.7" fill="#cbcbcb"/>
      <path id="Trazado_872683" data-name="Trazado 872683" d="M18.463,170.087l89.77-72.695-1.718-2.126-89.773,72.7" fill="#ccc"/>
      <path id="Trazado_872684" data-name="Trazado 872684" d="M20.182,172.213l89.773-72.7-1.721-2.124L18.461,170.087" fill="#cdcdcc"/>
      <path id="Trazado_872685" data-name="Trazado 872685" d="M21.9,174.337l89.773-72.7-1.721-2.124L20.182,172.21" fill="#cdcdcd"/>
      <path id="Trazado_872686" data-name="Trazado 872686" d="M23.624,176.461l89.773-72.7-1.721-2.124L21.9,174.337" fill="#cecece"/>
      <path id="Trazado_872687" data-name="Trazado 872687" d="M25.345,178.585l89.77-72.7-1.718-2.124-89.773,72.7" fill="#cfcfcf"/>
      <path id="Trazado_872688" data-name="Trazado 872688" d="M27.063,180.709l89.773-72.695-1.721-2.126-89.773,72.7" fill="#d0d0d0"/>
      <path id="Trazado_872689" data-name="Trazado 872689" d="M28.784,182.833l89.773-72.695-1.721-2.126-89.773,72.7" fill="#d1d1d1"/>
      <path id="Trazado_872690" data-name="Trazado 872690" d="M30.505,184.96l89.773-72.7-1.721-2.127-89.773,72.7" fill="#d2d2d1"/>
      <path id="Trazado_872691" data-name="Trazado 872691" d="M32.224,187.084,122,114.387l-1.721-2.124-89.77,72.695" fill="#d2d2d2"/>
      <path id="Trazado_872692" data-name="Trazado 872692" d="M33.945,189.208l89.773-72.7L122,114.387,32.224,187.082" fill="#d3d3d3"/>
      <path id="Trazado_872693" data-name="Trazado 872693" d="M35.666,191.332l89.773-72.7-1.721-2.124-89.773,72.7" fill="#d4d4d4"/>
      <path id="Trazado_872694" data-name="Trazado 872694" d="M37.387,193.456l89.77-72.7-1.718-2.124-89.773,72.7" fill="#d5d5d5"/>
      <path id="Trazado_872695" data-name="Trazado 872695" d="M39.105,195.58l89.773-72.695-1.721-2.126-89.773,72.7" fill="#d6d6d5"/>
      <path id="Trazado_872696" data-name="Trazado 872696" d="M40.826,197.7,130.6,125.009l-1.721-2.126-89.773,72.7" fill="#d6d6d6"/>
      <path id="Trazado_872697" data-name="Trazado 872697" d="M42.547,199.83l89.773-72.7-1.721-2.124L40.826,197.7" fill="#d7d7d7"/>
      <path id="Trazado_872698" data-name="Trazado 872698" d="M44.268,201.954l89.77-72.7-1.721-2.124-89.77,72.694" fill="#d8d8d8"/>
      <path id="Trazado_872699" data-name="Trazado 872699" d="M45.987,204.078l89.773-72.7-1.721-2.124-89.773,72.7" fill="#d9d9d9"/>
      <path id="Trazado_872700" data-name="Trazado 872700" d="M47.708,206.2l89.773-72.7-1.721-2.124-89.773,72.7" fill="#dad9d9"/>
      <path id="Trazado_872701" data-name="Trazado 872701" d="M49.429,208.326,139.2,135.631l-1.721-2.126L47.708,206.2" fill="#dadada"/>
      <path id="Trazado_872702" data-name="Trazado 872702" d="M51.147,210.45l89.773-72.7-1.721-2.126-89.77,72.7" fill="#dbdbdb"/>
      <path id="Trazado_872703" data-name="Trazado 872703" d="M52.868,212.577l89.773-72.7-1.721-2.124L51.147,210.451" fill="#dcdcdc"/>
      <path id="Trazado_872704" data-name="Trazado 872704" d="M54.589,214.7,144.362,142l-1.721-2.124L52.868,212.575" fill="#ddd"/>
      <path id="Trazado_872705" data-name="Trazado 872705" d="M56.31,216.825l89.77-72.7L144.362,142,54.589,214.7" fill="#ddd"/>
      <path id="Trazado_872706" data-name="Trazado 872706" d="M58.028,218.949l89.773-72.7-1.721-2.124-89.773,72.7" fill="#dedede"/>
      <path id="Trazado_872707" data-name="Trazado 872707" d="M59.75,221.073l89.773-72.7-1.721-2.126-89.773,72.7" fill="#dfdfdf"/>
      <path id="Trazado_872708" data-name="Trazado 872708" d="M61.47,223.2l89.773-72.7-1.721-2.126-89.773,72.7" fill="#e0e0e0"/>
      <path id="Trazado_872709" data-name="Trazado 872709" d="M63.189,225.32l89.773-72.695-1.721-2.126-89.77,72.7" fill="#e0e0e0"/>
      <path id="Trazado_872710" data-name="Trazado 872710" d="M64.91,227.447l89.773-72.7-1.721-2.124L63.189,225.321" fill="#e1e1e1"/>
      <path id="Trazado_872711" data-name="Trazado 872711" d="M66.631,229.571l89.773-72.7-1.721-2.124-89.773,72.7" fill="#e2e2e2"/>
      <path id="Trazado_872712" data-name="Trazado 872712" d="M68.352,231.7,158.125,159l-1.721-2.124-89.773,72.7" fill="#e3e3e2"/>
      <path id="Trazado_872713" data-name="Trazado 872713" d="M70.07,233.819l89.773-72.7L158.122,159l-89.77,72.7" fill="#e3e3e3"/>
    </g>
  </g>
  <g id="Grupo_1054460" data-name="Grupo 1054460">
    <g id="Grupo_1054459" data-name="Grupo 1054459" clip-path="url(#clip-path)">
      <rect id="Rectángulo_402846" data-name="Rectángulo 402846" width="117.519" height="38.498" transform="translate(23.53 137.844)" fill="none" stroke="#1d1d1b" stroke-miterlimit="3.864" stroke-width="0.355"/>
      <path id="Trazado_872714" data-name="Trazado 872714" d="M51.875,123.645l3.974,3.972h56.727l3.972-3.972Z" fill="#878787"/>
      <path id="Trazado_872715" data-name="Trazado 872715" d="M51.875,123.645l3.974,3.972h56.727l3.972-3.972Z" fill="none" stroke="#1d1d1b" stroke-miterlimit="3.864" stroke-width="0.355"/>
      <rect id="Rectángulo_402847" data-name="Rectángulo 402847" width="34.445" height="4.053" transform="translate(68.103 127.713)" fill="#878787"/>
      <rect id="Rectángulo_402848" data-name="Rectángulo 402848" width="34.445" height="4.053" transform="translate(68.103 127.713)" fill="none" stroke="#1d1d1b" stroke-miterlimit="3.864" stroke-width="0.355"/>
      <rect id="Rectángulo_402849" data-name="Rectángulo 402849" width="50.654" height="6.078" transform="translate(60 131.766)" fill="#878787"/>
      <rect id="Rectángulo_402850" data-name="Rectángulo 402850" width="50.654" height="6.078" transform="translate(60 131.766)" fill="none" stroke="#1d1d1b" stroke-miterlimit="3.864" stroke-width="0.355"/>
      <rect id="Rectángulo_402851" data-name="Rectángulo 402851" width="34.445" height="4.053" transform="translate(68.103 127.713)" fill="none" stroke="#1d1d1b" stroke-miterlimit="3.864" stroke-width="0.106"/>
      <rect id="Rectángulo_402852" data-name="Rectángulo 402852" width="38.407" height="27.592" transform="translate(98.448 139.758)" fill="#b2b2b2"/>
      <rect id="Rectángulo_402853" data-name="Rectángulo 402853" width="38.407" height="27.592" transform="translate(98.448 139.758)" fill="none" stroke="#b2b2b2" stroke-miterlimit="3.864" stroke-width="0.106"/>
      <rect id="Rectángulo_402854" data-name="Rectángulo 402854" width="7.946" height="12.141" transform="translate(113.678 139.758)" fill="#dadada"/>
      <path id="Trazado_872716" data-name="Trazado 872716" d="M30.465,186.333l-.221-3.313,3.972-13.243h102.2l8.828,13.243-.661,3.313Z" fill="#ededed"/>
      <path id="Trazado_872717" data-name="Trazado 872717" d="M30.465,186.333l-.221-3.313,3.972-13.243h102.2l8.828,13.243-.661,3.313Z" fill="none" stroke="#1d1d1b" stroke-miterlimit="3.864" stroke-width="0.106"/>
      <path id="Trazado_872718" data-name="Trazado 872718" d="M37.529,171.544l-1.546,6.843H137.737l-4.413-6.843Z" fill="#b2b2b2"/>
      <rect id="Rectángulo_402855" data-name="Rectángulo 402855" width="101.754" height="1.767" transform="translate(35.983 178.388)" fill="#878787"/>
      <path id="Trazado_872719" data-name="Trazado 872719" d="M30.465,186.333l-.221-3.313h115l-.661,3.313Z" fill="#bdbcbc"/>
    </g>
  </g>
  <g id="Grupo_1054462" data-name="Grupo 1054462">
    <g id="Grupo_1054461" data-name="Grupo 1054461" clip-path="url(#clip-path-7)">
      <path id="Trazado_872720" data-name="Trazado 872720" d="M134.332,86.985,86.4,140.217l1.093.983,47.929-53.234" fill="#878787"/>
      <path id="Trazado_872721" data-name="Trazado 872721" d="M133.265,86.025,85.333,139.257l1.093.983,47.929-53.234" fill="#888"/>
      <path id="Trazado_872722" data-name="Trazado 872722" d="M132.2,85.061,84.266,138.3l1.093.981,47.929-53.232" fill="#898988"/>
      <path id="Trazado_872723" data-name="Trazado 872723" d="M131.131,84.1,83.2,137.333l1.09.983,47.932-53.232" fill="#8a8a89"/>
      <path id="Trazado_872724" data-name="Trazado 872724" d="M130.061,83.14,82.132,136.372l1.09.983,47.931-53.232" fill="#8b8b8a"/>
      <path id="Trazado_872725" data-name="Trazado 872725" d="M128.995,82.18,81.066,135.411l1.09.983,47.931-53.232" fill="#8c8c8b"/>
      <path id="Trazado_872726" data-name="Trazado 872726" d="M127.927,81.219,80,134.451l1.09.983L129.019,82.2" fill="#8d8d8c"/>
      <path id="Trazado_872727" data-name="Trazado 872727" d="M126.86,80.256,78.928,133.49l1.093.981,47.931-53.232" fill="#8e8d8d"/>
      <path id="Trazado_872728" data-name="Trazado 872728" d="M125.793,79.3,77.861,132.529l1.093.981,47.929-53.232" fill="#8e8e8e"/>
      <path id="Trazado_872729" data-name="Trazado 872729" d="M124.726,78.335,76.794,131.566l1.093.983,47.929-53.232" fill="#8f8f8f"/>
      <path id="Trazado_872730" data-name="Trazado 872730" d="M123.659,77.374,75.727,130.606l1.093.983,47.929-53.232" fill="#909090"/>
      <path id="Trazado_872731" data-name="Trazado 872731" d="M122.592,76.413,74.66,129.644l1.093.984,47.929-53.234" fill="#919190"/>
      <path id="Trazado_872732" data-name="Trazado 872732" d="M121.522,75.453,73.593,128.684l1.09.984,47.931-53.234" fill="#929291"/>
      <path id="Trazado_872733" data-name="Trazado 872733" d="M120.455,74.49,72.526,127.724l1.09.981,47.931-53.232" fill="#939392"/>
      <path id="Trazado_872734" data-name="Trazado 872734" d="M119.388,73.529,71.459,126.763l1.09.981L120.48,74.512" fill="#949393"/>
      <path id="Trazado_872735" data-name="Trazado 872735" d="M118.321,72.568,70.389,125.8l1.093.984,47.931-53.232" fill="#949494"/>
      <path id="Trazado_872736" data-name="Trazado 872736" d="M117.254,71.608,69.322,124.839l1.093.984,47.931-53.232" fill="#959595"/>
      <path id="Trazado_872737" data-name="Trazado 872737" d="M116.187,70.647,68.255,123.878l1.093.984,47.929-53.234" fill="#969696"/>
      <path id="Trazado_872738" data-name="Trazado 872738" d="M115.12,69.684,67.188,122.918l1.093.983L116.21,70.667" fill="#979796"/>
      <path id="Trazado_872739" data-name="Trazado 872739" d="M114.053,68.723,66.121,121.957l1.093.981,47.929-53.232" fill="#989897"/>
      <path id="Trazado_872740" data-name="Trazado 872740" d="M112.983,67.763,65.054,120.994l1.09.984,47.931-53.232" fill="#999998"/>
      <path id="Trazado_872741" data-name="Trazado 872741" d="M111.916,66.8,63.987,120.033l1.09.984,47.931-53.232" fill="#9a9999"/>
      <path id="Trazado_872742" data-name="Trazado 872742" d="M110.849,65.842,62.92,119.073l1.09.984,47.931-53.234" fill="#9a9a9a"/>
      <path id="Trazado_872743" data-name="Trazado 872743" d="M109.782,64.881,61.853,118.112l1.09.984,47.931-53.234" fill="#9b9b9b"/>
      <path id="Trazado_872744" data-name="Trazado 872744" d="M108.715,63.918,60.783,117.152l1.093.981L109.807,64.9" fill="#9c9c9c"/>
      <path id="Trazado_872745" data-name="Trazado 872745" d="M107.648,62.957,59.716,116.191l1.093.981L108.738,63.94" fill="#9d9d9c"/>
      <path id="Trazado_872746" data-name="Trazado 872746" d="M106.581,62,58.649,115.228l1.093.984L107.671,62.98" fill="#9e9e9d"/>
      <path id="Trazado_872747" data-name="Trazado 872747" d="M105.514,61.036,57.582,114.268l1.093.983L106.6,62.019" fill="#9f9f9e"/>
      <path id="Trazado_872748" data-name="Trazado 872748" d="M104.444,60.075,56.515,113.307l1.09.983,47.931-53.234" fill="#a09f9f"/>
      <path id="Trazado_872749" data-name="Trazado 872749" d="M103.377,59.115,55.448,112.347l1.09.983L104.469,60.1" fill="#a0a0a0"/>
      <path id="Trazado_872750" data-name="Trazado 872750" d="M102.31,58.152,54.381,111.386l1.09.981L103.4,59.135" fill="#a1a1a1"/>
      <path id="Trazado_872751" data-name="Trazado 872751" d="M101.243,57.191,53.314,110.423l1.09.983,47.931-53.232" fill="#a2a2a2"/>
      <path id="Trazado_872752" data-name="Trazado 872752" d="M100.176,56.23,52.244,109.462l1.093.983,47.931-53.232" fill="#a3a3a3"/>
      <path id="Trazado_872753" data-name="Trazado 872753" d="M99.109,55.27,51.177,108.5l1.093.983L100.2,56.253" fill="#a4a4a3"/>
      <path id="Trazado_872754" data-name="Trazado 872754" d="M98.042,54.309,50.11,107.541l1.093.983L99.132,55.29" fill="#a5a5a4"/>
      <path id="Trazado_872755" data-name="Trazado 872755" d="M96.975,53.346,49.043,106.58l1.093.981L98.065,54.329" fill="#a6a6a5"/>
      <path id="Trazado_872756" data-name="Trazado 872756" d="M95.908,52.385,47.976,105.619l1.093.981L97,53.368" fill="#a7a6a6"/>
      <path id="Trazado_872757" data-name="Trazado 872757" d="M94.838,51.425,46.909,104.657l1.09.983L95.93,52.408" fill="#a7a7a7"/>
      <path id="Trazado_872758" data-name="Trazado 872758" d="M93.771,50.464,45.842,103.7l1.09.983L94.863,51.447" fill="#a8a8a8"/>
      <path id="Trazado_872759" data-name="Trazado 872759" d="M92.7,49.5,44.775,102.736l1.09.983L93.8,50.485" fill="#a9a9a9"/>
      <path id="Trazado_872760" data-name="Trazado 872760" d="M91.637,48.543,43.705,101.775l1.093.983L92.729,49.524" fill="#aaaaa9"/>
      <path id="Trazado_872761" data-name="Trazado 872761" d="M90.57,47.58,42.638,100.814l1.093.981L91.662,48.563" fill="#ababaa"/>
      <path id="Trazado_872762" data-name="Trazado 872762" d="M89.5,46.619,41.571,99.853l1.093.981L90.593,47.6" fill="#acacab"/>
      <path id="Trazado_872763" data-name="Trazado 872763" d="M88.436,45.659,40.5,98.891l1.093.983L89.526,46.642" fill="#adacac"/>
      <path id="Trazado_872764" data-name="Trazado 872764" d="M87.369,44.7,39.437,97.929l1.093.984L88.459,45.681" fill="#adadad"/>
      <path id="Trazado_872765" data-name="Trazado 872765" d="M86.3,43.737,38.37,96.968l1.09.984L87.391,44.718" fill="#aeaeae"/>
      <path id="Trazado_872766" data-name="Trazado 872766" d="M85.232,42.777,37.3,96.008l1.09.984L86.324,43.758" fill="#afafaf"/>
      <path id="Trazado_872767" data-name="Trazado 872767" d="M84.165,41.814,36.236,95.048l1.09.981L85.257,42.8" fill="#b0b0af"/>
      <path id="Trazado_872768" data-name="Trazado 872768" d="M83.1,40.853,35.169,94.084l1.09.984L84.19,41.836" fill="#b1b1b0"/>
      <path id="Trazado_872769" data-name="Trazado 872769" d="M82.031,39.892,34.1,93.123l1.093.984L83.123,40.875" fill="#b2b1b1"/>
      <path id="Trazado_872770" data-name="Trazado 872770" d="M80.964,38.932,33.032,92.163l1.093.984L82.054,39.913" fill="#b2b2b2"/>
    </g>
  </g>
  <g id="Grupo_1054464" data-name="Grupo 1054464">
    <g id="Grupo_1054463" data-name="Grupo 1054463" clip-path="url(#clip-path)">
      <rect id="Rectángulo_402857" data-name="Rectángulo 402857" width="34.615" height="2.025" transform="translate(100.468 144.936)" fill="#1d1d1b"/>
      <path id="Trazado_872772" data-name="Trazado 872772" d="M30.465,186.333l-.221-3.313,3.972-13.243h102.2l8.828,13.243-.661,3.313Z" fill="none" stroke="#1d1d1b" stroke-miterlimit="3.864" stroke-width="0.355"/>
      <rect id="Rectángulo_402858" data-name="Rectángulo 402858" width="3.376" height="16.211" transform="translate(32.485 151.163)" fill="#575756"/>
      <rect id="Rectángulo_402859" data-name="Rectángulo 402859" width="3.379" height="16.211" transform="translate(41.49 151.174)" fill="#575756"/>
      <rect id="Rectángulo_402860" data-name="Rectángulo 402860" width="3.379" height="16.211" transform="translate(50.498 151.174)" fill="#575756"/>
      <rect id="Rectángulo_402861" data-name="Rectángulo 402861" width="3.379" height="16.211" transform="translate(59.504 151.174)" fill="#575756"/>
      <rect id="Rectángulo_402862" data-name="Rectángulo 402862" width="3.376" height="16.211" transform="translate(68.509 151.174)" fill="#575756"/>
      <rect id="Rectángulo_402863" data-name="Rectángulo 402863" width="3.376" height="16.211" transform="translate(77.517 151.174)" fill="#575756"/>
      <rect id="Rectángulo_402864" data-name="Rectángulo 402864" width="3.379" height="16.211" transform="translate(86.522 151.163)" fill="#575756"/>
      <line id="Línea_4673" data-name="Línea 4673" x2="220.509" transform="translate(192.985 25.448)" fill="none" stroke="#1d1d1b" stroke-miterlimit="3.864" stroke-width="2.535"/>
      <path id="Trazado_872773" data-name="Trazado 872773" d="M412.438,25.448V19.112l15.841,6.336-15.841,6.336Z" fill="#1d1d1b" fill-rule="evenodd"/>
      <line id="Línea_4674" data-name="Línea 4674" x1="220.509" transform="translate(192.986 69.803)" fill="none" stroke="#1d1d1b" stroke-miterlimit="3.864" stroke-width="2.535" stroke-dasharray="2.535 2.535"/>
      <path id="Trazado_872774" data-name="Trazado 872774" d="M194.04,69.8v6.336L178.2,69.8l15.841-6.336Z" fill="#1d1d1b" fill-rule="evenodd"/>
      <line id="Línea_4675" data-name="Línea 4675" x2="220.509" transform="translate(192.985 114.158)" fill="none" stroke="#1d1d1b" stroke-miterlimit="3.864" stroke-width="2.535"/>
      <path id="Trazado_872775" data-name="Trazado 872775" d="M412.438,114.158v-6.336l15.841,6.336-15.841,6.336Z" fill="#1d1d1b" fill-rule="evenodd"/>
      <line id="Línea_4676" data-name="Línea 4676" x2="220.509" transform="translate(192.985 158.988)" fill="none" stroke="#1d1d1b" stroke-miterlimit="3.864" stroke-width="2.535"/>
      <path id="Trazado_872776" data-name="Trazado 872776" d="M412.438,158.988v-6.336l15.841,6.336-15.841,6.336Z" fill="#1d1d1b" fill-rule="evenodd"/>
      <line id="Línea_4677" data-name="Línea 4677" x1="220.509" transform="translate(192.986 201.602)" fill="none" stroke="#1d1d1b" stroke-miterlimit="3.864" stroke-width="2.535" stroke-dasharray="2.535 2.535"/>
      <path id="Trazado_872777" data-name="Trazado 872777" d="M194.04,201.6v6.336L178.2,201.6l15.841-6.336Z" fill="#1d1d1b" fill-rule="evenodd"/>
      <rect id="Rectángulo_402865" data-name="Rectángulo 402865" width="105.213" height="30.795" transform="translate(479.566 107.166)" fill="#dadada"/>
      <path id="Trazado_872778" data-name="Trazado 872778" d="M479.566,137.961l3.424,5.133h98.37l3.422-5.133Z" fill="#b2b2b2"/>
      <path id="Trazado_872779" data-name="Trazado 872779" d="M479.566,107.165l3.424-5.133h98.37l3.422,5.133Z" fill="#ededed"/>
      <rect id="Rectángulo_402866" data-name="Rectángulo 402866" width="84.686" height="20.53" transform="translate(489.677 112.298)" fill="#575756"/>
      <rect id="Rectángulo_402867" data-name="Rectángulo 402867" width="44.036" height="5.133" transform="translate(526.938 117.431)" fill="#ededed"/>
      <line id="Línea_4678" data-name="Línea 4678" x2="77.842" transform="translate(493.253 127.696)" fill="none" stroke="#dadada" stroke-miterlimit="3.864" stroke-width="0.57"/>
      <path id="Trazado_872780" data-name="Trazado 872780" d="M482.991,102.033l-3.424,5.133v30.795l3.424,5.132h98.37l3.422-5.132V107.166l-3.422-5.133Z" fill="none" stroke="#1d1d1b" stroke-miterlimit="3.864" stroke-width="0.634"/>
      <path id="Trazado_872781" data-name="Trazado 872781" d="M256.522,12.743a4.773,4.773,0,0,1-2.168,1.545,8.871,8.871,0,0,1-3.149.524A6.2,6.2,0,0,1,248,13.99a5.47,5.47,0,0,1-2.153-2.351,8.231,8.231,0,0,1-.787-3.569V6.941a7.632,7.632,0,0,1,1.564-5.1A5.425,5.425,0,0,1,250.987,0a5.743,5.743,0,0,1,3.822,1.193,5.138,5.138,0,0,1,1.7,3.43h-2.455a2.764,2.764,0,0,0-3.02-2.6,2.961,2.961,0,0,0-2.559,1.211,6.144,6.144,0,0,0-.906,3.549v1.1a5.84,5.84,0,0,0,.985,3.619,3.252,3.252,0,0,0,2.737,1.289,3.624,3.624,0,0,0,2.733-.866V9.119h-2.97v-1.9h5.465Z" fill="#1d1d1b"/>
      <path id="Trazado_872782" data-name="Trazado 872782" d="M267.7,8.178h-5.921v4.416H268.7v2.019h-9.426V.2h9.357v2.02h-6.852V6.2H267.7Z" fill="#1d1d1b"/>
      <path id="Trazado_872783" data-name="Trazado 872783" d="M281.155,2.218h-4.5v12.4h-2.485V2.218H269.72V.2h11.435Z" fill="#1d1d1b"/>
      <rect id="Rectángulo_402868" data-name="Rectángulo 402868" width="9.079" height="1.891" transform="translate(281.611 14.614)" fill="#1d1d1b"/>
      <path id="Trazado_872784" data-name="Trazado 872784" d="M297.492,9.07H294.7v5.544h-2.505V.2h5.069a5.91,5.91,0,0,1,3.853,1.118,3.975,3.975,0,0,1,1.356,3.243,4.052,4.052,0,0,1-.7,2.421,4.447,4.447,0,0,1-1.945,1.5l3.237,6v.129h-2.683ZM294.7,7.05h2.574a2.868,2.868,0,0,0,1.982-.639,2.224,2.224,0,0,0,.712-1.747,2.383,2.383,0,0,0-.658-1.792,2.8,2.8,0,0,0-1.967-.654H294.7Z" fill="#1d1d1b"/>
      <path id="Trazado_872785" data-name="Trazado 872785" d="M313.274,8.178h-5.921v4.416h6.921v2.019h-9.426V.2h9.357v2.02h-6.852V6.2h5.921Z" fill="#1d1d1b"/>
      <path id="Trazado_872786" data-name="Trazado 872786" d="M327.769,7.782a8.887,8.887,0,0,1-.649,3.55,5.774,5.774,0,0,1-1.817,2.381l2.476,1.931-1.624,1.465-3.069-2.426a6.14,6.14,0,0,1-1.3.129,5.754,5.754,0,0,1-3.114-.856,5.633,5.633,0,0,1-2.119-2.441,8.6,8.6,0,0,1-.757-3.653V7.05a8.794,8.794,0,0,1,.747-3.723,5.613,5.613,0,0,1,2.109-2.47A5.72,5.72,0,0,1,321.769,0a5.832,5.832,0,0,1,3.143.847,5.534,5.534,0,0,1,2.1,2.436,8.771,8.771,0,0,1,.753,3.7Zm-2.515-.752a6.262,6.262,0,0,0-.911-3.693,2.988,2.988,0,0,0-2.574-1.257,2.944,2.944,0,0,0-2.53,1.272,6.149,6.149,0,0,0-.935,3.589v.841a6.317,6.317,0,0,0,.916,3.654,3.2,3.2,0,0,0,5.138.049,6.389,6.389,0,0,0,.9-3.7Z" fill="#1d1d1b"/>
      <path id="Trazado_872787" data-name="Trazado 872787" d="M340.858.2V9.831a4.68,4.68,0,0,1-1.47,3.639,6.448,6.448,0,0,1-7.847.02,4.7,4.7,0,0,1-1.455-3.668V.2h2.495V9.826a3.049,3.049,0,0,0,.733,2.2,2.849,2.849,0,0,0,2.158.763q2.892,0,2.891-3.045V.2Z" fill="#1d1d1b"/>
      <path id="Trazado_872788" data-name="Trazado 872788" d="M351.957,8.178h-5.921v4.416h6.921v2.019h-9.426V.2h9.357v2.02h-6.852V6.2h5.921Z" fill="#1d1d1b"/>
      <path id="Trazado_872789" data-name="Trazado 872789" d="M362.531,10.9a1.742,1.742,0,0,0-.668-1.465,8.013,8.013,0,0,0-2.411-1.04,11.635,11.635,0,0,1-2.772-1.168A3.7,3.7,0,0,1,354.709,4a3.51,3.51,0,0,1,1.421-2.871A5.754,5.754,0,0,1,359.818,0,6.235,6.235,0,0,1,362.5.555a4.4,4.4,0,0,1,1.852,1.579,4.055,4.055,0,0,1,.673,2.272h-2.495a2.222,2.222,0,0,0-.708-1.752A2.93,2.93,0,0,0,359.8,2.02a3.053,3.053,0,0,0-1.9.522A1.737,1.737,0,0,0,357.214,4a1.572,1.572,0,0,0,.733,1.314,8.357,8.357,0,0,0,2.416,1.027,11.133,11.133,0,0,1,2.7,1.136,4.3,4.3,0,0,1,1.495,1.466,3.822,3.822,0,0,1,.475,1.935,3.43,3.43,0,0,1-1.381,2.866,5.985,5.985,0,0,1-3.748,1.065,7.044,7.044,0,0,1-2.876-.579,4.838,4.838,0,0,1-2.039-1.6,3.985,3.985,0,0,1-.728-2.377h2.505a2.326,2.326,0,0,0,.812,1.9,3.559,3.559,0,0,0,2.326.674,3.083,3.083,0,0,0,1.966-.53,1.711,1.711,0,0,0,.658-1.4" fill="#1d1d1b"/>
      <path id="Trazado_872790" data-name="Trazado 872790" d="M377.649,2.218h-4.5v12.4h-2.485V2.218h-4.455V.2h11.435Z" fill="#1d1d1b"/>
      <path id="Trazado_872791" data-name="Trazado 872791" d="M250.529,57.1a4.776,4.776,0,0,1-2.169,1.545,8.866,8.866,0,0,1-3.148.524A6.205,6.205,0,0,1,242,58.345a5.476,5.476,0,0,1-2.153-2.351,8.23,8.23,0,0,1-.787-3.569V51.3a7.633,7.633,0,0,1,1.565-5.1,5.422,5.422,0,0,1,4.365-1.836,5.743,5.743,0,0,1,3.822,1.193,5.138,5.138,0,0,1,1.7,3.43h-2.455a2.764,2.764,0,0,0-3.019-2.6,2.961,2.961,0,0,0-2.56,1.211,6.137,6.137,0,0,0-.906,3.549v1.1a5.84,5.84,0,0,0,.985,3.619,3.252,3.252,0,0,0,2.737,1.289,3.624,3.624,0,0,0,2.733-.866V53.474h-2.97v-1.9h5.466Z" fill="#1d1d1b"/>
      <path id="Trazado_872792" data-name="Trazado 872792" d="M261.706,52.534h-5.921V56.95h6.921v2.019H253.28V44.554h9.357v2.02h-6.852v3.98h5.921Z" fill="#1d1d1b"/>
      <path id="Trazado_872793" data-name="Trazado 872793" d="M275.161,46.574h-4.5v12.4h-2.485v-12.4h-4.455v-2.02h11.435Z" fill="#1d1d1b"/>
      <rect id="Rectángulo_402869" data-name="Rectángulo 402869" width="9.079" height="1.891" transform="translate(275.617 58.969)" fill="#1d1d1b"/>
      <path id="Trazado_872794" data-name="Trazado 872794" d="M291.5,53.425h-2.792v5.544H286.2V44.554h5.069a5.907,5.907,0,0,1,3.852,1.118,3.966,3.966,0,0,1,1.356,3.243,4.059,4.059,0,0,1-.7,2.421,4.447,4.447,0,0,1-1.945,1.5l3.237,6v.129h-2.683Zm-2.792-2.02h2.574a2.861,2.861,0,0,0,1.98-.639,2.221,2.221,0,0,0,.713-1.747,2.371,2.371,0,0,0-.658-1.792,2.8,2.8,0,0,0-1.966-.654h-2.643Z" fill="#1d1d1b"/>
      <path id="Trazado_872795" data-name="Trazado 872795" d="M307.28,52.534h-5.921V56.95h6.921v2.019h-9.426V44.554h9.357v2.02h-6.852v3.98h5.921Z" fill="#1d1d1b"/>
      <path id="Trazado_872796" data-name="Trazado 872796" d="M317.853,55.256a1.742,1.742,0,0,0-.668-1.465,8.013,8.013,0,0,0-2.411-1.04A11.635,11.635,0,0,1,312,51.583a3.7,3.7,0,0,1-1.971-3.228,3.51,3.51,0,0,1,1.421-2.871,5.754,5.754,0,0,1,3.688-1.129,6.235,6.235,0,0,1,2.683.555,4.4,4.4,0,0,1,1.852,1.579,4.055,4.055,0,0,1,.673,2.272h-2.495a2.222,2.222,0,0,0-.708-1.752,2.93,2.93,0,0,0-2.025-.634,3.058,3.058,0,0,0-1.906.522,1.738,1.738,0,0,0-.678,1.461,1.573,1.573,0,0,0,.733,1.314,8.357,8.357,0,0,0,2.416,1.027,11.133,11.133,0,0,1,2.7,1.136,4.3,4.3,0,0,1,1.495,1.466,3.822,3.822,0,0,1,.475,1.935,3.433,3.433,0,0,1-1.381,2.866,5.985,5.985,0,0,1-3.748,1.065,7.044,7.044,0,0,1-2.876-.579,4.838,4.838,0,0,1-2.039-1.6,3.985,3.985,0,0,1-.728-2.377h2.505a2.326,2.326,0,0,0,.812,1.9,3.559,3.559,0,0,0,2.326.674,3.085,3.085,0,0,0,1.966-.53,1.711,1.711,0,0,0,.658-1.4" fill="#1d1d1b"/>
      <path id="Trazado_872797" data-name="Trazado 872797" d="M325.061,53.623v5.346h-2.505V44.554h5.515a5.572,5.572,0,0,1,3.836,1.26,4.227,4.227,0,0,1,1.421,3.329,4.1,4.1,0,0,1-1.391,3.3,5.858,5.858,0,0,1-3.9,1.178Zm0-2.02h3.01a2.961,2.961,0,0,0,2.039-.629,2.309,2.309,0,0,0,.7-1.816,2.491,2.491,0,0,0-.713-1.867,2.746,2.746,0,0,0-1.96-.718h-3.079Z" fill="#1d1d1b"/>
      <path id="Trazado_872798" data-name="Trazado 872798" d="M347.021,52.137a8.851,8.851,0,0,1-.733,3.718,5.524,5.524,0,0,1-2.094,2.456,6.145,6.145,0,0,1-6.257,0,5.633,5.633,0,0,1-2.119-2.441,8.6,8.6,0,0,1-.757-3.653V51.4a8.793,8.793,0,0,1,.747-3.723,5.613,5.613,0,0,1,2.109-2.47,5.735,5.735,0,0,1,3.124-.857,5.8,5.8,0,0,1,3.124.847,5.538,5.538,0,0,1,2.1,2.436,8.769,8.769,0,0,1,.753,3.7Zm-2.505-.752a6.3,6.3,0,0,0-.906-3.673,3.2,3.2,0,0,0-5.109-.005,6.168,6.168,0,0,0-.935,3.6v.831a6.262,6.262,0,0,0,.925,3.674,2.984,2.984,0,0,0,2.57,1.3,2.947,2.947,0,0,0,2.559-1.268,6.389,6.389,0,0,0,.9-3.7Z" fill="#1d1d1b"/>
      <path id="Trazado_872799" data-name="Trazado 872799" d="M360.952,58.969h-2.505l-6.425-10.227V58.969h-2.505V44.554h2.505l6.445,10.267V44.554h2.485Z" fill="#1d1d1b"/>
      <path id="Trazado_872800" data-name="Trazado 872800" d="M371.446,55.256a1.742,1.742,0,0,0-.668-1.465,8.013,8.013,0,0,0-2.411-1.04,11.635,11.635,0,0,1-2.772-1.168,3.7,3.7,0,0,1-1.971-3.228,3.51,3.51,0,0,1,1.421-2.871,5.754,5.754,0,0,1,3.688-1.129,6.235,6.235,0,0,1,2.683.555,4.4,4.4,0,0,1,1.852,1.579,4.055,4.055,0,0,1,.673,2.272h-2.495a2.222,2.222,0,0,0-.708-1.752,2.93,2.93,0,0,0-2.025-.634,3.053,3.053,0,0,0-1.9.522,1.737,1.737,0,0,0-.679,1.461,1.573,1.573,0,0,0,.733,1.314,8.357,8.357,0,0,0,2.416,1.027,11.133,11.133,0,0,1,2.7,1.136,4.3,4.3,0,0,1,1.5,1.466,3.823,3.823,0,0,1,.475,1.935A3.43,3.43,0,0,1,372.57,58.1a5.985,5.985,0,0,1-3.748,1.065,7.044,7.044,0,0,1-2.876-.579,4.838,4.838,0,0,1-2.039-1.6,3.984,3.984,0,0,1-.728-2.377h2.505a2.326,2.326,0,0,0,.812,1.9,3.559,3.559,0,0,0,2.326.674,3.083,3.083,0,0,0,1.966-.53,1.711,1.711,0,0,0,.658-1.4" fill="#1d1d1b"/>
      <path id="Trazado_872801" data-name="Trazado 872801" d="M384.575,52.534h-5.921V56.95h6.921v2.019h-9.426V44.554h9.357v2.02h-6.852v3.98h5.921Z" fill="#1d1d1b"/>
      <path id="Trazado_872802" data-name="Trazado 872802" d="M229.619,101.453A4.773,4.773,0,0,1,227.451,103a8.871,8.871,0,0,1-3.149.524,6.2,6.2,0,0,1-3.208-.822,5.47,5.47,0,0,1-2.153-2.351,8.231,8.231,0,0,1-.787-3.569V95.651a7.632,7.632,0,0,1,1.564-5.1,5.425,5.425,0,0,1,4.366-1.836,5.743,5.743,0,0,1,3.822,1.193,5.138,5.138,0,0,1,1.7,3.43h-2.455a2.764,2.764,0,0,0-3.02-2.6,2.961,2.961,0,0,0-2.559,1.211,6.144,6.144,0,0,0-.906,3.549v1.1a5.84,5.84,0,0,0,.985,3.619,3.252,3.252,0,0,0,2.737,1.289,3.624,3.624,0,0,0,2.733-.866V97.829h-2.97v-1.9h5.465Z" fill="#1d1d1b"/>
      <path id="Trazado_872803" data-name="Trazado 872803" d="M240.8,96.889h-5.921v4.416H241.8v2.019h-9.426V88.909h9.357v2.02h-6.852v3.98H240.8Z" fill="#1d1d1b"/>
      <path id="Trazado_872804" data-name="Trazado 872804" d="M254.252,90.929h-4.5v12.4h-2.485v-12.4h-4.455v-2.02h11.435Z" fill="#1d1d1b"/>
      <rect id="Rectángulo_402870" data-name="Rectángulo 402870" width="9.079" height="1.891" transform="translate(254.708 103.325)" fill="#1d1d1b"/>
      <path id="Trazado_872805" data-name="Trazado 872805" d="M276.727,103.324h-2.505L267.8,93.1v10.227h-2.505V88.91H267.8l6.445,10.267V88.91h2.485Z" fill="#1d1d1b"/>
      <path id="Trazado_872806" data-name="Trazado 872806" d="M288.113,96.889h-5.921v4.416h6.921v2.019h-9.426V88.909h9.357v2.02h-6.852v3.98h5.921Z" fill="#1d1d1b"/>
      <path id="Trazado_872807" data-name="Trazado 872807" d="M296.113,94.117l3.028-5.208h2.891l-4.356,7.149,4.455,7.267h-2.92l-3.1-5.287L293,103.325h-2.911l4.466-7.267-4.367-7.149h2.891Z" fill="#1d1d1b"/>
      <path id="Trazado_872808" data-name="Trazado 872808" d="M314.4,90.929h-4.5v12.4h-2.485v-12.4h-4.455v-2.02H314.4Z" fill="#1d1d1b"/>
      <rect id="Rectángulo_402871" data-name="Rectángulo 402871" width="9.079" height="1.891" transform="translate(314.854 103.325)" fill="#1d1d1b"/>
      <path id="Trazado_872809" data-name="Trazado 872809" d="M330.734,97.78h-2.792v5.544h-2.5V88.909h5.069a5.9,5.9,0,0,1,3.852,1.118,3.969,3.969,0,0,1,1.356,3.243,4.059,4.059,0,0,1-.7,2.421,4.447,4.447,0,0,1-1.945,1.5l3.237,6v.129h-2.683Zm-2.792-2.02h2.574a2.863,2.863,0,0,0,1.98-.639,2.222,2.222,0,0,0,.713-1.747,2.375,2.375,0,0,0-.658-1.792,2.792,2.792,0,0,0-1.965-.654h-2.644Z" fill="#1d1d1b"/>
      <path id="Trazado_872810" data-name="Trazado 872810" d="M346.516,96.889H340.6v4.416h6.921v2.019H338.09V88.909h9.357v2.02H340.6v3.98h5.921Z" fill="#1d1d1b"/>
      <path id="Trazado_872811" data-name="Trazado 872811" d="M361.011,96.493a8.887,8.887,0,0,1-.649,3.55,5.775,5.775,0,0,1-1.817,2.381l2.476,1.931L359.4,105.82l-3.069-2.426a6.14,6.14,0,0,1-1.3.129,5.754,5.754,0,0,1-3.114-.856,5.633,5.633,0,0,1-2.119-2.441,8.6,8.6,0,0,1-.757-3.653v-.812a8.793,8.793,0,0,1,.747-3.723,5.613,5.613,0,0,1,2.109-2.47,5.72,5.72,0,0,1,3.114-.857,5.832,5.832,0,0,1,3.143.847,5.534,5.534,0,0,1,2.1,2.436,8.771,8.771,0,0,1,.753,3.7Zm-2.515-.752a6.262,6.262,0,0,0-.911-3.693,2.988,2.988,0,0,0-2.574-1.257,2.944,2.944,0,0,0-2.53,1.272,6.149,6.149,0,0,0-.935,3.589v.841a6.325,6.325,0,0,0,.915,3.654,3.2,3.2,0,0,0,5.139.049,6.389,6.389,0,0,0,.9-3.7Z" fill="#1d1d1b"/>
      <path id="Trazado_872812" data-name="Trazado 872812" d="M374.1,88.909v9.633a4.68,4.68,0,0,1-1.47,3.639,6.448,6.448,0,0,1-7.847.02,4.7,4.7,0,0,1-1.455-3.668V88.909h2.495v9.628a3.049,3.049,0,0,0,.733,2.2,2.849,2.849,0,0,0,2.158.763q2.892,0,2.891-3.045V88.909Z" fill="#1d1d1b"/>
      <path id="Trazado_872813" data-name="Trazado 872813" d="M385.2,96.889h-5.921v4.416H386.2v2.019h-9.426V88.909h9.357v2.02h-6.852v3.98H385.2Z" fill="#1d1d1b"/>
      <path id="Trazado_872814" data-name="Trazado 872814" d="M395.772,99.612a1.742,1.742,0,0,0-.668-1.465,8.013,8.013,0,0,0-2.411-1.04,11.636,11.636,0,0,1-2.772-1.168,3.7,3.7,0,0,1-1.971-3.228,3.51,3.51,0,0,1,1.421-2.871,5.748,5.748,0,0,1,3.688-1.129,6.235,6.235,0,0,1,2.683.555,4.4,4.4,0,0,1,1.852,1.579,4.055,4.055,0,0,1,.673,2.272h-2.495a2.222,2.222,0,0,0-.708-1.752,2.93,2.93,0,0,0-2.025-.634,3.053,3.053,0,0,0-1.9.522,1.737,1.737,0,0,0-.679,1.461,1.573,1.573,0,0,0,.733,1.314,8.385,8.385,0,0,0,2.416,1.027,11.133,11.133,0,0,1,2.7,1.136,4.3,4.3,0,0,1,1.495,1.466,3.822,3.822,0,0,1,.475,1.935,3.433,3.433,0,0,1-1.381,2.866,5.985,5.985,0,0,1-3.748,1.065,7.044,7.044,0,0,1-2.876-.579,4.838,4.838,0,0,1-2.039-1.6,3.985,3.985,0,0,1-.728-2.377h2.505a2.326,2.326,0,0,0,.812,1.9,3.559,3.559,0,0,0,2.326.674,3.083,3.083,0,0,0,1.966-.53,1.711,1.711,0,0,0,.658-1.4" fill="#1d1d1b"/>
      <path id="Trazado_872815" data-name="Trazado 872815" d="M410.891,90.929h-4.5v12.4h-2.485v-12.4h-4.455v-2.02h11.435Z" fill="#1d1d1b"/>
      <path id="Trazado_872816" data-name="Trazado 872816" d="M271.194,144.442a1.742,1.742,0,0,0-.668-1.465,8,8,0,0,0-2.411-1.04,11.653,11.653,0,0,1-2.772-1.168,3.7,3.7,0,0,1-1.971-3.228,3.513,3.513,0,0,1,1.421-2.871,5.754,5.754,0,0,1,3.688-1.129,6.238,6.238,0,0,1,2.683.555,4.405,4.405,0,0,1,1.852,1.579,4.047,4.047,0,0,1,.673,2.272h-2.495a2.225,2.225,0,0,0-.708-1.752,2.928,2.928,0,0,0-2.025-.634,3.053,3.053,0,0,0-1.9.522,1.739,1.739,0,0,0-.679,1.461,1.571,1.571,0,0,0,.733,1.314,8.358,8.358,0,0,0,2.416,1.027,11.1,11.1,0,0,1,2.7,1.136,4.3,4.3,0,0,1,1.495,1.466,3.822,3.822,0,0,1,.475,1.935,3.43,3.43,0,0,1-1.381,2.866,5.983,5.983,0,0,1-3.748,1.065,7.044,7.044,0,0,1-2.876-.579,4.832,4.832,0,0,1-2.039-1.6,3.985,3.985,0,0,1-.728-2.377h2.505a2.329,2.329,0,0,0,.812,1.9,3.556,3.556,0,0,0,2.326.674,3.086,3.086,0,0,0,1.966-.53,1.708,1.708,0,0,0,.658-1.4" fill="#1d1d1b"/>
      <path id="Trazado_872817" data-name="Trazado 872817" d="M284.322,141.72H278.4v4.416h6.921v2.019H275.9V133.74h9.357v2.02H278.4v3.98h5.921Z" fill="#1d1d1b"/>
      <path id="Trazado_872818" data-name="Trazado 872818" d="M297.777,135.759h-4.5v12.4H290.8v-12.4h-4.455v-2.02h11.435Z" fill="#1d1d1b"/>
      <rect id="Rectángulo_402872" data-name="Rectángulo 402872" width="9.079" height="1.891" transform="translate(298.233 148.155)" fill="#1d1d1b"/>
      <path id="Trazado_872819" data-name="Trazado 872819" d="M320.252,148.155h-2.505l-6.425-10.227v10.227h-2.505V133.74h2.505l6.445,10.267V133.74h2.485Z" fill="#1d1d1b"/>
      <path id="Trazado_872820" data-name="Trazado 872820" d="M331.638,141.72h-5.921v4.416h6.921v2.019h-9.426V133.74h9.357v2.02h-6.852v3.98h5.921Z" fill="#1d1d1b"/>
      <path id="Trazado_872821" data-name="Trazado 872821" d="M339.638,138.947l3.03-5.208h2.891l-4.357,7.149,4.456,7.267h-2.921l-3.1-5.287-3.109,5.287h-2.911l4.466-7.267-4.367-7.149h2.891Z" fill="#1d1d1b"/>
      <path id="Trazado_872822" data-name="Trazado 872822" d="M357.924,135.759h-4.5v12.4h-2.485v-12.4h-4.455v-2.02h11.435Z" fill="#1d1d1b"/>
      <path id="Trazado_872823" data-name="Trazado 872823" d="M294.552,178.372h-4.5v12.4h-2.485v-12.4h-4.455v-2.02h11.435Z" fill="#1d1d1b"/>
      <path id="Trazado_872824" data-name="Trazado 872824" d="M301.74,185.224h-2.792v5.544h-2.505V176.353h5.069a5.905,5.905,0,0,1,3.852,1.118,3.969,3.969,0,0,1,1.356,3.243,4.059,4.059,0,0,1-.7,2.421,4.447,4.447,0,0,1-1.945,1.5l3.237,6v.129h-2.683Zm-2.792-2.02h2.574a2.863,2.863,0,0,0,1.98-.639,2.221,2.221,0,0,0,.713-1.747,2.375,2.375,0,0,0-.658-1.792,2.793,2.793,0,0,0-1.966-.654h-2.643Z" fill="#1d1d1b"/>
      <path id="Trazado_872825" data-name="Trazado 872825" d="M317.165,187.412h-5.584l-1.168,3.356h-2.6l5.445-14.415H315.5l5.455,14.415h-2.614Zm-4.881-2.02h4.178l-2.089-5.98Z" fill="#1d1d1b"/>
      <path id="Trazado_872826" data-name="Trazado 872826" d="M325.1,185.422v5.346h-2.505V176.353h5.515a5.572,5.572,0,0,1,3.836,1.26,4.227,4.227,0,0,1,1.421,3.329,4.1,4.1,0,0,1-1.391,3.3,5.858,5.858,0,0,1-3.9,1.178Zm0-2.02h3.01a2.961,2.961,0,0,0,2.039-.629,2.309,2.309,0,0,0,.7-1.816,2.491,2.491,0,0,0-.713-1.867,2.747,2.747,0,0,0-1.96-.718H325.1Z" fill="#1d1d1b"/>
      <path id="Trazado_872827" data-name="Trazado 872827" d="M7.916,6.233l.028,11.742,9.11-11.742H19.5L13.931,20.648H12.079l2.2-5.7,2.412-5.8-8.98,11.5H6.287L6.207,8.916,3.994,15.134,1.862,20.648H0L5.57,6.233Z" fill="#1d1d1b"/>
      <path id="Trazado_872828" data-name="Trazado 872828" d="M23.544,20.649a2.314,2.314,0,0,1,.051-.565l.15-.564a5.41,5.41,0,0,1-3.411,1.327,2.6,2.6,0,0,1-2.111-.9,2.343,2.343,0,0,1-.342-2.193A4.339,4.339,0,0,1,19.937,15.1a7.387,7.387,0,0,1,3.861-.955l1.87.01.3-.852a1.791,1.791,0,0,0-.048-1.52,1.44,1.44,0,0,0-1.288-.579,3.2,3.2,0,0,0-1.724.451A2.568,2.568,0,0,0,21.776,12.9l-1.8.01a3.732,3.732,0,0,1,1.086-1.668,5.683,5.683,0,0,1,1.894-1.129,5.985,5.985,0,0,1,2.17-.381,2.862,2.862,0,0,1,2.388,1.015,2.794,2.794,0,0,1,.231,2.589l-2,5.307-.211.762a3.8,3.8,0,0,0-.11,1.077l-.056.171ZM21.027,19.26a3.581,3.581,0,0,0,1.715-.408,5.631,5.631,0,0,0,1.577-1.193l.855-2.208-1.355-.01a5.841,5.841,0,0,0-2.708.534,2.625,2.625,0,0,0-1.341,1.513,1.383,1.383,0,0,0,.085,1.255,1.344,1.344,0,0,0,1.172.517" fill="#1d1d1b"/>
      <path id="Trazado_872829" data-name="Trazado 872829" d="M33.625,9.926l-.546,1.356a5.267,5.267,0,0,1,3.615-1.544,2.1,2.1,0,0,1,2.015,1.049,3.838,3.838,0,0,1-.071,2.842l-2.659,7.02H34.187l2.676-7.042a4.206,4.206,0,0,0,.2-.9c.085-.926-.36-1.4-1.333-1.416a4.321,4.321,0,0,0-3.2,1.721l-2.95,7.636H27.791L31.929,9.936Z" fill="#1d1d1b"/>
      <path id="Trazado_872830" data-name="Trazado 872830" d="M45.3,20.649a2.314,2.314,0,0,1,.051-.565l.15-.564a5.41,5.41,0,0,1-3.411,1.327,2.6,2.6,0,0,1-2.111-.9,2.343,2.343,0,0,1-.342-2.193A4.339,4.339,0,0,1,41.689,15.1a7.387,7.387,0,0,1,3.861-.955l1.87.01.3-.852a1.791,1.791,0,0,0-.048-1.52,1.44,1.44,0,0,0-1.288-.579,3.2,3.2,0,0,0-1.724.451A2.568,2.568,0,0,0,43.528,12.9l-1.8.01a3.732,3.732,0,0,1,1.086-1.668,5.683,5.683,0,0,1,1.894-1.129,5.985,5.985,0,0,1,2.17-.381,2.862,2.862,0,0,1,2.388,1.015,2.794,2.794,0,0,1,.231,2.589l-2,5.307-.211.762a3.8,3.8,0,0,0-.11,1.077l-.056.171ZM42.779,19.26a3.581,3.581,0,0,0,1.715-.408,5.631,5.631,0,0,0,1.577-1.193l.855-2.208-1.355-.01a5.841,5.841,0,0,0-2.708.534,2.625,2.625,0,0,0-1.341,1.513,1.383,1.383,0,0,0,.085,1.255,1.344,1.344,0,0,0,1.172.517" fill="#1d1d1b"/>
      <path id="Trazado_872831" data-name="Trazado 872831" d="M51.212,15.27A10.921,10.921,0,0,1,52.8,12.228a6.779,6.779,0,0,1,2.129-1.911,4.635,4.635,0,0,1,2.349-.589,2.588,2.588,0,0,1,2.512,1.406l.612-1.2h1.643L58.037,20.421A6.841,6.841,0,0,1,55.676,23.7a5.625,5.625,0,0,1-3.645,1.173,4.154,4.154,0,0,1-1.975-.514A2.928,2.928,0,0,1,48.775,23l1.254-1.1a2.369,2.369,0,0,0,2.25,1.475,3.676,3.676,0,0,0,2.315-.712,4.861,4.861,0,0,0,1.628-2.139l.4-.951a4.975,4.975,0,0,1-3.329,1.268,2.639,2.639,0,0,1-1.624-.54,2.456,2.456,0,0,1-.829-1.475,5.672,5.672,0,0,1,.012-2.153,12.391,12.391,0,0,1,.359-1.409m1.516,1.015a3.49,3.49,0,0,0,.025,2.193,1.446,1.446,0,0,0,1.4.814,4.125,4.125,0,0,0,3.1-1.574l1.886-4.913a1.734,1.734,0,0,0-1.824-1.522,3.49,3.49,0,0,0-2.645,1.188,7.748,7.748,0,0,0-1.807,3.312Z" fill="#1d1d1b"/>
      <path id="Trazado_872832" data-name="Trazado 872832" d="M65.273,20.847a3.048,3.048,0,0,1-2.814-1.478,4.607,4.607,0,0,1-.171-3.671l.141-.428a8.96,8.96,0,0,1,1.563-2.908,7.528,7.528,0,0,1,2.318-1.985,5.134,5.134,0,0,1,2.552-.639,2.722,2.722,0,0,1,2.36,1.1,3.89,3.89,0,0,1,.42,2.871,9.167,9.167,0,0,1-.313,1.287l-.284.822h-7A3.424,3.424,0,0,0,64,18.292a1.777,1.777,0,0,0,1.742,1.06,4.786,4.786,0,0,0,3.234-1.426l.844.871a6.364,6.364,0,0,1-2.061,1.52,5.635,5.635,0,0,1-2.484.53m3.182-9.614a3.184,3.184,0,0,0-2.1.752,7.113,7.113,0,0,0-1.807,2.327l5.205.01.074-.161a2.751,2.751,0,0,0,.04-2.072,1.47,1.47,0,0,0-1.417-.856" fill="#1d1d1b"/>
      <path id="Trazado_872833" data-name="Trazado 872833" d="M77.01,9.926l-.483,1.2a5.172,5.172,0,0,1,3.552-1.386,2.8,2.8,0,0,1,1.629.465,1.726,1.726,0,0,1,.708,1.258,5.538,5.538,0,0,1,3.92-1.723,2.242,2.242,0,0,1,2.137,1.079,3.618,3.618,0,0,1-.029,2.792l-2.674,7.04H83.988l2.668-7.06a3.992,3.992,0,0,0,.2-.94q.1-1.349-1.47-1.377a3.261,3.261,0,0,0-1.906.609A3.762,3.762,0,0,0,82.1,13.53l-2.73,7.119h-1.8l2.687-7.05a2.131,2.131,0,0,0,.028-1.693,1.4,1.4,0,0,0-1.3-.614A3.744,3.744,0,0,0,76,12.817l-3.021,7.832H71.186L75.324,9.936Z" fill="#1d1d1b"/>
      <path id="Trazado_872834" data-name="Trazado 872834" d="M93.124,20.847a3.048,3.048,0,0,1-2.814-1.478,4.607,4.607,0,0,1-.171-3.671l.141-.428a8.96,8.96,0,0,1,1.563-2.908,7.528,7.528,0,0,1,2.318-1.985,5.134,5.134,0,0,1,2.552-.639,2.722,2.722,0,0,1,2.36,1.1,3.89,3.89,0,0,1,.42,2.871,9.167,9.167,0,0,1-.313,1.287l-.284.822h-7a3.424,3.424,0,0,0-.047,2.475,1.777,1.777,0,0,0,1.742,1.06,4.786,4.786,0,0,0,3.234-1.426l.844.871a6.364,6.364,0,0,1-2.061,1.52,5.635,5.635,0,0,1-2.484.53m3.182-9.614a3.184,3.184,0,0,0-2.1.752A7.113,7.113,0,0,0,92.4,14.312l5.205.01.074-.161a2.751,2.751,0,0,0,.04-2.072,1.47,1.47,0,0,0-1.417-.856" fill="#1d1d1b"/>
      <path id="Trazado_872835" data-name="Trazado 872835" d="M104.881,9.926l-.546,1.356a5.267,5.267,0,0,1,3.615-1.544,2.1,2.1,0,0,1,2.015,1.049,3.838,3.838,0,0,1-.071,2.842l-2.659,7.02h-1.792l2.676-7.042a4.206,4.206,0,0,0,.2-.9c.085-.926-.36-1.4-1.333-1.416a4.321,4.321,0,0,0-3.2,1.721l-2.95,7.636H99.047l4.139-10.713Z" fill="#1d1d1b"/>
      <path id="Trazado_872836" data-name="Trazado 872836" d="M117.558,7.342l-1.006,2.594h1.95l-.548,1.416h-1.941l-2.535,6.663a2.681,2.681,0,0,0-.112.475c-.062.515.164.77.678.77a5.357,5.357,0,0,0,.893-.1l-.457,1.5a5.275,5.275,0,0,1-1.344.179,1.479,1.479,0,0,1-1.438-.787,2.866,2.866,0,0,1,.024-2.065l2.5-6.633H112.33l.549-1.416h1.891l1.006-2.594Z" fill="#1d1d1b"/>
      <path id="Trazado_872837" data-name="Trazado 872837" d="M130.658,16.933a1.689,1.689,0,0,0-1.152-2.314l-1.581-.624-.521-.248q-2.611-1.317-1.915-3.7a4.938,4.938,0,0,1,1.272-2.119,6.281,6.281,0,0,1,2.218-1.421,6.877,6.877,0,0,1,2.639-.47,4.364,4.364,0,0,1,2.208.584,2.767,2.767,0,0,1,1.23,1.549,3.944,3.944,0,0,1,0,2.243l-1.869-.01a2.306,2.306,0,0,0-.156-2.062,2.162,2.162,0,0,0-1.82-.75,4.333,4.333,0,0,0-2.4.634,3.294,3.294,0,0,0-1.43,1.787q-.51,1.477,1.336,2.242l1.363.525.675.317a2.978,2.978,0,0,1,1.772,3.822,4.9,4.9,0,0,1-1.268,2.1,6.182,6.182,0,0,1-2.228,1.371,7.427,7.427,0,0,1-2.725.455,4.784,4.784,0,0,1-2.358-.579,2.961,2.961,0,0,1-1.376-1.562,3.609,3.609,0,0,1-.037-2.245l1.86.01a2.14,2.14,0,0,0,.262,2.045,2.582,2.582,0,0,0,2.058.777,4.637,4.637,0,0,0,2.5-.624,3.226,3.226,0,0,0,1.448-1.735" fill="#1d1d1b"/>
      <path id="Trazado_872838" data-name="Trazado 872838" d="M140.824,7.342l-1.006,2.594h1.95l-.548,1.416h-1.941l-2.535,6.663a2.681,2.681,0,0,0-.112.475c-.062.515.164.77.678.77a5.357,5.357,0,0,0,.893-.1l-.457,1.5a5.275,5.275,0,0,1-1.344.179,1.479,1.479,0,0,1-1.438-.787,2.866,2.866,0,0,1,.024-2.065l2.5-6.633H135.6l.549-1.416h1.891l1.006-2.594Z" fill="#1d1d1b"/>
      <path id="Trazado_872839" data-name="Trazado 872839" d="M146.343,20.649a2.315,2.315,0,0,1,.051-.565l.15-.564a5.41,5.41,0,0,1-3.411,1.327,2.6,2.6,0,0,1-2.111-.9,2.343,2.343,0,0,1-.342-2.193,4.339,4.339,0,0,1,2.056-2.659,7.387,7.387,0,0,1,3.861-.955l1.87.01.3-.852a1.791,1.791,0,0,0-.048-1.52,1.44,1.44,0,0,0-1.288-.579,3.2,3.2,0,0,0-1.724.451,2.568,2.568,0,0,0-1.131,1.242l-1.8.01a3.731,3.731,0,0,1,1.086-1.668,5.683,5.683,0,0,1,1.894-1.129,5.985,5.985,0,0,1,2.17-.381,2.862,2.862,0,0,1,2.388,1.015,2.794,2.794,0,0,1,.231,2.589l-2,5.307-.211.762a3.8,3.8,0,0,0-.11,1.077l-.056.171Zm-2.517-1.389a3.581,3.581,0,0,0,1.715-.408,5.631,5.631,0,0,0,1.577-1.193l.855-2.208-1.355-.01a5.841,5.841,0,0,0-2.708.534,2.625,2.625,0,0,0-1.341,1.513,1.383,1.383,0,0,0,.085,1.255,1.344,1.344,0,0,0,1.172.517" fill="#1d1d1b"/>
      <path id="Trazado_872840" data-name="Trazado 872840" d="M158.151,7.342l-1.006,2.594h1.95l-.548,1.416h-1.941l-2.535,6.663a2.681,2.681,0,0,0-.112.475c-.062.515.164.77.678.77a5.357,5.357,0,0,0,.893-.1l-.457,1.5a5.275,5.275,0,0,1-1.344.179,1.479,1.479,0,0,1-1.438-.787,2.871,2.871,0,0,1,.023-2.065l2.5-6.633h-1.891l.549-1.416h1.891l1.006-2.594Z" fill="#1d1d1b"/>
      <path id="Trazado_872841" data-name="Trazado 872841" d="M159.055,20.648h-1.782l4.138-10.712h1.782Zm4.584-14.623a.8.8,0,0,1,.7.272.874.874,0,0,1,.139.768,1.382,1.382,0,0,1-.464.762,1.344,1.344,0,0,1-.824.317.8.8,0,0,1-.706-.268.825.825,0,0,1-.127-.752,1.434,1.434,0,0,1,.46-.772,1.292,1.292,0,0,1,.823-.327" fill="#1d1d1b"/>
      <path id="Trazado_872842" data-name="Trazado 872842" d="M170.256,9.738a3.2,3.2,0,0,1,2.151.732,3.163,3.163,0,0,1,1,1.966,6.027,6.027,0,0,1-.27,2.737l-.065.218a9.118,9.118,0,0,1-1.532,2.827,7.505,7.505,0,0,1-2.338,1.965,5.416,5.416,0,0,1-2.725.663,3.239,3.239,0,0,1-2.146-.732,3.081,3.081,0,0,1-1-1.941,6.2,6.2,0,0,1,.257-2.7,9.117,9.117,0,0,1,1.537-2.99,7.632,7.632,0,0,1,2.373-2.054,5.385,5.385,0,0,1,2.755-.688m-4.864,5.742a6.338,6.338,0,0,0-.276,1.3,2.718,2.718,0,0,0,.3,1.861,1.66,1.66,0,0,0,1.445.723,3.317,3.317,0,0,0,1.738-.44,5.084,5.084,0,0,0,1.568-1.421,7.468,7.468,0,0,0,1.113-2.109,10.542,10.542,0,0,0,.355-1.535,2.793,2.793,0,0,0-.321-1.891,1.7,1.7,0,0,0-1.448-.732,3.635,3.635,0,0,0-2.587,1.089,6.91,6.91,0,0,0-1.821,2.93Z" fill="#1d1d1b"/>
      <path id="Trazado_872843" data-name="Trazado 872843" d="M179.137,9.926l-.546,1.356a5.267,5.267,0,0,1,3.615-1.544,2.1,2.1,0,0,1,2.015,1.049,3.842,3.842,0,0,1-.07,2.842l-2.66,7.02H179.7l2.676-7.042a4.206,4.206,0,0,0,.2-.9c.085-.926-.36-1.4-1.333-1.416a4.321,4.321,0,0,0-3.2,1.721l-2.95,7.636H173.3l4.139-10.713Z" fill="#1d1d1b"/>
      <path id="Trazado_872844" data-name="Trazado 872844" d="M42.795,40.182a22.974,22.974,0,0,1,2.161-4.454,18.516,18.516,0,0,1,2.959-3.7,12.069,12.069,0,0,1,3.362-2.312l.007,1.228a14.139,14.139,0,0,0-3.311,3.022,20.151,20.151,0,0,0-2.662,4.439,24.43,24.43,0,0,0-1.66,5.063,10.9,10.9,0,0,0-.237,3.61,4.429,4.429,0,0,0,1.006,2.459l-.681,1.11a5.414,5.414,0,0,1-1.807-3.4,12.647,12.647,0,0,1,.3-5.147,17,17,0,0,1,.523-1.812Z" fill="#1d1d1b"/>
      <path id="Trazado_872845" data-name="Trazado 872845" d="M55.564,31.579l.028,11.742L64.7,31.579h2.446L61.579,45.994H59.727l2.2-5.7,2.412-5.8-8.98,11.5H53.935l-.08-11.732L51.642,40.48,49.51,45.994H47.648l5.57-14.415Z" fill="#1d1d1b"/>
      <path id="Trazado_872846" data-name="Trazado 872846" d="M71.192,45.995a2.314,2.314,0,0,1,.051-.565l.15-.564a5.408,5.408,0,0,1-3.411,1.327,2.6,2.6,0,0,1-2.112-.9,2.345,2.345,0,0,1-.34-2.193,4.332,4.332,0,0,1,2.054-2.659,7.393,7.393,0,0,1,3.862-.955l1.87.01.3-.852a1.787,1.787,0,0,0-.048-1.52,1.44,1.44,0,0,0-1.287-.579A3.2,3.2,0,0,0,70.555,37a2.561,2.561,0,0,0-1.13,1.242l-1.805.01a3.717,3.717,0,0,1,1.088-1.668A5.673,5.673,0,0,1,70.6,35.455a5.913,5.913,0,0,1,2.169-.381,2.864,2.864,0,0,1,2.388,1.015,2.8,2.8,0,0,1,.232,2.589l-2,5.307-.21.762a3.8,3.8,0,0,0-.112,1.077l-.055.171Zm-2.516-1.389a3.583,3.583,0,0,0,1.715-.408,5.641,5.641,0,0,0,1.576-1.193l.855-2.208-1.354-.01a5.838,5.838,0,0,0-2.708.534,2.625,2.625,0,0,0-1.341,1.513,1.386,1.386,0,0,0,.084,1.255,1.347,1.347,0,0,0,1.173.517" fill="#1d1d1b"/>
      <path id="Trazado_872847" data-name="Trazado 872847" d="M81.274,35.272l-.546,1.354a5.278,5.278,0,0,1,3.615-1.542,2.1,2.1,0,0,1,2.015,1.049,3.841,3.841,0,0,1-.069,2.842l-2.661,7.02H81.836l2.676-7.042a4.146,4.146,0,0,0,.2-.9c.085-.926-.359-1.4-1.333-1.416a4.322,4.322,0,0,0-3.2,1.721l-2.95,7.636H75.44l4.139-10.713Z" fill="#1d1d1b"/>
      <path id="Trazado_872848" data-name="Trazado 872848" d="M92.944,45.995A2.314,2.314,0,0,1,93,45.43l.15-.564a5.408,5.408,0,0,1-3.411,1.327,2.6,2.6,0,0,1-2.112-.9,2.345,2.345,0,0,1-.34-2.193,4.332,4.332,0,0,1,2.054-2.659A7.393,7.393,0,0,1,93.2,39.49l1.87.01.3-.852a1.787,1.787,0,0,0-.048-1.52,1.44,1.44,0,0,0-1.287-.579A3.2,3.2,0,0,0,92.307,37a2.561,2.561,0,0,0-1.13,1.242l-1.805.01a3.717,3.717,0,0,1,1.088-1.668,5.673,5.673,0,0,1,1.894-1.129,5.913,5.913,0,0,1,2.169-.381,2.864,2.864,0,0,1,2.388,1.015,2.8,2.8,0,0,1,.232,2.589l-2,5.307-.21.762a3.8,3.8,0,0,0-.112,1.077l-.055.171Zm-2.516-1.389a3.583,3.583,0,0,0,1.715-.408,5.641,5.641,0,0,0,1.576-1.193l.855-2.208-1.354-.01a5.838,5.838,0,0,0-2.708.534,2.625,2.625,0,0,0-1.341,1.513,1.386,1.386,0,0,0,.084,1.255,1.347,1.347,0,0,0,1.173.517" fill="#1d1d1b"/>
      <path id="Trazado_872849" data-name="Trazado 872849" d="M98.86,40.615a10.892,10.892,0,0,1,1.593-3.041,6.753,6.753,0,0,1,2.128-1.911,4.612,4.612,0,0,1,2.348-.589,2.589,2.589,0,0,1,2.514,1.406l.61-1.2H109.7l-4.011,10.485a6.826,6.826,0,0,1-2.361,3.283,5.622,5.622,0,0,1-3.645,1.172,4.154,4.154,0,0,1-1.975-.513,2.928,2.928,0,0,1-1.28-1.358l1.254-1.1a2.372,2.372,0,0,0,2.25,1.476,3.67,3.67,0,0,0,2.314-.713,4.867,4.867,0,0,0,1.629-2.138l.4-.952a4.982,4.982,0,0,1-3.329,1.269,2.63,2.63,0,0,1-1.623-.541,2.447,2.447,0,0,1-.83-1.474,5.693,5.693,0,0,1,.012-2.153,12.4,12.4,0,0,1,.359-1.41m1.516,1.015a3.493,3.493,0,0,0,.025,2.194,1.447,1.447,0,0,0,1.4.813,4.121,4.121,0,0,0,3.1-1.573l1.886-4.914a1.737,1.737,0,0,0-1.824-1.524,3.5,3.5,0,0,0-2.643,1.19,7.75,7.75,0,0,0-1.809,3.312Z" fill="#1d1d1b"/>
      <path id="Trazado_872850" data-name="Trazado 872850" d="M112.922,46.193a3.049,3.049,0,0,1-2.814-1.478,4.611,4.611,0,0,1-.17-3.671l.14-.428a8.963,8.963,0,0,1,1.564-2.908,7.505,7.505,0,0,1,2.318-1.985,5.13,5.13,0,0,1,2.551-.639,2.724,2.724,0,0,1,2.361,1.1,3.9,3.9,0,0,1,.42,2.871,9.035,9.035,0,0,1-.314,1.287l-.284.822h-7a3.418,3.418,0,0,0-.045,2.475,1.774,1.774,0,0,0,1.74,1.06,4.782,4.782,0,0,0,3.234-1.426l.844.871a6.353,6.353,0,0,1-2.061,1.52,5.632,5.632,0,0,1-2.484.53m3.182-9.614a3.186,3.186,0,0,0-2.095.752,7.125,7.125,0,0,0-1.806,2.327l5.2.01.073-.161a2.747,2.747,0,0,0,.04-2.072,1.47,1.47,0,0,0-1.417-.856" fill="#1d1d1b"/>
      <path id="Trazado_872851" data-name="Trazado 872851" d="M127.439,36.915l-.823-.089a3.911,3.911,0,0,0-3.043,1.554l-2.936,7.614h-1.792l4.139-10.713,1.735-.01-.532,1.245a4.054,4.054,0,0,1,2.992-1.452,2.942,2.942,0,0,1,.819.148Z" fill="#1d1d1b"/>
      <path id="Trazado_872852" data-name="Trazado 872852" d="M131.937,40.2a22.579,22.579,0,0,1-2.229,4.569,18.442,18.442,0,0,1-2.955,3.634,12.341,12.341,0,0,1-3.3,2.252l-.035-1.138a17.278,17.278,0,0,0,6.28-8.208,24.235,24.235,0,0,0,1.367-4.386q.855-4.248-.764-6.089l.7-1.109a4.832,4.832,0,0,1,1.439,2.054,8.163,8.163,0,0,1,.495,2.981,15.432,15.432,0,0,1-.425,3.519c-.156.641-.334,1.243-.534,1.812Z" fill="#1d1d1b"/>
      <path id="Trazado_872853" data-name="Trazado 872853" d="M471.11,46.786l.03,11.742,9.108-11.742h2.446L477.125,61.2h-1.852l2.2-5.7,2.411-5.8-8.98,11.5h-1.426L469.4,49.469l-2.213,6.218L465.056,61.2h-1.862l5.57-14.415Z" fill="#1d1d1b"/>
      <path id="Trazado_872854" data-name="Trazado 872854" d="M486.738,61.2a2.417,2.417,0,0,1,.052-.565l.149-.564a5.406,5.406,0,0,1-3.411,1.327,2.6,2.6,0,0,1-2.111-.9,2.335,2.335,0,0,1-.339-2.193,4.322,4.322,0,0,1,2.054-2.659,7.39,7.39,0,0,1,3.861-.955l1.869.01.3-.852a1.784,1.784,0,0,0-.047-1.52,1.442,1.442,0,0,0-1.289-.579,3.2,3.2,0,0,0-1.723.451,2.568,2.568,0,0,0-1.131,1.242l-1.8.01a3.7,3.7,0,0,1,1.089-1.668,5.659,5.659,0,0,1,1.891-1.129,5.974,5.974,0,0,1,2.17-.383,2.87,2.87,0,0,1,2.389,1.017,2.8,2.8,0,0,1,.233,2.589l-2,5.307-.213.762a3.829,3.829,0,0,0-.109,1.077l-.057.171Zm-2.517-1.389a3.6,3.6,0,0,0,1.718-.408,5.662,5.662,0,0,0,1.574-1.193L488.369,56l-1.356-.01a5.819,5.819,0,0,0-2.7.534,2.624,2.624,0,0,0-1.342,1.513,1.38,1.38,0,0,0,.084,1.255,1.344,1.344,0,0,0,1.171.517" fill="#1d1d1b"/>
      <path id="Trazado_872855" data-name="Trazado 872855" d="M496.819,50.479l-.545,1.354a5.269,5.269,0,0,1,3.614-1.542A2.1,2.1,0,0,1,501.9,51.34a3.841,3.841,0,0,1-.069,2.842l-2.661,7.02h-1.792l2.676-7.045a3.972,3.972,0,0,0,.2-.9c.087-.926-.359-1.4-1.332-1.416a4.329,4.329,0,0,0-3.2,1.721l-2.95,7.636h-1.792l4.138-10.713Z" fill="#1d1d1b"/>
      <path id="Trazado_872856" data-name="Trazado 872856" d="M508.49,61.2a2.417,2.417,0,0,1,.052-.565l.149-.564A5.406,5.406,0,0,1,505.28,61.4a2.6,2.6,0,0,1-2.111-.9,2.335,2.335,0,0,1-.339-2.193,4.322,4.322,0,0,1,2.054-2.659,7.39,7.39,0,0,1,3.861-.955l1.869.01.3-.852a1.784,1.784,0,0,0-.047-1.52,1.442,1.442,0,0,0-1.289-.579,3.2,3.2,0,0,0-1.723.451,2.568,2.568,0,0,0-1.131,1.242l-1.8.01a3.7,3.7,0,0,1,1.089-1.668,5.659,5.659,0,0,1,1.891-1.129,5.974,5.974,0,0,1,2.17-.383,2.87,2.87,0,0,1,2.389,1.017,2.8,2.8,0,0,1,.233,2.589l-2,5.307-.213.762a3.832,3.832,0,0,0-.109,1.077l-.057.171Zm-2.517-1.389a3.6,3.6,0,0,0,1.718-.408,5.662,5.662,0,0,0,1.574-1.193L510.121,56l-1.356-.01a5.819,5.819,0,0,0-2.705.534,2.624,2.624,0,0,0-1.342,1.513A1.38,1.38,0,0,0,504.8,59.3a1.343,1.343,0,0,0,1.171.517" fill="#1d1d1b"/>
      <path id="Trazado_872857" data-name="Trazado 872857" d="M514.406,55.823A10.974,10.974,0,0,1,516,52.781a6.811,6.811,0,0,1,2.129-1.911,4.663,4.663,0,0,1,2.349-.591,2.59,2.59,0,0,1,2.512,1.408l.612-1.2h1.643l-4.01,10.485a6.827,6.827,0,0,1-2.361,3.282,5.624,5.624,0,0,1-3.646,1.173,4.154,4.154,0,0,1-1.975-.514,2.946,2.946,0,0,1-1.28-1.357l1.253-1.1a2.375,2.375,0,0,0,2.252,1.475,3.672,3.672,0,0,0,2.314-.713,4.877,4.877,0,0,0,1.629-2.138l.4-.951a4.97,4.97,0,0,1-3.329,1.268,2.628,2.628,0,0,1-1.621-.54,2.459,2.459,0,0,1-.832-1.475,5.736,5.736,0,0,1,.013-2.153,12.724,12.724,0,0,1,.359-1.409m1.517,1.015a3.483,3.483,0,0,0,.025,2.193,1.445,1.445,0,0,0,1.4.814,4.122,4.122,0,0,0,3.1-1.574l1.886-4.913a1.739,1.739,0,0,0-1.824-1.525,3.5,3.5,0,0,0-2.643,1.191,7.761,7.761,0,0,0-1.81,3.312Z" fill="#1d1d1b"/>
      <path id="Trazado_872858" data-name="Trazado 872858" d="M528.467,61.4a3.051,3.051,0,0,1-2.814-1.478,4.607,4.607,0,0,1-.171-3.671l.141-.428a8.945,8.945,0,0,1,1.564-2.908,7.488,7.488,0,0,1,2.32-1.985,5.121,5.121,0,0,1,2.549-.639,2.727,2.727,0,0,1,2.361,1.1,3.905,3.905,0,0,1,.419,2.873,9.029,9.029,0,0,1-.312,1.287l-.285.822h-7a3.417,3.417,0,0,0-.044,2.475,1.771,1.771,0,0,0,1.74,1.06,4.767,4.767,0,0,0,3.232-1.429l.844.874a6.334,6.334,0,0,1-2.059,1.52,5.646,5.646,0,0,1-2.485.53m3.183-9.614a3.188,3.188,0,0,0-2.1.752,7.137,7.137,0,0,0-1.8,2.327l5.2.01.072-.161a2.742,2.742,0,0,0,.04-2.072,1.469,1.469,0,0,0-1.416-.856" fill="#1d1d1b"/>
      <path id="Trazado_872859" data-name="Trazado 872859" d="M536.049,55.823a10.428,10.428,0,0,1,1.527-2.948,7,7,0,0,1,2.153-1.97,4.644,4.644,0,0,1,2.4-.626,2.643,2.643,0,0,1,2.474,1.309l2.218-5.594h1.792L542.747,61.2h-1.635l.433-1.149A4.87,4.87,0,0,1,538.13,61.4a2.327,2.327,0,0,1-2.119-1.163,4.489,4.489,0,0,1-.308-3.015,10.9,10.9,0,0,1,.346-1.4m1.505,1.025a3.394,3.394,0,0,0,.04,2.195,1.426,1.426,0,0,0,1.393.8,4.113,4.113,0,0,0,3.094-1.564l1.9-4.943a1.722,1.722,0,0,0-1.84-1.505,3.272,3.272,0,0,0-2,.641,5.575,5.575,0,0,0-1.627,1.869,9.111,9.111,0,0,0-.962,2.505" fill="#1d1d1b"/>
      <path id="Trazado_872860" data-name="Trazado 872860" d="M550.826,61.2,556.4,46.787l3.74.009a4.374,4.374,0,0,1,2.849.882,3.672,3.672,0,0,1,1.309,2.43,7.617,7.617,0,0,1-.41,3.47l-.253.723a10.67,10.67,0,0,1-3.515,5.025,8.62,8.62,0,0,1-5.448,1.876Zm6.824-12.861-4.361,11.3,1.829.01a6.238,6.238,0,0,0,3.836-1.307,8.221,8.221,0,0,0,2.659-3.584,13.152,13.152,0,0,0,.9-3.1,3.153,3.153,0,0,0-.51-2.4,2.67,2.67,0,0,0-2.144-.906Z" fill="#1d1d1b"/>
      <path id="Trazado_872861" data-name="Trazado 872861" d="M568.139,61.4a3.05,3.05,0,0,1-2.813-1.478,4.606,4.606,0,0,1-.172-3.671l.141-.428a8.963,8.963,0,0,1,1.564-2.908,7.491,7.491,0,0,1,2.321-1.985,5.117,5.117,0,0,1,2.548-.639,2.726,2.726,0,0,1,2.361,1.1,3.905,3.905,0,0,1,.419,2.873,9.029,9.029,0,0,1-.312,1.287l-.285.822h-7a3.422,3.422,0,0,0-.044,2.475,1.771,1.771,0,0,0,1.74,1.06,4.767,4.767,0,0,0,3.232-1.429l.844.874a6.334,6.334,0,0,1-2.059,1.52,5.646,5.646,0,0,1-2.485.53m3.184-9.614a3.185,3.185,0,0,0-2.1.752,7.124,7.124,0,0,0-1.8,2.327l5.2.01.072-.161a2.742,2.742,0,0,0,.04-2.072,1.468,1.468,0,0,0-1.415-.856" fill="#1d1d1b"/>
      <path id="Trazado_872862" data-name="Trazado 872862" d="M578.486,58.7l5.606-8.208h1.891L578.31,61.2h-1.366l.178-10.713h1.762Z" fill="#1d1d1b"/>
      <path id="Trazado_872863" data-name="Trazado 872863" d="M585.627,61.2h-1.782l4.138-10.712h1.782Zm4.584-14.623a.809.809,0,0,1,.7.27.879.879,0,0,1,.139.77,1.389,1.389,0,0,1-.465.762,1.344,1.344,0,0,1-.825.317.812.812,0,0,1-.705-.268.822.822,0,0,1-.126-.752,1.44,1.44,0,0,1,.46-.772,1.289,1.289,0,0,1,.822-.327" fill="#1d1d1b"/>
      <path id="Trazado_872864" data-name="Trazado 872864" d="M593.357,59.915a3.239,3.239,0,0,0,1.851-.559,3.574,3.574,0,0,0,1.332-1.52l1.7-.01a4.961,4.961,0,0,1-1.2,1.841,6.057,6.057,0,0,1-1.934,1.3,5.089,5.089,0,0,1-2.143.436,3.2,3.2,0,0,1-2.114-.7,2.965,2.965,0,0,1-.958-1.891,6.278,6.278,0,0,1,.282-2.726l.156-.495a8.9,8.9,0,0,1,1.488-2.762,7.1,7.1,0,0,1,2.265-1.9,5.378,5.378,0,0,1,2.668-.639A2.9,2.9,0,0,1,599.2,51.42a3.357,3.357,0,0,1,.423,2.762l-1.671-.009a2.232,2.232,0,0,0-.222-1.7,1.622,1.622,0,0,0-1.379-.689,3.543,3.543,0,0,0-2.542,1.04,6.963,6.963,0,0,0-1.79,2.99l-.084.258a9.327,9.327,0,0,0-.3,1.306,2.591,2.591,0,0,0,.265,1.832,1.674,1.674,0,0,0,1.455.7" fill="#1d1d1b"/>
      <path id="Trazado_872865" data-name="Trazado 872865" d="M603.545,61.4a3.051,3.051,0,0,1-2.814-1.478,4.607,4.607,0,0,1-.171-3.671l.141-.428a8.945,8.945,0,0,1,1.564-2.908,7.488,7.488,0,0,1,2.32-1.985,5.12,5.12,0,0,1,2.549-.639,2.727,2.727,0,0,1,2.361,1.1,3.905,3.905,0,0,1,.419,2.873,9.029,9.029,0,0,1-.312,1.287l-.285.822h-7a3.417,3.417,0,0,0-.044,2.475,1.771,1.771,0,0,0,1.74,1.06,4.767,4.767,0,0,0,3.232-1.429l.844.874a6.334,6.334,0,0,1-2.059,1.52,5.646,5.646,0,0,1-2.485.53m3.183-9.614a3.188,3.188,0,0,0-2.1.752,7.137,7.137,0,0,0-1.8,2.327l5.2.01.072-.161a2.742,2.742,0,0,0,.04-2.072,1.469,1.469,0,0,0-1.416-.856" fill="#1d1d1b"/>
      <path id="Trazado_872866" data-name="Trazado 872866" d="M500.884,80.736a23.01,23.01,0,0,1,2.161-4.455,18.541,18.541,0,0,1,2.958-3.7,12.031,12.031,0,0,1,3.363-2.312l.005,1.228a14.109,14.109,0,0,0-3.309,3.022,20.079,20.079,0,0,0-2.661,4.438,24.444,24.444,0,0,0-1.661,5.064,10.816,10.816,0,0,0-.237,3.609,4.429,4.429,0,0,0,1.007,2.46l-.683,1.109a5.412,5.412,0,0,1-1.807-3.4,12.706,12.706,0,0,1,.3-5.148,17.314,17.314,0,0,1,.525-1.812Z" fill="#1d1d1b"/>
      <path id="Trazado_872867" data-name="Trazado 872867" d="M514.955,82.775h-5.841l-2.772,3.773h-1.99l10.9-14.416h1.633l-.213,14.416h-1.831Zm-4.69-1.554h4.742l.233-6.723Z" fill="#1d1d1b"/>
      <path id="Trazado_872868" data-name="Trazado 872868" d="M520.059,81.169a10.9,10.9,0,0,1,1.591-3.042,6.779,6.779,0,0,1,2.129-1.911,4.663,4.663,0,0,1,2.349-.591,2.592,2.592,0,0,1,2.512,1.408l.612-1.2H530.9L526.883,86.32a6.844,6.844,0,0,1-2.359,3.282,5.631,5.631,0,0,1-3.646,1.173,4.155,4.155,0,0,1-1.975-.514,2.921,2.921,0,0,1-1.28-1.357l1.253-1.1a2.374,2.374,0,0,0,2.249,1.475,3.68,3.68,0,0,0,2.317-.712,4.858,4.858,0,0,0,1.626-2.139l.4-.951a4.97,4.97,0,0,1-3.329,1.268,2.638,2.638,0,0,1-1.623-.54,2.466,2.466,0,0,1-.83-1.475,5.694,5.694,0,0,1,.013-2.153,12.074,12.074,0,0,1,.359-1.409m1.517,1.015a3.476,3.476,0,0,0,.025,2.191,1.444,1.444,0,0,0,1.4.816,4.129,4.129,0,0,0,3.1-1.574l1.886-4.913a1.739,1.739,0,0,0-1.824-1.525,3.508,3.508,0,0,0-2.646,1.191,7.758,7.758,0,0,0-1.807,3.312Z" fill="#1d1d1b"/>
      <path id="Trazado_872869" data-name="Trazado 872869" d="M534.121,86.746a3.047,3.047,0,0,1-2.814-1.478,4.607,4.607,0,0,1-.171-3.671l.141-.428a8.945,8.945,0,0,1,1.564-2.908,7.513,7.513,0,0,1,2.317-1.985,5.131,5.131,0,0,1,2.552-.639,2.733,2.733,0,0,1,2.361,1.1,3.909,3.909,0,0,1,.419,2.874,8.9,8.9,0,0,1-.315,1.287l-.282.822h-7a3.435,3.435,0,0,0-.047,2.475,1.777,1.777,0,0,0,1.74,1.06,4.773,4.773,0,0,0,3.235-1.429l.844.874a6.356,6.356,0,0,1-2.059,1.52,5.646,5.646,0,0,1-2.485.53m3.183-9.614a3.183,3.183,0,0,0-2.1.752,7.1,7.1,0,0,0-1.807,2.327l5.205.01.074-.161a2.756,2.756,0,0,0,.04-2.072,1.472,1.472,0,0,0-1.416-.856" fill="#1d1d1b"/>
      <path id="Trazado_872870" data-name="Trazado 872870" d="M545.878,75.825l-.545,1.354a5.269,5.269,0,0,1,3.614-1.542,2.1,2.1,0,0,1,2.015,1.049,3.841,3.841,0,0,1-.069,2.842l-2.661,7.02H546.44l2.676-7.045a4.084,4.084,0,0,0,.2-.9c.084-.926-.359-1.4-1.334-1.416a4.32,4.32,0,0,0-3.2,1.721l-2.95,7.636h-1.792l4.139-10.713Z" fill="#1d1d1b"/>
      <path id="Trazado_872871" data-name="Trazado 872871" d="M558.555,73.241l-1.007,2.594h1.95l-.549,1.416h-1.941l-2.535,6.663a2.673,2.673,0,0,0-.111.475c-.062.515.163.77.678.77a5.317,5.317,0,0,0,.891-.1l-.455,1.5a5.274,5.274,0,0,1-1.344.179,1.477,1.477,0,0,1-1.438-.787,2.861,2.861,0,0,1,.024-2.065l2.5-6.633h-1.891l.549-1.416h1.891l1.008-2.594Z" fill="#1d1d1b"/>
      <path id="Trazado_872872" data-name="Trazado 872872" d="M563.857,80.756a22.632,22.632,0,0,1-2.228,4.569,18.444,18.444,0,0,1-2.955,3.634,12.369,12.369,0,0,1-3.295,2.252l-.037-1.138a17.248,17.248,0,0,0,6.28-8.208,24.254,24.254,0,0,0,1.369-4.386q.853-4.248-.765-6.089l.7-1.109a4.845,4.845,0,0,1,1.441,2.054,8.262,8.262,0,0,1,.495,2.981,15.391,15.391,0,0,1-.426,3.519c-.158.641-.334,1.243-.534,1.812Z" fill="#1d1d1b"/>
    </g>
  </g>
</svg>
