<svg xmlns="http://www.w3.org/2000/svg" xmlns:xlink="http://www.w3.org/1999/xlink" width="190" height="186.688" viewBox="0 0 190 186.688">
  <defs>
    <clipPath id="clip-path">
      <rect id="Rectángulo_402896" data-name="Rectángulo 402896" width="142.546" height="155.733" fill="none"/>
    </clipPath>
    <clipPath id="clip-path-3">
      <rect id="Rectángulo_402887" data-name="Rectángulo 402887" width="20.433" height="24.254" fill="none"/>
    </clipPath>
    <clipPath id="clip-path-4">
      <rect id="Rectángulo_402888" data-name="Rectángulo 402888" width="8.729" height="6.367" fill="none"/>
    </clipPath>
    <clipPath id="clip-path-5">
      <rect id="Rectángulo_402889" data-name="Rectángulo 402889" width="9.988" height="15.063" fill="none"/>
    </clipPath>
    <clipPath id="clip-path-6">
      <rect id="Rectángulo_402890" data-name="Rectángulo 402890" width="20.425" height="26.376" fill="none"/>
    </clipPath>
    <clipPath id="clip-path-7">
      <rect id="Rectángulo_402891" data-name="Rectángulo 402891" width="51.084" height="52.276" fill="none"/>
    </clipPath>
    <clipPath id="clip-path-8">
      <rect id="Rectángulo_402892" data-name="Rectángulo 402892" width="27.807" height="39.858" fill="none"/>
    </clipPath>
    <clipPath id="clip-path-9">
      <rect id="Rectángulo_402893" data-name="Rectángulo 402893" width="43.035" height="28.335" fill="none"/>
    </clipPath>
    <clipPath id="clip-path-10">
      <rect id="Rectángulo_402894" data-name="Rectángulo 402894" width="41.112" height="55.648" fill="none"/>
    </clipPath>
  </defs>
  <g id="Grupo_1054580" data-name="Grupo 1054580" transform="translate(-285 -5897.41)">
    <g id="Grupo_133713" data-name="Grupo 133713" transform="translate(285 6084.098) rotate(-90)">
      <path id="Sustracción_24" data-name="Sustracción 24" d="M0,190V0A95.7,95.7,0,0,1,19.146,1.93,94.521,94.521,0,0,1,36.978,7.466a95.007,95.007,0,0,1,16.137,8.759,95.682,95.682,0,0,1,14.06,11.6,95.682,95.682,0,0,1,11.6,14.06,95.008,95.008,0,0,1,8.759,16.137A94.521,94.521,0,0,1,93.07,75.854,95.7,95.7,0,0,1,95,95a95.7,95.7,0,0,1-1.93,19.146,94.52,94.52,0,0,1-5.536,17.832,95.007,95.007,0,0,1-8.759,16.137,95.682,95.682,0,0,1-11.6,14.06,95.684,95.684,0,0,1-14.06,11.6,95.011,95.011,0,0,1-16.137,8.759,94.522,94.522,0,0,1-17.832,5.536A95.7,95.7,0,0,1,0,190Z" transform="translate(95 190) rotate(180)" fill="#5573c6"/>
      <path id="Sustracción_25" data-name="Sustracción 25" d="M0,190V0A95.7,95.7,0,0,1,19.146,1.93,94.522,94.522,0,0,1,36.978,7.466a95.008,95.008,0,0,1,16.137,8.759,95.681,95.681,0,0,1,14.06,11.6,95.683,95.683,0,0,1,11.6,14.06,95.007,95.007,0,0,1,8.759,16.137A94.52,94.52,0,0,1,93.07,75.854,95.7,95.7,0,0,1,95,95a95.7,95.7,0,0,1-1.93,19.146,94.519,94.519,0,0,1-5.536,17.832,95,95,0,0,1-8.759,16.137,95.68,95.68,0,0,1-11.6,14.06,95.68,95.68,0,0,1-14.06,11.6,95.009,95.009,0,0,1-16.137,8.759,94.52,94.52,0,0,1-17.832,5.535A95.7,95.7,0,0,1,0,190Z" transform="translate(91.688 0)" fill="#e8e8e8"/>
    </g>
    <path id="Trazado_151972" data-name="Trazado 151972" d="M84.689,0c46.773,0,84.689,38.07,84.689,85.032s-37.917,85.032-84.689,85.032S0,131.994,0,85.032,37.917,0,84.689,0Z" transform="translate(295.33 5905.683)" fill="#12263f"/>
    <path id="Trazado_150987" data-name="Trazado 150987" d="M4.346,0A4.346,4.346,0,1,0,8.693,4.346,4.346,4.346,0,0,0,4.346,0Zm0,7.42A3.073,3.073,0,1,1,7.42,4.346,3.073,3.073,0,0,1,4.346,7.42Z" transform="matrix(0.966, -0.259, 0.259, 0.966, 314.411, 5908.23)" fill="#0f0140" style="mix-blend-mode: multiply;isolation: isolate"/>
    <ellipse id="Elipse_5034" data-name="Elipse 5034" cx="3.891" cy="3.891" rx="3.891" ry="3.891" transform="translate(454.498 6037.566)" fill="#dad6f7"/>
    <ellipse id="Elipse_5035" data-name="Elipse 5035" cx="11.241" cy="11.241" rx="11.241" ry="11.241" transform="translate(302.311 5916.508)" fill="#5573c6"/>
    <g id="Grupo_133716" data-name="Grupo 133716" transform="translate(421.366 6035.766)" style="isolation: isolate">
      <g id="Grupo_133714" data-name="Grupo 133714" transform="translate(0 3.576)">
        <path id="Trazado_150984" data-name="Trazado 150984" d="M.057,15.871C.019,15.39,0,14.9,0,14.412A18.351,18.351,0,0,1,6.941,0l.134.167A18.138,18.138,0,0,0,.214,14.412c0,.481.019.966.056,1.442Z" transform="translate(0 0)" fill="#4adbd1"/>
      </g>
      <g id="Grupo_133715" data-name="Grupo 133715" transform="translate(9.005 0)">
        <path id="Trazado_150985" data-name="Trazado 150985" d="M.11,2.331,0,2.147A18.3,18.3,0,0,1,5.395,0l.047.209A18.082,18.082,0,0,0,.11,2.331Z" transform="translate(0 0)" fill="#4adbd1"/>
      </g>
      <path id="Trazado_150986" data-name="Trazado 150986" d="M15.42,0a15.42,15.42,0,1,0,15.42,15.42A15.42,15.42,0,0,0,15.42,0Zm0,26.323a10.9,10.9,0,1,1,10.9-10.9A10.9,10.9,0,0,1,15.42,26.323Z" transform="translate(3.011 2.569)" fill="#4adbd1" style="mix-blend-mode: multiply;isolation: isolate"/>
    </g>
    <g id="Grupo_1054579" data-name="Grupo 1054579" transform="translate(319.735 5899.134)">
      <g id="Grupo_1054578" data-name="Grupo 1054578" clip-path="url(#clip-path)">
        <g id="Grupo_1054577" data-name="Grupo 1054577">
          <g id="Grupo_1054576" data-name="Grupo 1054576" clip-path="url(#clip-path)">
            <path id="Trazado_877291" data-name="Trazado 877291" d="M111.344.566c1.577-.9,3.747-.758,6.144.625,4.822,2.784,8.73,9.554,8.73,15.121,0,2.781-.976,4.735-2.554,5.647-.657.38-2.325,1.337-2.983,1.716-1.579.909-3.758.777-6.166-.613-4.822-2.784-8.73-9.554-8.73-15.121,0-2.776.972-4.727,2.544-5.641.659-.384,2.347-1.355,3.014-1.734" transform="translate(-67.687 0)" fill="#27debf"/>
            <g id="Grupo_1054554" data-name="Grupo 1054554" transform="translate(38.098)" opacity="0.15">
              <g id="Grupo_1054553" data-name="Grupo 1054553">
                <g id="Grupo_1054552" data-name="Grupo 1054552" clip-path="url(#clip-path-3)">
                  <path id="Trazado_877292" data-name="Trazado 877292" d="M111.344.566c1.577-.9,3.747-.758,6.144.625,4.822,2.784,8.73,9.554,8.73,15.121,0,2.781-.976,4.735-2.554,5.647-.657.38-2.325,1.337-2.983,1.716-1.579.909-3.758.777-6.166-.613-4.822-2.784-8.73-9.554-8.73-15.121,0-2.776.972-4.727,2.544-5.641.659-.384,2.347-1.355,3.014-1.734" transform="translate(-105.785 0)"/>
                </g>
              </g>
            </g>
            <path id="Trazado_877293" data-name="Trazado 877293" d="M143.5,60.074a6.527,6.527,0,0,0,2.183,2.163,6.07,6.07,0,0,0,3.276.827.315.315,0,0,0,.153-.038c.177-.105,2.928-1.686,2.971-1.71a.3.3,0,0,0-.005-.516,5.284,5.284,0,0,1-2.727-4.1Z" transform="translate(-91.817 -36.278)" fill="#27debf"/>
            <g id="Grupo_1054557" data-name="Grupo 1054557" transform="translate(51.68 20.42)" opacity="0.25">
              <g id="Grupo_1054556" data-name="Grupo 1054556">
                <g id="Grupo_1054555" data-name="Grupo 1054555" clip-path="url(#clip-path-4)">
                  <path id="Trazado_877294" data-name="Trazado 877294" d="M143.5,60.074a6.527,6.527,0,0,0,2.183,2.163,6.07,6.07,0,0,0,3.276.827.315.315,0,0,0,.153-.038c.177-.105,2.928-1.686,2.971-1.71a.3.3,0,0,0-.005-.516,5.284,5.284,0,0,1-2.727-4.1Z" transform="translate(-143.497 -56.698)"/>
                </g>
              </g>
            </g>
            <path id="Trazado_877295" data-name="Trazado 877295" d="M123.246,21.059c0,5.568-3.909,7.824-8.73,5.041s-8.73-9.554-8.73-15.122,3.909-7.824,8.73-5.04,8.73,9.554,8.73,15.121" transform="translate(-67.687 -3.036)" fill="#27debf"/>
            <path id="Trazado_877296" data-name="Trazado 877296" d="M145.643,57.817a5.282,5.282,0,0,0,2.7,5.409.3.3,0,0,1-.144.555,6.119,6.119,0,0,1-3.281-.826,5.334,5.334,0,0,1-2.609-3.211Z" transform="translate(-91.055 -36.994)" fill="#27debf"/>
            <path id="Trazado_877297" data-name="Trazado 877297" d="M125.408,25.616l1.128.6a.237.237,0,0,0,.379-.223l.156-8.29a.748.748,0,0,0-.363-.617l-2.135-1.134c-.2-.109-.354-.01-.335.221L125,25a.859.859,0,0,0,.407.615" transform="translate(-79.493 -10.179)" fill="#fafafa"/>
            <path id="Trazado_877298" data-name="Trazado 877298" d="M127.322,49.6c.718.382,1.123-.16,1.1-.892a2.67,2.67,0,0,0-1.2-2.114c-.72-.382-1.123.16-1.1.892a2.669,2.669,0,0,0,1.2,2.114" transform="translate(-80.696 -29.732)" fill="#fafafa"/>
            <path id="Trazado_877299" data-name="Trazado 877299" d="M166.793,152.768a12.485,12.485,0,1,0,12.485-12.485,12.485,12.485,0,0,0-12.485,12.485" transform="translate(-106.723 -89.76)" fill="#455a64"/>
            <path id="Trazado_877300" data-name="Trazado 877300" d="M173.032,164.123l14.088,8.134a12.484,12.484,0,0,1-18.194-16.692c-1.115,3.184-.423,5.944,4.106,8.559" transform="translate(-106.723 -99.538)" fill="#37474f"/>
            <path id="Trazado_877301" data-name="Trazado 877301" d="M207.663,189.945l8.7-5.027a128.426,128.426,0,0,0-3.478,36.156l-3.479,2.009c-2.036-6.646-2.493-20.21-1.74-33.137" transform="translate(-132.655 -118.32)" fill="#37474f"/>
            <path id="Trazado_877302" data-name="Trazado 877302" d="M178.907,198.643l3.667,4.67.092,13.666a17.431,17.431,0,0,0,8.556,14.885c-2.081-7.914-2.319-21.367-1.74-33.137Z" transform="translate(-114.474 -127.102)" fill="#455a64"/>
            <path id="Trazado_877303" data-name="Trazado 877303" d="M203.092,239.914l-.256.148a1.641,1.641,0,0,1-1.484,0l-1.992-1.15c-.41-.237-.742-.045-.742.428v.292a1.642,1.642,0,0,0,.741,1.285l2.024,1.171a1.6,1.6,0,0,0,1.477-.011l.239-.143a1.674,1.674,0,0,0,.735-1.3v-.3c0-.473-.332-.665-.742-.428" transform="translate(-127.086 -152.803)" fill="#27debf"/>
            <path id="Trazado_877304" data-name="Trazado 877304" d="M203.958,252.344l-.256.148a1.642,1.642,0,0,1-1.484,0l-1.992-1.15c-.41-.237-.742-.045-.742.428v.292a1.641,1.641,0,0,0,.742,1.285l2.024,1.171a1.6,1.6,0,0,0,1.477-.011l.239-.143a1.674,1.674,0,0,0,.735-1.3v-.3c0-.473-.332-.665-.742-.428" transform="translate(-127.64 -160.757)" fill="#27debf"/>
            <path id="Trazado_877305" data-name="Trazado 877305" d="M204.824,264.774l-.256.148a1.641,1.641,0,0,1-1.484,0l-1.992-1.15c-.41-.237-.742-.045-.742.428v.292a1.641,1.641,0,0,0,.741,1.285l2.024,1.171a1.6,1.6,0,0,0,1.477-.011l.239-.143a1.674,1.674,0,0,0,.735-1.3v-.3c0-.473-.332-.665-.742-.428" transform="translate(-128.194 -168.71)" fill="#27debf"/>
            <path id="Trazado_877306" data-name="Trazado 877306" d="M203,145.961l0,0c-1.67-.959-3.918-.921-6.415.3-.261.124-.527.266-.8.42-.317.184-.625.377-.934.591a16.217,16.217,0,0,0-1.49,1.148,20.67,20.67,0,0,0-2.506,2.57,24.581,24.581,0,0,0-4.6,8.759,17.343,17.343,0,0,0-.677,4.625c0,3.174,1.088,5.431,2.857,6.527l-6.288-3.623.009-.013a8.129,8.129,0,0,1-3.709-7.011,17.08,17.08,0,0,1,.621-4.416,24.483,24.483,0,0,1,4.659-8.964,20.45,20.45,0,0,1,2.506-2.57,15.311,15.311,0,0,1,1.491-1.148c.308-.214.621-.411.934-.591.265-.154.536-.291.8-.415a8.053,8.053,0,0,1,7.123.12l0,0,.175.1c.073.042.15.085.223.133Z" transform="translate(-114.178 -90.464)" fill="#27debf"/>
            <g id="Grupo_1054560" data-name="Grupo 1054560" transform="translate(64.267 65.377)" opacity="0.1">
              <g id="Grupo_1054559" data-name="Grupo 1054559">
                <g id="Grupo_1054558" data-name="Grupo 1054558" clip-path="url(#clip-path-5)">
                  <path id="Trazado_877307" data-name="Trazado 877307" d="M182.146,192.969l.009-.013a8.128,8.128,0,0,1-3.709-7.011,17.112,17.112,0,0,1,.621-4.416l7.187,3.91a17.343,17.343,0,0,0-.677,4.625c0,3.174,1.088,5.431,2.857,6.527Z" transform="translate(-178.445 -181.529)"/>
                </g>
              </g>
            </g>
            <path id="Trazado_877308" data-name="Trazado 877308" d="M218.67,159.525c0,6.514-4.57,14.433-10.211,17.688-2.835,1.64-5.405,1.786-7.255.694-.034-.017-.068-.039-.1-.06-1.769-1.1-2.857-3.353-2.857-6.527,0-6.514,4.57-14.434,10.211-17.693,2.814-1.623,5.367-1.782,7.213-.719s3,3.353,3,6.617" transform="translate(-126.847 -97.407)" fill="#27debf"/>
            <g id="Grupo_1054563" data-name="Grupo 1054563" transform="translate(71.398 54.826)" opacity="0.2">
              <g id="Grupo_1054562" data-name="Grupo 1054562">
                <g id="Grupo_1054561" data-name="Grupo 1054561" clip-path="url(#clip-path-6)">
                  <path id="Trazado_877309" data-name="Trazado 877309" d="M218.67,159.525c0,6.514-4.57,14.433-10.211,17.688-2.835,1.64-5.405,1.786-7.255.694-.034-.017-.068-.039-.1-.06-1.769-1.1-2.857-3.353-2.857-6.527,0-6.514,4.57-14.434,10.211-17.693,2.814-1.623,5.367-1.782,7.213-.719s3,3.353,3,6.617" transform="translate(-198.245 -152.233)"/>
                </g>
              </g>
            </g>
            <path id="Trazado_877310" data-name="Trazado 877310" d="M251.146,159.024s-10.3,5.288-19.1,20.528a69.385,69.385,0,0,0-4.175,8.5c-4.419,10.841-4.052,18.308-4.052,18.308-3.071-7.52-6.889-15.307-13.258-21.27a97.09,97.09,0,0,0-7.831-6.549l0-.007c-1.685-.978-2.669-3.1-2.669-6.032a17.69,17.69,0,0,1,1.154-6,23.412,23.412,0,0,1,1.744-3.74,20.222,20.222,0,0,1,6.986-7.381c2.536-1.464,4.869-1.675,6.558-.7l0-.008a97.018,97.018,0,0,0,9.587,3.507c8.348,2.535,17,1.947,25.049.847" transform="translate(-128.01 -98.59)" fill="#27debf"/>
            <g id="Grupo_1054566" data-name="Grupo 1054566" transform="translate(72.052 55.493)" opacity="0.6">
              <g id="Grupo_1054565" data-name="Grupo 1054565">
                <g id="Grupo_1054564" data-name="Grupo 1054564" clip-path="url(#clip-path-7)">
                  <path id="Trazado_877311" data-name="Trazado 877311" d="M251.146,159.024s-10.3,5.288-19.1,20.528a69.385,69.385,0,0,0-4.175,8.5c-4.419,10.841-4.052,18.308-4.052,18.308-3.071-7.52-6.889-15.307-13.258-21.27a97.09,97.09,0,0,0-7.831-6.549l0-.007c-1.685-.978-2.669-3.1-2.669-6.032a17.69,17.69,0,0,1,1.154-6,23.412,23.412,0,0,1,1.744-3.74,20.222,20.222,0,0,1,6.986-7.381c2.536-1.464,4.869-1.675,6.558-.7l0-.008a97.018,97.018,0,0,0,9.587,3.507c8.348,2.535,17,1.947,25.049.847" transform="translate(-200.062 -154.083)" fill="#fff"/>
                </g>
              </g>
            </g>
            <g id="Grupo_1054569" data-name="Grupo 1054569" transform="translate(72.052 67.911)" opacity="0.1">
              <g id="Grupo_1054568" data-name="Grupo 1054568">
                <g id="Grupo_1054567" data-name="Grupo 1054567" clip-path="url(#clip-path-8)">
                  <path id="Trazado_877312" data-name="Trazado 877312" d="M227.869,210.114c-4.42,10.841-4.052,18.308-4.052,18.308-3.072-7.52-6.889-15.308-13.258-21.27a97.055,97.055,0,0,0-7.831-6.549l0-.007c-1.686-.978-2.669-3.1-2.67-6.032a17.688,17.688,0,0,1,1.155-6c7.807,3.909,20.44,11.118,26.652,21.55" transform="translate(-200.062 -188.564)"/>
                </g>
              </g>
            </g>
            <path id="Trazado_877313" data-name="Trazado 877313" d="M309.44,177.795c0,6.793-2.09,14.228-5.572,21.094v0c-4.463,8.793-11.2,16.643-18.734,20.995-13.423,7.748-24.3,1.465-24.3-14.031a41.249,41.249,0,0,1,1.606-10.986,57.9,57.9,0,0,1,14.725-24.957q1.426-1.4,2.929-2.634c.416-.343.839-.677,1.263-1h0q.906-.688,1.829-1.306c.642-.428,1.289-.835,1.944-1.212,13.423-7.748,24.306-1.469,24.306,14.031" transform="translate(-166.895 -102.661)" fill="#27debf"/>
            <g id="Grupo_1054572" data-name="Grupo 1054572" transform="translate(93.939 92.21)" opacity="0.1">
              <g id="Grupo_1054571" data-name="Grupo 1054571">
                <g id="Grupo_1054570" data-name="Grupo 1054570" clip-path="url(#clip-path-9)">
                  <path id="Trazado_877314" data-name="Trazado 877314" d="M303.869,260.055c-4.463,8.793-11.2,16.644-18.733,20.995-13.423,7.748-24.3,1.465-24.3-14.031a41.25,41.25,0,0,1,1.606-10.986h0c.908,2,4.172,4.866,5.632,2.861a37.22,37.22,0,0,0-1.409,9.744c0,4.454.994,8.048,2.87,10.4a7.951,7.951,0,0,0,6.54,3.02,18.516,18.516,0,0,0,8.943-2.814c6.411-3.7,12.3-10.352,16.485-17.886,0,0,.835.707,2.364-1.3" transform="translate(-260.834 -256.033)"/>
                </g>
              </g>
            </g>
            <path id="Trazado_877315" data-name="Trazado 877315" d="M318.142,187.19c0,6.844-2.4,14.571-6.275,21.535-4.18,7.534-10.073,14.185-16.485,17.885a18.511,18.511,0,0,1-8.943,2.814,7.95,7.95,0,0,1-6.54-3.019c-1.876-2.351-2.87-5.945-2.87-10.4a37.205,37.205,0,0,1,1.409-9.743q.514-1.889,1.2-3.782a54.115,54.115,0,0,1,2.865-6.506q.341-.655.694-1.3c.39-.715.8-1.426,1.221-2.12a54.62,54.62,0,0,1,4.793-6.741c.017-.022.043-.047.06-.073a48.5,48.5,0,0,1,3.628-3.893q1.355-1.3,2.771-2.428c.394-.317.792-.621,1.2-.917q.725-.527,1.465-1.015c.48-.313.964-.608,1.447-.891a18.542,18.542,0,0,1,8.951-2.822c5.893,0,9.41,5.019,9.41,13.414" transform="translate(-177.258 -111.191)" fill="#27debf"/>
            <g id="Grupo_1054575" data-name="Grupo 1054575" transform="translate(99.772 62.585)" opacity="0.4">
              <g id="Grupo_1054574" data-name="Grupo 1054574">
                <g id="Grupo_1054573" data-name="Grupo 1054573" clip-path="url(#clip-path-10)">
                  <path id="Trazado_877316" data-name="Trazado 877316" d="M318.142,187.19c0,6.844-2.4,14.571-6.275,21.535-4.18,7.534-10.073,14.185-16.485,17.885a18.511,18.511,0,0,1-8.943,2.814,7.95,7.95,0,0,1-6.54-3.019c-1.876-2.351-2.87-5.945-2.87-10.4a37.205,37.205,0,0,1,1.409-9.743q.514-1.889,1.2-3.782a54.115,54.115,0,0,1,2.865-6.506q.341-.655.694-1.3c.39-.715.8-1.426,1.221-2.12a54.62,54.62,0,0,1,4.793-6.741c.017-.022.043-.047.06-.073a48.5,48.5,0,0,1,3.628-3.893q1.355-1.3,2.771-2.428c.394-.317.792-.621,1.2-.917q.725-.527,1.465-1.015c.48-.313.964-.608,1.447-.891a18.542,18.542,0,0,1,8.951-2.822c5.893,0,9.41,5.019,9.41,13.414" transform="translate(-277.03 -173.776)"/>
                </g>
              </g>
            </g>
            <path id="Trazado_877317" data-name="Trazado 877317" d="M304.434,212.748l-8.285,14.661c-3.479-1.842-7.715-4.136-13.072-4.014.137-.42.283-.835.437-1.255a54.117,54.117,0,0,1,2.865-6.506q.34-.655.694-1.3c.39-.715.8-1.426,1.221-2.12a54.566,54.566,0,0,1,4.793-6.741c.017-.022.043-.047.06-.073.257-.3.514-.609.775-.9,2.662,4.746,10.513,8.249,10.513,8.249" transform="translate(-181.127 -130.849)" fill="#37474f"/>
            <path id="Trazado_877318" data-name="Trazado 877318" d="M317.43,241.65c-1.808,0-2.887-1.461-2.887-3.907v-.075a13.368,13.368,0,0,1,6.039-10.46l.064-.037a5.2,5.2,0,0,1,2.523-.784c1.808,0,2.887,1.461,2.887,3.907v.075a13.368,13.368,0,0,1-6.039,10.46l-.064.037A5.2,5.2,0,0,1,317.43,241.65Z" transform="translate(-201.261 -144.854)" fill="#27debf"/>
            <path id="Trazado_877319" data-name="Trazado 877319" d="M105.823,357.379c.116-1.521,1.17-16.855,1.17-16.855L99.6,345.97c1.079,8.791,1.519,11.146,1.545,12.611a1.283,1.283,0,0,0-.04.375c.006,1.739,1.969,2.677,3.5,3.836a28.545,28.545,0,0,0,4.14,2.7c1.113.559,3.371.61,3.651-.106a42.99,42.99,0,0,1-5.5-4.6,3.918,3.918,0,0,1-1.071-3.408" transform="translate(-63.729 -217.885)" fill="#ffa8a7"/>
            <path id="Trazado_877320" data-name="Trazado 877320" d="M116.641,407.755a1.49,1.49,0,0,1-.279,1.5,6.4,6.4,0,0,1-4.68,1.064,8.137,8.137,0,0,1-4.51-1.8,9.738,9.738,0,0,0-3.283-2.107,6.358,6.358,0,0,1-2.349-.959c-.312-.3-.269-1.643-.269-1.643Z" transform="translate(-64.798 -258.38)" fill="#263238"/>
            <path id="Trazado_877321" data-name="Trazado 877321" d="M102.194,389.48a.372.372,0,0,0-.352.314c-.072.37-.149,1.445-.3,2.051a10.845,10.845,0,0,0-.229,3.259c.128.688,1.719,1.165,2.736,1.552a12.946,12.946,0,0,1,3.294,2.081,9.293,9.293,0,0,0,4.9,1.826c1.791-.013,3.808-.593,4.271-1.423.572-1.027.124-1.623-2.532-2.854-.5-.233-2.269-1.278-2.871-1.657a9.851,9.851,0,0,1-3.99-4.266,1.014,1.014,0,0,0-.382-.555.848.848,0,0,0-.516-.047,4.4,4.4,0,0,0-1.279.385c-.356.17-.862.368-.854.824a1.524,1.524,0,0,0,.1.464c.032.093.057.217-.025.272s-.179-.008-.249-.07a6.878,6.878,0,0,1-.716-.859,2.6,2.6,0,0,0-.42-.428,4.626,4.626,0,0,1-.455-.295c-.161-.161-.123-.36-.13-.574" transform="translate(-64.793 -249.21)" fill="#37474f"/>
            <path id="Trazado_877322" data-name="Trazado 877322" d="M115.566,410.342c-.463-.382-.955-.751-1.449-1.082v0s3.124,1.9,4.386,1.037a1.131,1.131,0,0,0,.407-1.446,6.871,6.871,0,0,1,2.776-1.233c.22.122.4.22.52.273,2.656,1.231,3.1,1.826,2.532,2.854-.462.831-1.923,1.478-4.238,1.478a9.555,9.555,0,0,1-4.933-1.881" transform="translate(-73.018 -260.815)" fill="#455a64"/>
            <path id="Trazado_877323" data-name="Trazado 877323" d="M111.3,396.616c1.652.66.947.969.484,1.035s-3.242-1.558-4.938-2.9c-1.768-1.4-2.883-2.929-3.54-3.443-.245-.192-.509-.427-.743-.647.044-.363.079-.694.112-.868a.372.372,0,0,1,.352-.314c.008.214-.031.413.13.574a4.5,4.5,0,0,0,.455.295,2.6,2.6,0,0,1,.42.429,6.9,6.9,0,0,0,.716.859,21.483,21.483,0,0,0,6.551,4.979" transform="translate(-65.623 -249.21)" fill="#263238"/>
            <path id="Trazado_877324" data-name="Trazado 877324" d="M127.546,408.872a.161.161,0,0,1-.1-.037.162.162,0,0,1-.023-.23,3.93,3.93,0,0,1,3.026-1.193.163.163,0,0,1,.145.18.16.16,0,0,1-.18.145,3.64,3.64,0,0,0-2.738,1.075.162.162,0,0,1-.126.06" transform="translate(-81.506 -260.674)" fill="#f0f0f0"/>
            <path id="Trazado_877325" data-name="Trazado 877325" d="M123.547,406.41a.161.161,0,0,1-.1-.037.163.163,0,0,1-.023-.23,3.933,3.933,0,0,1,3.026-1.193.163.163,0,0,1-.035.325,3.648,3.648,0,0,0-2.738,1.075.162.162,0,0,1-.126.06" transform="translate(-78.947 -259.099)" fill="#f0f0f0"/>
            <path id="Trazado_877326" data-name="Trazado 877326" d="M119.546,404.079a.164.164,0,0,1-.126-.267,3.925,3.925,0,0,1,3.026-1.192.163.163,0,0,1-.035.325,3.64,3.64,0,0,0-2.738,1.075.163.163,0,0,1-.126.06" transform="translate(-76.387 -257.607)" fill="#f0f0f0"/>
            <path id="Trazado_877327" data-name="Trazado 877327" d="M115.839,401.416a.161.161,0,0,1-.1-.037.163.163,0,0,1-.023-.23,3.937,3.937,0,0,1,3.026-1.193.163.163,0,0,1-.035.325,3.648,3.648,0,0,0-2.738,1.075.162.162,0,0,1-.126.06" transform="translate(-74.015 -255.903)" fill="#f0f0f0"/>
            <path id="Trazado_877328" data-name="Trazado 877328" d="M112.207,398.718a.164.164,0,0,1-.128-.265,4.009,4.009,0,0,1,3.3-1.209.163.163,0,0,1-.035.325,3.719,3.719,0,0,0-3.013,1.087.162.162,0,0,1-.128.062" transform="translate(-71.691 -254.164)" fill="#f0f0f0"/>
            <path id="Trazado_877329" data-name="Trazado 877329" d="M47.087,348.477l-6.581-2.79c-1.285,4.753-2.155,11.26-3.336,15.727-.222.841-1.684,6.475-1.875,8.284-.286,2.717,2.876,3.27,3.493,1.774s2.405-8.005,2.615-8.682c.81-2.849,5.58-14.078,5.684-14.313" transform="translate(-22.572 -221.188)" fill="#ffa8a7"/>
            <path id="Trazado_877330" data-name="Trazado 877330" d="M35.584,416.3a7.316,7.316,0,0,1-1.538,3.323,2.325,2.325,0,0,1-2.815.432,3.543,3.543,0,0,1-2.264-2.824,8.671,8.671,0,0,1,.693-3.694Z" transform="translate(-18.531 -264.602)" fill="#263238"/>
            <path id="Trazado_877331" data-name="Trazado 877331" d="M33.759,387.836c-.44-.048-.959,2.011-1.6,4.049-.688,2.184-1.285,2.983-1.87,4.771-.667,2.042-.733,3-.238,4.4s2.858,3.134,4.479,1.562c1.321-1.282,1.673-2.913,1.971-5.021a49.444,49.444,0,0,1,1.15-5.378c.38-1.552.736-2.824.393-3.069-.072.225-.156.511-.229.732-.056.169-.259,1.009-.5.972a3.321,3.321,0,0,1,.106-.591.711.711,0,0,0-.023-.528.829.829,0,0,0-.44-.305c-.411-.165-1.033-.509-1.459-.629a6.466,6.466,0,0,0-.644-.149,3.585,3.585,0,0,0-.808-.025.392.392,0,0,0-.274.169.7.7,0,0,0-.068.235,1.74,1.74,0,0,1-.135.42c-.027.059-.084.126-.143.1s-.056-.088-.047-.14c.046-.253.113-.431.18-.722.031-.135.088-.316.115-.452s.054-.268.088-.4" transform="translate(-19.02 -248.157)" fill="#37474f"/>
            <path id="Trazado_877332" data-name="Trazado 877332" d="M30.5,410.725c-.1.294-.731,2.245-.254,2.708.516.5,1.136-1.01,1.136-1.01a5.356,5.356,0,0,1,3.308,1.1c-.165.305-.055,1.433.539,1.311s1.239-2.374,1.247-2.4c-.294,2.02-.662,3.6-1.945,4.839-1.621,1.572-3.984-.158-4.48-1.562s-.429-2.36.238-4.4c.067-.2.138-.395.21-.577" transform="translate(-19.02 -262.803)" fill="#455a64"/>
            <path id="Trazado_877333" data-name="Trazado 877333" d="M33.427,397.941c-.151.755-.85.359-.682-.716s.987-3.5,1.328-5.34c.642-2.038,1.162-4.1,1.6-4.049-.007.026-.011.051-.017.077l-.256,1.048c-.041.152-.08.286-.109.449-.3,1.541-.837,4.483-1.235,5.87a25.138,25.138,0,0,0-.63,2.661" transform="translate(-20.936 -248.157)" fill="#263238"/>
            <path id="Trazado_877334" data-name="Trazado 877334" d="M42.762,401.151a25.081,25.081,0,0,0,.912-2.578c.413-1.371,1.549-4.044,2.131-5.513a3.973,3.973,0,0,0,.313-.833c.068-.206.145-.467.214-.685.006-.015.012-.03.017-.045.247.182.106,1.022-.134,2.063-.169.6-.534,1.227-.841,2.108-.71,1.731-1.211,4.271-1.652,5.266s-1.243.934-.961.217" transform="translate(-27.324 -250.5)" fill="#263238"/>
            <path id="Trazado_877335" data-name="Trazado 877335" d="M37.367,416.292a.179.179,0,0,1-.055-.028,5.2,5.2,0,0,0-3.272-.974.163.163,0,0,1-.024-.326,5.451,5.451,0,0,1,3.5,1.043.163.163,0,0,1-.147.285" transform="translate(-21.668 -265.507)" fill="#f0f0f0"/>
            <path id="Trazado_877336" data-name="Trazado 877336" d="M38.55,411.735a.168.168,0,0,1-.05-.025,6.442,6.442,0,0,0-3.664-1.089.165.165,0,0,1-.17-.157.164.164,0,0,1,.157-.17,6.672,6.672,0,0,1,3.871,1.152.164.164,0,0,1-.143.289" transform="translate(-22.181 -262.525)" fill="#f0f0f0"/>
            <path id="Trazado_877337" data-name="Trazado 877337" d="M36.037,406.293a.163.163,0,0,1,.023-.319,5.6,5.6,0,0,1,3.872,1.114.163.163,0,0,1,.027.229.165.165,0,0,1-.229.027,5.367,5.367,0,0,0-3.623-1.046.165.165,0,0,1-.069-.005" transform="translate(-22.983 -259.737)" fill="#f0f0f0"/>
            <path id="Trazado_877338" data-name="Trazado 877338" d="M36.438,402.235a.163.163,0,0,1,.02-.318,5.874,5.874,0,0,1,4.2,1.116.164.164,0,0,1-.219.243,5.667,5.667,0,0,0-3.927-1.037.165.165,0,0,1-.072,0" transform="translate(-23.24 -257.13)" fill="#f0f0f0"/>
            <path id="Trazado_877339" data-name="Trazado 877339" d="M37.668,397.714a.163.163,0,0,1,.018-.318,6.108,6.108,0,0,1,4.218,1.167.163.163,0,0,1-.213.248,5.9,5.9,0,0,0-3.949-1.093.165.165,0,0,1-.074,0" transform="translate(-24.027 -254.236)" fill="#ebebeb"/>
            <path id="Trazado_877340" data-name="Trazado 877340" d="M52.546,217.6c-1.442,3.211-2.764,4.831-3.467,11.856-1.252,12.522-2.051,21.829-2.051,21.829-.288,1.3-1.068,4.37-2.346,9.606-1.177,4.819-2.481,14.5-2.481,14.5a10.755,10.755,0,0,0,6.314-.224c1.831-4.61,6.344-15.99,7.871-21.563,1.5-5.482,4.052-13.827,4.052-13.827l1.79,12.673s-.418,5.065-.281,8.053c.159,3.476,1.675,15.313,1.675,15.313s3.326,1.66,5.966-.255c0,0,1.513-19.686,1.586-23.869.144-8.2.753-25.491-.581-34.093Z" transform="translate(-27.003 -139.232)" fill="#37474f"/>
            <path id="Trazado_877341" data-name="Trazado 877341" d="M42.519,371.823c1.073,1,4.218,2.327,6,2.026l-.7,1.987s-.569.441-2.832-.129-2.786-1.633-2.786-1.633Z" transform="translate(-27.002 -237.912)" fill="#455a64"/>
            <path id="Trazado_877342" data-name="Trazado 877342" d="M101.194,375.373a9.154,9.154,0,0,0,6.229,0l-.037,2.025s-.554.755-2.887.772-3.173-.709-3.173-.709Z" transform="translate(-64.749 -240.183)" fill="#455a64"/>
            <path id="Trazado_877343" data-name="Trazado 877343" d="M92.842,258.609,94.35,249.5s5.454-.588,7.455-2.469c0,0-2.536,3.5-6.238,4.032l-1.635,7.549.685,12.564Z" transform="translate(-59.405 -158.061)" fill="#263238"/>
            <path id="Trazado_877344" data-name="Trazado 877344" d="M113.567,153.077a5.187,5.187,0,0,1,3.968,1.11c.891.569,11.9,10.036,11.9,10.036l-2.783,3.961a19.937,19.937,0,0,1-6.86-3.6c-2.419-1.767-5.048-3.577-5.048-3.577Z" transform="translate(-72.666 -97.944)" fill="#f28f8f"/>
            <path id="Trazado_877345" data-name="Trazado 877345" d="M65.636,144.083a3.15,3.15,0,0,0-.374-.5c-1-1.079-2.722-.95-4.039-.644a32.512,32.512,0,0,1-3.544.895,4.357,4.357,0,0,1-3.18-.929c-.307-.241-.659-.541-1.035-.44a.966.966,0,0,0-.573.676,3.234,3.234,0,0,0-.039,1.964,3.508,3.508,0,0,1-1.929-1.588,1.222,1.222,0,0,0-.454-.56.679.679,0,0,0-.746.177,1.564,1.564,0,0,0-.356.726,4.841,4.841,0,0,0,2.069,5.327A3.386,3.386,0,0,1,50,149.016a.753.753,0,0,0-.706.211,1.036,1.036,0,0,0-.119.971,4.16,4.16,0,0,0,1.8,2.327c3.716,2.41,9.836,1.727,13.081-1.247a6.467,6.467,0,0,0,2.119-5.708,4.255,4.255,0,0,0-.538-1.488" transform="translate(-31.421 -91.146)" fill="#37474f"/>
            <path id="Trazado_877346" data-name="Trazado 877346" d="M89.077,166.5c-.193,2.15-.1,9.174-.1,9.174-6.794,4.154-18.05,0-18.05,0,.646-1.591,1.656-3.191,1.6-4.705l-1.457-8.27a17.9,17.9,0,0,0,2.453-10.121l4.849-.5,4.629.131,3.288.233a20.946,20.946,0,0,1,4.145,5.4c1.695,3.206,1.124,6.074-1.349,8.665" transform="translate(-45.38 -97.304)" fill="#27debf"/>
            <path id="Trazado_877347" data-name="Trazado 877347" d="M82.795,115.343a15.444,15.444,0,0,1,2.717-3.355c2.207-2.4,2.055-7.453.028-8.856A10.094,10.094,0,0,0,79.92,99.7c-1.881-.461-3.925.366-5.53,1.338a14.675,14.675,0,0,0-3.554,3.1,5.739,5.739,0,0,0-1.228,2.045,1.3,1.3,0,0,0,.007.918,1.076,1.076,0,0,0,.872.541,3.162,3.162,0,0,0,1.058-.129c-.238.057.473,1.215.636,1.3a3.1,3.1,0,0,0,1.532.271c.351-.019.7-.071,1.05-.1a1.557,1.557,0,0,1,.922.077,6.715,6.715,0,0,1,.612.619l.722.7,2.793,2.689c.993.957,1.988,1.32,2.981,2.276" transform="translate(-44.488 -63.707)" fill="#37474f"/>
            <path id="Trazado_877348" data-name="Trazado 877348" d="M89.4,113.473a1.844,1.844,0,0,0-2.848.695,1.56,1.56,0,0,1-.451.572.59.59,0,0,1-.512.039c-.469-.189-.6-.831-.692-1.26a5.768,5.768,0,0,1-.1-1.892,1.427,1.427,0,0,1-.941.385,1.111,1.111,0,0,1-.9-.44,2.312,2.312,0,0,1-.258-1.293,4.294,4.294,0,0,0-.291-1.735,2.6,2.6,0,0,0-1.1-.778,4.8,4.8,0,0,0-2.2-.73c-.437.019-.877-.043-1.316-.024a3.76,3.76,0,0,0-1.316.147c-1.081.553-2.188,1.649-1.955,7.157.183,4.3,1.351,6.371,2.09,6.749a5.347,5.347,0,0,0,3.081.315v2.448a10.82,10.82,0,0,0,5.949,4.587c1.1-1.2,1.5-2.82.285-4.925l.08-6.218a2.183,2.183,0,0,0,2.787-.023c1.235-.953,1.665-3.018.6-3.775" transform="translate(-47.662 -68.469)" fill="#ffa8a7"/>
            <path id="Trazado_877349" data-name="Trazado 877349" d="M110.6,126.325a.992.992,0,0,0-.712-.237,1.084,1.084,0,0,0-1.03.829.2.2,0,0,0,.158.222c.12.029.243.03.364.056s.137.1.149.207a.406.406,0,0,1-.143.362.46.46,0,0,1-.378.1.313.313,0,0,0-.344.14,1.178,1.178,0,0,0-.1.274.585.585,0,0,0-.018.2.659.659,0,0,0,.5.6,1.041,1.041,0,0,0,.448.037.555.555,0,0,0,.393-.208.835.835,0,0,1-.655.019.683.683,0,0,1-.341-.257.379.379,0,0,1,.08-.5.511.511,0,0,1,.128.006.639.639,0,0,0,.21,0,.771.771,0,0,0,.381-.214.687.687,0,0,0,.081-.8.642.642,0,0,0-.53-.279.856.856,0,0,1,.774-.487.949.949,0,0,1,.532.134.785.785,0,0,1,.2.19.818.818,0,0,1,.125.213.753.753,0,0,0-.275-.6" transform="translate(-69.452 -80.677)" fill="#f28f8f"/>
            <path id="Trazado_877350" data-name="Trazado 877350" d="M68.91,100.345a6.944,6.944,0,0,1,.314-.623c1.792-3.157,5.716-4.31,9.146-4.024,4.276.356,7.037,2.636,6.6,5.585l-2.2.135c-.453.028-.911-.046-1.352.022a5.305,5.305,0,0,0-2,.848,17.889,17.889,0,0,1-2.362,1.466c-.389.171-.913.263-1.181-.067s-.071-.821.135-1.2a5.524,5.524,0,0,1-2.551,1.211,1.211,1.211,0,0,1-1.192-.261,1.272,1.272,0,0,1,.066-1.293,3.823,3.823,0,0,1-2.439.542,1.5,1.5,0,0,1-1.206-.668,1.634,1.634,0,0,1,.065-1.29c.049-.13.1-.26.157-.387" transform="translate(-43.88 -61.206)" fill="#37474f"/>
            <path id="Trazado_877351" data-name="Trazado 877351" d="M91.756,124.394a.656.656,0,0,0,.63.657.614.614,0,0,0,.648-.6.656.656,0,0,0-.63-.657.615.615,0,0,0-.648.6" transform="translate(-58.71 -79.206)" fill="#263238"/>
            <path id="Trazado_877352" data-name="Trazado 877352" d="M75.673,120.459l1.082-1.066a.729.729,0,0,0-1.057-.032.8.8,0,0,0-.024,1.1" transform="translate(-48.287 -76.238)" fill="#263238"/>
            <path id="Trazado_877353" data-name="Trazado 877353" d="M77.575,124.622a.656.656,0,0,0,.63.657.614.614,0,0,0,.647-.6.656.656,0,0,0-.629-.657.615.615,0,0,0-.647.6" transform="translate(-49.636 -79.352)" fill="#263238"/>
            <path id="Trazado_877354" data-name="Trazado 877354" d="M93.139,118.928l1.252.86a.729.729,0,0,0-.169-1.044.8.8,0,0,0-1.083.185" transform="translate(-59.595 -75.892)" fill="#263238"/>
            <path id="Trazado_877355" data-name="Trazado 877355" d="M82.966,121.7l-.088,4.337-2.156-.46Z" transform="translate(-51.65 -77.869)" fill="#f28f8f"/>
            <path id="Trazado_877356" data-name="Trazado 877356" d="M88.935,142.954c1.516-.225,4.73-1.036,5.285-2.226a3.544,3.544,0,0,1-1.235,1.7,15.543,15.543,0,0,1-4.05,1.389Z" transform="translate(-56.905 -90.045)" fill="#f28f8f"/>
            <path id="Trazado_877357" data-name="Trazado 877357" d="M90.527,136.082a.8.8,0,1,1-.8-.8.8.8,0,0,1,.8.8" transform="translate(-56.901 -86.56)" fill="#b16668"/>
            <path id="Trazado_877358" data-name="Trazado 877358" d="M90.864,138.028a.815.815,0,0,0,.009.089.77.77,0,0,0,.893-.79.736.736,0,0,0-.009-.089.77.77,0,0,0-.893.79" transform="translate(-58.14 -87.806)" fill="#f28f8f"/>
            <path id="Trazado_877359" data-name="Trazado 877359" d="M120.4,123.706c-.32-.425-.772-.968-.9-1.156-.252-.373-.782.166-.659.715a8.176,8.176,0,0,0,.876,1.856,6.9,6.9,0,0,1,.333,3.082c-.072.5-.392.933-.773.711s-.864-1.209-1.337-1.446-.993-.116-1.1.154.38.733.59,1.274a21.622,21.622,0,0,0,.735,2.761,10.292,10.292,0,0,0,1.554,1.759,6.06,6.06,0,0,0,2.211-2.046c.9-1.411.636-5.617-1.532-7.664" transform="translate(-74.751 -78.335)" fill="#ffa8a7"/>
            <path id="Trazado_877360" data-name="Trazado 877360" d="M127.275,129.671c.054-.193.143-.444.221-.753a7.312,7.312,0,0,0-1.966-4.484c-.215-.285-.487-.622-.683-.87a2.933,2.933,0,0,0,.412,1.256,6.82,6.82,0,0,1,.7,1.58c.1.343.23,1.069.385,1.712a20.268,20.268,0,0,1,.249,2.361s.443.024.679-.8" transform="translate(-79.884 -79.062)" fill="#f28f8f"/>
            <path id="Trazado_877361" data-name="Trazado 877361" d="M127.026,121.28c-.74-.929-.927-1.145-1.08-1.123-.562.083-.442,1.6-.041,2.278a6.132,6.132,0,0,1,.758,1.868,9.659,9.659,0,0,1,.144,1.628s-.5,2.314-.663,3.018c0,0,1.617-.864,1.852-1.691s1.1-2.671-.969-5.979" transform="translate(-80.342 -76.882)" fill="#ffa8a7"/>
            <path id="Trazado_877362" data-name="Trazado 877362" d="M129.872,128.172c.294-.957.711-2.725-1.086-5.6-.152-.191-.209-.263-.319-.4a1.1,1.1,0,0,0-.135.794,22.429,22.429,0,0,0,.766,2.166,12.649,12.649,0,0,1,.265,1.68Z" transform="translate(-82.102 -78.174)" fill="#f28f8f"/>
            <path id="Trazado_877363" data-name="Trazado 877363" d="M130.343,122.306a14.269,14.269,0,0,0-.73-1.317c-.185-.14-.715.461-.623,1.128a16.732,16.732,0,0,0,.719,2.3,7.32,7.32,0,0,1-.122,3s1.035.2,1.428-.511.358-2.627-.673-4.6" transform="translate(-82.528 -77.402)" fill="#ffa8a7"/>
            <path id="Trazado_877364" data-name="Trazado 877364" d="M131.909,124.068c-.079-.125-.143-.238-.2-.346h0c-.3.32-.37.562-.161,1.344a9.5,9.5,0,0,1,.594,2.549,1.917,1.917,0,0,1,.668-.4,7.688,7.688,0,0,0-.9-3.152" transform="translate(-84.093 -79.164)" fill="#f28f8f"/>
            <path id="Trazado_877365" data-name="Trazado 877365" d="M124.1,134.321c-.949-1.135-.08-2.141.351-2.843.594-.967,2.027-2.468,2.312-2.938a2.43,2.43,0,0,0,.448-1,5.438,5.438,0,0,0-.314-1.895c-.358-1.463-.123-1.73.17-1.8s.635.944.874,1.451a9.755,9.755,0,0,1,.909,2.672,18.682,18.682,0,0,1-.581,3.551c-.281,1,1.754,3.559,1.754,3.559l-4.1,2.834a28.367,28.367,0,0,0-1.82-3.59" transform="translate(-79.134 -79.24)" fill="#ffa8a7"/>
            <path id="Trazado_877366" data-name="Trazado 877366" d="M127.153,137a9.07,9.07,0,0,1-1.568,1.731,3.78,3.78,0,0,0-1.108,2.2,4.208,4.208,0,0,1,1.334-2.033,4.087,4.087,0,0,0,1.342-1.9" transform="translate(-79.647 -87.66)" fill="#f28f8f"/>
            <path id="Trazado_877367" data-name="Trazado 877367" d="M127.773,153.346c.971,2.247,3.116,8.322,3.906,9.828,1.213,2.314,4.328,4.1,5.541,3.424s1.723-3.439.947-5.911c-.913-2.907-5.587-8.279-6.612-10.091Z" transform="translate(-81.756 -96.359)" fill="#ffa8a7"/>
            <path id="Trazado_877368" data-name="Trazado 877368" d="M28.136,153.469c-4.464,0-5.67,1.988-7.019,5.273s-4.341,12.025-4.341,12.025a31.37,31.37,0,0,0-2.3,4.925c-.711,2.037-2.977,10.172-3.856,10.582s-4.745.367-6.212.748a13.762,13.762,0,0,0-4.382,2.531c-.16.5.533.628,1.023.56.9-.126,2.309-.866,3.3-.9a18.253,18.253,0,0,1,3.809.27c.411.117.287.449-1.056,1.173s-1.584,1.525-1.467,1.936.645,0,1.584-.411,2.581-.88,4.047-1.525,2.347-.7,3.168-1.642,1.057-1.915,2.054-3.851,3.084-5.242,3.93-6.893c1.173-2.288,1.682-4.151,2.916-6.645,1.463-2.957,4.565-9.443,4.565-9.443s1.922-5.772.242-8.711" transform="translate(0 -98.197)" fill="#ffa8a7"/>
            <path id="Trazado_877369" data-name="Trazado 877369" d="M137.565,116a.17.17,0,0,1-.116-.293l2.465-2.317a.17.17,0,1,1,.232.247l-2.464,2.317a.169.169,0,0,1-.116.046" transform="translate(-87.913 -72.522)" fill="#e0e0e0"/>
            <path id="Trazado_877370" data-name="Trazado 877370" d="M139.191,121.92a.169.169,0,0,1-.047-.332l3.251-.935a.17.17,0,0,1,.094.326l-3.251.935a.175.175,0,0,1-.047.006" transform="translate(-88.953 -77.196)" fill="#e0e0e0"/>
            <path id="Trazado_877371" data-name="Trazado 877371" d="M143.419,128.114H143.4l-3.357-.421a.17.17,0,0,1-.147-.189.172.172,0,0,1,.189-.147l3.357.421a.17.17,0,0,1-.021.338" transform="translate(-89.511 -81.488)" fill="#e0e0e0"/>
          </g>
        </g>
      </g>
    </g>
  </g>
</svg>
