<svg xmlns="http://www.w3.org/2000/svg" xmlns:xlink="http://www.w3.org/1999/xlink" width="190" height="186.688" viewBox="0 0 190 186.688">
  <defs>
    <clipPath id="clip-path">
      <rect id="Rectángulo_402886" data-name="Rectángulo 402886" width="25.367" height="102.321" fill="#4adbd1"/>
    </clipPath>
  </defs>
  <g id="Grupo_1054550" data-name="Grupo 1054550" transform="translate(-285 -3313.047)">
    <g id="Grupo_133713" data-name="Grupo 133713" transform="translate(285 3499.734) rotate(-90)">
      <path id="Sustracción_24" data-name="Sustracción 24" d="M0,190V0A95.7,95.7,0,0,1,19.146,1.93,94.521,94.521,0,0,1,36.978,7.466a95.007,95.007,0,0,1,16.137,8.759,95.682,95.682,0,0,1,14.06,11.6,95.682,95.682,0,0,1,11.6,14.06,95.008,95.008,0,0,1,8.759,16.137A94.521,94.521,0,0,1,93.07,75.854,95.7,95.7,0,0,1,95,95a95.7,95.7,0,0,1-1.93,19.146,94.52,94.52,0,0,1-5.536,17.832,95.007,95.007,0,0,1-8.759,16.137,95.682,95.682,0,0,1-11.6,14.06,95.684,95.684,0,0,1-14.06,11.6,95.011,95.011,0,0,1-16.137,8.759,94.522,94.522,0,0,1-17.832,5.536A95.7,95.7,0,0,1,0,190Z" transform="translate(95 190) rotate(180)" fill="#5573c6"/>
      <path id="Sustracción_25" data-name="Sustracción 25" d="M0,190V0A95.7,95.7,0,0,1,19.146,1.93,94.522,94.522,0,0,1,36.978,7.466a95.008,95.008,0,0,1,16.137,8.759,95.681,95.681,0,0,1,14.06,11.6,95.683,95.683,0,0,1,11.6,14.06,95.007,95.007,0,0,1,8.759,16.137A94.52,94.52,0,0,1,93.07,75.854,95.7,95.7,0,0,1,95,95a95.7,95.7,0,0,1-1.93,19.146,94.519,94.519,0,0,1-5.536,17.832,95,95,0,0,1-8.759,16.137,95.68,95.68,0,0,1-11.6,14.06,95.68,95.68,0,0,1-14.06,11.6,95.009,95.009,0,0,1-16.137,8.759,94.52,94.52,0,0,1-17.832,5.535A95.7,95.7,0,0,1,0,190Z" transform="translate(91.688 0)" fill="#e8e8e8"/>
    </g>
    <path id="Trazado_151972" data-name="Trazado 151972" d="M84.689,0c46.773,0,84.689,38.07,84.689,85.032s-37.917,85.032-84.689,85.032S0,131.994,0,85.032,37.917,0,84.689,0Z" transform="translate(295 3321)" fill="#12263f"/>
    <g id="Grupo_133716" data-name="Grupo 133716" transform="translate(436.366 3436.402)" style="isolation: isolate">
      <g id="Grupo_133714" data-name="Grupo 133714" transform="translate(0 3.576)">
        <path id="Trazado_150984" data-name="Trazado 150984" d="M.057,15.871C.019,15.39,0,14.9,0,14.412A18.351,18.351,0,0,1,6.941,0l.134.167A18.138,18.138,0,0,0,.214,14.412c0,.481.019.966.056,1.442Z" transform="translate(0 0)" fill="#4adbd1"/>
      </g>
      <g id="Grupo_133715" data-name="Grupo 133715" transform="translate(9.005 0)">
        <path id="Trazado_150985" data-name="Trazado 150985" d="M.11,2.331,0,2.147A18.3,18.3,0,0,1,5.395,0l.047.209A18.082,18.082,0,0,0,.11,2.331Z" transform="translate(0 0)" fill="#4adbd1"/>
      </g>
      <path id="Trazado_150986" data-name="Trazado 150986" d="M15.42,0a15.42,15.42,0,1,0,15.42,15.42A15.42,15.42,0,0,0,15.42,0Zm0,26.323a10.9,10.9,0,1,1,10.9-10.9A10.9,10.9,0,0,1,15.42,26.323Z" transform="translate(3.011 2.569)" fill="#4adbd1" style="mix-blend-mode: multiply;isolation: isolate"/>
    </g>
    <path id="Trazado_150987" data-name="Trazado 150987" d="M4.346,0A4.346,4.346,0,1,0,8.693,4.346,4.346,4.346,0,0,0,4.346,0Zm0,7.42A3.073,3.073,0,1,1,7.42,4.346,3.073,3.073,0,0,1,4.346,7.42Z" transform="matrix(0.966, -0.259, 0.259, 0.966, 314.411, 3323.867)" fill="#0f0140" style="mix-blend-mode: multiply;isolation: isolate"/>
    <ellipse id="Elipse_5034" data-name="Elipse 5034" cx="3.891" cy="3.891" rx="3.891" ry="3.891" transform="translate(464.708 3432.59)" fill="#dad6f7"/>
    <ellipse id="Elipse_5035" data-name="Elipse 5035" cx="11.241" cy="11.241" rx="11.241" ry="11.241" transform="translate(302.311 3332.145)" fill="#5573c6"/>
    <g id="Grupo_1054549" data-name="Grupo 1054549" transform="translate(367 3355)">
      <g id="Grupo_1054548" data-name="Grupo 1054548" clip-path="url(#clip-path)">
        <path id="Trazado_877289" data-name="Trazado 877289" d="M5.873,72.643a6.809,6.809,0,0,0,13.615.2l5.638-57.7a12.683,12.683,0,1,0-24.885.007Z" fill="#4adbd1"/>
        <path id="Trazado_877290" data-name="Trazado 877290" d="M29.309,405.483a8.216,8.216,0,1,0,8.216,8.216,8.216,8.216,0,0,0-8.216-8.216" transform="translate(-16.625 -319.594)" fill="#4adbd1"/>
      </g>
    </g>
  </g>
</svg>
