<svg xmlns="http://www.w3.org/2000/svg" width="63" height="63" viewBox="0 0 63 63">
  <g id="Grupo_1054544" data-name="Grupo 1054544" transform="translate(-459 -16792)">
    <rect id="Rectángulo_389348" data-name="Rectángulo 389348" width="63" height="63" transform="translate(459 16792)" fill="none"/>
    <g id="computadora" transform="translate(459 16791)">
      <g id="Grupo_1054541" data-name="Grupo 1054541">
        <g id="Grupo_1054527" data-name="Grupo 1054527">
          <path id="Trazado_877273" data-name="Trazado 877273" d="M51,58h6v4H51Z" fill="#aab2bd"/>
        </g>
        <g id="Grupo_1054528" data-name="Grupo 1054528">
          <path id="Trazado_877274" data-name="Trazado 877274" d="M29,58h6v4H29Z" fill="#aab2bd"/>
        </g>
        <g id="Grupo_1054529" data-name="Grupo 1054529">
          <path id="Trazado_877275" data-name="Trazado 877275" d="M7,58h6v4H7Z" fill="#aab2bd"/>
        </g>
        <g id="Grupo_1054530" data-name="Grupo 1054530">
          <path id="Trazado_877276" data-name="Trazado 877276" d="M62,54v2a2.006,2.006,0,0,1-2,2H48a2.006,2.006,0,0,1-2-2V54Z" fill="#ccd1d9"/>
        </g>
        <g id="Grupo_1054531" data-name="Grupo 1054531">
          <path id="Trazado_877277" data-name="Trazado 877277" d="M40,54v2a2.006,2.006,0,0,1-2,2H26a2.006,2.006,0,0,1-2-2V54Z" fill="#ccd1d9"/>
        </g>
        <g id="Grupo_1054532" data-name="Grupo 1054532">
          <path id="Trazado_877278" data-name="Trazado 877278" d="M18,54v2a2.006,2.006,0,0,1-2,2H4a2.006,2.006,0,0,1-2-2V54Z" fill="#ccd1d9"/>
        </g>
        <g id="Grupo_1054533" data-name="Grupo 1054533">
          <path id="Trazado_877279" data-name="Trazado 877279" d="M62,48v6H46V48a2.006,2.006,0,0,1,2-2H60A2.006,2.006,0,0,1,62,48Z" fill="#69d6f4"/>
        </g>
        <g id="Grupo_1054534" data-name="Grupo 1054534">
          <path id="Trazado_877280" data-name="Trazado 877280" d="M40,50v4H24V48a2.006,2.006,0,0,1,2-2H38a2.006,2.006,0,0,1,2,2Z" fill="#69d6f4"/>
        </g>
        <g id="Grupo_1054535" data-name="Grupo 1054535">
          <path id="Trazado_877281" data-name="Trazado 877281" d="M18,50v4H2V48a2.006,2.006,0,0,1,2-2H16a2.006,2.006,0,0,1,2,2Z" fill="#69d6f4"/>
        </g>
        <g id="Grupo_1054536" data-name="Grupo 1054536">
          <path id="Trazado_877282" data-name="Trazado 877282" d="M39.71,32.72A6,6,0,0,0,36,22a5.937,5.937,0,0,0-2.03.36,11.014,11.014,0,0,0-3.65-7.56A16,16,0,1,1,47.98,33.88a16.164,16.164,0,0,1-8.27-1.16Z" fill="#69d6f4"/>
        </g>
        <g id="Grupo_1054537" data-name="Grupo 1054537">
          <path id="Trazado_877283" data-name="Trazado 877283" d="M42,28a5.991,5.991,0,0,1-6,6H12a6,6,0,0,1,0-12h.05A11,11,0,0,1,23,12a10.886,10.886,0,0,1,7.32,2.8,11.014,11.014,0,0,1,3.65,7.56A5.937,5.937,0,0,1,36,22,6,6,0,0,1,42,28Z" fill="#e6e9ed"/>
        </g>
        <g id="Grupo_1054538" data-name="Grupo 1054538">
          <circle id="Elipse_8746" data-name="Elipse 8746" cx="2" cy="2" r="2" transform="translate(30 26)" fill="#ff826e"/>
        </g>
        <g id="Grupo_1054539" data-name="Grupo 1054539">
          <circle id="Elipse_8747" data-name="Elipse 8747" cx="2" cy="2" r="2" transform="translate(22 26)" fill="#ff826e"/>
        </g>
        <g id="Grupo_1054540" data-name="Grupo 1054540">
          <circle id="Elipse_8748" data-name="Elipse 8748" cx="2" cy="2" r="2" transform="translate(14 26)" fill="#ff826e"/>
        </g>
      </g>
      <g id="Grupo_1054542" data-name="Grupo 1054542">
        <path id="Trazado_877284" data-name="Trazado 877284" d="M60,45H55V39H49V34.719A16.993,16.993,0,1,0,29.726,13.081,11.973,11.973,0,0,0,11.163,21.05,7,7,0,0,0,12,35h3v4H9v6H4a3,3,0,0,0-3,3v8a3,3,0,0,0,3,3H6v2H4v2H16V61H14V59h2a3,3,0,0,0,3-3V51h4v5a3,3,0,0,0,3,3h2v2H26v2H38V61H36V59h2a3,3,0,0,0,3-3V51h4v5a3,3,0,0,0,3,3h2v2H48v2H60V61H58V59h2a3,3,0,0,0,3-3V48a3,3,0,0,0-3-3Zm1,3v5H47V48a1,1,0,0,1,1-1H60A1,1,0,0,1,61,48ZM46,33a14.92,14.92,0,0,1-4.5-.687A6.833,6.833,0,0,0,42.92,27h8.626c-1.292,3.613-3.314,6-5.546,6Zm6.976-14a28.363,28.363,0,0,1-.816,6H42.315a7.041,7.041,0,0,0-3.065-3.194c-.116-.917-.185-1.855-.215-2.806ZM39.024,17a28.363,28.363,0,0,1,.816-6H52.159a28.363,28.363,0,0,1,.816,6ZM51.1,32.089A16.655,16.655,0,0,0,53.664,27h4.308A15.047,15.047,0,0,1,51.1,32.089ZM59.256,25H54.222a30.416,30.416,0,0,0,.752-6h5.975a14.878,14.878,0,0,1-1.693,6Zm0-14a14.878,14.878,0,0,1,1.693,6H54.974a30.416,30.416,0,0,0-.752-6ZM57.972,9H53.664A16.654,16.654,0,0,0,51.1,3.911,15.047,15.047,0,0,1,57.972,9ZM46,3c2.232,0,4.254,2.387,5.546,6H40.454C41.746,5.387,43.768,3,46,3Zm-5.086.894A16.643,16.643,0,0,0,38.336,9H34.012A15.125,15.125,0,0,1,40.914,3.894ZM32.744,11h5.034a30.416,30.416,0,0,0-.752,6H33.377a12.01,12.01,0,0,0-1.947-2.519A14.76,14.76,0,0,1,32.744,11Zm4.421,10.1A6.99,6.99,0,0,0,36,21a6.8,6.8,0,0,0-1.164.1A11.923,11.923,0,0,0,34.3,19h2.732c.022.71.064,1.411.131,2.1ZM12,33a5,5,0,0,1-.009-10h0l.966.056.087-.964a9.99,9.99,0,0,1,19.923.325l.077,1.337,1.26-.453A5,5,0,1,1,36,33ZM4,47H16a1,1,0,0,1,1,1v5H3V48A1,1,0,0,1,4,47Zm8,14H8V59h4Zm4-4H4a1,1,0,0,1-1-1V55H17v1A1,1,0,0,1,16,57Zm3-8V48a3,3,0,0,0-3-3H11V41h6V35H31V45H26a3,3,0,0,0-3,3v1Zm20,4H25V48a1,1,0,0,1,1-1H38a1,1,0,0,1,1,1Zm-5,8H30V59h4Zm4-4H26a1,1,0,0,1-1-1V55H39v1A1,1,0,0,1,38,57Zm3-8V48a3,3,0,0,0-3-3H33V35h3a6.952,6.952,0,0,0,3.858-1.165A16.877,16.877,0,0,0,46,35c.338,0,.667-.031,1-.051V41h6v4H48a3,3,0,0,0-3,3v1ZM56,61H52V59h4Zm4-4H48a1,1,0,0,1-1-1V55H61v1A1,1,0,0,1,60,57Z"/>
        <path id="Trazado_877285" data-name="Trazado 877285" d="M16,25a3,3,0,1,0,3,3A3,3,0,0,0,16,25Zm0,4a1,1,0,1,1,1-1A1,1,0,0,1,16,29Z"/>
        <path id="Trazado_877286" data-name="Trazado 877286" d="M24,25a3,3,0,1,0,3,3A3,3,0,0,0,24,25Zm0,4a1,1,0,1,1,1-1A1,1,0,0,1,24,29Z"/>
        <path id="Trazado_877287" data-name="Trazado 877287" d="M32,25a3,3,0,1,0,3,3A3,3,0,0,0,32,25Zm0,4a1,1,0,1,1,1-1A1,1,0,0,1,32,29Z"/>
        <path id="Trazado_877288" data-name="Trazado 877288" d="M23,15v2a6.034,6.034,0,0,1,5.751,4.285l1.917-.57A8.046,8.046,0,0,0,23,15Z"/>
      </g>
    </g>
  </g>
</svg>
