<svg xmlns="http://www.w3.org/2000/svg" width="63" height="63" viewBox="0 0 63 63">
  <g id="Grupo_1054543" data-name="Grupo 1054543" transform="translate(-1080 -16792)">
    <rect id="Rectángulo_389349" data-name="Rectángulo 389349" width="63" height="63" transform="translate(1080 16792)" fill="none"/>
    <g id="almacenamiento-de-datos" transform="translate(1080 16791)">
      <g id="Grupo_1054525" data-name="Grupo 1054525">
        <g id="Grupo_1054509" data-name="Grupo 1054509">
          <path id="Trazado_877243" data-name="Trazado 877243" d="M21.41,53.08a2.018,2.018,0,0,0-1.82.13l-.02.01a2.027,2.027,0,0,1-2.46-.31l-2.02-2.02a2.027,2.027,0,0,1-.31-2.46l.01-.02a2.018,2.018,0,0,0,.13-1.82c-.01,0-.01-.01-.01-.02a2.057,2.057,0,0,0-1.36-1.18h-.03A2.032,2.032,0,0,1,12,43.43V40.57a2.032,2.032,0,0,1,1.52-1.96h.03a2.057,2.057,0,0,0,1.36-1.18c0-.01,0-.02.01-.02a2.018,2.018,0,0,0-.13-1.82l-.01-.02a2.027,2.027,0,0,1,.31-2.46l2.02-2.02a2.027,2.027,0,0,1,2.46-.31l.02.01a2.018,2.018,0,0,0,1.82.13c0-.01.01-.01.02-.01a2.057,2.057,0,0,0,1.18-1.36v-.03A2.032,2.032,0,0,1,24.57,28H26v6a8,8,0,0,0,0,16v6H24.57a2.032,2.032,0,0,1-1.96-1.52v-.03a2.057,2.057,0,0,0-1.18-1.36C21.42,53.09,21.41,53.09,21.41,53.08Z" fill="#69d6f4"/>
        </g>
        <g id="Grupo_1054510" data-name="Grupo 1054510">
          <path id="Trazado_877244" data-name="Trazado 877244" d="M26,49v1a8,8,0,0,1,0-16v4a4,4,0,0,0,0,8Z" fill="#69d6f4"/>
        </g>
        <g id="Grupo_1054511" data-name="Grupo 1054511">
          <path id="Trazado_877245" data-name="Trazado 877245" d="M62,33v8c0,1.73-3.18,3.26-8,4.16V37.15h.06C58.85,36.25,62,34.73,62,33Z" fill="#ffc729"/>
        </g>
        <g id="Grupo_1054512" data-name="Grupo 1054512">
          <path id="Trazado_877246" data-name="Trazado 877246" d="M62,49v8c0,1.73-3.18,3.26-8,4.16V53.15h.06C58.85,52.25,62,50.73,62,49Z" fill="#ffc729"/>
        </g>
        <g id="Grupo_1054513" data-name="Grupo 1054513">
          <path id="Trazado_877247" data-name="Trazado 877247" d="M26,49c0,1.73,3.18,3.26,8,4.16v8c-4.82-.9-8-2.43-8-4.16V49Z" fill="#ffc729"/>
        </g>
        <g id="Grupo_1054514" data-name="Grupo 1054514">
          <path id="Trazado_877248" data-name="Trazado 877248" d="M26,33c0,1.73,3.18,3.26,8,4.16v8c-4.82-.9-8-2.43-8-4.16V33Z" fill="#ffc729"/>
        </g>
        <g id="Grupo_1054515" data-name="Grupo 1054515">
          <path id="Trazado_877249" data-name="Trazado 877249" d="M62,41v8c0,1.73-3.15,3.25-7.94,4.15H54V45.16c4.82-.9,8-2.43,8-4.16Z" fill="#fcd770"/>
        </g>
        <g id="Grupo_1054516" data-name="Grupo 1054516">
          <path id="Trazado_877250" data-name="Trazado 877250" d="M62,25v8c0,1.73-3.15,3.25-7.94,4.15H54V29.16c4.82-.9,8-2.43,8-4.16Z" fill="#fcd770"/>
        </g>
        <g id="Grupo_1054517" data-name="Grupo 1054517">
          <path id="Trazado_877251" data-name="Trazado 877251" d="M34,45.16v8c-4.82-.9-8-2.43-8-4.16V41C26,42.73,29.18,44.26,34,45.16Z" fill="#fcd770"/>
        </g>
        <g id="Grupo_1054518" data-name="Grupo 1054518">
          <path id="Trazado_877252" data-name="Trazado 877252" d="M26,25c0,1.73,3.18,3.26,8,4.16v8c-4.82-.9-8-2.43-8-4.16V25Z" fill="#fcd770"/>
        </g>
        <g id="Grupo_1054519" data-name="Grupo 1054519">
          <path id="Trazado_877253" data-name="Trazado 877253" d="M53.04,20.67H34.96C29.6,21.54,26,23.15,26,25c0,1.73,3.18,3.26,8,4.16v32A56.008,56.008,0,0,0,44,62a56.008,56.008,0,0,0,10-.84v-32c4.82-.9,8-2.43,8-4.16,0-1.85-3.6-3.46-8.96-4.33Z" fill="#ffeaa7"/>
        </g>
        <g id="Grupo_1054520" data-name="Grupo 1054520">
          <path id="Trazado_877254" data-name="Trazado 877254" d="M38,56V44a2.006,2.006,0,0,1,2-2h8a2.006,2.006,0,0,1,2,2V56a2.006,2.006,0,0,1-2,2H40A2.006,2.006,0,0,1,38,56Z" fill="#e6e9ed"/>
        </g>
        <g id="Grupo_1054521" data-name="Grupo 1054521">
          <path id="Trazado_877255" data-name="Trazado 877255" d="M38,34V22a1.966,1.966,0,0,1,.51-1.33A2,2,0,0,1,40,20h8a2,2,0,0,1,1.49.67A1.966,1.966,0,0,1,50,22V34a2.006,2.006,0,0,1-2,2H40A2.006,2.006,0,0,1,38,34Z" fill="#e6e9ed"/>
        </g>
        <g id="Grupo_1054522" data-name="Grupo 1054522">
          <path id="Trazado_877256" data-name="Trazado 877256" d="M38,12V4a2.006,2.006,0,0,1,2-2h8a2.006,2.006,0,0,1,2,2v8a2.006,2.006,0,0,1-2,2H40A2.006,2.006,0,0,1,38,12Z" fill="#e6e9ed"/>
        </g>
        <g id="Grupo_1054523" data-name="Grupo 1054523">
          <path id="Trazado_877257" data-name="Trazado 877257" d="M32,8v4a2.006,2.006,0,0,1-2,2H22a2.006,2.006,0,0,1-2-2V4a2.006,2.006,0,0,1,2-2h8a2.006,2.006,0,0,1,2,2Z" fill="#e6e9ed"/>
        </g>
        <g id="Grupo_1054524" data-name="Grupo 1054524">
          <path id="Trazado_877258" data-name="Trazado 877258" d="M14,8v4a2.006,2.006,0,0,1-2,2H4a2.006,2.006,0,0,1-2-2V4A2.006,2.006,0,0,1,4,2h8a2.006,2.006,0,0,1,2,2Z" fill="#e6e9ed"/>
        </g>
      </g>
      <g id="Grupo_1054526" data-name="Grupo 1054526">
        <path id="Trazado_877259" data-name="Trazado 877259" d="M15,12V9h4v3a3,3,0,0,0,3,3h8a3,3,0,0,0,3-3V9h4v3a3,3,0,0,0,3,3h3v4H40a3,3,0,0,0-3,3V34a3,3,0,0,0,3,3h3v4H40a3,3,0,0,0-3,3V56a3,3,0,0,0,3,3h8a3,3,0,0,0,3-3V44a3,3,0,0,0-3-3H45V37h3a3,3,0,0,0,3-3V22a3,3,0,0,0-3-3H45V15h3a3,3,0,0,0,3-3V4a3,3,0,0,0-3-3H40a3,3,0,0,0-3,3V7H33V4a3,3,0,0,0-3-3H22a3,3,0,0,0-3,3V7H15V4a3,3,0,0,0-3-3H4A3,3,0,0,0,1,4v8a3,3,0,0,0,3,3h8A3,3,0,0,0,15,12ZM49,44V56a1,1,0,0,1-1,1H40a1,1,0,0,1-1-1V44a1,1,0,0,1,1-1h8A1,1,0,0,1,49,44Zm0-22V34a1,1,0,0,1-1,1H40a1,1,0,0,1-1-1V22a1,1,0,0,1,1-1h8A1,1,0,0,1,49,22ZM39,4a1,1,0,0,1,1-1h8a1,1,0,0,1,1,1v8a1,1,0,0,1-1,1H40a1,1,0,0,1-1-1ZM21,4a1,1,0,0,1,1-1h8a1,1,0,0,1,1,1v8a1,1,0,0,1-1,1H22a1,1,0,0,1-1-1ZM3,12V4A1,1,0,0,1,4,3h8a1,1,0,0,1,1,1v8a1,1,0,0,1-1,1H4A1,1,0,0,1,3,12Z"/>
        <path id="Trazado_877260" data-name="Trazado 877260" d="M5,5h6V7H5Z"/>
        <path id="Trazado_877261" data-name="Trazado 877261" d="M5,9h6v2H5Z"/>
        <path id="Trazado_877262" data-name="Trazado 877262" d="M41,5h6V7H41Z"/>
        <path id="Trazado_877263" data-name="Trazado 877263" d="M41,9h6v2H41Z"/>
        <path id="Trazado_877264" data-name="Trazado 877264" d="M23,5h6V7H23Z"/>
        <path id="Trazado_877265" data-name="Trazado 877265" d="M23,9h6v2H23Z"/>
        <path id="Trazado_877266" data-name="Trazado 877266" d="M53.2,19.688l-.319,1.975C58.795,22.618,61,24.217,61,25c0,.71-1.95,2.2-7.183,3.174L53,28.326V60.313A54.819,54.819,0,0,1,44,61a54.7,54.7,0,0,1-9-.688V28.326l-.817-.152C28.95,27.2,27,25.71,27,25c0-.783,2.206-2.382,8.124-3.338L34.8,19.687C31.143,20.279,25,21.755,25,25v2h-.427a3.029,3.029,0,0,0-2.936,2.3,1.051,1.051,0,0,1-1.553.623,3.021,3.021,0,0,0-3.683.46L14.383,32.4a3.027,3.027,0,0,0-.449,3.7,1.05,1.05,0,0,1-.657,1.539A3.021,3.021,0,0,0,11,40.573v2.854a3.029,3.029,0,0,0,2.3,2.936,1.051,1.051,0,0,1,.623,1.553,3.02,3.02,0,0,0,.46,3.683L16.4,53.617a3.026,3.026,0,0,0,3.7.449,1.05,1.05,0,0,1,1.539.657A3.021,3.021,0,0,0,24.573,57H25c0,3.939,9.558,6,19,6s19-2.061,19-6V25c0-3.244-6.143-4.721-9.8-5.312ZM33,43.932c-4.341-.964-6-2.278-6-2.932V35.872a19.237,19.237,0,0,0,6,2.108Zm-8,.884a2.982,2.982,0,0,1,0-5.632ZM25,37.1a5,5,0,0,0,0,9.8V48.92a6.991,6.991,0,0,1,0-13.84Zm2,6.771a19.272,19.272,0,0,0,6,2.109v5.952c-4.341-.964-6-2.278-6-2.932Zm6-13.893v5.953c-4.341-.964-6-2.278-6-2.932V27.877A19.313,19.313,0,0,0,33,29.979ZM24.573,55a1.029,1.029,0,0,1-1-.794,3.05,3.05,0,0,0-4.513-1.849,1.023,1.023,0,0,1-1.246-.156L15.8,50.183a1.03,1.03,0,0,1-.144-1.267,3.05,3.05,0,0,0-1.884-4.5,1.019,1.019,0,0,1-.771-.99V40.573a1.029,1.029,0,0,1,.793-1,3.05,3.05,0,0,0,1.85-4.513,1.021,1.021,0,0,1,.156-1.246L17.817,31.8a1.028,1.028,0,0,1,1.267-.144,3.05,3.05,0,0,0,4.5-1.884,1.019,1.019,0,0,1,.99-.771H25v4.059a9,9,0,0,0,0,17.882V55ZM27,57V51.871a19.247,19.247,0,0,0,6,2.108v5.938C29.077,59.03,27,57.8,27,57Zm28,2.918V53.98a19.235,19.235,0,0,0,6-2.11V57C61,57.8,58.923,59.03,55,59.918Zm0-7.986V45.98a19.237,19.237,0,0,0,6-2.108V49c0,.653-1.657,1.968-6,2.932Zm0-8V37.98a19.235,19.235,0,0,0,6-2.11V41C61,41.655,59.341,42.968,55,43.932Zm0-8V29.979a19.313,19.313,0,0,0,6-2.1V33C61,33.653,59.343,34.968,55,35.932Z"/>
        <path id="Trazado_877267" data-name="Trazado 877267" d="M41,53h6v2H41Z"/>
        <path id="Trazado_877268" data-name="Trazado 877268" d="M41,49h6v2H41Z"/>
        <path id="Trazado_877269" data-name="Trazado 877269" d="M41,45h6v2H41Z"/>
        <path id="Trazado_877270" data-name="Trazado 877270" d="M41,31h6v2H41Z"/>
        <path id="Trazado_877271" data-name="Trazado 877271" d="M41,27h6v2H41Z"/>
        <path id="Trazado_877272" data-name="Trazado 877272" d="M41,23h6v2H41Z"/>
      </g>
    </g>
  </g>
</svg>
