<svg id="Grupo_1051964" data-name="Grupo 1051964" xmlns="http://www.w3.org/2000/svg" width="64.937" height="66.537" viewBox="0 0 64.937 66.537">
  <g id="Grupo_1037066" data-name="Grupo 1037066" transform="translate(0 0)">
    <path id="Sustracci贸n_64" data-name="Sustracci贸n 64" d="M0,0H0V66a33.506,33.506,0,0,0,12.861-2.7,33.3,33.3,0,0,0,10.487-7.093,32.857,32.857,0,0,0,7.064-10.447,32.754,32.754,0,0,0,0-25.522A32.857,32.857,0,0,0,23.348,9.792,33.319,33.319,0,0,0,12.861,2.7,33.5,33.5,0,0,0,0,0Z" transform="translate(33 66.538) rotate(180)" fill="#5573c6"/>
    <g id="Sustracci贸n_65" data-name="Sustracci贸n 65" transform="translate(32.274 0)" fill="#fff">
      <path d="M 0.5000044703483582 65.59074401855469 L 0.5000044703483582 0.5096930265426636 C 4.675839900970459 0.6214967966079712 8.720563888549805 1.513166546821594 12.53032398223877 3.16261100769043 C 16.36350440979004 4.821701049804688 19.80301475524902 7.17556095123291 22.75336456298828 10.1588306427002 C 25.70660400390625 13.14423084259033 28.02346420288086 16.61116027832031 29.63963508605957 20.4633617401123 C 31.31366539001465 24.45244026184082 32.16245269775391 28.68737030029297 32.16245269775391 33.05055236816406 C 32.16245269775391 37.41373062133789 31.31366539001465 41.64866256713867 29.6396541595459 45.63769912719727 C 28.02346420288086 49.48992919921875 25.70660400390625 52.95685958862305 22.75341415405273 55.94222259521484 C 19.80385398864746 58.92432022094727 16.36430358886719 61.27820205688477 12.53029441833496 62.93849945068359 C 8.718628883361816 64.58824157714844 4.674026966094971 65.47969055175781 0.5000044703483582 65.59074401855469 Z" stroke="none"/>
      <path d="M 1.000004410743713 65.0732421875 C 4.928229331970215 64.90706634521484 8.735437393188477 64.03614807128906 12.33160400390625 62.47967910766602 C 16.10671424865723 60.84487915039062 19.49350357055664 58.52708053588867 22.3979434967041 55.59057998657227 C 25.30593490600586 52.65092086791992 27.58726501464844 49.23722076416016 29.17860412597656 45.44422149658203 C 30.8267650604248 41.51676940917969 31.66245460510254 37.34693908691406 31.66245460510254 33.05055236816406 C 31.66245460510254 28.7541618347168 30.8267650604248 24.58433151245117 29.17857360839844 20.65680122375488 C 27.58726501464844 16.86387062072754 25.30593490600586 13.45016098022461 22.39785385131836 10.51041126251221 C 19.49267387390137 7.572820663452148 16.10595512390137 5.255051136016846 12.33167457580566 3.621450901031494 C 8.737237930297852 2.06523585319519 4.929808616638184 1.194127202033997 1.000004410743713 1.027277112007141 L 1.000004410743713 65.0732421875 M 0.000764441501814872 66.100341796875 L 4.441528290044516e-06 66.100341796875 L 4.441528290044516e-06 8.984375199361239e-07 C 4.422484397888184 0.05164089798927307 8.70484447479248 0.9615108966827393 12.72898483276367 2.703770875930786 C 16.62096405029297 4.38831090927124 20.11346435546875 6.778410911560059 23.1088752746582 9.80724048614502 C 26.10657501220703 12.83759117126465 28.45907402038574 16.35705184936523 30.10070419311523 20.26992034912109 C 31.80043411254883 24.32026100158691 32.66245269775391 28.62047004699707 32.66245269775391 33.05055236816406 C 32.66245269775391 37.48063278198242 31.80043411254883 41.78084182739258 30.10070419311523 45.83118057250977 C 28.45907402038574 49.74404907226562 26.10657501220703 53.26350021362305 23.1088752746582 56.29384994506836 C 20.11460494995117 59.32115936279297 16.62248420715332 61.71126937866211 12.72898483276367 63.39733123779297 C 8.701814651489258 65.14034271240234 4.419454574584961 66.04945373535156 0.000764441501814872 66.100341796875 Z" stroke="none" fill="#5573c6"/>
    </g>
  </g>
  <g id="Grupo_1037061" data-name="Grupo 1037061" transform="translate(6.518 6.939)">
    <g id="Elipse_8634" data-name="Elipse 8634" transform="translate(0.482 -0.403)" fill="#5573c6" stroke="#fff" stroke-width="3">
      <ellipse cx="26" cy="26.5" rx="26" ry="26.5" stroke="none"/>
      <ellipse cx="26" cy="26.5" rx="24.5" ry="25" fill="none"/>
    </g>
    <path id="Trazado_782068" data-name="Trazado 782068" d="M175.086,207.226c4.039-4.044,7.9-7.938,11.8-11.8,1.48-1.469,3.593-1.2,4.407.515a2.432,2.432,0,0,1-.449,2.927q-6.908,6.971-13.878,13.879a2.509,2.509,0,0,1-3.768-.069q-3.351-3.261-6.614-6.613a2.622,2.622,0,1,1,3.7-3.714c1.605,1.556,3.142,3.183,4.805,4.879" transform="translate(-152.583 -177.859)" fill="#fff" stroke="#fff" stroke-width="3"/>
  </g>
</svg>
