<svg xmlns="http://www.w3.org/2000/svg" width="190" height="447.504" viewBox="0 0 190 447.504">
  <g id="Grupo_1054586" data-name="Grupo 1054586" transform="translate(-180 -22988.012)">
    <path id="Trazado_782045" data-name="Trazado 782045" d="M65.634,137.511c-.037.006-.073.009-.116.012a61.16,61.16,0,0,1-19.685-1.446,3.157,3.157,0,0,1-2.394-3.316l.606-8.277a48.984,48.984,0,0,1-12.035-6.036l-6.258,5.4a3.155,3.155,0,0,1-4.093.052A59.824,59.824,0,0,1,8.748,108.965a3.194,3.194,0,0,1,.646-4.047L15.676,99.5a49.112,49.112,0,0,1-4.233-12.772l-8.256-.606a3.159,3.159,0,0,1-2.93-2.847,59.417,59.417,0,0,1,1.45-19.721,3.136,3.136,0,0,1,3.316-2.387l8.25.606a49.61,49.61,0,0,1,6.06-12.035l-5.418-6.258a3.194,3.194,0,0,1-.049-4.1A59.685,59.685,0,0,1,28.823,26.486a3.165,3.165,0,0,1,4.041.652l5.4,6.258a48.316,48.316,0,0,1,12.793-4.215l.606-8.271a3.107,3.107,0,0,1,2.853-2.93,61.2,61.2,0,0,1,19.691,1.447A3.156,3.156,0,0,1,76.6,22.744l-.612,8.271a48.261,48.261,0,0,1,12.041,6.042l6.258-5.4a3.188,3.188,0,0,1,4.09-.052,59.7,59.7,0,0,1,12.912,14.934,3.2,3.2,0,0,1-.646,4.047l-6.279,5.4a49.7,49.7,0,0,1,4.233,12.79l8.253.609a3.149,3.149,0,0,1,2.93,2.853,60.587,60.587,0,0,1,.079,9.9,62.44,62.44,0,0,1-1.532,9.794,3.152,3.152,0,0,1-3.316,2.409l-8.25-.606a49.188,49.188,0,0,1-6.057,12.014l5.4,6.258a3.159,3.159,0,0,1,.055,4.09,59.523,59.523,0,0,1-14.943,12.921,3.165,3.165,0,0,1-4.041-.652l-5.4-6.258a49.006,49.006,0,0,1-12.8,4.209l-.606,8.277a3.152,3.152,0,0,1-2.741,2.917M31.725,115.055a1.5,1.5,0,0,1,1.075.274,46.1,46.1,0,0,0,13.284,6.66,1.508,1.508,0,0,1,1.048,1.544l-.694,9.446a45.1,45.1,0,0,0,9.4,1.626,56.975,56.975,0,0,0,9.407-.073l.828-9.6a1.5,1.5,0,0,1,1.261-1.376A46.043,46.043,0,0,0,81.451,118.9a1.5,1.5,0,0,1,1.83.353l6.17,7.147a52.983,52.983,0,0,0,14.4-12.224l-6.182-7.36a1.494,1.494,0,0,1-.079-1.861A46.285,46.285,0,0,0,104.27,91.7a1.509,1.509,0,0,1,1.541-1.045l9.419.694a.2.2,0,0,0,.174-.113,58.59,58.59,0,0,0,1.456-9.319,56.259,56.259,0,0,0-.073-9.4l-9.58-.828a1.5,1.5,0,0,1-1.373-1.258,46.647,46.647,0,0,0-4.671-14.121,1.5,1.5,0,0,1,.353-1.83l7.169-6.167a53.354,53.354,0,0,0-12.221-14.4L89.1,40.1a1.5,1.5,0,0,1-1.864.079,45.333,45.333,0,0,0-13.274-6.66,1.5,1.5,0,0,1-1.057-1.544l.694-9.449A45.22,45.22,0,0,0,64.2,20.9a57.314,57.314,0,0,0-9.407.07l-.825,9.608a1.5,1.5,0,0,1-1.27,1.376A45.351,45.351,0,0,0,38.586,36.6a1.509,1.509,0,0,1-1.83-.353L30.589,29.1A53.229,53.229,0,0,0,16.176,41.3l6.2,7.357a1.506,1.506,0,0,1,.082,1.861A46.635,46.635,0,0,0,15.768,63.8a1.5,1.5,0,0,1-1.544,1.045L4.8,64.157a45.322,45.322,0,0,0-1.647,9.4,57.046,57.046,0,0,0,.094,9.431l9.583.825a1.5,1.5,0,0,1,1.373,1.261,46.267,46.267,0,0,0,4.671,14.094A1.5,1.5,0,0,1,18.53,101l-7.172,6.191a53.357,53.357,0,0,0,12.218,14.4l7.357-6.182a1.5,1.5,0,0,1,.792-.353m32.368-8.676a29.063,29.063,0,0,1-25.961-9.748c-7.494-8.685-9.1-20.818-4.184-31.668A27.439,27.439,0,0,1,51.19,50.084c11.453-3.28,23.223.079,30.718,8.764s9.1,20.818,4.181,31.668A27.447,27.447,0,0,1,68.847,105.4a32.166,32.166,0,0,1-4.754.984m-7.775-54.3a28.775,28.775,0,0,0-4.3.889A24.4,24.4,0,0,0,36.686,66.206c-4.428,9.766-3,20.674,3.718,28.464s17.309,10.8,27.618,7.839a24.4,24.4,0,0,0,15.33-13.232c4.431-9.769,3.006-20.677-3.718-28.467a26.1,26.1,0,0,0-23.315-8.728" transform="translate(180 23297.748)" fill="#afafaf"/>
    <path id="Trazado_782046" data-name="Trazado 782046" d="M85.773,26.014A22.314,22.314,0,0,0,71.755,38.107a23.869,23.869,0,0,0,3.4,25.717A23.61,23.61,0,0,0,93.1,71.943a24.381,24.381,0,0,0,3.146-.2,25.646,25.646,0,0,0,3.855-.8,22.305,22.305,0,0,0,14.017-12.093A23.643,23.643,0,0,0,85.773,26.014m25.7,31.64A19.369,19.369,0,0,1,99.3,68.157,20.743,20.743,0,0,1,74.4,39.306,19.357,19.357,0,0,1,86.571,28.8a23.241,23.241,0,0,1,3.423-.707,21.908,21.908,0,0,1,2.777-.177,20.715,20.715,0,0,1,15.747,7.111,20.979,20.979,0,0,1,2.954,22.626m29.746-13.622a2.774,2.774,0,0,0-2.579-2.512l-6.447-.475a40.4,40.4,0,0,0-3.307-9.992l4.906-4.221a2.816,2.816,0,0,0,.569-3.563A48.306,48.306,0,0,0,123.927,11.2a2.811,2.811,0,0,0-3.6.046l-4.888,4.218a39.413,39.413,0,0,0-9.407-4.72l.478-6.459a2.781,2.781,0,0,0-2.11-2.92A49.419,49.419,0,0,0,88.5.2a2.755,2.755,0,0,0-2.521,2.579L85.5,9.24a39.236,39.236,0,0,0-9.995,3.289L71.289,7.642a2.785,2.785,0,0,0-3.557-.573A48.359,48.359,0,0,0,55.649,17.481a2.816,2.816,0,0,0,.043,3.612l4.233,4.891a40.115,40.115,0,0,0-4.735,9.4l-6.444-.475a2.779,2.779,0,0,0-2.92,2.1,48.007,48.007,0,0,0-1.169,15.936,2.778,2.778,0,0,0,2.579,2.506l6.447.475a39.919,39.919,0,0,0,3.307,9.976l-4.906,4.236a2.812,2.812,0,0,0-.569,3.563,48.385,48.385,0,0,0,10.43,12.068,2.781,2.781,0,0,0,3.606-.046l4.888-4.221a39.777,39.777,0,0,0,9.4,4.717l-.475,6.465a2.778,2.778,0,0,0,2.11,2.92,48.719,48.719,0,0,0,7.906,1.23q1.832.137,3.657.137c1.468,0,2.93-.067,4.376-.2l.07-.009A2.8,2.8,0,0,0,99.9,94.2l.475-6.465a39.87,39.87,0,0,0,9.992-3.289l4.221,4.888a2.776,2.776,0,0,0,3.557.573,48.027,48.027,0,0,0,12.075-10.439,2.78,2.78,0,0,0-.046-3.6l-4.221-4.891a39.94,39.94,0,0,0,4.732-9.386l6.447.475a2.789,2.789,0,0,0,2.917-2.123,50.239,50.239,0,0,0,1.236-7.912,48.641,48.641,0,0,0-.064-8m-2.832,7.787a47.181,47.181,0,0,1-1.139,7.348l-7.482-.551a1.438,1.438,0,0,0-1.489,1.011,37.038,37.038,0,0,1-5.335,10.588,1.443,1.443,0,0,0,.07,1.8l4.839,5.762a42.494,42.494,0,0,1-11.2,9.513l-4.827-5.594a1.445,1.445,0,0,0-1.769-.338,36.819,36.819,0,0,1-11.277,3.712,1.448,1.448,0,0,0-1.218,1.322l-.646,7.522a46.58,46.58,0,0,1-7.321.04,36.068,36.068,0,0,1-7.318-1.246l.545-7.4A1.447,1.447,0,0,0,81.8,83.819,36.861,36.861,0,0,1,71.2,78.5a1.456,1.456,0,0,0-1.8.073L63.64,83.411a42.746,42.746,0,0,1-9.51-11.2l5.616-4.845a1.441,1.441,0,0,0,.335-1.769,36.941,36.941,0,0,1-3.73-11.255,1.439,1.439,0,0,0-1.325-1.215l-7.5-.649a45.422,45.422,0,0,1-.055-7.339,35.865,35.865,0,0,1,1.258-7.318l7.379.539a.718.718,0,0,0,.116.006,1.441,1.441,0,0,0,1.373-1.014,37.225,37.225,0,0,1,5.344-10.61,1.451,1.451,0,0,0-.076-1.8l-4.857-5.759a42.8,42.8,0,0,1,11.219-9.5l4.827,5.594a1.453,1.453,0,0,0,1.769.338,36.265,36.265,0,0,1,11.268-3.709,1.448,1.448,0,0,0,1.227-1.325l.646-7.522a45.847,45.847,0,0,1,7.321-.037A36.291,36.291,0,0,1,103.6,4.267l-.545,7.4a1.449,1.449,0,0,0,1.017,1.489,36.233,36.233,0,0,1,10.6,5.317,1.448,1.448,0,0,0,1.8-.073l5.762-4.839a42.676,42.676,0,0,1,9.507,11.2l-5.606,4.824a1.444,1.444,0,0,0-.341,1.766,37.221,37.221,0,0,1,3.73,11.28,1.444,1.444,0,0,0,1.325,1.215l7.5.649a45.092,45.092,0,0,1,.04,7.318" transform="translate(228.584 22988.012)" fill="#afafaf"/>
  </g>
</svg>
