<svg id="Grupo_1054467" data-name="Grupo 1054467" xmlns="http://www.w3.org/2000/svg" xmlns:xlink="http://www.w3.org/1999/xlink" width="610" height="386.17" viewBox="0 0 610 386.17">
  <defs>
    <clipPath id="clip-path">
      <rect id="Rectángulo_402882" data-name="Rectángulo 402882" width="610" height="386.17" fill="none"/>
    </clipPath>
  </defs>
  <g id="Grupo_1054466" data-name="Grupo 1054466" clip-path="url(#clip-path)">
    <path id="Trazado_872873" data-name="Trazado 872873" d="M439.532,42.63a10.309,10.309,0,0,0,.994-5.285,10.092,10.092,0,0,0-1.015-4.826h.869a8.762,8.762,0,0,1,1.529,5.255,7.839,7.839,0,0,1-1.529,4.856Z" fill="#1d1d1b"/>
    <path id="Trazado_872874" data-name="Trazado 872874" d="M434.066,40.557a11.178,11.178,0,0,1,.126-1.329,4.7,4.7,0,0,1,1.381-2.208l.711-.754a1.873,1.873,0,0,0,.724-1.507c0-.712-.283-.931-.7-.931a.646.646,0,0,0-.68.386,3.021,3.021,0,0,0-.114,1.109h-1.372V35.1c0-.69-.032-2.449,2.23-2.428a1.953,1.953,0,0,1,2.1,2.03,2.9,2.9,0,0,1-.931,2.146l-1.151,1.193a2.3,2.3,0,0,0-.765,1.361h2.733v1.151Z" fill="#1d1d1b"/>
    <path id="Trazado_872875" data-name="Trazado 872875" d="M433.165,32.519a10.317,10.317,0,0,0-.994,5.285,10.105,10.105,0,0,0,1.016,4.826h-.87a8.775,8.775,0,0,1-1.528-5.255,7.851,7.851,0,0,1,1.528-4.856Z" fill="#1d1d1b"/>
    <path id="Trazado_872876" data-name="Trazado 872876" d="M429.973,40.578c-.806.094-1.937.167-1.937-.931v-4h-.554v-.994h.544V33.032h1.37v1.622h.577v.994H429.4v3.664c.033.251.41.22.577.2Z" fill="#1d1d1b"/>
    <path id="Trazado_872877" data-name="Trazado 872877" d="M427.062,40.578c-.806.094-1.937.167-1.937-.931v-4h-.554v-.994h.544V33.032h1.37v1.622h.577v.994h-.577v3.664c.033.251.41.22.577.2Z" fill="#1d1d1b"/>
    <path id="Trazado_872878" data-name="Trazado 872878" d="M422.289,32.707h1.36v1.235h-1.36Zm0,1.947h1.36v5.9h-1.36Z" fill="#1d1d1b"/>
    <path id="Trazado_872879" data-name="Trazado 872879" d="M419.722,36.706v-.659c-.021-.325-.178-.5-.471-.5-.523,0-.523.6-.513,1.319v1.392c-.031,1.151.1,1.361.513,1.413.419-.011.43-.4.471-.869v-.544h1.36V38.8c0,1.235-.512,1.916-1.862,1.916-1.2,0-1.894-.639-1.842-2.209V36.591c-.011-1.654.806-2.093,1.842-2.093a1.648,1.648,0,0,1,1.862,1.737v.471Z" fill="#1d1d1b"/>
    <path id="Trazado_872880" data-name="Trazado 872880" d="M415.074,36.706v-.659c-.021-.325-.178-.5-.471-.5-.523,0-.523.6-.513,1.319v1.392c-.031,1.151.105,1.361.513,1.413.419-.011.43-.4.471-.869v-.544h1.36V38.8c0,1.235-.512,1.916-1.862,1.916-1.2,0-1.894-.639-1.842-2.209V36.591c-.011-1.654.806-2.093,1.842-2.093a1.648,1.648,0,0,1,1.862,1.737v.471Z" fill="#1d1d1b"/>
    <rect id="Rectángulo_402874" data-name="Rectángulo 402874" width="2.491" height="1.203" transform="translate(409.232 36.685)" fill="#1d1d1b"/>
    <path id="Trazado_872881" data-name="Trazado 872881" d="M404.05,37.814c.01-2.019.032-3.317,2.083-3.317,2.02,0,2.031,1.3,2.041,3.317.01,2.052-.283,2.931-2.041,2.9-1.79.031-2.094-.848-2.083-2.9m1.36.817c0,.723.064,1.036.723,1.036.629,0,.681-.313.681-1.036V36.663c0-.554,0-1.12-.681-1.12-.723,0-.723.566-.723,1.12Z" fill="#1d1d1b"/>
    <path id="Trazado_872882" data-name="Trazado 872882" d="M400.511,38.611c-.1,1.089.314,1.057.628,1.057a.526.526,0,0,0,.565-.66c-.021-.335-.407-.523-.67-.7l-.742-.513a2.173,2.173,0,0,1-1.121-1.862c0-.911.722-1.434,2.031-1.434a1.681,1.681,0,0,1,1.893,1.957h-1.36c.031-.66-.157-.911-.628-.911-.323,0-.575.147-.575.482s.252.5.512.68l1.111.754a2.1,2.1,0,0,1,.93,1.161c.116,1.026-.135,2.094-2.02,2.094a1.765,1.765,0,0,1-1.914-2.1Z" fill="#1d1d1b"/>
    <path id="Trazado_872883" data-name="Trazado 872883" d="M396.711,32.707h1.36v1.235h-1.36Zm0,1.947h1.36v5.9h-1.36Z" fill="#1d1d1b"/>
    <rect id="Rectángulo_402875" data-name="Rectángulo 402875" width="2.491" height="1.203" transform="translate(392.952 36.685)" fill="#1d1d1b"/>
    <path id="Trazado_872884" data-name="Trazado 872884" d="M392.177,40.578c-.806.094-1.937.167-1.937-.931v-4h-.554v-.994h.544V33.032h1.37v1.622h.577v.994H391.6v3.664c.031.251.41.22.577.2Z" fill="#1d1d1b"/>
    <path id="Trazado_872885" data-name="Trazado 872885" d="M386.3,35.262h.021a1.269,1.269,0,0,1,1.224-.764,1.288,1.288,0,0,1,1.362,1.507v4.553h-1.362V36.622c0-.575-.062-.952-.575-.973s-.691.461-.67,1.088v3.821h-1.36v-5.9h1.36Z" fill="#1d1d1b"/>
    <path id="Trazado_872886" data-name="Trazado 872886" d="M382.169,32.707h1.36v1.235h-1.36Zm0,1.947h1.36v5.9h-1.36Z" fill="#1d1d1b"/>
    <path id="Trazado_872887" data-name="Trazado 872887" d="M376.714,37.814c.01-2.019.032-3.317,2.083-3.317,2.02,0,2.031,1.3,2.041,3.317.01,2.052-.283,2.931-2.041,2.9-1.79.031-2.094-.848-2.083-2.9m1.36.817c0,.723.064,1.036.723,1.036.629,0,.681-.313.681-1.036V36.663c0-.554,0-1.12-.681-1.12-.723,0-.723.566-.723,1.12Z" fill="#1d1d1b"/>
    <path id="Trazado_872888" data-name="Trazado 872888" d="M373.574,41.5c.314.021.5-.021.5-.314V34.654h1.361v5.934c0,.618.115,1.55-.555,1.864a3.121,3.121,0,0,1-1.308.094Zm.5-8.792h1.36v1.235h-1.36Z" fill="#1d1d1b"/>
    <path id="Trazado_872889" data-name="Trazado 872889" d="M242.088,42.63a10.309,10.309,0,0,0,.994-5.285,10.093,10.093,0,0,0-1.016-4.826h.87a8.767,8.767,0,0,1,1.527,5.255,7.844,7.844,0,0,1-1.527,4.856Z" fill="#1d1d1b"/>
    <path id="Trazado_872890" data-name="Trazado 872890" d="M236.791,34.927c0-1.664.8-2.25,2.125-2.25s2.114.586,2.114,2.25v3.527c0,1.664-.795,2.261-2.125,2.261s-2.114-.6-2.114-2.261Zm1.466,3.527c-.042.879.262,1.109.638,1.109s.712-.23.67-1.109V34.927c.042-.869-.283-1.1-.67-1.1s-.68.23-.638,1.1Z" fill="#1d1d1b"/>
    <path id="Trazado_872891" data-name="Trazado 872891" d="M235.722,32.519a10.307,10.307,0,0,0-.994,5.285,10.1,10.1,0,0,0,1.015,4.826h-.869a8.761,8.761,0,0,1-1.528-5.255,7.845,7.845,0,0,1,1.528-4.856Z" fill="#1d1d1b"/>
    <path id="Trazado_872892" data-name="Trazado 872892" d="M232.529,40.578c-.806.094-1.937.167-1.937-.931v-4h-.554v-.994h.544V33.032h1.371v1.622h.576v.994h-.576v3.664c.031.251.408.22.576.2Z" fill="#1d1d1b"/>
    <path id="Trazado_872893" data-name="Trazado 872893" d="M229.618,40.578c-.8.094-1.936.167-1.936-.931v-4h-.554v-.994h.544V33.032h1.371v1.622h.575v.994h-.575v3.664c.031.251.408.22.575.2Z" fill="#1d1d1b"/>
    <path id="Trazado_872894" data-name="Trazado 872894" d="M224.844,32.707h1.36v1.235h-1.36Zm0,1.947h1.36v5.9h-1.36Z" fill="#1d1d1b"/>
    <path id="Trazado_872895" data-name="Trazado 872895" d="M222.279,36.706v-.659c-.021-.325-.178-.5-.471-.5-.523,0-.523.6-.513,1.319v1.392c-.031,1.151.1,1.361.513,1.413.419-.011.43-.4.471-.869v-.544h1.36V38.8c0,1.235-.512,1.916-1.862,1.916-1.2,0-1.894-.639-1.842-2.209V36.591c-.011-1.654.806-2.093,1.842-2.093a1.648,1.648,0,0,1,1.862,1.737v.471Z" fill="#1d1d1b"/>
    <path id="Trazado_872896" data-name="Trazado 872896" d="M217.63,36.706v-.659c-.021-.325-.178-.5-.471-.5-.523,0-.523.6-.513,1.319v1.392c-.031,1.151.105,1.361.513,1.413.419-.011.43-.4.471-.869v-.544h1.36V38.8c0,1.235-.512,1.916-1.862,1.916-1.2,0-1.894-.639-1.842-2.209V36.591c-.011-1.654.806-2.093,1.842-2.093a1.648,1.648,0,0,1,1.862,1.737v.471Z" fill="#1d1d1b"/>
    <path id="Trazado_872897" data-name="Trazado 872897" d="M324.194,20.792h1.36v1.235h-1.36Zm0,1.946h1.36v5.9h-1.36Z" fill="#1d1d1b"/>
    <path id="Trazado_872898" data-name="Trazado 872898" d="M327.994,26.695c-.1,1.088.314,1.057.628,1.057a.526.526,0,0,0,.565-.66c-.021-.335-.408-.523-.67-.7l-.742-.513a2.173,2.173,0,0,1-1.121-1.862c0-.911.722-1.434,2.031-1.434a1.681,1.681,0,0,1,1.893,1.957h-1.36c.031-.66-.157-.911-.627-.911-.324,0-.576.147-.576.482s.252.5.512.68l1.111.753a2.109,2.109,0,0,1,.93,1.162c.116,1.026-.136,2.094-2.02,2.094a1.765,1.765,0,0,1-1.914-2.1Z" fill="#1d1d1b"/>
    <path id="Trazado_872899" data-name="Trazado 872899" d="M331.532,25.9c.01-2.019.032-3.317,2.083-3.317,2.02,0,2.031,1.3,2.041,3.317.01,2.052-.283,2.931-2.041,2.9-1.79.031-2.094-.848-2.083-2.9m1.36.817c0,.722.064,1.036.723,1.036.629,0,.681-.314.681-1.036V24.748c0-.554,0-1.12-.681-1.12-.723,0-.723.566-.723,1.12Z" fill="#1d1d1b"/>
    <path id="Trazado_872900" data-name="Trazado 872900" d="M339.133,20.6a10.3,10.3,0,0,0-.995,5.285,10.105,10.105,0,0,0,1.016,4.826h-.87a8.778,8.778,0,0,1-1.526-5.255,7.849,7.849,0,0,1,1.526-4.856Z" fill="#1d1d1b"/>
    <path id="Trazado_872901" data-name="Trazado 872901" d="M341.928,23.2H340.16V22.153c1.015-.011,1.863-.283,2.156-1.361h1.078v7.849h-1.466Z" fill="#1d1d1b"/>
    <path id="Trazado_872902" data-name="Trazado 872902" d="M345.5,30.714a10.309,10.309,0,0,0,.994-5.285,10.092,10.092,0,0,0-1.015-4.826h.869a8.76,8.76,0,0,1,1.529,5.255,7.839,7.839,0,0,1-1.529,4.856Z" fill="#1d1d1b"/>
    <path id="Trazado_872903" data-name="Trazado 872903" d="M323.974,56.695c.01-2.019.032-3.317,2.083-3.317,2.02,0,2.031,1.3,2.041,3.317.01,2.052-.283,2.931-2.041,2.9-1.79.031-2.094-.848-2.083-2.9m1.36.817c0,.723.064,1.036.723,1.036.629,0,.681-.313.681-1.036V55.545c0-.555,0-1.121-.681-1.121-.723,0-.723.566-.723,1.121Z" fill="#1d1d1b"/>
    <path id="Trazado_872904" data-name="Trazado 872904" d="M330.59,54.581h.021a1.953,1.953,0,0,1,.533-.837,1.166,1.166,0,0,1,.848-.314v1.612c-.755-.073-1.329.115-1.35.983v3.412h-1.361v-5.9h1.309Z" fill="#1d1d1b"/>
    <path id="Trazado_872905" data-name="Trazado 872905" d="M334.119,60.1a.282.282,0,0,0,.157.261.822.822,0,0,0,.418.084c.576,0,.68-.461.68-.921v-.68l-.021-.021a1.274,1.274,0,0,1-1.245.775c-1.151,0-1.381-1.036-1.413-1.979V55.481c.032-1.622.533-2.082,1.413-2.1a1.085,1.085,0,0,1,1.183.764h.021v-.607h1.36V59.26c0,1.2-.335,2.166-2.2,2.166-.9,0-1.643-.335-1.716-1.329Zm.554-5.673c-.639,0-.575.555-.618,1.141v1.967c.033.566.178,1.015.6,1.015.44,0,.66-.366.66-1.046V55.733c.02-.472,0-1.309-.639-1.309" fill="#1d1d1b"/>
    <path id="Trazado_872906" data-name="Trazado 872906" d="M340.294,51.4a10.319,10.319,0,0,0-.993,5.285,10.1,10.1,0,0,0,1.015,4.826h-.87a8.773,8.773,0,0,1-1.528-5.255,7.851,7.851,0,0,1,1.528-4.856Z" fill="#1d1d1b"/>
    <path id="Trazado_872907" data-name="Trazado 872907" d="M342.651,54.665a2.722,2.722,0,0,0,.92-.115.93.93,0,0,0,.451-.963c0-.6-.22-.879-.7-.879a.618.618,0,0,0-.7.617v.555h-1.373c-.082-1.455.567-2.323,2.063-2.323a1.857,1.857,0,0,1,2.134,2.02c0,.68-.26,1.507-1.025,1.621v.022c.69.084,1.2.7,1.182,1.9,0,1.539-.669,2.471-2.28,2.471a1.973,1.973,0,0,1-2.167-2.3v-.46h1.371c.031.649-.1,1.611.827,1.611.806,0,.785-.753.785-1.486a1.494,1.494,0,0,0-.167-.827c-.273-.324-.912-.313-1.319-.313Z" fill="#1d1d1b"/>
    <path id="Trazado_872908" data-name="Trazado 872908" d="M346.661,61.51a10.307,10.307,0,0,0,.994-5.285A10.093,10.093,0,0,0,346.64,51.4h.869a8.76,8.76,0,0,1,1.529,5.255,7.841,7.841,0,0,1-1.529,4.856Z" fill="#1d1d1b"/>
    <path id="Trazado_872909" data-name="Trazado 872909" d="M326.9,85.4h-.021a1.183,1.183,0,0,1-1.172.785c-1.151,0-1.391-1.047-1.424-1.989V82.063c.033-1.622.545-2.072,1.424-2.093a1.169,1.169,0,0,1,1.214.754h.02a2.985,2.985,0,0,1-.041-.524V78.18h1.36v7.85H326.9Zm0-3.077c.021-.471,0-1.309-.639-1.309s-.575.555-.618,1.142v1.967c.033.565.178,1.015.6,1.015.44,0,.659-.366.659-1.046Z" fill="#1d1d1b"/>
    <path id="Trazado_872910" data-name="Trazado 872910" d="M329.515,83.287c.01-2.019.032-3.317,2.083-3.317,2.02,0,2.031,1.3,2.041,3.317.01,2.052-.283,2.931-2.041,2.9-1.79.031-2.094-.848-2.083-2.9m1.36.817c0,.723.064,1.036.723,1.036.629,0,.681-.313.681-1.036V82.136c0-.554,0-1.12-.681-1.12-.723,0-.723.566-.723,1.12Z" fill="#1d1d1b"/>
    <path id="Trazado_872911" data-name="Trazado 872911" d="M337.368,85.4h-.021a1.183,1.183,0,0,1-1.172.785c-1.151,0-1.393-1.047-1.424-1.989V82.063c.031-1.622.545-2.072,1.424-2.093a1.169,1.169,0,0,1,1.214.754h.02a2.985,2.985,0,0,1-.041-.524V78.18h1.36v7.85h-1.36Zm0-3.077c.021-.471,0-1.309-.639-1.309s-.575.555-.618,1.142v1.967c.033.565.18,1.015.6,1.015.44,0,.659-.366.659-1.046Z" fill="#1d1d1b"/>
    <path id="Trazado_872912" data-name="Trazado 872912" d="M342.35,77.992a10.317,10.317,0,0,0-.994,5.285,10.105,10.105,0,0,0,1.016,4.826h-.87a8.775,8.775,0,0,1-1.528-5.255,7.851,7.851,0,0,1,1.528-4.856Z" fill="#1d1d1b"/>
    <path id="Trazado_872913" data-name="Trazado 872913" d="M343.357,81.321c0-2.5.721-3.172,2.27-3.172,1.151,0,1.978.524,1.937,1.769H346.2c-.01-.261-.032-.659-.628-.617-.827.062-.754.993-.775,1.465v.5a1.342,1.342,0,0,1,1.151-.523c1.247,0,1.77.848,1.77,2.459,0,1.968-.471,2.983-2.167,2.983-1.749,0-2.22-1.141-2.2-2.983Zm2.218,3.715c.763-.01.68-.723.68-1.727,0-.565.073-1.412-.711-1.412-.723,0-.723.763-.723,1.412-.011.973-.031,1.8.754,1.727" fill="#1d1d1b"/>
    <path id="Trazado_872914" data-name="Trazado 872914" d="M348.716,88.1a10.309,10.309,0,0,0,.994-5.285,10.093,10.093,0,0,0-1.015-4.826h.869a8.76,8.76,0,0,1,1.529,5.255,7.839,7.839,0,0,1-1.529,4.856Z" fill="#1d1d1b"/>
    <path id="Trazado_872915" data-name="Trazado 872915" d="M325.5,98.145h1.36V99.38H325.5Zm0,1.947h1.36v5.9H325.5Z" fill="#1d1d1b"/>
    <path id="Trazado_872916" data-name="Trazado 872916" d="M329.638,100.7h.021a1.268,1.268,0,0,1,1.224-.764,1.288,1.288,0,0,1,1.362,1.507V106h-1.362v-3.936c0-.575-.063-.952-.576-.973s-.691.461-.669,1.088V106h-1.361v-5.9h1.361Z" fill="#1d1d1b"/>
    <path id="Trazado_872917" data-name="Trazado 872917" d="M335.511,106.016c-.806.094-1.937.167-1.937-.931v-4h-.554v-.993h.544V98.47h1.37v1.623h.577v.993h-.577v3.664c.031.251.41.22.577.2Z" fill="#1d1d1b"/>
    <path id="Trazado_872918" data-name="Trazado 872918" d="M336.337,102.123a1.846,1.846,0,0,1,1.989-2.187c1.894,0,2.094.983,2.094,2.6v.795H337.7v.858c.012.775.3.921.713.921.5,0,.649-.366.627-1.109H340.4c.051,1.319-.492,2.156-1.886,2.156-1.569,0-2.208-.743-2.177-2.481Zm2.723.157v-.513c-.01-.6-.167-.785-.713-.785-.68,0-.649.523-.649,1.057v.241Z" fill="#1d1d1b"/>
    <path id="Trazado_872919" data-name="Trazado 872919" d="M342.955,101.138h.021a1.953,1.953,0,0,1,.533-.837,1.166,1.166,0,0,1,.848-.314V101.6c-.755-.073-1.329.115-1.35.983v3.412h-1.361v-5.9h1.309Z" fill="#1d1d1b"/>
    <path id="Trazado_872920" data-name="Trazado 872920" d="M346.5,100.7h.021a1.269,1.269,0,0,1,1.224-.764,1.288,1.288,0,0,1,1.362,1.507V106h-1.362v-3.936c0-.575-.062-.952-.575-.973s-.691.461-.67,1.088V106h-1.36v-5.9h1.36Z" fill="#1d1d1b"/>
    <path id="Trazado_872921" data-name="Trazado 872921" d="M350.293,102.123a1.846,1.846,0,0,1,1.989-2.187c1.894,0,2.094.983,2.094,2.6v.795h-2.722v.858c.012.775.3.921.713.921.5,0,.649-.366.627-1.109h1.362c.051,1.319-.492,2.156-1.886,2.156-1.569,0-2.208-.743-2.177-2.481Zm2.723.157v-.513c-.01-.6-.167-.785-.713-.785-.68,0-.649.523-.649,1.057v.241Z" fill="#1d1d1b"/>
    <path id="Trazado_872922" data-name="Trazado 872922" d="M357.612,106.016c-.806.094-1.937.167-1.937-.931v-4h-.554v-.993h.544V98.47h1.37v1.623h.577v.993h-.577v3.664c.031.251.41.22.577.2Z" fill="#1d1d1b"/>
    <path id="Trazado_872923" data-name="Trazado 872923" d="M360.8,97.957a10.32,10.32,0,0,0-.993,5.285,10.1,10.1,0,0,0,1.015,4.826h-.87a8.772,8.772,0,0,1-1.527-5.255,7.85,7.85,0,0,1,1.527-4.856Z" fill="#1d1d1b"/>
    <path id="Trazado_872924" data-name="Trazado 872924" d="M363.6,100.552h-1.768V99.5c1.015-.01,1.863-.282,2.156-1.36h1.078v7.849H363.6Z" fill="#1d1d1b"/>
    <path id="Trazado_872925" data-name="Trazado 872925" d="M367.171,108.067a10.306,10.306,0,0,0,.994-5.285,10.092,10.092,0,0,0-1.015-4.826h.869a8.76,8.76,0,0,1,1.529,5.255,7.841,7.841,0,0,1-1.529,4.856Z" fill="#1d1d1b"/>
    <line id="Línea_4679" data-name="Línea 4679" y1="24.652" transform="translate(317.753 2.355)" fill="none" stroke="#1d1d1b" stroke-miterlimit="3.864" stroke-width="0.884"/>
    <path id="Trazado_872926" data-name="Trazado 872926" d="M315.4,2.355a2.355,2.355,0,1,1,2.355,2.357A2.355,2.355,0,0,1,315.4,2.355" fill="#1d1d1b"/>
    <path id="Trazado_872927" data-name="Trazado 872927" d="M315.4,27.007a2.355,2.355,0,1,1,2.355,2.357,2.355,2.355,0,0,1-2.355-2.357" fill="#1d1d1b"/>
    <line id="Línea_4680" data-name="Línea 4680" y1="29.696" transform="translate(317.753 27.035)" fill="none" stroke="#1d1d1b" stroke-miterlimit="3.864" stroke-width="0.884"/>
    <path id="Trazado_872928" data-name="Trazado 872928" d="M315.4,56.731a2.355,2.355,0,1,1,2.355,2.357,2.356,2.356,0,0,1-2.355-2.357" fill="#1d1d1b"/>
    <line id="Línea_4681" data-name="Línea 4681" y1="24.652" x2="87.839" transform="translate(229.914 2.355)" fill="none" stroke="#1d1d1b" stroke-miterlimit="3.864" stroke-width="0.884"/>
    <path id="Trazado_872929" data-name="Trazado 872929" d="M227.557,27.007a2.356,2.356,0,1,1,2.357,2.357,2.356,2.356,0,0,1-2.357-2.357" fill="#1d1d1b"/>
    <line id="Línea_4682" data-name="Línea 4682" x1="90.109" y1="24.652" transform="translate(317.753 2.355)" fill="none" stroke="#1d1d1b" stroke-miterlimit="3.864" stroke-width="0.884"/>
    <path id="Trazado_872930" data-name="Trazado 872930" d="M405.505,27.007a2.355,2.355,0,1,1,2.356,2.357,2.355,2.355,0,0,1-2.356-2.357" fill="#1d1d1b"/>
    <line id="Línea_4683" data-name="Línea 4683" y1="26.675" transform="translate(317.753 56.808)" fill="none" stroke="#1d1d1b" stroke-miterlimit="3.864" stroke-width="0.884"/>
    <path id="Trazado_872931" data-name="Trazado 872931" d="M315.4,83.483a2.355,2.355,0,1,1,2.355,2.357,2.356,2.356,0,0,1-2.355-2.357" fill="#1d1d1b"/>
    <path id="Trazado_872932" data-name="Trazado 872932" d="M261.478,145.173l56.275-37.74m0-23.95v23.95" fill="none" stroke="#1d1d1b" stroke-miterlimit="3.864" stroke-width="0.884"/>
    <path id="Trazado_872933" data-name="Trazado 872933" d="M315.4,107.433a2.355,2.355,0,1,1,2.355,2.355,2.355,2.355,0,0,1-2.355-2.355" fill="#1d1d1b"/>
    <path id="Trazado_872934" data-name="Trazado 872934" d="M259.121,145.827a2.355,2.355,0,1,1,2.357,2.355,2.357,2.357,0,0,1-2.357-2.355" fill="#1d1d1b"/>
    <line id="Línea_4684" data-name="Línea 4684" y1="37.739" x2="163.792" transform="translate(153.961 107.434)" fill="none" stroke="#1d1d1b" stroke-miterlimit="3.864" stroke-width="0.884"/>
    <path id="Trazado_872935" data-name="Trazado 872935" d="M151.607,145.827a2.355,2.355,0,1,1,2.355,2.355,2.356,2.356,0,0,1-2.355-2.355" fill="#1d1d1b"/>
    <line id="Línea_4685" data-name="Línea 4685" x1="168.17" y1="38.393" transform="translate(317.753 107.434)" fill="none" stroke="#1d1d1b" stroke-miterlimit="3.864" stroke-width="0.884"/>
    <path id="Trazado_872936" data-name="Trazado 872936" d="M483.567,145.827a2.356,2.356,0,1,1,2.357,2.355,2.357,2.357,0,0,1-2.357-2.355" fill="#1d1d1b"/>
    <path id="Trazado_872937" data-name="Trazado 872937" d="M132.017,158.369H132a1.181,1.181,0,0,1-1.172.786c-1.151,0-1.392-1.047-1.423-1.989v-2.135c.031-1.622.543-2.072,1.423-2.093a1.17,1.17,0,0,1,1.214.754h.02a2.992,2.992,0,0,1-.041-.524v-2.02h1.36V159h-1.36Zm0-3.076c.021-.471,0-1.309-.639-1.309s-.576.555-.617,1.142v1.967c.031.565.178,1.015.6,1.015.439,0,.659-.366.659-1.046Z" fill="#1d1d1b"/>
    <path id="Trazado_872938" data-name="Trazado 872938" d="M134.855,151.148h1.36v1.235h-1.36Zm0,1.948h1.36V159h-1.36Z" fill="#1d1d1b"/>
    <path id="Trazado_872939" data-name="Trazado 872939" d="M138.927,154.142h.021a1.944,1.944,0,0,1,.534-.837,1.173,1.173,0,0,1,.848-.315V154.6c-.754-.073-1.33.115-1.35.983V159h-1.361v-5.9h1.308Z" fill="#1d1d1b"/>
    <path id="Trazado_872940" data-name="Trazado 872940" d="M141.032,155.126a1.844,1.844,0,0,1,1.988-2.187c1.895,0,2.093.983,2.093,2.6v.795h-2.72v.858c.01.775.3.921.711.921.5,0,.649-.366.628-1.109h1.361c.052,1.319-.492,2.156-1.884,2.156-1.57,0-2.209-.743-2.177-2.481Zm2.721.157v-.513c-.01-.6-.167-.785-.711-.785-.68,0-.649.523-.649,1.057v.241Z" fill="#1d1d1b"/>
    <path id="Trazado_872941" data-name="Trazado 872941" d="M148.569,155.147v-.659c-.021-.325-.178-.5-.471-.5-.523,0-.523.6-.513,1.319V156.7c-.031,1.151.1,1.361.513,1.413.419-.011.43-.4.471-.869V156.7h1.36v.544c0,1.235-.512,1.916-1.862,1.916-1.2,0-1.894-.639-1.842-2.208v-1.916c-.011-1.654.806-2.093,1.842-2.093a1.648,1.648,0,0,1,1.862,1.737v.471Z" fill="#1d1d1b"/>
    <path id="Trazado_872942" data-name="Trazado 872942" d="M153,159.019c-.805.094-1.936.167-1.936-.931v-4h-.554V153.1h.543v-1.623h1.372V153.1H153v.993h-.575v3.664c.031.251.408.22.575.2Z" fill="#1d1d1b"/>
    <path id="Trazado_872943" data-name="Trazado 872943" d="M153.827,156.255c.01-2.019.031-3.317,2.082-3.317,2.02,0,2.031,1.3,2.041,3.317.01,2.052-.282,2.931-2.041,2.9-1.79.031-2.093-.848-2.082-2.9m1.36.817c0,.722.063,1.036.722,1.036.628,0,.681-.314.681-1.036V155.1c0-.555,0-1.121-.681-1.121-.722,0-.722.566-.722,1.121Z" fill="#1d1d1b"/>
    <path id="Trazado_872944" data-name="Trazado 872944" d="M160.442,154.142h.021A1.944,1.944,0,0,1,161,153.3a1.172,1.172,0,0,1,.848-.315V154.6c-.754-.073-1.33.115-1.35.983V159h-1.362v-5.9h1.309Z" fill="#1d1d1b"/>
    <path id="Trazado_872945" data-name="Trazado 872945" d="M163.667,153.1l.6,3.129c.1.523.147,1.046.2,1.57h.021a14.965,14.965,0,0,1,.209-1.528l.6-3.171h1.382l-1.434,5.986c-.346,1.34-.377,2.177-2.261,1.9V159.93c.22,0,.806.115.806-.262a3.882,3.882,0,0,0-.125-.753l-1.424-5.819Z" fill="#1d1d1b"/>
    <path id="Trazado_872946" data-name="Trazado 872946" d="M169.749,150.96a10.307,10.307,0,0,0-.994,5.285,10.1,10.1,0,0,0,1.015,4.826H168.9a8.761,8.761,0,0,1-1.528-5.255,7.844,7.844,0,0,1,1.528-4.856Z" fill="#1d1d1b"/>
    <path id="Trazado_872947" data-name="Trazado 872947" d="M172.544,153.556h-1.769v-1.047c1.015-.01,1.863-.282,2.156-1.36h1.078V159h-1.465Z" fill="#1d1d1b"/>
    <path id="Trazado_872948" data-name="Trazado 872948" d="M176.116,161.071a10.307,10.307,0,0,0,.994-5.285,10.1,10.1,0,0,0-1.015-4.826h.869a8.768,8.768,0,0,1,1.528,5.255,7.846,7.846,0,0,1-1.528,4.856Z" fill="#1d1d1b"/>
    <path id="Trazado_872949" data-name="Trazado 872949" d="M245.173,153.7h.021a1.342,1.342,0,0,1,1.3-.764c.5-.01,1.172.209,1.256.764h.021a1.374,1.374,0,0,1,1.361-.764,1.276,1.276,0,0,1,1.444,1.256V159h-1.36V155.01c0-.534-.053-1.057-.65-1.026s-.69.44-.69,1.131V159h-1.361v-4.061c0-.524-.042-.963-.67-.953s-.669.482-.669,1.131V159h-1.36v-5.9h1.36Z" fill="#1d1d1b"/>
    <path id="Trazado_872950" data-name="Trazado 872950" d="M253.245,159.658a.282.282,0,0,0,.157.261.823.823,0,0,0,.418.084c.575,0,.681-.461.681-.921v-.68l-.022-.021a1.275,1.275,0,0,1-1.245.775c-1.151,0-1.382-1.036-1.413-1.979v-2.135c.031-1.622.534-2.082,1.413-2.1a1.085,1.085,0,0,1,1.183.764h.021V153.1h1.36v5.725c0,1.2-.335,2.166-2.2,2.166-.9,0-1.643-.335-1.716-1.329Zm.554-5.673c-.638,0-.576.555-.617,1.141v1.967c.031.566.178,1.015.6,1.015.44,0,.66-.366.66-1.046v-1.768c.02-.472,0-1.309-.639-1.309" fill="#1d1d1b"/>
    <path id="Trazado_872951" data-name="Trazado 872951" d="M258.554,153.7h.021a1.342,1.342,0,0,1,1.3-.764c.5-.01,1.172.209,1.256.764h.021a1.374,1.374,0,0,1,1.361-.764,1.276,1.276,0,0,1,1.444,1.256V159h-1.36V155.01c0-.534-.053-1.057-.649-1.026s-.691.44-.691,1.131V159h-1.36v-4.061c0-.524-.043-.963-.67-.953s-.67.482-.67,1.131V159h-1.361v-5.9h1.361Z" fill="#1d1d1b"/>
    <path id="Trazado_872952" data-name="Trazado 872952" d="M267.284,159.019c-.8.094-1.936.167-1.936-.931v-4h-.554V153.1h.543v-1.623h1.372V153.1h.575v.993h-.575v3.664c.031.251.408.22.575.2Z" fill="#1d1d1b"/>
    <path id="Trazado_872953" data-name="Trazado 872953" d="M270.478,150.96a10.307,10.307,0,0,0-.994,5.285,10.1,10.1,0,0,0,1.015,4.826h-.869a8.76,8.76,0,0,1-1.527-5.255,7.843,7.843,0,0,1,1.527-4.856Z" fill="#1d1d1b"/>
    <path id="Trazado_872954" data-name="Trazado 872954" d="M271.379,159a11.413,11.413,0,0,1,.126-1.329,4.7,4.7,0,0,1,1.381-2.208l.711-.754a1.872,1.872,0,0,0,.723-1.507c0-.712-.282-.931-.7-.931a.644.644,0,0,0-.68.386,3.025,3.025,0,0,0-.116,1.11h-1.371v-.22c0-.69-.032-2.449,2.23-2.428a1.954,1.954,0,0,1,2.1,2.03,2.9,2.9,0,0,1-.932,2.146l-1.151,1.193a2.3,2.3,0,0,0-.764,1.36h2.731V159Z" fill="#1d1d1b"/>
    <path id="Trazado_872955" data-name="Trazado 872955" d="M276.845,161.071a10.307,10.307,0,0,0,.994-5.285,10.1,10.1,0,0,0-1.015-4.826h.869a8.768,8.768,0,0,1,1.528,5.255,7.846,7.846,0,0,1-1.528,4.856Z" fill="#1d1d1b"/>
    <line id="Línea_4686" data-name="Línea 4686" x1="47.625" y1="37.739" transform="translate(317.753 107.434)" fill="none" stroke="#1d1d1b" stroke-miterlimit="3.864" stroke-width="0.884"/>
    <path id="Trazado_872956" data-name="Trazado 872956" d="M363.021,145.827a2.355,2.355,0,1,1,2.357,2.355,2.357,2.357,0,0,1-2.357-2.355" fill="#1d1d1b"/>
    <path id="Trazado_872957" data-name="Trazado 872957" d="M331.6,155.126a1.846,1.846,0,0,1,1.989-2.187c1.894,0,2.094.983,2.094,2.6v.795h-2.722v.858c.012.775.3.921.713.921.5,0,.649-.366.627-1.109h1.362c.051,1.319-.492,2.156-1.886,2.156-1.569,0-2.208-.743-2.177-2.481Zm2.723.157v-.513c-.01-.6-.167-.785-.713-.785-.68,0-.649.523-.649,1.057v.241Z" fill="#1d1d1b"/>
    <path id="Trazado_872958" data-name="Trazado 872958" d="M336.434,153.1h1.6l.451,1.067a4.817,4.817,0,0,1,.147.534h.02a5.765,5.765,0,0,1,.168-.555l.482-1.046h1.507l-1.476,2.857L340.84,159h-1.528l-.408-.952a3.18,3.18,0,0,1-.272-.869h-.021a3.637,3.637,0,0,1-.3.943l-.387.878h-1.56l1.56-3.014Z" fill="#1d1d1b"/>
    <path id="Trazado_872959" data-name="Trazado 872959" d="M342.894,153.713h.021a1.127,1.127,0,0,1,1.182-.774c.879.02,1.381.492,1.412,2.113v2.135c-.031.943-.26,1.968-1.412,1.968a1.321,1.321,0,0,1-1.246-.764h-.021v2.586h-1.3V153.1h1.36Zm0,3.349c0,.68.219,1.046.659,1.046.418,0,.565-.45.6-1.015v-1.967c-.041-.586.021-1.141-.616-1.141s-.66.837-.639,1.308Z" fill="#1d1d1b"/>
    <path id="Trazado_872960" data-name="Trazado 872960" d="M346.714,155.126a1.846,1.846,0,0,1,1.989-2.187c1.9,0,2.094.983,2.094,2.6v.795h-2.722v.858c.01.775.3.921.713.921.5,0,.649-.366.627-1.109h1.362c.051,1.319-.492,2.156-1.886,2.156-1.569,0-2.208-.743-2.177-2.481Zm2.723.157v-.513c-.012-.6-.167-.785-.713-.785-.68,0-.649.523-.649,1.057v.241Z" fill="#1d1d1b"/>
    <path id="Trazado_872961" data-name="Trazado 872961" d="M353.332,154.142h.021a1.953,1.953,0,0,1,.533-.837,1.173,1.173,0,0,1,.848-.315V154.6c-.755-.073-1.329.115-1.35.983V159h-1.361v-5.9h1.309Z" fill="#1d1d1b"/>
    <path id="Trazado_872962" data-name="Trazado 872962" d="M355.657,151.148h1.36v1.235h-1.36Zm0,1.948h1.36V159h-1.36Z" fill="#1d1d1b"/>
    <path id="Trazado_872963" data-name="Trazado 872963" d="M359.844,153.7h.021a1.343,1.343,0,0,1,1.3-.764c.5-.01,1.172.209,1.257.764h.02a1.373,1.373,0,0,1,1.361-.764,1.277,1.277,0,0,1,1.445,1.256V159h-1.362V155.01c0-.534-.052-1.057-.648-1.026s-.692.44-.692,1.131V159h-1.36v-4.061c0-.524-.042-.963-.67-.953s-.67.482-.67,1.131V159h-1.36v-5.9h1.36Z" fill="#1d1d1b"/>
    <path id="Trazado_872964" data-name="Trazado 872964" d="M366.492,155.126a1.846,1.846,0,0,1,1.989-2.187c1.9,0,2.094.983,2.094,2.6v.795h-2.722v.858c.01.775.3.921.713.921.5,0,.649-.366.627-1.109h1.362c.051,1.319-.492,2.156-1.886,2.156-1.569,0-2.208-.743-2.177-2.481Zm2.723.157v-.513c-.012-.6-.167-.785-.713-.785-.68,0-.649.523-.649,1.057v.241Z" fill="#1d1d1b"/>
    <path id="Trazado_872965" data-name="Trazado 872965" d="M373.172,153.7h.021a1.268,1.268,0,0,1,1.224-.764,1.286,1.286,0,0,1,1.36,1.507V159h-1.36v-3.936c0-.575-.062-.952-.575-.973s-.691.461-.67,1.088V159h-1.36v-5.9h1.36Z" fill="#1d1d1b"/>
    <path id="Trazado_872966" data-name="Trazado 872966" d="M379.045,159.019c-.806.094-1.937.167-1.937-.931v-4h-.554V153.1h.544v-1.623h1.37V153.1h.577v.993h-.577v3.664c.033.251.41.22.577.2Z" fill="#1d1d1b"/>
    <path id="Trazado_872967" data-name="Trazado 872967" d="M382.635,159a1.083,1.083,0,0,1-.084-.606h-.021a1.778,1.778,0,0,1-.544.565,1.215,1.215,0,0,1-.649.2c-1.1,0-1.58-.555-1.58-1.768,0-1.35.952-1.675,2.02-2.114.575-.241.784-.5.67-.984-.064-.262-.273-.3-.639-.3-.618,0-.721.324-.711.858h-1.3c-.011-1.12.355-1.9,2.061-1.9,1.852,0,1.968.973,1.947,1.747v3.485a3.2,3.2,0,0,0,.114.827Zm-.188-3.108c-.335.23-.744.46-1.1.754a.908.908,0,0,0-.229.711c0,.45.136.753.638.753.8,0,.66-1.015.691-1.58Z" fill="#1d1d1b"/>
    <rect id="Rectángulo_402876" data-name="Rectángulo 402876" width="1.36" height="7.85" transform="translate(385.329 151.148)" fill="#1d1d1b"/>
    <path id="Trazado_872968" data-name="Trazado 872968" d="M390.384,150.96a10.319,10.319,0,0,0-.993,5.285,10.1,10.1,0,0,0,1.015,4.826h-.87a8.774,8.774,0,0,1-1.527-5.255,7.85,7.85,0,0,1,1.527-4.856Z" fill="#1d1d1b"/>
    <path id="Trazado_872969" data-name="Trazado 872969" d="M392.74,154.226a2.722,2.722,0,0,0,.92-.115.93.93,0,0,0,.451-.963c0-.6-.219-.879-.7-.879a.618.618,0,0,0-.7.617v.555h-1.373c-.082-1.455.567-2.323,2.063-2.323a1.857,1.857,0,0,1,2.134,2.02c0,.68-.26,1.507-1.025,1.621v.022c.69.084,1.2.7,1.182,1.9,0,1.539-.669,2.471-2.28,2.471a1.973,1.973,0,0,1-2.167-2.3v-.46h1.371c.031.649-.105,1.611.827,1.611.806,0,.785-.753.785-1.486a1.494,1.494,0,0,0-.167-.827c-.273-.324-.912-.314-1.319-.314Z" fill="#1d1d1b"/>
    <path id="Trazado_872970" data-name="Trazado 872970" d="M396.749,161.071a10.306,10.306,0,0,0,.994-5.285,10.093,10.093,0,0,0-1.015-4.826h.869a8.762,8.762,0,0,1,1.529,5.255,7.841,7.841,0,0,1-1.529,4.856Z" fill="#1d1d1b"/>
    <path id="Trazado_872971" data-name="Trazado 872971" d="M466.928,153.713h.021a1.127,1.127,0,0,1,1.182-.774c.879.02,1.381.492,1.412,2.113v2.135c-.031.943-.26,1.968-1.412,1.968a1.321,1.321,0,0,1-1.246-.764h-.021v2.586h-1.3V153.1h1.36Zm0,3.349c0,.68.219,1.046.659,1.046.418,0,.565-.45.6-1.015v-1.967c-.041-.586.021-1.141-.616-1.141s-.66.837-.639,1.308Z" fill="#1d1d1b"/>
    <path id="Trazado_872972" data-name="Trazado 872972" d="M472.131,154.142h.021a1.953,1.953,0,0,1,.533-.837,1.173,1.173,0,0,1,.848-.315V154.6c-.755-.073-1.329.115-1.35.983V159h-1.361v-5.9h1.309Z" fill="#1d1d1b"/>
    <path id="Trazado_872973" data-name="Trazado 872973" d="M474.457,151.148h1.36v1.235h-1.36Zm0,1.948h1.36V159h-1.36Z" fill="#1d1d1b"/>
    <path id="Trazado_872974" data-name="Trazado 872974" d="M476.7,153.1h1.463l.577,3.307a15.266,15.266,0,0,1,.188,1.748h.021a15.267,15.267,0,0,1,.188-1.748l.588-3.307h1.411l-1.361,5.9h-1.7Z" fill="#1d1d1b"/>
    <path id="Trazado_872975" data-name="Trazado 872975" d="M484.557,159a1.083,1.083,0,0,1-.084-.606h-.021a1.768,1.768,0,0,1-.544.565,1.212,1.212,0,0,1-.649.2c-1.1,0-1.579-.555-1.579-1.768,0-1.35.952-1.675,2.019-2.114.576-.241.784-.5.671-.984-.065-.262-.274-.3-.64-.3-.618,0-.721.324-.71.858h-1.3c-.011-1.12.355-1.9,2.062-1.9,1.851,0,1.967.973,1.946,1.747v3.485a3.156,3.156,0,0,0,.115.827Zm-.187-3.108c-.336.23-.745.46-1.1.754a.909.909,0,0,0-.23.711c0,.45.136.753.638.753.8,0,.661-1.015.692-1.58Z" fill="#1d1d1b"/>
    <path id="Trazado_872976" data-name="Trazado 872976" d="M489.114,159.019c-.806.094-1.937.167-1.937-.931v-4h-.554V153.1h.544v-1.623h1.37V153.1h.577v.993h-.577v3.664c.031.251.41.22.577.2Z" fill="#1d1d1b"/>
    <path id="Trazado_872977" data-name="Trazado 872977" d="M489.94,155.126a1.846,1.846,0,0,1,1.989-2.187c1.894,0,2.094.983,2.094,2.6v.795H491.3v.858c.012.775.3.921.713.921.5,0,.649-.366.627-1.109H494c.051,1.319-.492,2.156-1.886,2.156-1.569,0-2.208-.743-2.177-2.481Zm2.723.157v-.513c-.01-.6-.167-.785-.713-.785-.68,0-.649.523-.649,1.057v.241Z" fill="#1d1d1b"/>
    <path id="Trazado_872978" data-name="Trazado 872978" d="M497.54,150.96a10.319,10.319,0,0,0-.993,5.285,10.1,10.1,0,0,0,1.015,4.826h-.87a8.775,8.775,0,0,1-1.528-5.255,7.851,7.851,0,0,1,1.528-4.856Z" fill="#1d1d1b"/>
    <path id="Trazado_872979" data-name="Trazado 872979" d="M502.355,151.275v4.981h.67v1.151h-.67V159h-1.464v-1.591h-2.545v-1.151l2.378-4.981Zm-1.464,4.981v-3.182h-.021l-1.445,3.182Z" fill="#1d1d1b"/>
    <path id="Trazado_872980" data-name="Trazado 872980" d="M503.907,161.071a10.307,10.307,0,0,0,.994-5.285,10.092,10.092,0,0,0-1.015-4.826h.869a8.762,8.762,0,0,1,1.529,5.255,7.841,7.841,0,0,1-1.529,4.856Z" fill="#1d1d1b"/>
    <line id="Línea_4687" data-name="Línea 4687" y1="29.698" transform="translate(485.923 162.486)" fill="none" stroke="#1d1d1b" stroke-miterlimit="3.864" stroke-width="0.884"/>
    <path id="Trazado_872981" data-name="Trazado 872981" d="M483.567,193.563a2.356,2.356,0,1,1,2.357,2.357,2.356,2.356,0,0,1-2.357-2.357" fill="#1d1d1b"/>
    <path id="Trazado_872982" data-name="Trazado 872982" d="M458.542,200.931a1.846,1.846,0,0,1,1.989-2.187c1.9,0,2.094.983,2.094,2.6v.795H459.9v.858c.01.775.3.921.713.921.5,0,.649-.366.627-1.109h1.362c.051,1.319-.492,2.156-1.886,2.156-1.569,0-2.208-.743-2.177-2.481Zm2.723.157v-.514c-.012-.6-.167-.784-.713-.784-.68,0-.649.523-.649,1.057v.241Z" fill="#1d1d1b"/>
    <path id="Trazado_872983" data-name="Trazado 872983" d="M465.222,199.508h.021a1.268,1.268,0,0,1,1.224-.764,1.286,1.286,0,0,1,1.36,1.507V204.8h-1.36v-3.936c0-.575-.062-.952-.575-.973s-.691.461-.67,1.088V204.8h-1.36v-5.9h1.36Z" fill="#1d1d1b"/>
    <path id="Trazado_872984" data-name="Trazado 872984" d="M471.1,204.824c-.806.094-1.937.167-1.937-.931v-4h-.554V198.9h.544v-1.622h1.37V198.9h.577v.994h-.577v3.664c.031.251.41.22.577.2Z" fill="#1d1d1b"/>
    <path id="Trazado_872985" data-name="Trazado 872985" d="M471.922,200.931a1.846,1.846,0,0,1,1.989-2.187c1.9,0,2.094.983,2.094,2.6v.795h-2.722v.858c.01.775.3.921.713.921.5,0,.649-.366.627-1.109h1.362c.051,1.319-.492,2.156-1.886,2.156-1.569,0-2.208-.743-2.177-2.481Zm2.723.157v-.514c-.012-.6-.167-.784-.713-.784-.68,0-.649.523-.649,1.057v.241Z" fill="#1d1d1b"/>
    <path id="Trazado_872986" data-name="Trazado 872986" d="M478.541,199.947h.021a1.953,1.953,0,0,1,.533-.837,1.173,1.173,0,0,1,.848-.315v1.612c-.755-.072-1.329.116-1.35.984V204.8h-1.361v-5.9h1.309Z" fill="#1d1d1b"/>
    <path id="Trazado_872987" data-name="Trazado 872987" d="M482.058,199.518h.021a1.126,1.126,0,0,1,1.182-.774c.879.02,1.381.491,1.412,2.113v2.135c-.031.943-.26,1.968-1.412,1.968a1.322,1.322,0,0,1-1.246-.764h-.021v2.586h-1.3V198.9h1.36Zm0,3.349c0,.68.219,1.046.659,1.046.418,0,.565-.45.6-1.015v-1.967c-.041-.586.021-1.141-.616-1.141s-.66.837-.639,1.308Z" fill="#1d1d1b"/>
    <path id="Trazado_872988" data-name="Trazado 872988" d="M487.261,199.947h.021a1.953,1.953,0,0,1,.533-.837,1.173,1.173,0,0,1,.848-.315v1.612c-.755-.072-1.329.116-1.35.984V204.8h-1.361v-5.9h1.309Z" fill="#1d1d1b"/>
    <path id="Trazado_872989" data-name="Trazado 872989" d="M489.587,196.953h1.36v1.235h-1.36Zm0,1.947h1.36v5.9h-1.36Z" fill="#1d1d1b"/>
    <path id="Trazado_872990" data-name="Trazado 872990" d="M493.386,202.857c-.1,1.088.314,1.057.628,1.057a.526.526,0,0,0,.565-.66c-.021-.335-.408-.523-.67-.7l-.742-.513a2.173,2.173,0,0,1-1.121-1.862c0-.911.722-1.434,2.031-1.434a1.681,1.681,0,0,1,1.893,1.957h-1.36c.031-.66-.157-.911-.628-.911-.323,0-.575.147-.575.482s.252.5.512.68l1.111.754a2.1,2.1,0,0,1,.93,1.161c.116,1.026-.135,2.094-2.02,2.094a1.765,1.765,0,0,1-1.914-2.1Z" fill="#1d1d1b"/>
    <path id="Trazado_872991" data-name="Trazado 872991" d="M496.923,200.931a1.846,1.846,0,0,1,1.989-2.187c1.9,0,2.094.983,2.094,2.6v.795h-2.722v.858c.01.775.3.921.713.921.5,0,.649-.366.627-1.109h1.362c.051,1.319-.492,2.156-1.886,2.156-1.569,0-2.208-.743-2.177-2.481Zm2.723.157v-.514c-.012-.6-.167-.784-.713-.784-.68,0-.649.523-.649,1.057v.241Z" fill="#1d1d1b"/>
    <path id="Trazado_872992" data-name="Trazado 872992" d="M504.525,196.765a10.32,10.32,0,0,0-.993,5.285,10.1,10.1,0,0,0,1.015,4.826h-.87a8.774,8.774,0,0,1-1.527-5.255,7.85,7.85,0,0,1,1.527-4.856Z" fill="#1d1d1b"/>
    <path id="Trazado_872993" data-name="Trazado 872993" d="M507.32,199.361h-1.768v-1.046c1.015-.011,1.863-.283,2.156-1.361h1.078V204.8H507.32Z" fill="#1d1d1b"/>
    <path id="Trazado_872994" data-name="Trazado 872994" d="M510.89,206.876a10.309,10.309,0,0,0,.994-5.285,10.092,10.092,0,0,0-1.015-4.826h.869a8.762,8.762,0,0,1,1.529,5.255,7.839,7.839,0,0,1-1.529,4.856Z" fill="#1d1d1b"/>
    <line id="Línea_4688" data-name="Línea 4688" y1="29.696" x2="65.073" transform="translate(420.841 207.311)" fill="none" stroke="#1d1d1b" stroke-miterlimit="3.864" stroke-width="0.884"/>
    <path id="Trazado_872995" data-name="Trazado 872995" d="M418.485,238.388a2.357,2.357,0,1,1,2.357,2.355,2.357,2.357,0,0,1-2.357-2.355" fill="#1d1d1b"/>
    <line id="Línea_4689" data-name="Línea 4689" y1="29.696" x2="23.652" transform="translate(462.263 207.311)" fill="none" stroke="#1d1d1b" stroke-miterlimit="3.864" stroke-width="0.884"/>
    <path id="Trazado_872996" data-name="Trazado 872996" d="M459.906,238.388a2.355,2.355,0,1,1,2.357,2.355,2.357,2.357,0,0,1-2.357-2.355" fill="#1d1d1b"/>
    <line id="Línea_4690" data-name="Línea 4690" x1="33.733" y1="29.696" transform="translate(485.915 207.311)" fill="none" stroke="#1d1d1b" stroke-miterlimit="3.864" stroke-width="0.884"/>
    <path id="Trazado_872997" data-name="Trazado 872997" d="M517.293,238.388a2.355,2.355,0,1,1,2.355,2.355,2.357,2.357,0,0,1-2.355-2.355" fill="#1d1d1b"/>
    <line id="Línea_4691" data-name="Línea 4691" x1="97.046" y1="29.696" transform="translate(485.914 207.311)" fill="none" stroke="#1d1d1b" stroke-miterlimit="3.864" stroke-width="0.884"/>
    <path id="Trazado_872998" data-name="Trazado 872998" d="M580.606,238.388a2.355,2.355,0,1,1,2.355,2.355,2.356,2.356,0,0,1-2.355-2.355" fill="#1d1d1b"/>
    <path id="Trazado_872999" data-name="Trazado 872999" d="M406.534,247.574v-.659c-.021-.325-.178-.5-.471-.5-.523,0-.523.6-.513,1.319v1.392c-.031,1.151.105,1.361.513,1.413.419-.011.43-.4.471-.869v-.544h1.36v.544c0,1.235-.512,1.916-1.862,1.916-1.2,0-1.894-.639-1.842-2.209v-1.915c-.011-1.654.806-2.093,1.842-2.093a1.648,1.648,0,0,1,1.862,1.737v.471Z" fill="#1d1d1b"/>
    <path id="Trazado_873000" data-name="Trazado 873000" d="M409.1,243.576h1.36v1.235H409.1Zm0,1.947h1.36v5.9H409.1Z" fill="#1d1d1b"/>
    <path id="Trazado_873001" data-name="Trazado 873001" d="M412.9,249.48c-.1,1.088.314,1.057.628,1.057a.526.526,0,0,0,.565-.66c-.021-.335-.408-.523-.67-.7l-.742-.513a2.173,2.173,0,0,1-1.121-1.862c0-.911.722-1.434,2.031-1.434a1.682,1.682,0,0,1,1.893,1.957h-1.36c.031-.66-.157-.911-.628-.911-.323,0-.575.147-.575.482s.252.5.512.68l1.111.754a2.1,2.1,0,0,1,.93,1.161c.116,1.026-.135,2.094-2.02,2.094a1.765,1.765,0,0,1-1.914-2.1Z" fill="#1d1d1b"/>
    <path id="Trazado_873002" data-name="Trazado 873002" d="M418.741,247.574v-.659c-.021-.325-.178-.5-.471-.5-.523,0-.523.6-.513,1.319v1.392c-.031,1.151.105,1.361.513,1.413.419-.011.43-.4.471-.869v-.544h1.36v.544c0,1.235-.512,1.916-1.862,1.916-1.2,0-1.894-.639-1.842-2.209v-1.915c-.011-1.654.806-2.093,1.842-2.093A1.648,1.648,0,0,1,420.1,247.1v.471Z" fill="#1d1d1b"/>
    <path id="Trazado_873003" data-name="Trazado 873003" d="M421.088,248.683c.01-2.019.031-3.317,2.083-3.317,2.02,0,2.031,1.3,2.041,3.317.01,2.052-.283,2.931-2.041,2.9-1.79.031-2.094-.848-2.083-2.9m1.36.817c0,.722.064,1.036.723,1.036.627,0,.681-.314.681-1.036v-1.968c0-.554,0-1.12-.681-1.12-.723,0-.723.566-.723,1.12Z" fill="#1d1d1b"/>
    <path id="Trazado_873004" data-name="Trazado 873004" d="M428.687,243.388a10.317,10.317,0,0,0-.994,5.285,10.105,10.105,0,0,0,1.016,4.826h-.87a8.774,8.774,0,0,1-1.527-5.255,7.85,7.85,0,0,1,1.527-4.856Z" fill="#1d1d1b"/>
    <path id="Trazado_873005" data-name="Trazado 873005" d="M434.057,248.412c0,2.5-.713,3.172-2.261,3.172-1.152,0-1.979-.524-1.936-1.769h1.361c.01.261.041.649.638.617.826,0,.743-.994.764-1.465v-.5a1.341,1.341,0,0,1-1.152.523c-1.245,0-1.778-.848-1.778-2.46,0-1.967.481-2.982,2.177-2.982,1.747,0,2.208,1.14,2.187,2.982Zm-2.22-3.715c-.763.01-.68.722-.68,1.726,0,.566-.073,1.413.713,1.413.721,0,.721-.763.721-1.413.011-.972.032-1.8-.754-1.726" fill="#1d1d1b"/>
    <path id="Trazado_873006" data-name="Trazado 873006" d="M435.054,253.5a10.309,10.309,0,0,0,.994-5.285,10.092,10.092,0,0,0-1.015-4.826h.869a8.762,8.762,0,0,1,1.529,5.255A7.839,7.839,0,0,1,435.9,253.5Z" fill="#1d1d1b"/>
    <path id="Trazado_873007" data-name="Trazado 873007" d="M448.863,251.426a1.083,1.083,0,0,1-.084-.606h-.021a1.764,1.764,0,0,1-.544.564,1.207,1.207,0,0,1-.649.2c-1.1,0-1.58-.555-1.58-1.768,0-1.35.952-1.675,2.02-2.115.575-.24.784-.5.67-.983-.064-.262-.273-.3-.639-.3-.618,0-.721.324-.711.858h-1.3c-.011-1.12.355-1.9,2.061-1.9,1.852,0,1.968.973,1.947,1.748V250.6a3.2,3.2,0,0,0,.114.827Zm-.188-3.108c-.335.23-.744.46-1.1.754a.908.908,0,0,0-.229.711c0,.45.136.753.638.753.8,0,.66-1.015.691-1.579Z" fill="#1d1d1b"/>
    <path id="Trazado_873008" data-name="Trazado 873008" d="M452.747,246.141h.021a1.126,1.126,0,0,1,1.182-.774c.879.02,1.381.491,1.412,2.113v2.135c-.031.943-.26,1.968-1.412,1.968a1.322,1.322,0,0,1-1.246-.764h-.021V253.4h-1.3v-7.882h1.36Zm0,3.349c0,.68.219,1.046.659,1.046.418,0,.565-.45.6-1.015v-1.967c-.041-.586.021-1.141-.616-1.141s-.66.837-.639,1.308Z" fill="#1d1d1b"/>
    <path id="Trazado_873009" data-name="Trazado 873009" d="M458.871,247.574v-.659c-.021-.325-.178-.5-.471-.5-.523,0-.523.6-.513,1.319v1.392c-.031,1.151.105,1.361.513,1.413.419-.011.43-.4.471-.869v-.544h1.36v.544c0,1.235-.512,1.916-1.862,1.916-1.2,0-1.894-.639-1.842-2.209v-1.915c-.011-1.654.806-2.093,1.842-2.093a1.648,1.648,0,0,1,1.862,1.737v.471Z" fill="#1d1d1b"/>
    <path id="Trazado_873010" data-name="Trazado 873010" d="M463.582,243.388a10.319,10.319,0,0,0-.993,5.285A10.1,10.1,0,0,0,463.6,253.5h-.87a8.775,8.775,0,0,1-1.528-5.255,7.851,7.851,0,0,1,1.528-4.856Z" fill="#1d1d1b"/>
    <path id="Trazado_873011" data-name="Trazado 873011" d="M465.939,246.653a2.722,2.722,0,0,0,.92-.115.93.93,0,0,0,.451-.963c0-.6-.22-.879-.7-.879a.618.618,0,0,0-.7.617v.555h-1.373c-.082-1.455.567-2.323,2.063-2.323a1.857,1.857,0,0,1,2.134,2.02c0,.68-.26,1.507-1.025,1.621v.022c.69.084,1.2.7,1.182,1.9,0,1.539-.669,2.471-2.28,2.471a1.973,1.973,0,0,1-2.167-2.3v-.46h1.371c.031.649-.1,1.611.827,1.611.806,0,.785-.753.785-1.486a1.487,1.487,0,0,0-.167-.826c-.273-.325-.912-.315-1.319-.315Z" fill="#1d1d1b"/>
    <path id="Trazado_873012" data-name="Trazado 873012" d="M471.612,245.984h-1.768v-1.046c1.015-.011,1.863-.283,2.156-1.361h1.078v7.849h-1.466Z" fill="#1d1d1b"/>
    <path id="Trazado_873013" data-name="Trazado 873013" d="M475.227,245.355a1.807,1.807,0,0,1,2.03-1.81c1.454,0,2,.69,2,2.02a1.459,1.459,0,0,1-.994,1.632v.022c.9.188,1.172.837,1.172,1.977,0,1.738-.816,2.387-2.146,2.387-1.664,0-2.239-.8-2.239-2.377,0-1.161.3-1.674,1.1-2.03-.628-.335-.92-.711-.92-1.821m2.03,5.076c.712-.052.712-.649.712-1.307,0-.744-.032-1.382-.732-1.382-.765.01-.724.649-.724,1.507,0,.659.021,1.162.744,1.182m.639-4.856c0-.6-.252-.879-.628-.879-.567,0-.681.45-.681.983,0,.472.063,1.016.66,1.016.627,0,.649-.649.649-1.12" fill="#1d1d1b"/>
    <path id="Trazado_873014" data-name="Trazado 873014" d="M480.418,253.5a10.309,10.309,0,0,0,.994-5.285,10.093,10.093,0,0,0-1.015-4.826h.869a8.762,8.762,0,0,1,1.529,5.255,7.839,7.839,0,0,1-1.529,4.856Z" fill="#1d1d1b"/>
    <path id="Trazado_873015" data-name="Trazado 873015" d="M492.594,250.546h-.021a1.242,1.242,0,0,1-1.267,1.037c-1.077,0-1.317-.555-1.317-1.539v-4.522h1.36v4.041a1.434,1.434,0,0,0,.137.784.523.523,0,0,0,.417.189c.639,0,.629-.722.629-1.183v-3.831h1.36v5.9h-1.3Z" fill="#1d1d1b"/>
    <path id="Trazado_873016" data-name="Trazado 873016" d="M497.473,247.574v-.659c-.021-.325-.178-.5-.471-.5-.523,0-.523.6-.513,1.319v1.392c-.031,1.151.1,1.361.513,1.413.419-.011.43-.4.471-.869v-.544h1.36v.544c0,1.235-.512,1.916-1.862,1.916-1.2,0-1.894-.639-1.842-2.209v-1.915c-.011-1.654.806-2.093,1.842-2.093a1.648,1.648,0,0,1,1.862,1.737v.471Z" fill="#1d1d1b"/>
    <path id="Trazado_873017" data-name="Trazado 873017" d="M502.434,250.8h-.021a1.183,1.183,0,0,1-1.172.785c-1.151,0-1.393-1.047-1.424-1.989v-2.135c.031-1.622.545-2.072,1.424-2.093a1.169,1.169,0,0,1,1.214.754h.02a2.985,2.985,0,0,1-.041-.524v-2.02h1.36v7.85h-1.36Zm0-3.077c.021-.471,0-1.309-.639-1.309s-.575.555-.618,1.142v1.967c.033.565.18,1.015.6,1.015.44,0,.659-.366.659-1.046Z" fill="#1d1d1b"/>
    <path id="Trazado_873018" data-name="Trazado 873018" d="M507.817,251.426a1.082,1.082,0,0,1-.084-.606h-.021a1.764,1.764,0,0,1-.544.564,1.207,1.207,0,0,1-.649.2c-1.1,0-1.58-.555-1.58-1.768,0-1.35.952-1.675,2.02-2.115.575-.24.784-.5.67-.983-.064-.262-.273-.3-.639-.3-.618,0-.721.324-.711.858h-1.3c-.011-1.12.355-1.9,2.061-1.9,1.852,0,1.968.973,1.947,1.748V250.6a3.121,3.121,0,0,0,.116.827Zm-.188-3.108c-.335.23-.744.46-1.1.754a.908.908,0,0,0-.229.711c0,.45.136.753.638.753.805,0,.658-1.015.691-1.579Z" fill="#1d1d1b"/>
    <path id="Trazado_873019" data-name="Trazado 873019" d="M509.839,245.523H511.3l.577,3.308a15.266,15.266,0,0,1,.188,1.748h.02a15.081,15.081,0,0,1,.189-1.748l.587-3.308h1.412l-1.361,5.9H511.22Z" fill="#1d1d1b"/>
    <path id="Trazado_873020" data-name="Trazado 873020" d="M515.158,243.576h1.36v1.235h-1.36Zm0,1.947h1.36v5.9h-1.36Z" fill="#1d1d1b"/>
    <path id="Trazado_873021" data-name="Trazado 873021" d="M518.956,249.48c-.1,1.088.314,1.057.628,1.057a.526.526,0,0,0,.565-.66c-.021-.335-.408-.523-.67-.7l-.742-.513a2.173,2.173,0,0,1-1.121-1.862c0-.911.722-1.434,2.031-1.434a1.681,1.681,0,0,1,1.893,1.957h-1.36c.031-.66-.157-.911-.627-.911-.324,0-.576.147-.576.482s.252.5.512.68l1.11.754a2.1,2.1,0,0,1,.931,1.161c.116,1.026-.136,2.094-2.02,2.094a1.765,1.765,0,0,1-1.914-2.1Z" fill="#1d1d1b"/>
    <path id="Trazado_873022" data-name="Trazado 873022" d="M524.86,243.388a10.317,10.317,0,0,0-.994,5.285,10.1,10.1,0,0,0,1.016,4.826h-.87a8.774,8.774,0,0,1-1.527-5.255,7.85,7.85,0,0,1,1.527-4.856Z" fill="#1d1d1b"/>
    <path id="Trazado_873023" data-name="Trazado 873023" d="M525.761,251.426a11.173,11.173,0,0,1,.126-1.329,4.7,4.7,0,0,1,1.381-2.208l.711-.754a1.873,1.873,0,0,0,.724-1.507c0-.712-.283-.931-.7-.931a.646.646,0,0,0-.68.386,3.02,3.02,0,0,0-.114,1.109h-1.372v-.219c0-.69-.032-2.449,2.23-2.428a1.953,1.953,0,0,1,2.1,2.03,2.9,2.9,0,0,1-.931,2.146l-1.151,1.193a2.3,2.3,0,0,0-.765,1.36h2.733v1.152Z" fill="#1d1d1b"/>
    <path id="Trazado_873024" data-name="Trazado 873024" d="M531.164,245.795c0-1.664.8-2.25,2.125-2.25s2.114.586,2.114,2.25v3.527c0,1.664-.8,2.261-2.124,2.261s-2.115-.6-2.115-2.261Zm1.466,3.527c-.043.879.261,1.109.639,1.109s.711-.23.67-1.109v-3.527c.041-.869-.283-1.1-.67-1.1s-.682.23-.639,1.1Z" fill="#1d1d1b"/>
    <path id="Trazado_873025" data-name="Trazado 873025" d="M536.232,251.426a11.184,11.184,0,0,1,.126-1.329,4.7,4.7,0,0,1,1.381-2.208l.711-.754a1.873,1.873,0,0,0,.724-1.507c0-.712-.283-.931-.7-.931a.646.646,0,0,0-.68.386,3.02,3.02,0,0,0-.114,1.109H536.3v-.219c0-.69-.032-2.449,2.23-2.428a1.953,1.953,0,0,1,2.1,2.03,2.9,2.9,0,0,1-.931,2.146l-1.151,1.193a2.3,2.3,0,0,0-.765,1.36h2.733v1.152Z" fill="#1d1d1b"/>
    <path id="Trazado_873026" data-name="Trazado 873026" d="M543.36,245.984h-1.768v-1.046c1.015-.011,1.863-.283,2.156-1.361h1.078v7.849H543.36Z" fill="#1d1d1b"/>
    <path id="Trazado_873027" data-name="Trazado 873027" d="M546.932,253.5a10.309,10.309,0,0,0,.994-5.285,10.093,10.093,0,0,0-1.015-4.826h.869a8.762,8.762,0,0,1,1.529,5.255,7.839,7.839,0,0,1-1.529,4.856Z" fill="#1d1d1b"/>
    <path id="Trazado_873028" data-name="Trazado 873028" d="M555.852,248.683c.01-2.019.031-3.317,2.083-3.317,2.021,0,2.031,1.3,2.042,3.317.01,2.052-.284,2.931-2.042,2.9-1.789.031-2.094-.848-2.083-2.9m1.361.817c0,.722.063,1.036.722,1.036.628,0,.682-.314.682-1.036v-1.968c0-.554,0-1.12-.682-1.12-.722,0-.722.566-.722,1.12Z" fill="#1d1d1b"/>
    <path id="Trazado_873029" data-name="Trazado 873029" d="M562.469,246.57h.021a1.953,1.953,0,0,1,.533-.837,1.166,1.166,0,0,1,.848-.314v1.611c-.755-.072-1.329.116-1.35.984v3.412H561.16v-5.9h1.309Z" fill="#1d1d1b"/>
    <path id="Trazado_873030" data-name="Trazado 873030" d="M564.572,247.554a1.845,1.845,0,0,1,1.988-2.187c1.894,0,2.094.983,2.094,2.6v.795h-2.722v.858c.012.775.3.921.713.921.5,0,.649-.366.627-1.109h1.362c.051,1.319-.492,2.156-1.886,2.156-1.569,0-2.208-.743-2.176-2.481Zm2.722.157V247.2c-.01-.6-.167-.784-.713-.784-.68,0-.649.523-.649,1.057v.241Z" fill="#1d1d1b"/>
    <path id="Trazado_873031" data-name="Trazado 873031" d="M570.027,243.576h1.36v1.235h-1.36Zm0,1.947h1.36v5.9h-1.36Z" fill="#1d1d1b"/>
    <rect id="Rectángulo_402877" data-name="Rectángulo 402877" width="1.36" height="7.85" transform="translate(572.938 243.576)" fill="#1d1d1b"/>
    <rect id="Rectángulo_402878" data-name="Rectángulo 402878" width="1.36" height="7.85" transform="translate(575.849 243.576)" fill="#1d1d1b"/>
    <path id="Trazado_873032" data-name="Trazado 873032" d="M579.471,245.523l.6,3.13c.095.523.146,1.046.2,1.57h.021a14.44,14.44,0,0,1,.208-1.529l.6-3.171h1.381l-1.435,5.987c-.345,1.34-.376,2.177-2.26,1.9v-1.057c.22,0,.807.115.807-.262a3.857,3.857,0,0,0-.126-.753l-1.425-5.82Z" fill="#1d1d1b"/>
    <path id="Trazado_873033" data-name="Trazado 873033" d="M585.553,243.388a10.318,10.318,0,0,0-.994,5.285,10.105,10.105,0,0,0,1.016,4.826h-.87a8.774,8.774,0,0,1-1.527-5.255,7.85,7.85,0,0,1,1.527-4.856Z" fill="#1d1d1b"/>
    <path id="Trazado_873034" data-name="Trazado 873034" d="M586.454,251.426a11.173,11.173,0,0,1,.126-1.329,4.7,4.7,0,0,1,1.381-2.208l.711-.754a1.873,1.873,0,0,0,.724-1.507c0-.712-.283-.931-.7-.931a.646.646,0,0,0-.68.386,3.022,3.022,0,0,0-.114,1.109h-1.373v-.219c0-.69-.031-2.449,2.231-2.428a1.953,1.953,0,0,1,2.1,2.03,2.9,2.9,0,0,1-.931,2.146l-1.151,1.193a2.3,2.3,0,0,0-.765,1.36h2.733v1.152Z" fill="#1d1d1b"/>
    <path id="Trazado_873035" data-name="Trazado 873035" d="M591.857,245.795c0-1.664.8-2.25,2.125-2.25s2.114.586,2.114,2.25v3.527c0,1.664-.795,2.261-2.124,2.261s-2.115-.6-2.115-2.261Zm1.466,3.527c-.043.879.261,1.109.639,1.109s.711-.23.67-1.109v-3.527c.041-.869-.284-1.1-.67-1.1s-.682.23-.639,1.1Z" fill="#1d1d1b"/>
    <path id="Trazado_873036" data-name="Trazado 873036" d="M598.38,246.653a2.721,2.721,0,0,0,.92-.115.93.93,0,0,0,.451-.963c0-.6-.219-.879-.7-.879a.618.618,0,0,0-.7.617v.555h-1.373c-.082-1.455.567-2.323,2.063-2.323a1.857,1.857,0,0,1,2.134,2.02c0,.68-.26,1.507-1.025,1.621v.022c.69.084,1.2.7,1.182,1.9,0,1.539-.669,2.471-2.28,2.471a1.973,1.973,0,0,1-2.167-2.3v-.46h1.371c.031.649-.105,1.611.827,1.611.806,0,.785-.753.785-1.486a1.487,1.487,0,0,0-.167-.826c-.273-.325-.912-.315-1.319-.315Z" fill="#1d1d1b"/>
    <path id="Trazado_873037" data-name="Trazado 873037" d="M602.285,247.815l.2-4.113h3.779v1.151h-2.649l-.1,1.674a1.413,1.413,0,0,1,1.141-.439c1.717,0,1.958,1.465,1.958,2.711,0,1.779-.513,2.784-2.166,2.784-1.78,0-2.252-.817-2.241-2.627h1.372c.021.565-.064,1.434.732,1.475.869.053.817-.868.838-1.642.051-1.257-.3-1.55-.838-1.55a.71.71,0,0,0-.732.576Z" fill="#1d1d1b"/>
    <path id="Trazado_873038" data-name="Trazado 873038" d="M607.623,253.5a10.309,10.309,0,0,0,.994-5.285,10.092,10.092,0,0,0-1.015-4.826h.869A8.762,8.762,0,0,1,610,248.643a7.839,7.839,0,0,1-1.529,4.856Z" fill="#1d1d1b"/>
    <line id="Línea_4692" data-name="Línea 4692" y1="29.698" transform="translate(261.478 162.486)" fill="none" stroke="#1d1d1b" stroke-miterlimit="3.864" stroke-width="0.884"/>
    <path id="Trazado_873039" data-name="Trazado 873039" d="M259.121,193.563a2.355,2.355,0,1,1,2.357,2.357,2.356,2.356,0,0,1-2.357-2.357" fill="#1d1d1b"/>
    <path id="Trazado_873040" data-name="Trazado 873040" d="M234.1,200.931a1.844,1.844,0,0,1,1.988-2.187c1.9,0,2.093.983,2.093,2.6v.795h-2.72v.858c.01.775.3.921.711.921.5,0,.649-.366.628-1.109h1.361c.052,1.319-.492,2.156-1.884,2.156-1.57,0-2.209-.743-2.177-2.481Zm2.721.157v-.514c-.01-.6-.167-.784-.711-.784-.681,0-.649.523-.649,1.057v.241Z" fill="#1d1d1b"/>
    <path id="Trazado_873041" data-name="Trazado 873041" d="M240.778,199.508h.021a1.269,1.269,0,0,1,1.225-.764,1.287,1.287,0,0,1,1.36,1.507V204.8h-1.36v-3.936c0-.575-.063-.952-.576-.973s-.691.461-.67,1.088V204.8h-1.36v-5.9h1.36Z" fill="#1d1d1b"/>
    <path id="Trazado_873042" data-name="Trazado 873042" d="M246.65,204.824c-.8.094-1.936.167-1.936-.931v-4h-.554V198.9h.544v-1.622h1.371V198.9h.575v.994h-.575v3.664c.031.251.408.22.575.2Z" fill="#1d1d1b"/>
    <path id="Trazado_873043" data-name="Trazado 873043" d="M247.479,200.931a1.844,1.844,0,0,1,1.988-2.187c1.9,0,2.093.983,2.093,2.6v.795h-2.72v.858c.01.775.3.921.711.921.5,0,.649-.366.628-1.109h1.361c.052,1.319-.492,2.156-1.884,2.156-1.57,0-2.209-.743-2.177-2.481Zm2.721.157v-.514c-.01-.6-.167-.784-.711-.784-.68,0-.649.523-.649,1.057v.241Z" fill="#1d1d1b"/>
    <path id="Trazado_873044" data-name="Trazado 873044" d="M254.094,199.947h.021a1.944,1.944,0,0,1,.534-.837,1.172,1.172,0,0,1,.848-.315v1.612c-.754-.072-1.33.116-1.35.984V204.8h-1.362v-5.9h1.309Z" fill="#1d1d1b"/>
    <path id="Trazado_873045" data-name="Trazado 873045" d="M257.613,199.518h.021a1.126,1.126,0,0,1,1.182-.774c.879.02,1.381.491,1.413,2.113v2.135c-.032.943-.261,1.968-1.413,1.968a1.321,1.321,0,0,1-1.245-.764h-.021v2.586h-1.3V198.9h1.361Zm0,3.349c0,.68.219,1.046.659,1.046.418,0,.565-.45.6-1.015v-1.967c-.041-.586.022-1.141-.617-1.141s-.66.837-.638,1.308Z" fill="#1d1d1b"/>
    <path id="Trazado_873046" data-name="Trazado 873046" d="M262.816,199.947h.021a1.944,1.944,0,0,1,.534-.837,1.172,1.172,0,0,1,.848-.315v1.612c-.754-.072-1.33.116-1.35.984V204.8h-1.362v-5.9h1.309Z" fill="#1d1d1b"/>
    <path id="Trazado_873047" data-name="Trazado 873047" d="M265.141,196.953H266.5v1.235h-1.361Zm0,1.947H266.5v5.9h-1.361Z" fill="#1d1d1b"/>
    <path id="Trazado_873048" data-name="Trazado 873048" d="M268.941,202.857c-.1,1.088.314,1.057.628,1.057a.526.526,0,0,0,.565-.66c-.021-.335-.408-.523-.67-.7l-.743-.513a2.172,2.172,0,0,1-1.12-1.862c0-.911.722-1.434,2.031-1.434a1.683,1.683,0,0,1,1.894,1.957h-1.361c.032-.66-.156-.911-.628-.911-.324,0-.575.147-.575.482s.251.5.512.68l1.11.754a2.107,2.107,0,0,1,.932,1.161c.115,1.026-.136,2.094-2.021,2.094a1.765,1.765,0,0,1-1.914-2.1Z" fill="#1d1d1b"/>
    <path id="Trazado_873049" data-name="Trazado 873049" d="M272.48,200.931a1.844,1.844,0,0,1,1.988-2.187c1.9,0,2.093.983,2.093,2.6v.795h-2.72v.858c.01.775.3.921.711.921.5,0,.649-.366.628-1.109h1.361c.052,1.319-.492,2.156-1.884,2.156-1.57,0-2.209-.743-2.177-2.481Zm2.721.157v-.514c-.01-.6-.167-.784-.711-.784-.68,0-.649.523-.649,1.057v.241Z" fill="#1d1d1b"/>
    <path id="Trazado_873050" data-name="Trazado 873050" d="M280.08,196.765a10.307,10.307,0,0,0-.994,5.285,10.1,10.1,0,0,0,1.015,4.826h-.869a8.761,8.761,0,0,1-1.528-5.255,7.844,7.844,0,0,1,1.528-4.856Z" fill="#1d1d1b"/>
    <path id="Trazado_873051" data-name="Trazado 873051" d="M282.876,199.361h-1.769v-1.046c1.015-.011,1.863-.283,2.156-1.361h1.078V204.8h-1.465Z" fill="#1d1d1b"/>
    <path id="Trazado_873052" data-name="Trazado 873052" d="M286.447,206.876a10.309,10.309,0,0,0,.994-5.285,10.1,10.1,0,0,0-1.015-4.826h.869a8.768,8.768,0,0,1,1.528,5.255,7.845,7.845,0,0,1-1.528,4.856Z" fill="#1d1d1b"/>
    <line id="Línea_4693" data-name="Línea 4693" y1="29.696" x2="173.863" transform="translate(87.615 207.311)" fill="none" stroke="#1d1d1b" stroke-miterlimit="3.864" stroke-width="0.884"/>
    <path id="Trazado_873053" data-name="Trazado 873053" d="M85.26,238.388a2.355,2.355,0,1,1,2.355,2.355,2.356,2.356,0,0,1-2.355-2.355" fill="#1d1d1b"/>
    <line id="Línea_4694" data-name="Línea 4694" y1="29.696" x2="23.66" transform="translate(237.818 207.311)" fill="none" stroke="#1d1d1b" stroke-miterlimit="3.864" stroke-width="0.884"/>
    <path id="Trazado_873054" data-name="Trazado 873054" d="M235.461,238.388a2.355,2.355,0,1,1,2.356,2.355,2.357,2.357,0,0,1-2.356-2.355" fill="#1d1d1b"/>
    <line id="Línea_4695" data-name="Línea 4695" x1="33.725" y1="29.696" transform="translate(261.478 207.311)" fill="none" stroke="#1d1d1b" stroke-miterlimit="3.864" stroke-width="0.884"/>
    <path id="Trazado_873055" data-name="Trazado 873055" d="M292.848,238.388a2.355,2.355,0,1,1,2.355,2.355,2.356,2.356,0,0,1-2.355-2.355" fill="#1d1d1b"/>
    <line id="Línea_4696" data-name="Línea 4696" x1="97.037" y1="29.696" transform="translate(261.478 207.311)" fill="none" stroke="#1d1d1b" stroke-miterlimit="3.864" stroke-width="0.884"/>
    <path id="Trazado_873056" data-name="Trazado 873056" d="M356.16,238.388a2.355,2.355,0,1,1,2.355,2.355,2.356,2.356,0,0,1-2.355-2.355" fill="#1d1d1b"/>
    <path id="Trazado_873057" data-name="Trazado 873057" d="M68.08,249.48c-.1,1.088.314,1.057.628,1.057a.526.526,0,0,0,.565-.66c-.021-.335-.408-.523-.67-.7l-.743-.513a2.172,2.172,0,0,1-1.12-1.862c0-.911.722-1.434,2.031-1.434a1.683,1.683,0,0,1,1.894,1.957H69.3c.032-.66-.156-.911-.628-.911-.324,0-.575.147-.575.482s.251.5.512.68l1.111.754a2.109,2.109,0,0,1,.931,1.161c.115,1.026-.136,2.094-2.021,2.094a1.765,1.765,0,0,1-1.914-2.1Z" fill="#1d1d1b"/>
    <path id="Trazado_873058" data-name="Trazado 873058" d="M72.551,245.523l.6,3.13c.095.523.147,1.046.2,1.57h.021a14.987,14.987,0,0,1,.209-1.529l.6-3.171h1.382l-1.434,5.987c-.346,1.34-.377,2.177-2.261,1.9v-1.057c.22,0,.806.115.806-.262a3.857,3.857,0,0,0-.125-.753l-1.424-5.82Z" fill="#1d1d1b"/>
    <path id="Trazado_873059" data-name="Trazado 873059" d="M77.377,249.48c-.1,1.088.314,1.057.628,1.057a.526.526,0,0,0,.565-.66c-.021-.335-.408-.523-.67-.7l-.743-.513a2.172,2.172,0,0,1-1.12-1.862c0-.911.722-1.434,2.031-1.434a1.683,1.683,0,0,1,1.894,1.957H78.6c.032-.66-.156-.911-.628-.911-.324,0-.575.147-.575.482s.251.5.512.68l1.111.754a2.109,2.109,0,0,1,.931,1.161c.115,1.026-.136,2.094-2.021,2.094a1.765,1.765,0,0,1-1.914-2.1Z" fill="#1d1d1b"/>
    <path id="Trazado_873060" data-name="Trazado 873060" d="M83,251.447c-.805.094-1.936.167-1.936-.931v-4h-.554v-.994h.544V243.9h1.371v1.622H83v.994h-.575v3.664c.031.251.408.22.575.2Z" fill="#1d1d1b"/>
    <path id="Trazado_873061" data-name="Trazado 873061" d="M83.826,247.554a1.844,1.844,0,0,1,1.988-2.187c1.895,0,2.093.983,2.093,2.6v.795H85.188v.858c.009.775.3.921.71.921.5,0,.65-.366.628-1.109h1.361c.052,1.319-.491,2.156-1.884,2.156-1.57,0-2.209-.743-2.177-2.481Zm2.722.157V247.2c-.011-.6-.168-.784-.712-.784-.68,0-.648.523-.648,1.057v.241Z" fill="#1d1d1b"/>
    <path id="Trazado_873062" data-name="Trazado 873062" d="M90.558,246.13h.022a1.342,1.342,0,0,1,1.3-.764c.5-.011,1.172.209,1.256.764h.021a1.374,1.374,0,0,1,1.361-.764,1.277,1.277,0,0,1,1.444,1.256v4.8H94.6v-3.988c0-.534-.053-1.057-.65-1.026s-.69.44-.69,1.131v3.883H91.9v-4.062c0-.523-.042-.962-.67-.952s-.67.482-.67,1.131v3.883H89.2v-5.9h1.36Z" fill="#1d1d1b"/>
    <path id="Trazado_873063" data-name="Trazado 873063" d="M99.572,243.388a10.307,10.307,0,0,0-.994,5.285,10.1,10.1,0,0,0,1.015,4.826h-.869a8.761,8.761,0,0,1-1.528-5.255,7.844,7.844,0,0,1,1.528-4.856Z" fill="#1d1d1b"/>
    <path id="Trazado_873064" data-name="Trazado 873064" d="M102.368,245.984H100.6v-1.046c1.016-.011,1.864-.283,2.157-1.361h1.078v7.849h-1.465Z" fill="#1d1d1b"/>
    <path id="Trazado_873065" data-name="Trazado 873065" d="M105.939,253.5a10.309,10.309,0,0,0,.994-5.285,10.094,10.094,0,0,0-1.016-4.826h.87a8.768,8.768,0,0,1,1.528,5.255,7.844,7.844,0,0,1-1.528,4.856Z" fill="#1d1d1b"/>
    <path id="Trazado_873066" data-name="Trazado 873066" d="M209.734,243.576H211.1v1.235h-1.361Zm0,1.947H211.1v5.9h-1.361Z" fill="#1d1d1b"/>
    <path id="Trazado_873067" data-name="Trazado 873067" d="M213.87,246.13h.021a1.269,1.269,0,0,1,1.225-.764,1.287,1.287,0,0,1,1.36,1.507v4.553h-1.36V247.49c0-.575-.063-.952-.576-.973s-.691.461-.67,1.088v3.821h-1.36v-5.9h1.36Z" fill="#1d1d1b"/>
    <path id="Trazado_873068" data-name="Trazado 873068" d="M219.743,251.447c-.8.094-1.936.167-1.936-.931v-4h-.554v-.994h.543V243.9h1.372v1.622h.575v.994h-.575v3.664c.031.251.408.22.575.2Z" fill="#1d1d1b"/>
    <path id="Trazado_873069" data-name="Trazado 873069" d="M220.571,247.554a1.844,1.844,0,0,1,1.988-2.187c1.895,0,2.093.983,2.093,2.6v.795h-2.72v.858c.01.775.3.921.711.921.5,0,.649-.366.628-1.109h1.361c.052,1.319-.492,2.156-1.884,2.156-1.57,0-2.209-.743-2.177-2.481Zm2.721.157V247.2c-.01-.6-.167-.784-.711-.784-.68,0-.649.523-.649,1.057v.241Z" fill="#1d1d1b"/>
    <path id="Trazado_873070" data-name="Trazado 873070" d="M227.187,246.57h.021a1.944,1.944,0,0,1,.534-.837,1.165,1.165,0,0,1,.848-.314v1.611c-.754-.072-1.33.116-1.35.984v3.412h-1.362v-5.9h1.309Z" fill="#1d1d1b"/>
    <path id="Trazado_873071" data-name="Trazado 873071" d="M228.958,246.517v-.994h.522v-.586c0-1.067.439-1.361,1.434-1.361h.513v1.089a1.222,1.222,0,0,0-.3-.063c-.2,0-.283.1-.283.23v.691h.587v.994h-.587v4.909h-1.36v-4.909Z" fill="#1d1d1b"/>
    <path id="Trazado_873072" data-name="Trazado 873072" d="M234.966,251.426a1.082,1.082,0,0,1-.084-.606h-.021a1.764,1.764,0,0,1-.544.564,1.21,1.21,0,0,1-.649.2c-1.1,0-1.581-.555-1.581-1.768,0-1.35.953-1.675,2.02-2.115.576-.24.786-.5.67-.983-.062-.262-.272-.3-.638-.3-.618,0-.722.324-.712.858h-1.3c-.011-1.12.355-1.9,2.061-1.9,1.852,0,1.968.973,1.947,1.748V250.6a3.161,3.161,0,0,0,.115.827Zm-.189-3.108c-.335.23-.743.46-1.1.754a.908.908,0,0,0-.229.711c0,.45.135.753.637.753.807,0,.66-1.015.691-1.579Z" fill="#1d1d1b"/>
    <path id="Trazado_873073" data-name="Trazado 873073" d="M239.74,247.574v-.659c-.021-.325-.178-.5-.47-.5-.524,0-.524.6-.514,1.319v1.392c-.031,1.151.1,1.361.514,1.413.417-.011.429-.4.47-.869v-.544h1.36v.544c0,1.235-.512,1.916-1.862,1.916-1.2,0-1.9-.639-1.842-2.209v-1.915c-.011-1.654.806-2.093,1.842-2.093A1.647,1.647,0,0,1,241.1,247.1v.471Z" fill="#1d1d1b"/>
    <path id="Trazado_873074" data-name="Trazado 873074" d="M242.086,247.554a1.844,1.844,0,0,1,1.988-2.187c1.895,0,2.093.983,2.093,2.6v.795h-2.72v.858c.01.775.3.921.711.921.5,0,.649-.366.628-1.109h1.361c.052,1.319-.492,2.156-1.884,2.156-1.57,0-2.209-.743-2.177-2.481Zm2.721.157V247.2c-.01-.6-.167-.784-.711-.784-.681,0-.649.523-.649,1.057v.241Z" fill="#1d1d1b"/>
    <path id="Trazado_873075" data-name="Trazado 873075" d="M248.43,249.48c-.1,1.088.314,1.057.628,1.057a.526.526,0,0,0,.565-.66c-.021-.335-.408-.523-.67-.7l-.743-.513a2.172,2.172,0,0,1-1.12-1.862c0-.911.722-1.434,2.031-1.434a1.683,1.683,0,0,1,1.894,1.957h-1.361c.032-.66-.156-.911-.628-.911-.324,0-.575.147-.575.482s.251.5.512.68l1.111.754a2.109,2.109,0,0,1,.931,1.161c.115,1.026-.136,2.094-2.021,2.094a1.765,1.765,0,0,1-1.914-2.1Z" fill="#1d1d1b"/>
    <path id="Trazado_873076" data-name="Trazado 873076" d="M254.334,243.388a10.307,10.307,0,0,0-.994,5.285,10.1,10.1,0,0,0,1.015,4.826h-.869a8.761,8.761,0,0,1-1.528-5.255,7.845,7.845,0,0,1,1.528-4.856Z" fill="#1d1d1b"/>
    <path id="Trazado_873077" data-name="Trazado 873077" d="M255.236,251.426a11.394,11.394,0,0,1,.126-1.329,4.7,4.7,0,0,1,1.381-2.208l.711-.754a1.872,1.872,0,0,0,.723-1.507c0-.712-.282-.931-.7-.931a.644.644,0,0,0-.68.386,3.022,3.022,0,0,0-.116,1.109h-1.371v-.219c0-.69-.032-2.449,2.23-2.428a1.954,1.954,0,0,1,2.1,2.03,2.9,2.9,0,0,1-.932,2.146l-1.151,1.193a2.3,2.3,0,0,0-.764,1.36h2.731v1.152Z" fill="#1d1d1b"/>
    <path id="Trazado_873078" data-name="Trazado 873078" d="M260.7,253.5a10.309,10.309,0,0,0,.994-5.285,10.1,10.1,0,0,0-1.015-4.826h.869a8.767,8.767,0,0,1,1.527,5.255,7.843,7.843,0,0,1-1.527,4.856Z" fill="#1d1d1b"/>
    <path id="Trazado_873079" data-name="Trazado 873079" d="M288.413,251.426a1.082,1.082,0,0,1-.084-.606h-.021a1.764,1.764,0,0,1-.544.564,1.21,1.21,0,0,1-.649.2c-1.1,0-1.581-.555-1.581-1.768,0-1.35.953-1.675,2.02-2.115.576-.24.786-.5.67-.983-.062-.262-.272-.3-.638-.3-.618,0-.722.324-.712.858h-1.3c-.011-1.12.355-1.9,2.061-1.9,1.852,0,1.968.973,1.947,1.748V250.6a3.162,3.162,0,0,0,.115.827Zm-.189-3.108c-.335.23-.743.46-1.1.754a.908.908,0,0,0-.229.711c0,.45.135.753.637.753.807,0,.66-1.015.691-1.579Z" fill="#1d1d1b"/>
    <path id="Trazado_873080" data-name="Trazado 873080" d="M292.967,251.447c-.805.094-1.936.167-1.936-.931v-4h-.554v-.994h.543V243.9h1.372v1.622h.575v.994h-.575v3.664c.031.251.408.22.575.2Z" fill="#1d1d1b"/>
    <path id="Trazado_873081" data-name="Trazado 873081" d="M296.161,243.388a10.306,10.306,0,0,0-.994,5.285,10.1,10.1,0,0,0,1.015,4.826h-.869a8.761,8.761,0,0,1-1.528-5.255,7.844,7.844,0,0,1,1.528-4.856Z" fill="#1d1d1b"/>
    <path id="Trazado_873082" data-name="Trazado 873082" d="M298.517,246.653a2.73,2.73,0,0,0,.921-.115.931.931,0,0,0,.451-.963c0-.6-.221-.879-.7-.879a.619.619,0,0,0-.7.617v.555h-1.371c-.084-1.455.565-2.323,2.061-2.323a1.858,1.858,0,0,1,2.136,2.02c0,.68-.262,1.507-1.026,1.621v.022c.691.084,1.2.7,1.183,1.9,0,1.539-.67,2.471-2.282,2.471a1.971,1.971,0,0,1-2.166-2.3v-.46h1.371c.031.649-.105,1.611.827,1.611.8,0,.784-.753.784-1.486a1.47,1.47,0,0,0-.167-.826c-.272-.325-.911-.315-1.319-.315Z" fill="#1d1d1b"/>
    <path id="Trazado_873083" data-name="Trazado 873083" d="M302.527,253.5a10.309,10.309,0,0,0,.994-5.285,10.094,10.094,0,0,0-1.016-4.826h.869a8.762,8.762,0,0,1,1.529,5.255,7.839,7.839,0,0,1-1.529,4.856Z" fill="#1d1d1b"/>
    <path id="Trazado_873084" data-name="Trazado 873084" d="M340.783,246.57h.021a1.953,1.953,0,0,1,.533-.837,1.166,1.166,0,0,1,.848-.314v1.611c-.755-.072-1.329.116-1.35.984v3.412h-1.361v-5.9h1.309Z" fill="#1d1d1b"/>
    <path id="Trazado_873085" data-name="Trazado 873085" d="M344.384,246.13h.021a1.344,1.344,0,0,1,1.3-.764c.5-.011,1.172.209,1.257.764h.02a1.373,1.373,0,0,1,1.361-.764,1.276,1.276,0,0,1,1.443,1.256v4.8h-1.36v-3.988c0-.534-.052-1.057-.649-1.026s-.691.44-.691,1.131v3.883h-1.36v-4.062c0-.523-.042-.962-.67-.952s-.67.482-.67,1.131v3.883h-1.36v-5.9h1.36Z" fill="#1d1d1b"/>
    <path id="Trazado_873086" data-name="Trazado 873086" d="M351.033,248.683c.01-2.019.032-3.317,2.083-3.317,2.02,0,2.031,1.3,2.041,3.317.01,2.052-.283,2.931-2.041,2.9-1.79.031-2.094-.848-2.083-2.9m1.36.817c0,.722.064,1.036.723,1.036.629,0,.681-.314.681-1.036v-1.968c0-.554,0-1.12-.681-1.12-.723,0-.723.566-.723,1.12Z" fill="#1d1d1b"/>
    <path id="Trazado_873087" data-name="Trazado 873087" d="M357.712,246.13h.021a1.269,1.269,0,0,1,1.224-.764,1.288,1.288,0,0,1,1.362,1.507v4.553h-1.362V247.49c0-.575-.062-.952-.575-.973s-.691.461-.67,1.088v3.821h-1.36v-5.9h1.36Z" fill="#1d1d1b"/>
    <path id="Trazado_873088" data-name="Trazado 873088" d="M363.868,243.388a10.317,10.317,0,0,0-.994,5.285,10.105,10.105,0,0,0,1.016,4.826h-.87a8.775,8.775,0,0,1-1.528-5.255,7.851,7.851,0,0,1,1.528-4.856Z" fill="#1d1d1b"/>
    <path id="Trazado_873089" data-name="Trazado 873089" d="M366.663,245.984h-1.768v-1.046c1.015-.011,1.863-.283,2.156-1.361h1.078v7.849h-1.466Z" fill="#1d1d1b"/>
    <path id="Trazado_873090" data-name="Trazado 873090" d="M370.109,246.717c0-2.5.721-3.172,2.27-3.172,1.151,0,1.978.524,1.937,1.769h-1.361c-.01-.261-.032-.659-.628-.617-.827.062-.754.993-.775,1.465v.5a1.342,1.342,0,0,1,1.151-.523c1.247,0,1.77.848,1.77,2.459,0,1.968-.471,2.983-2.167,2.983-1.749,0-2.22-1.141-2.2-2.983Zm2.218,3.715c.763-.01.68-.722.68-1.727,0-.565.073-1.412-.711-1.412-.723,0-.723.763-.723,1.412-.011.973-.031,1.8.754,1.727" fill="#1d1d1b"/>
    <path id="Trazado_873091" data-name="Trazado 873091" d="M375.468,253.5a10.309,10.309,0,0,0,.994-5.285,10.092,10.092,0,0,0-1.015-4.826h.869a8.762,8.762,0,0,1,1.529,5.255,7.839,7.839,0,0,1-1.529,4.856Z" fill="#1d1d1b"/>
    <line id="Línea_4697" data-name="Línea 4697" y1="29.694" transform="translate(87.615 252.79)" fill="none" stroke="#1d1d1b" stroke-miterlimit="3.864" stroke-width="0.884"/>
    <path id="Trazado_873092" data-name="Trazado 873092" d="M85.26,283.865a2.355,2.355,0,1,1,2.355,2.356,2.355,2.355,0,0,1-2.355-2.356" fill="#1d1d1b"/>
    <path id="Trazado_873093" data-name="Trazado 873093" d="M57.912,293.158c-.1,1.088.314,1.057.628,1.057a.526.526,0,0,0,.565-.659c-.021-.335-.408-.524-.67-.7l-.743-.513a2.172,2.172,0,0,1-1.12-1.862c0-.911.722-1.434,2.031-1.434A1.683,1.683,0,0,1,60.5,291H59.136c.032-.66-.156-.911-.628-.911-.324,0-.575.147-.575.482s.251.5.512.68l1.111.754a2.109,2.109,0,0,1,.931,1.161c.115,1.026-.136,2.094-2.021,2.094a1.765,1.765,0,0,1-1.914-2.1Z" fill="#1d1d1b"/>
    <path id="Trazado_873094" data-name="Trazado 873094" d="M62.382,289.2l.6,3.129c.1.523.147,1.046.2,1.57H63.2a15.022,15.022,0,0,1,.209-1.529l.6-3.17h1.382l-1.434,5.986c-.346,1.34-.377,2.177-2.261,1.9v-1.057c.22,0,.806.115.806-.262a3.882,3.882,0,0,0-.125-.753L60.948,289.2Z" fill="#1d1d1b"/>
    <path id="Trazado_873095" data-name="Trazado 873095" d="M67.209,293.158c-.105,1.088.313,1.057.628,1.057a.525.525,0,0,0,.564-.659c-.02-.335-.408-.524-.67-.7l-.742-.513a2.173,2.173,0,0,1-1.121-1.862c0-.911.722-1.434,2.031-1.434A1.683,1.683,0,0,1,69.794,291H68.433c.032-.66-.157-.911-.629-.911-.324,0-.575.147-.575.482s.251.5.513.68l1.111.754a2.109,2.109,0,0,1,.931,1.161c.114,1.026-.137,2.094-2.022,2.094a1.764,1.764,0,0,1-1.913-2.1Z" fill="#1d1d1b"/>
    <path id="Trazado_873096" data-name="Trazado 873096" d="M70.831,290.552c.062-2,.219-3.486,2.565-3.486s2.5,1.486,2.563,3.486v1.119c0,2.093-.157,3.621-2.563,3.621s-2.565-1.528-2.565-3.621Zm1.508,1.852c0,.649.051,1.706,1.057,1.706,1.046,0,1.056-1.078,1.056-1.832v-2.01c0-.627.031-2.019-1.056-2.019-1.152,0-1.057,1.37-1.057,1.978Z" fill="#1d1d1b"/>
    <path id="Trazado_873097" data-name="Trazado 873097" d="M77.26,287.254h1.36v1.885c0,.188-.021.376-.031.659h.021a1.168,1.168,0,0,1,1.214-.753c.879.02,1.381.47,1.413,2.093v2.134c-.032.942-.262,1.989-1.413,1.989a1.3,1.3,0,0,1-1.245-.785h-.021v.628h-1.3Zm1.36,5.914c0,.68.22,1.046.659,1.046.419,0,.566-.45.6-1.015v-1.967c-.041-.586.022-1.141-.617-1.141s-.66.837-.639,1.308Z" fill="#1d1d1b"/>
    <path id="Trazado_873098" data-name="Trazado 873098" d="M82.15,296.046c.314.022.5-.021.5-.313V289.2h1.36v5.933c0,.618.115,1.55-.555,1.864a3.118,3.118,0,0,1-1.307.094Zm.5-8.792h1.36v1.235h-1.36Z" fill="#1d1d1b"/>
    <path id="Trazado_873099" data-name="Trazado 873099" d="M85.29,291.232a1.844,1.844,0,0,1,1.988-2.187c1.895,0,2.093.983,2.093,2.6v.795h-2.72v.858c.01.775.3.921.711.921.5,0,.649-.366.628-1.109h1.361c.052,1.319-.492,2.156-1.884,2.156-1.57,0-2.209-.743-2.177-2.481Zm2.721.157v-.513c-.01-.6-.167-.785-.711-.785-.681,0-.649.523-.649,1.057v.241Z" fill="#1d1d1b"/>
    <path id="Trazado_873100" data-name="Trazado 873100" d="M92.827,291.253v-.659c-.021-.325-.178-.5-.47-.5-.524,0-.524.6-.514,1.319V292.8c-.031,1.151.1,1.361.514,1.413.417-.011.429-.4.47-.869V292.8h1.36v.544c0,1.235-.512,1.916-1.862,1.916-1.2,0-1.895-.639-1.842-2.208v-1.916c-.011-1.654.806-2.093,1.842-2.093a1.647,1.647,0,0,1,1.862,1.737v.471Z" fill="#1d1d1b"/>
    <path id="Trazado_873101" data-name="Trazado 873101" d="M97.256,295.125c-.806.094-1.937.167-1.937-.931v-4h-.554V289.2h.544v-1.623H96.68V289.2h.576v.993H96.68v3.664c.031.251.409.22.576.2Z" fill="#1d1d1b"/>
    <rect id="Rectángulo_402879" data-name="Rectángulo 402879" width="1.465" height="7.85" transform="translate(98.251 287.254)" fill="#1d1d1b"/>
    <path id="Trazado_873102" data-name="Trazado 873102" d="M101.193,295.105v-7.85h3.057a1.816,1.816,0,0,1,1.517.89,5.482,5.482,0,0,1,.429,2.71c0,1.549,0,3.339-1.2,4.041a2.159,2.159,0,0,1-1.088.209Zm2.1-1.152c1.309,0,1.392-.691,1.392-2.962,0-1.852-.189-2.585-1.067-2.585h-.964v5.547Z" fill="#1d1d1b"/>
    <path id="Trazado_873103" data-name="Trazado 873103" d="M109.757,287.066a10.307,10.307,0,0,0-.994,5.285,10.1,10.1,0,0,0,1.015,4.826h-.869a8.761,8.761,0,0,1-1.528-5.255,7.844,7.844,0,0,1,1.528-4.856Z" fill="#1d1d1b"/>
    <path id="Trazado_873104" data-name="Trazado 873104" d="M110.657,295.1a11.613,11.613,0,0,1,.125-1.329,4.711,4.711,0,0,1,1.382-2.208l.712-.754a1.874,1.874,0,0,0,.722-1.507c0-.712-.282-.931-.7-.931a.644.644,0,0,0-.68.386,3.025,3.025,0,0,0-.116,1.11H110.73v-.22c0-.69-.031-2.449,2.229-2.428a1.954,1.954,0,0,1,2.105,2.03,2.9,2.9,0,0,1-.933,2.146l-1.15,1.193a2.3,2.3,0,0,0-.764,1.36h2.731V295.1Z" fill="#1d1d1b"/>
    <path id="Trazado_873105" data-name="Trazado 873105" d="M116.123,297.177a10.307,10.307,0,0,0,.994-5.285,10.093,10.093,0,0,0-1.016-4.826h.87a8.768,8.768,0,0,1,1.528,5.255,7.846,7.846,0,0,1-1.528,4.856Z" fill="#1d1d1b"/>
    <line id="Línea_4698" data-name="Línea 4698" y1="29.694" x2="62.793" transform="translate(24.823 252.79)" fill="none" stroke="#1d1d1b" stroke-miterlimit="3.864" stroke-width="0.884"/>
    <path id="Trazado_873106" data-name="Trazado 873106" d="M22.468,283.865a2.356,2.356,0,1,1,2.355,2.356,2.355,2.355,0,0,1-2.355-2.356" fill="#1d1d1b"/>
    <path id="Trazado_873107" data-name="Trazado 873107" d="M1.373,293.158c-.1,1.088.314,1.057.628,1.057a.526.526,0,0,0,.565-.659c-.021-.335-.408-.524-.67-.7l-.743-.513a2.172,2.172,0,0,1-1.12-1.862c0-.911.722-1.434,2.031-1.434A1.683,1.683,0,0,1,3.958,291H2.6c.032-.66-.156-.911-.628-.911-.324,0-.575.147-.575.482s.251.5.512.68l1.111.754a2.109,2.109,0,0,1,.931,1.161c.115,1.026-.136,2.094-2.021,2.094a1.765,1.765,0,0,1-1.914-2.1Z" fill="#1d1d1b"/>
    <path id="Trazado_873108" data-name="Trazado 873108" d="M5.844,289.2l.6,3.129c.1.523.147,1.046.2,1.57H6.66a14.745,14.745,0,0,1,.208-1.529l.6-3.17H8.847l-1.434,5.986c-.345,1.34-.377,2.177-2.26,1.9v-1.057c.219,0,.805.115.805-.262a3.807,3.807,0,0,0-.125-.753L4.41,289.2Z" fill="#1d1d1b"/>
    <path id="Trazado_873109" data-name="Trazado 873109" d="M10.67,293.158c-.1,1.088.314,1.057.628,1.057a.526.526,0,0,0,.565-.659c-.021-.335-.408-.524-.67-.7l-.743-.513a2.172,2.172,0,0,1-1.12-1.862c0-.911.722-1.434,2.031-1.434A1.683,1.683,0,0,1,13.255,291H11.894c.032-.66-.156-.911-.628-.911-.324,0-.575.147-.575.482s.251.5.512.68l1.111.754a2.109,2.109,0,0,1,.931,1.161c.115,1.026-.136,2.094-2.021,2.094a1.765,1.765,0,0,1-1.914-2.1Z" fill="#1d1d1b"/>
    <path id="Trazado_873110" data-name="Trazado 873110" d="M14.407,295.105v-7.85h3.056a1.816,1.816,0,0,1,1.518.89,5.482,5.482,0,0,1,.429,2.71c0,1.549,0,3.339-1.2,4.041a2.157,2.157,0,0,1-1.088.209Zm2.1-1.152c1.309,0,1.392-.691,1.392-2.962,0-1.852-.188-2.585-1.067-2.585h-.963v5.547Z" fill="#1d1d1b"/>
    <path id="Trazado_873111" data-name="Trazado 873111" d="M20.6,291.232a1.844,1.844,0,0,1,1.988-2.187c1.9,0,2.093.983,2.093,2.6v.795h-2.72v.858c.01.775.3.921.711.921.5,0,.649-.366.628-1.109h1.361c.052,1.319-.492,2.156-1.884,2.156-1.57,0-2.209-.743-2.177-2.481Zm2.721.157v-.513c-.01-.6-.167-.785-.711-.785-.681,0-.649.523-.649,1.057v.241Z" fill="#1d1d1b"/>
    <path id="Trazado_873112" data-name="Trazado 873112" d="M26.95,293.158c-.1,1.088.314,1.057.628,1.057a.526.526,0,0,0,.565-.659c-.021-.335-.408-.524-.67-.7l-.743-.513a2.172,2.172,0,0,1-1.12-1.862c0-.911.723-1.434,2.031-1.434A1.683,1.683,0,0,1,29.535,291h-1.36c.031-.66-.157-.911-.629-.911-.324,0-.575.147-.575.482s.251.5.512.68l1.11.754a2.107,2.107,0,0,1,.932,1.161c.115,1.026-.136,2.094-2.02,2.094a1.765,1.765,0,0,1-1.915-2.1Z" fill="#1d1d1b"/>
    <path id="Trazado_873113" data-name="Trazado 873113" d="M32.791,291.253v-.659c-.021-.325-.178-.5-.471-.5-.523,0-.523.6-.513,1.319V292.8c-.031,1.151.105,1.361.513,1.413.419-.011.43-.4.471-.869V292.8h1.36v.544c0,1.235-.512,1.916-1.862,1.916-1.2,0-1.894-.639-1.842-2.208v-1.916c-.011-1.654.806-2.093,1.842-2.093a1.648,1.648,0,0,1,1.862,1.737v.471Z" fill="#1d1d1b"/>
    <path id="Trazado_873114" data-name="Trazado 873114" d="M36.519,290.248h.021a1.944,1.944,0,0,1,.534-.837,1.165,1.165,0,0,1,.848-.314v1.612c-.754-.073-1.33.115-1.35.983V295.1H35.21v-5.9h1.309Z" fill="#1d1d1b"/>
    <path id="Trazado_873115" data-name="Trazado 873115" d="M40.989,287.066a10.307,10.307,0,0,0-.994,5.285,10.1,10.1,0,0,0,1.015,4.826h-.869a8.761,8.761,0,0,1-1.528-5.255,7.844,7.844,0,0,1,1.528-4.856Z" fill="#1d1d1b"/>
    <path id="Trazado_873116" data-name="Trazado 873116" d="M43.784,289.662H42.015v-1.047c1.015-.01,1.863-.282,2.156-1.36h1.078V295.1H43.784Z" fill="#1d1d1b"/>
    <path id="Trazado_873117" data-name="Trazado 873117" d="M47.355,297.177a10.307,10.307,0,0,0,.994-5.285,10.1,10.1,0,0,0-1.015-4.826H48.2a8.768,8.768,0,0,1,1.528,5.255,7.846,7.846,0,0,1-1.528,4.856Z" fill="#1d1d1b"/>
    <line id="Línea_4699" data-name="Línea 4699" x1="67.426" y1="29.694" transform="translate(87.615 252.79)" fill="none" stroke="#1d1d1b" stroke-miterlimit="3.864" stroke-width="0.884"/>
    <path id="Trazado_873118" data-name="Trazado 873118" d="M152.685,283.865a2.355,2.355,0,1,1,2.357,2.356,2.356,2.356,0,0,1-2.357-2.356" fill="#1d1d1b"/>
    <path id="Trazado_873119" data-name="Trazado 873119" d="M125.016,293.158c-.1,1.088.314,1.057.628,1.057a.526.526,0,0,0,.565-.659c-.021-.335-.408-.524-.67-.7l-.743-.513a2.172,2.172,0,0,1-1.12-1.862c0-.911.722-1.434,2.031-1.434A1.683,1.683,0,0,1,127.6,291H126.24c.032-.66-.156-.911-.628-.911-.324,0-.575.147-.575.482s.251.5.512.68l1.111.754a2.109,2.109,0,0,1,.931,1.161c.115,1.026-.136,2.094-2.021,2.094a1.765,1.765,0,0,1-1.914-2.1Z" fill="#1d1d1b"/>
    <path id="Trazado_873120" data-name="Trazado 873120" d="M129.487,289.2l.6,3.129c.1.523.147,1.046.2,1.57h.021a15.027,15.027,0,0,1,.209-1.529l.6-3.17h1.382l-1.434,5.986c-.346,1.34-.377,2.177-2.261,1.9v-1.057c.22,0,.806.115.806-.262a3.882,3.882,0,0,0-.125-.753l-1.424-5.819Z" fill="#1d1d1b"/>
    <path id="Trazado_873121" data-name="Trazado 873121" d="M134.313,293.158c-.1,1.088.314,1.057.628,1.057a.526.526,0,0,0,.565-.659c-.021-.335-.408-.524-.67-.7l-.743-.513a2.172,2.172,0,0,1-1.12-1.862c0-.911.722-1.434,2.031-1.434A1.683,1.683,0,0,1,136.9,291h-1.361c.032-.66-.156-.911-.628-.911-.324,0-.575.147-.575.482s.251.5.512.68l1.111.754a2.109,2.109,0,0,1,.931,1.161c.115,1.026-.136,2.094-2.021,2.094a1.765,1.765,0,0,1-1.914-2.1Z" fill="#1d1d1b"/>
    <path id="Trazado_873122" data-name="Trazado 873122" d="M141.526,287.254h1.465v5.474c0,1.737-.566,2.564-2.481,2.564-1.936,0-2.5-.827-2.5-2.564v-5.474h1.465V292.6c0,.754.053,1.507,1.047,1.507.952,0,1.005-.753,1.005-1.507Z" fill="#1d1d1b"/>
    <path id="Trazado_873123" data-name="Trazado 873123" d="M145.662,289.819h.021a1.127,1.127,0,0,1,1.182-.774c.879.02,1.381.492,1.413,2.113v2.135c-.032.943-.261,1.968-1.413,1.968a1.319,1.319,0,0,1-1.245-.764H145.6v2.586h-1.3V289.2h1.361Zm0,3.349c0,.68.219,1.046.659,1.046.418,0,.565-.45.6-1.015v-1.967c-.041-.586.022-1.141-.617-1.141s-.66.837-.638,1.308Z" fill="#1d1d1b"/>
    <path id="Trazado_873124" data-name="Trazado 873124" d="M149.107,287.254H154v1.151h-1.706v6.7h-1.465v-6.7h-1.717Z" fill="#1d1d1b"/>
    <path id="Trazado_873125" data-name="Trazado 873125" d="M154.76,287.254h1.36v1.235h-1.36Zm0,1.948h1.36v5.9h-1.36Z" fill="#1d1d1b"/>
    <path id="Trazado_873126" data-name="Trazado 873126" d="M158.948,289.809h.021a1.342,1.342,0,0,1,1.3-.764c.5-.01,1.172.209,1.256.764h.021a1.374,1.374,0,0,1,1.361-.764,1.276,1.276,0,0,1,1.444,1.256v4.8h-1.36v-3.988c0-.534-.053-1.057-.649-1.026s-.691.44-.691,1.131v3.883h-1.36v-4.061c0-.524-.043-.963-.67-.953s-.67.482-.67,1.131v3.883h-1.361v-5.9h1.361Z" fill="#1d1d1b"/>
    <path id="Trazado_873127" data-name="Trazado 873127" d="M165.6,291.232a1.845,1.845,0,0,1,1.989-2.187c1.894,0,2.092.983,2.092,2.6v.795h-2.719v.858c.009.775.3.921.711.921.5,0,.649-.366.627-1.109h1.362c.052,1.319-.493,2.156-1.885,2.156-1.57,0-2.209-.743-2.177-2.481Zm2.722.157v-.513c-.011-.6-.168-.785-.712-.785-.68,0-.648.523-.648,1.057v.241Z" fill="#1d1d1b"/>
    <path id="Trazado_873128" data-name="Trazado 873128" d="M171.941,293.158c-.1,1.088.314,1.057.628,1.057a.526.526,0,0,0,.565-.659c-.021-.335-.408-.524-.67-.7l-.743-.513a2.172,2.172,0,0,1-1.12-1.862c0-.911.722-1.434,2.031-1.434A1.683,1.683,0,0,1,174.526,291h-1.361c.032-.66-.156-.911-.628-.911-.324,0-.575.147-.575.482s.251.5.512.68l1.111.754a2.109,2.109,0,0,1,.931,1.161c.115,1.026-.136,2.094-2.021,2.094a1.765,1.765,0,0,1-1.914-2.1Z" fill="#1d1d1b"/>
    <path id="Trazado_873129" data-name="Trazado 873129" d="M177.845,287.066a10.307,10.307,0,0,0-.994,5.285,10.1,10.1,0,0,0,1.015,4.826H177a8.76,8.76,0,0,1-1.527-5.255A7.844,7.844,0,0,1,177,287.066Z" fill="#1d1d1b"/>
    <path id="Trazado_873130" data-name="Trazado 873130" d="M180.2,290.332a2.73,2.73,0,0,0,.921-.115.931.931,0,0,0,.451-.963c0-.6-.22-.879-.7-.879a.619.619,0,0,0-.7.617v.555H178.8c-.084-1.455.565-2.323,2.061-2.323a1.858,1.858,0,0,1,2.136,2.02c0,.68-.262,1.507-1.026,1.621v.022c.691.084,1.2.7,1.183,1.9,0,1.539-.67,2.471-2.282,2.471a1.971,1.971,0,0,1-2.166-2.3v-.46h1.371c.031.649-.105,1.611.827,1.611.8,0,.784-.753.784-1.486a1.477,1.477,0,0,0-.167-.827c-.272-.324-.911-.314-1.319-.314Z" fill="#1d1d1b"/>
    <path id="Trazado_873131" data-name="Trazado 873131" d="M184.211,297.177a10.307,10.307,0,0,0,.994-5.285,10.093,10.093,0,0,0-1.016-4.826h.87a8.767,8.767,0,0,1,1.527,5.255,7.846,7.846,0,0,1-1.527,4.856Z" fill="#1d1d1b"/>
    <line id="Línea_4700" data-name="Línea 4700" y1="29.694" x2="14.371" transform="translate(221.131 252.79)" fill="none" stroke="#1d1d1b" stroke-miterlimit="3.864" stroke-width="0.884"/>
    <path id="Trazado_873132" data-name="Trazado 873132" d="M218.775,283.865a2.357,2.357,0,1,1,2.357,2.356,2.356,2.356,0,0,1-2.357-2.356" fill="#1d1d1b"/>
    <path id="Trazado_873133" data-name="Trazado 873133" d="M196.335,287.254h1.36v1.235h-1.36Zm0,1.948h1.36v5.9h-1.36Z" fill="#1d1d1b"/>
    <path id="Trazado_873134" data-name="Trazado 873134" d="M198.691,290.2V289.2h.523v-.587c0-1.066.439-1.36,1.434-1.36h.513v1.089a1.244,1.244,0,0,0-.3-.063c-.2,0-.284.1-.284.23v.691h.587v.994h-.587V295.1h-1.36V290.2Z" fill="#1d1d1b"/>
    <path id="Trazado_873135" data-name="Trazado 873135" d="M205.6,287.254h1.465v7.85h-1.528L204.4,292.31a26.256,26.256,0,0,1-1.046-3.12h-.022c.054.649.116,1.445.157,2.24s.074,1.57.074,2.2V295.1h-1.465v-7.85h1.517l1.14,2.857a25.752,25.752,0,0,1,1.047,3.12h.021c-.053-.712-.1-1.476-.146-2.23s-.073-1.507-.073-2.208Z" fill="#1d1d1b"/>
    <path id="Trazado_873136" data-name="Trazado 873136" d="M210.992,294.226h-.021a1.241,1.241,0,0,1-1.266,1.036c-1.078,0-1.319-.555-1.319-1.538V289.2h1.361v4.04a1.437,1.437,0,0,0,.136.785.525.525,0,0,0,.418.188c.639,0,.629-.722.629-1.183V289.2h1.36v5.9h-1.3Z" fill="#1d1d1b"/>
    <path id="Trazado_873137" data-name="Trazado 873137" d="M215.064,289.809h.022a1.342,1.342,0,0,1,1.3-.764c.5-.01,1.172.209,1.256.764h.021a1.374,1.374,0,0,1,1.361-.764,1.276,1.276,0,0,1,1.444,1.256v4.8H219.1v-3.988c0-.534-.053-1.057-.65-1.026s-.69.44-.69,1.131v3.883H216.4v-4.061c0-.524-.042-.963-.67-.953s-.67.482-.67,1.131v3.883H213.7v-5.9h1.36Z" fill="#1d1d1b"/>
    <path id="Trazado_873138" data-name="Trazado 873138" d="M221.829,287.254h1.36v1.885c0,.188-.021.376-.031.659h.021a1.168,1.168,0,0,1,1.214-.753c.879.02,1.381.47,1.413,2.093v2.134c-.032.942-.262,1.989-1.413,1.989a1.3,1.3,0,0,1-1.245-.785h-.021v.628h-1.3Zm1.36,5.914c0,.68.22,1.046.659,1.046.419,0,.566-.45.6-1.015v-1.967c-.041-.586.022-1.141-.617-1.141s-.66.837-.639,1.308Z" fill="#1d1d1b"/>
    <path id="Trazado_873139" data-name="Trazado 873139" d="M226.949,291.232a1.844,1.844,0,0,1,1.988-2.187c1.9,0,2.093.983,2.093,2.6v.795h-2.72v.858c.01.775.3.921.711.921.5,0,.649-.366.628-1.109h1.361c.052,1.319-.492,2.156-1.884,2.156-1.57,0-2.209-.743-2.177-2.481Zm2.721.157v-.513c-.01-.6-.167-.785-.711-.785-.68,0-.649.523-.649,1.057v.241Z" fill="#1d1d1b"/>
    <path id="Trazado_873140" data-name="Trazado 873140" d="M233.565,290.248h.021a1.944,1.944,0,0,1,.534-.837,1.166,1.166,0,0,1,.848-.314v1.612c-.754-.073-1.33.115-1.35.983V295.1h-1.361v-5.9h1.308Z" fill="#1d1d1b"/>
    <path id="Trazado_873141" data-name="Trazado 873141" d="M238.035,287.066a10.307,10.307,0,0,0-.994,5.285,10.1,10.1,0,0,0,1.015,4.826h-.869a8.761,8.761,0,0,1-1.528-5.255,7.844,7.844,0,0,1,1.528-4.856Z" fill="#1d1d1b"/>
    <path id="Trazado_873142" data-name="Trazado 873142" d="M240.831,289.662h-1.77v-1.047c1.016-.01,1.864-.282,2.157-1.36H242.3V295.1h-1.465Z" fill="#1d1d1b"/>
    <path id="Trazado_873143" data-name="Trazado 873143" d="M244.4,297.177a10.307,10.307,0,0,0,.994-5.285,10.094,10.094,0,0,0-1.016-4.826h.87a8.768,8.768,0,0,1,1.528,5.255,7.846,7.846,0,0,1-1.528,4.856Z" fill="#1d1d1b"/>
    <line id="Línea_4701" data-name="Línea 4701" x1="41.017" y1="29.694" transform="translate(235.501 252.79)" fill="none" stroke="#1d1d1b" stroke-miterlimit="3.864" stroke-width="0.884"/>
    <path id="Trazado_873144" data-name="Trazado 873144" d="M274.162,283.865a2.357,2.357,0,1,1,2.356,2.356,2.355,2.355,0,0,1-2.356-2.356" fill="#1d1d1b"/>
    <path id="Trazado_873145" data-name="Trazado 873145" d="M256.76,287.254h1.36v1.235h-1.36Zm0,1.948h1.36v5.9h-1.36Z" fill="#1d1d1b"/>
    <path id="Trazado_873146" data-name="Trazado 873146" d="M259.116,290.2V289.2h.523v-.587c0-1.066.439-1.36,1.434-1.36h.513v1.089a1.244,1.244,0,0,0-.3-.063c-.2,0-.284.1-.284.23v.691h.587v.994H261V295.1h-1.36V290.2Z" fill="#1d1d1b"/>
    <path id="Trazado_873147" data-name="Trazado 873147" d="M261.985,287.254h4.888v1.151h-1.706v6.7H263.7v-6.7h-1.717Z" fill="#1d1d1b"/>
    <path id="Trazado_873148" data-name="Trazado 873148" d="M269.6,295.1a1.083,1.083,0,0,1-.084-.606h-.021a1.777,1.777,0,0,1-.544.565,1.217,1.217,0,0,1-.649.2c-1.1,0-1.581-.555-1.581-1.768,0-1.35.953-1.675,2.02-2.114.576-.241.786-.5.67-.984-.062-.262-.272-.3-.638-.3-.618,0-.722.324-.712.858h-1.3c-.011-1.12.355-1.9,2.061-1.9,1.852,0,1.968.973,1.947,1.747v3.485a3.156,3.156,0,0,0,.115.827ZM269.407,292c-.335.23-.743.46-1.1.754a.908.908,0,0,0-.229.711c0,.45.135.753.637.753.807,0,.66-1.015.691-1.58Z" fill="#1d1d1b"/>
    <path id="Trazado_873149" data-name="Trazado 873149" d="M272.182,287.254h1.36v1.885c0,.188-.021.376-.031.659h.021a1.168,1.168,0,0,1,1.214-.753c.879.02,1.381.47,1.413,2.093v2.134c-.032.942-.262,1.989-1.413,1.989a1.3,1.3,0,0,1-1.245-.785h-.021v.628h-1.3Zm1.36,5.914c0,.68.22,1.046.659,1.046.419,0,.566-.45.6-1.015v-1.967c-.041-.586.022-1.141-.617-1.141s-.66.837-.639,1.308Z" fill="#1d1d1b"/>
    <rect id="Rectángulo_402880" data-name="Rectángulo 402880" width="1.36" height="7.85" transform="translate(277.521 287.254)" fill="#1d1d1b"/>
    <path id="Trazado_873150" data-name="Trazado 873150" d="M280.213,291.232a1.844,1.844,0,0,1,1.988-2.187c1.9,0,2.093.983,2.093,2.6v.795h-2.72v.858c.01.775.3.921.711.921.5,0,.649-.366.628-1.109h1.361c.052,1.319-.492,2.156-1.884,2.156-1.57,0-2.209-.743-2.177-2.481Zm2.721.157v-.513c-.01-.6-.167-.785-.711-.785-.68,0-.649.523-.649,1.057v.241Z" fill="#1d1d1b"/>
    <path id="Trazado_873151" data-name="Trazado 873151" d="M287.812,287.066a10.306,10.306,0,0,0-.994,5.285,10.1,10.1,0,0,0,1.015,4.826h-.869a8.76,8.76,0,0,1-1.527-5.255,7.843,7.843,0,0,1,1.527-4.856Z" fill="#1d1d1b"/>
    <path id="Trazado_873152" data-name="Trazado 873152" d="M288.714,295.1a11.414,11.414,0,0,1,.126-1.329,4.7,4.7,0,0,1,1.381-2.208l.711-.754a1.872,1.872,0,0,0,.723-1.507c0-.712-.282-.931-.7-.931a.644.644,0,0,0-.68.386,3.026,3.026,0,0,0-.116,1.11h-1.371v-.22c0-.69-.032-2.449,2.23-2.428a1.954,1.954,0,0,1,2.1,2.03,2.9,2.9,0,0,1-.932,2.146l-1.151,1.193a2.3,2.3,0,0,0-.764,1.36h2.731V295.1Z" fill="#1d1d1b"/>
    <path id="Trazado_873153" data-name="Trazado 873153" d="M294.179,297.177a10.306,10.306,0,0,0,.994-5.285,10.1,10.1,0,0,0-1.015-4.826h.869a8.768,8.768,0,0,1,1.528,5.255,7.846,7.846,0,0,1-1.528,4.856Z" fill="#1d1d1b"/>
    <line id="Línea_4702" data-name="Línea 4702" y1="29.696" transform="translate(276.518 296.632)" fill="none" stroke="#1d1d1b" stroke-miterlimit="3.864" stroke-width="0.884"/>
    <path id="Trazado_873154" data-name="Trazado 873154" d="M274.162,327.707a2.357,2.357,0,1,1,2.356,2.357,2.357,2.357,0,0,1-2.356-2.357" fill="#1d1d1b"/>
    <path id="Trazado_873155" data-name="Trazado 873155" d="M257.413,331.1h1.361v1.235h-1.361Zm0,1.946h1.361v5.9h-1.361Z" fill="#1d1d1b"/>
    <path id="Trazado_873156" data-name="Trazado 873156" d="M259.77,334.038v-.994h.523v-.586c0-1.067.439-1.361,1.434-1.361h.513v1.089a1.231,1.231,0,0,0-.3-.063c-.2,0-.283.1-.283.23v.691h.587v.994h-.587v4.909h-1.36v-4.909Z" fill="#1d1d1b"/>
    <path id="Trazado_873157" data-name="Trazado 873157" d="M263.13,338.947V331.1h4.123v1.152H264.6v1.978h2.449v1.151H264.6V337.8h2.657v1.151Z" fill="#1d1d1b"/>
    <path id="Trazado_873158" data-name="Trazado 873158" d="M269.694,333.651h.021a1.269,1.269,0,0,1,1.225-.764,1.287,1.287,0,0,1,1.36,1.507v4.553h-1.36v-3.936c0-.575-.063-.952-.576-.973s-.691.461-.67,1.088v3.821h-1.36v-5.9h1.36Z" fill="#1d1d1b"/>
    <path id="Trazado_873159" data-name="Trazado 873159" d="M275.567,338.967c-.8.094-1.936.167-1.936-.931v-4h-.554v-.994h.543v-1.622h1.372v1.622h.575v.994h-.575V337.7c.031.251.408.22.575.2Z" fill="#1d1d1b"/>
    <path id="Trazado_873160" data-name="Trazado 873160" d="M277.777,334.09h.021a1.944,1.944,0,0,1,.534-.837,1.165,1.165,0,0,1,.848-.314v1.611c-.754-.072-1.33.116-1.35.984v3.412h-1.362v-5.9h1.309Z" fill="#1d1d1b"/>
    <path id="Trazado_873161" data-name="Trazado 873161" d="M281,333.043l.6,3.13c.1.523.147,1.046.2,1.57h.022a14.707,14.707,0,0,1,.208-1.529l.6-3.171h1.382l-1.435,5.987c-.345,1.34-.376,2.177-2.26,1.9v-1.057c.22,0,.806.115.806-.262a3.857,3.857,0,0,0-.125-.753l-1.424-5.82Z" fill="#1d1d1b"/>
    <path id="Trazado_873162" data-name="Trazado 873162" d="M287.084,330.909a10.306,10.306,0,0,0-.994,5.285,10.1,10.1,0,0,0,1.015,4.826h-.869a8.76,8.76,0,0,1-1.527-5.255,7.844,7.844,0,0,1,1.527-4.856Z" fill="#1d1d1b"/>
    <path id="Trazado_873163" data-name="Trazado 873163" d="M289.88,333.5h-1.769v-1.046c1.015-.011,1.863-.283,2.156-1.361h1.078v7.849H289.88Z" fill="#1d1d1b"/>
    <path id="Trazado_873164" data-name="Trazado 873164" d="M293.45,341.019a10.309,10.309,0,0,0,.994-5.285,10.094,10.094,0,0,0-1.016-4.826h.87a8.767,8.767,0,0,1,1.527,5.255,7.844,7.844,0,0,1-1.527,4.856Z" fill="#1d1d1b"/>
    <line id="Línea_4703" data-name="Línea 4703" y1="29.696" transform="translate(276.071 341.782)" fill="none" stroke="#1d1d1b" stroke-miterlimit="3.864" stroke-width="0.884"/>
    <path id="Trazado_873165" data-name="Trazado 873165" d="M273.717,372.858a2.355,2.355,0,1,1,2.355,2.355,2.356,2.356,0,0,1-2.355-2.355" fill="#1d1d1b"/>
    <path id="Trazado_873166" data-name="Trazado 873166" d="M257.507,376.248h1.361v1.235h-1.361Zm0,1.947h1.361v5.9h-1.361Z" fill="#1d1d1b"/>
    <path id="Trazado_873167" data-name="Trazado 873167" d="M259.863,379.189V378.2h.523v-.586c0-1.067.439-1.361,1.434-1.361h.513v1.089a1.231,1.231,0,0,0-.3-.063c-.2,0-.283.1-.283.23v.691h.587v.994h-.587V384.1h-1.36v-4.909Z" fill="#1d1d1b"/>
    <path id="Trazado_873168" data-name="Trazado 873168" d="M263.307,384.1v-7.849h3.057a1.816,1.816,0,0,1,1.517.89,5.482,5.482,0,0,1,.429,2.71c0,1.549,0,3.339-1.2,4.041a2.158,2.158,0,0,1-1.088.208Zm2.1-1.151c1.309,0,1.392-.691,1.392-2.962,0-1.852-.189-2.585-1.067-2.585h-.964v5.547Z" fill="#1d1d1b"/>
    <path id="Trazado_873169" data-name="Trazado 873169" d="M269.505,380.225a1.844,1.844,0,0,1,1.988-2.187c1.895,0,2.093.983,2.093,2.6v.8h-2.72v.858c.01.775.3.921.711.921.5,0,.649-.366.628-1.109h1.361c.052,1.319-.492,2.156-1.884,2.156-1.57,0-2.209-.743-2.177-2.481Zm2.721.157v-.513c-.01-.6-.167-.785-.711-.785-.681,0-.649.523-.649,1.057v.241Z" fill="#1d1d1b"/>
    <path id="Trazado_873170" data-name="Trazado 873170" d="M275.849,382.151c-.1,1.088.314,1.057.628,1.057a.526.526,0,0,0,.565-.659c-.021-.335-.408-.524-.67-.7l-.743-.513a2.172,2.172,0,0,1-1.12-1.862c0-.911.723-1.434,2.031-1.434a1.683,1.683,0,0,1,1.894,1.957h-1.36c.031-.66-.157-.911-.629-.911-.324,0-.575.147-.575.482s.251.5.512.68l1.11.753a2.112,2.112,0,0,1,.932,1.162c.115,1.026-.136,2.094-2.02,2.094a1.765,1.765,0,0,1-1.915-2.1Z" fill="#1d1d1b"/>
    <path id="Trazado_873171" data-name="Trazado 873171" d="M281.691,380.246v-.659c-.021-.325-.178-.5-.471-.5-.523,0-.523.6-.513,1.319V381.8c-.031,1.151.105,1.361.513,1.413.419-.011.43-.4.471-.869V381.8h1.36v.544c0,1.235-.512,1.916-1.862,1.916-1.2,0-1.894-.639-1.842-2.208v-1.916c-.011-1.654.806-2.093,1.842-2.093a1.648,1.648,0,0,1,1.862,1.737v.471Z" fill="#1d1d1b"/>
    <path id="Trazado_873172" data-name="Trazado 873172" d="M286.4,376.06a10.306,10.306,0,0,0-.994,5.285,10.1,10.1,0,0,0,1.015,4.826h-.869a8.76,8.76,0,0,1-1.527-5.255,7.844,7.844,0,0,1,1.527-4.856Z" fill="#1d1d1b"/>
    <path id="Trazado_873173" data-name="Trazado 873173" d="M287.3,384.1a11.406,11.406,0,0,1,.126-1.329,4.7,4.7,0,0,1,1.381-2.208l.711-.754a1.872,1.872,0,0,0,.723-1.507c0-.712-.282-.931-.7-.931a.644.644,0,0,0-.68.386,3.024,3.024,0,0,0-.116,1.11h-1.371v-.22c0-.69-.032-2.449,2.23-2.428a1.954,1.954,0,0,1,2.1,2.03,2.9,2.9,0,0,1-.932,2.146l-1.151,1.193a2.3,2.3,0,0,0-.764,1.361h2.731V384.1Z" fill="#1d1d1b"/>
    <path id="Trazado_873174" data-name="Trazado 873174" d="M292.769,386.17a10.307,10.307,0,0,0,.994-5.285,10.1,10.1,0,0,0-1.015-4.826h.869a8.767,8.767,0,0,1,1.527,5.255,7.846,7.846,0,0,1-1.527,4.856Z" fill="#1d1d1b"/>
    <line id="Línea_4704" data-name="Línea 4704" y1="29.696" x2="62.793" transform="translate(213.279 341.782)" fill="none" stroke="#1d1d1b" stroke-miterlimit="3.864" stroke-width="0.884"/>
    <path id="Trazado_873175" data-name="Trazado 873175" d="M210.924,372.858a2.355,2.355,0,1,1,2.355,2.355,2.356,2.356,0,0,1-2.355-2.355" fill="#1d1d1b"/>
    <path id="Trazado_873176" data-name="Trazado 873176" d="M193.755,376.248h1.361v1.235h-1.361Zm0,1.947h1.361v5.9h-1.361Z" fill="#1d1d1b"/>
    <path id="Trazado_873177" data-name="Trazado 873177" d="M196.111,379.189V378.2h.523v-.586c0-1.067.439-1.361,1.434-1.361h.513v1.089a1.231,1.231,0,0,0-.3-.063c-.2,0-.283.1-.283.23v.691h.587v.994h-.587V384.1h-1.36v-4.909Z" fill="#1d1d1b"/>
    <rect id="Rectángulo_402881" data-name="Rectángulo 402881" width="1.465" height="7.85" transform="translate(199.524 376.248)" fill="#1d1d1b"/>
    <path id="Trazado_873178" data-name="Trazado 873178" d="M203.712,378.8h.021a1.269,1.269,0,0,1,1.225-.764,1.287,1.287,0,0,1,1.36,1.507V384.1h-1.36v-3.936c0-.575-.063-.952-.576-.973s-.691.461-.67,1.088V384.1h-1.36v-5.9h1.36Z" fill="#1d1d1b"/>
    <path id="Trazado_873179" data-name="Trazado 873179" d="M210.118,383.469H210.1a1.181,1.181,0,0,1-1.172.786c-1.151,0-1.392-1.047-1.423-1.989v-2.135c.031-1.622.543-2.072,1.423-2.093a1.17,1.17,0,0,1,1.214.754h.02a2.993,2.993,0,0,1-.041-.524v-2.02h1.36v7.85h-1.36Zm0-3.076c.021-.471,0-1.309-.639-1.309s-.576.555-.617,1.142v1.967c.031.565.178,1.015.6,1.015.439,0,.659-.366.659-1.046Z" fill="#1d1d1b"/>
    <path id="Trazado_873180" data-name="Trazado 873180" d="M212.737,380.225a1.844,1.844,0,0,1,1.988-2.187c1.895,0,2.093.983,2.093,2.6v.8H214.1v.858c.01.775.3.921.711.921.5,0,.649-.366.628-1.109H216.8c.052,1.319-.492,2.156-1.884,2.156-1.57,0-2.209-.743-2.177-2.481Zm2.721.157v-.513c-.01-.6-.167-.785-.711-.785-.68,0-.649.523-.649,1.057v.241Z" fill="#1d1d1b"/>
    <path id="Trazado_873181" data-name="Trazado 873181" d="M217.574,378.2h1.6l.45,1.067a4.829,4.829,0,0,1,.147.534h.02c.043-.189.106-.367.168-.555l.482-1.046h1.507l-1.476,2.857,1.508,3.045h-1.529l-.408-.952a3.213,3.213,0,0,1-.272-.869h-.021a3.675,3.675,0,0,1-.3.943l-.387.878H217.5l1.559-3.014Z" fill="#1d1d1b"/>
    <path id="Trazado_873182" data-name="Trazado 873182" d="M224.985,376.06a10.307,10.307,0,0,0-.994,5.285,10.1,10.1,0,0,0,1.015,4.826h-.869a8.761,8.761,0,0,1-1.528-5.255,7.845,7.845,0,0,1,1.528-4.856Z" fill="#1d1d1b"/>
    <path id="Trazado_873183" data-name="Trazado 873183" d="M227.781,378.655h-1.77v-1.047c1.016-.01,1.864-.282,2.157-1.36h1.078V384.1h-1.465Z" fill="#1d1d1b"/>
    <path id="Trazado_873184" data-name="Trazado 873184" d="M231.352,386.17a10.307,10.307,0,0,0,.994-5.285,10.093,10.093,0,0,0-1.016-4.826h.87a8.768,8.768,0,0,1,1.528,5.255,7.846,7.846,0,0,1-1.528,4.856Z" fill="#1d1d1b"/>
    <line id="Línea_4705" data-name="Línea 4705" x1="67.424" y1="29.696" transform="translate(276.072 341.782)" fill="none" stroke="#1d1d1b" stroke-miterlimit="3.864" stroke-width="0.884"/>
    <path id="Trazado_873185" data-name="Trazado 873185" d="M341.141,372.858a2.355,2.355,0,1,1,2.355,2.355,2.356,2.356,0,0,1-2.355-2.355" fill="#1d1d1b"/>
    <path id="Trazado_873186" data-name="Trazado 873186" d="M325.675,376.248h1.36v1.235h-1.36Zm0,1.947h1.36v5.9h-1.36Z" fill="#1d1d1b"/>
    <path id="Trazado_873187" data-name="Trazado 873187" d="M328.03,379.189V378.2h.523v-.586c0-1.067.44-1.361,1.435-1.361h.512v1.089a1.224,1.224,0,0,0-.3-.063c-.2,0-.282.1-.282.23v.691h.585v.994h-.585V384.1h-1.362v-4.909Z" fill="#1d1d1b"/>
    <path id="Trazado_873188" data-name="Trazado 873188" d="M330.9,376.248h4.887V377.4h-1.705v6.7h-1.466v-6.7H330.9Z" fill="#1d1d1b"/>
    <path id="Trazado_873189" data-name="Trazado 873189" d="M336.867,378.2l.6,3.129c.1.523.146,1.046.2,1.57h.021a14.7,14.7,0,0,1,.208-1.528l.6-3.171h1.381l-1.435,5.986c-.345,1.34-.376,2.177-2.26,1.9v-1.057c.22,0,.807.115.807-.262a3.885,3.885,0,0,0-.126-.753l-1.425-5.819Z" fill="#1d1d1b"/>
    <path id="Trazado_873190" data-name="Trazado 873190" d="M342,378.812h.021a1.127,1.127,0,0,1,1.182-.774c.879.02,1.381.492,1.412,2.113v2.135c-.031.943-.26,1.968-1.412,1.968a1.321,1.321,0,0,1-1.246-.764h-.021v2.586h-1.3V378.2H342Zm0,3.349c0,.68.219,1.046.659,1.046.418,0,.565-.45.6-1.015v-1.967c-.041-.586.021-1.141-.616-1.141s-.66.837-.639,1.308Z" fill="#1d1d1b"/>
    <path id="Trazado_873191" data-name="Trazado 873191" d="M345.817,380.225a1.846,1.846,0,0,1,1.989-2.187c1.9,0,2.094.983,2.094,2.6v.8h-2.722v.858c.01.775.3.921.713.921.5,0,.649-.366.627-1.109h1.362c.051,1.319-.492,2.156-1.886,2.156-1.569,0-2.208-.743-2.177-2.481Zm2.723.157v-.513c-.012-.6-.167-.785-.713-.785-.68,0-.649.523-.649,1.057v.241Z" fill="#1d1d1b"/>
    <path id="Trazado_873192" data-name="Trazado 873192" d="M353.418,376.06a10.319,10.319,0,0,0-.993,5.285,10.1,10.1,0,0,0,1.015,4.826h-.87a8.774,8.774,0,0,1-1.527-5.255,7.85,7.85,0,0,1,1.527-4.856Z" fill="#1d1d1b"/>
    <path id="Trazado_873193" data-name="Trazado 873193" d="M355.775,379.325a2.722,2.722,0,0,0,.92-.115.93.93,0,0,0,.451-.963c0-.6-.219-.879-.7-.879a.618.618,0,0,0-.7.617v.555h-1.373c-.082-1.455.567-2.323,2.063-2.323a1.857,1.857,0,0,1,2.134,2.02c0,.68-.26,1.507-1.025,1.621v.022c.69.084,1.2.7,1.182,1.9,0,1.539-.669,2.471-2.28,2.471a1.973,1.973,0,0,1-2.167-2.3v-.46h1.371c.031.649-.1,1.611.827,1.611.806,0,.785-.753.785-1.486a1.494,1.494,0,0,0-.167-.827c-.273-.324-.912-.313-1.319-.313Z" fill="#1d1d1b"/>
    <path id="Trazado_873194" data-name="Trazado 873194" d="M359.784,386.17a10.319,10.319,0,0,0,.993-5.285,10.081,10.081,0,0,0-1.015-4.826h.87a8.768,8.768,0,0,1,1.528,5.255,7.846,7.846,0,0,1-1.528,4.856Z" fill="#1d1d1b"/>
  </g>
</svg>
